<?xml version="1.0" encoding="UTF-8"?><svg version="1.1" width="850px" height="400px" viewBox="0 0 850.0 400.0" xmlns="http://www.w3.org/2000/svg" xmlns:xlink="http://www.w3.org/1999/xlink"><defs><clipPath id="i0"><path d="M850,0 L850,400 L0,400 L0,0 L850,0 Z"></path></clipPath><clipPath id="i1"><path d="M435,0 C437.761424,-5.07265313e-16 440,2.23857625 440,5 L440,265 C440,267.761424 437.761424,270 435,270 L5,270 C2.23857625,270 -3.2145368e-15,267.761424 0,265 L0,5 C-3.38176876e-16,2.23857625 2.23857625,-7.48634046e-15 5,0 L435,0 Z"></path></clipPath><clipPath id="i2"><path d="M25.9471465,0 C26.1809908,0 26.4257752,0.0109400849 26.6596195,0.0423928292 C26.9044039,0.075213084 27.1286756,0.117605913 27.3515799,0.159998742 C27.5649115,0.213331656 27.7673031,0.266664571 27.9587546,0.329570059 C28.1502061,0.393843058 28.2992647,0.458116057 28.4059306,0.522389056 C28.5549892,0.607174715 28.6616551,0.691960373 28.7245605,0.787686116 C28.7888335,0.872471775 28.8202863,0.990077688 28.8202863,1.13913635 L28.8202863,1.63964523 C28.8202863,1.86391697 28.7355006,1.98015538 28.5755019,1.98015538 C28.4907162,1.98015538 28.3525977,1.93776255 28.1720862,1.85297689 C27.5649115,1.57537223 26.8838912,1.43725366 26.1276579,1.43725366 C25.5218507,1.43725366 25.043222,1.5329794 24.7122844,1.73537097 C24.3827143,1.93776255 24.2117755,2.24681995 24.2117755,2.68305583 C24.2117755,2.98117315 24.3184413,3.23689763 24.531773,3.43928921 C24.7451046,3.64168078 25.1389477,3.84407235 25.7023621,4.02458375 L27.2134613,4.50457998 C27.9806348,4.74936438 28.5331091,5.08987452 28.8626791,5.52611041 C29.1936167,5.9623463 29.3522479,6.46285518 29.3522479,7.01669698 C29.3522479,7.47481304 29.2565222,7.89053627 29.0760108,8.25155907 C28.8845593,8.61394939 28.6288348,8.93394687 28.2992647,9.18967136 C27.9696947,9.45496842 27.5758516,9.64778741 27.1177356,9.78590599 C26.6391068,9.93496464 26.138598,10.0088102 25.5956962,10.0088102 C25.043222,10.0088102 24.4893802,9.94590473 23.9574185,9.81735873 C23.4254569,9.69018024 23.0097337,9.55069416 22.7334965,9.39206293 C22.5625577,9.29633718 22.4463193,9.18967136 22.402559,9.09394561 C22.3601661,8.99821987 22.3396535,8.89155404 22.3396535,8.7958283 L22.3396535,8.25155907 C22.3396535,8.02865484 22.4244391,7.92198901 22.5844379,7.92198901 C22.6473434,7.92198901 22.7116163,7.9329291 22.7758893,7.95344176 C22.8401623,7.97532193 22.9358881,8.01771476 23.0411864,8.06010758 C23.4035767,8.22010633 23.7974198,8.34865233 24.2117755,8.43343798 C24.6384388,8.51822364 25.0527945,8.56061647 25.4794578,8.56061647 C26.149538,8.56061647 26.6705596,8.44437807 27.0329499,8.20916624 C27.3939727,7.97532193 27.5867917,7.63481178 27.5867917,7.1985759 C27.5867917,6.90045858 27.491066,6.65567418 27.298247,6.45328261 C27.1067955,6.25089104 26.7457727,6.06901212 26.2233836,5.89944081 L24.6808316,5.41944458 C23.9040856,5.17466018 23.3297311,4.81226987 22.9782809,4.33364115 C22.6268307,3.86458501 22.4463193,3.34356346 22.4463193,2.78972166 C22.4463193,2.34254569 22.542045,1.94870263 22.7334965,1.60819249 C22.924948,1.26768234 23.1806725,0.969565028 23.4993025,0.734353202 C23.8193,0.489568801 24.1803228,0.3090574 24.6056186,0.180511402 C25.0322819,0.0533329141 25.4794578,0 25.9471465,0 Z M4.00133607,0.0218801699 C5.2676509,0.0218801699 6.1948231,0.3090574 6.78969022,0.883411859 C7.37498476,1.45913383 7.67310208,2.3316056 7.67310208,3.5035622 L7.67310208,6.95379149 L7.69498225,6.95379149 C7.69498225,7.34763455 7.73737508,7.66626453 7.81122065,7.90147635 C7.89737382,8.13532067 8.00403965,8.39104515 8.15309831,8.6672823 C8.20506371,8.75206796 8.22694388,8.83822113 8.22694388,8.9120667 C8.22694388,9.01873253 8.16267088,9.12539836 8.02455231,9.23206418 L7.35447211,9.67924016 C7.25874636,9.74351316 7.16302062,9.7749659 7.07686745,9.7749659 C6.97156913,9.7749659 6.8649033,9.72163299 6.75823748,9.62590724 C6.60917882,9.4659085 6.48200033,9.29633718 6.3753345,9.12539836 C6.26866867,8.94488695 6.16200285,8.74249538 6.04576444,8.49771098 C5.2156855,9.47684859 4.1722749,9.96641739 2.91553264,9.96641739 C2.0225482,9.96641739 1.30870766,9.7106929 0.787686116,9.19924393 C0.266664571,8.68916247 0,8.00677467 0,7.15481556 C0,6.25089104 0.319997485,5.51517032 0.968197518,4.96132852 C1.61776506,4.40885423 2.47929675,4.13124958 3.57604027,4.13124958 C3.93843058,4.13124958 4.31039347,4.16270232 4.70423653,4.21603524 C5.09807959,4.26936815 5.50286273,4.35552132 5.92815853,4.45124706 L5.92815853,3.67313352 C5.92815853,2.86493475 5.7572197,2.30015286 5.42764964,1.96921529 C5.0871395,1.63964523 4.51278504,1.47964649 3.69364618,1.47964649 C3.32031578,1.47964649 2.93741281,1.52203932 2.54356975,1.61913257 C2.14972669,1.71485832 1.76682372,1.83109672 1.39486083,1.98015538 C1.223922,2.05536846 1.09674352,2.09776129 1.02153043,2.11827395 C0.947684859,2.14015412 0.894351944,2.1510942 0.851959115,2.1510942 C0.702900458,2.1510942 0.627687374,2.04442837 0.627687374,1.82015663 L0.627687374,1.29913509 C0.627687374,1.12819626 0.649567544,1.00101777 0.702900458,0.925804689 C0.756233372,0.851959115 0.851959115,0.776746031 1.00101777,0.702900458 C1.37298066,0.511448971 1.82015663,0.351450229 2.34117818,0.224271741 C2.86356723,0.0847856583 3.41604152,0.0218801699 4.00133607,0.0218801699 Z M9.9937676,0.276237145 C10.1961592,0.276237145 10.3342777,0.3090574 10.4081233,0.382902973 C10.4942765,0.447175972 10.557182,0.59623463 10.621455,0.798626201 L12.4101589,7.84814344 L14.0703168,0.798626201 C14.1236497,0.585294545 14.1865552,0.447175972 14.2727083,0.382902973 C14.357494,0.319997485 14.5065526,0.276237145 14.6980041,0.276237145 L15.5485957,0.276237145 C15.7509873,0.276237145 15.8891059,0.3090574 15.975259,0.382902973 C16.0600447,0.447175972 16.1338903,0.59623463 16.1776506,0.798626201 L17.8583212,7.9329291 L19.700358,0.798626201 C19.7632635,0.585294545 19.8384765,0.447175972 19.9123221,0.382902973 C19.9984753,0.319997485 20.1365939,0.276237145 20.3280453,0.276237145 L21.318123,0.276237145 C21.4876943,0.276237145 21.5834201,0.362390314 21.5834201,0.542901715 C21.5834201,0.59623463 21.57248,0.649567544 21.5629074,0.713840543 C21.5519673,0.776746031 21.5300872,0.8628992 21.4876943,0.979137603 L18.9236119,9.21018401 C18.8593389,9.42351567 18.7841259,9.56163424 18.6993402,9.62590724 C18.6145545,9.69018024 18.476436,9.73257307 18.2945571,9.73257307 L17.3796924,9.73257307 C17.1773009,9.73257307 17.0391823,9.69975282 16.9543966,9.62590724 C16.8682435,9.55069416 16.7943979,9.41257559 16.7520051,9.19924393 L15.1027873,2.3316056 L13.463142,9.18967136 C13.4098091,9.4016355 13.3455361,9.54112158 13.2607505,9.61496716 C13.1759648,9.69018024 13.0269062,9.72163299 12.8354547,9.72163299 L11.9205901,9.72163299 C11.7277711,9.72163299 11.6005926,9.69018024 11.5158069,9.61496716 C11.4310213,9.55069416 11.3558082,9.4016355 11.2915352,9.19924393 L8.79035825,0.969565028 C8.72745277,0.756233372 8.69463251,0.6181148 8.69463251,0.542901715 C8.69463251,0.373330399 8.78078568,0.276237145 8.950357,0.276237145 L9.9937676,0.276237145 Z M3.96988333,5.39893192 C3.25741029,5.39893192 2.73502124,5.53705049 2.38357101,5.82422772 C2.03348829,6.11140495 1.86254946,6.5161881 1.86254946,7.04951724 C1.86254946,7.55002612 1.98972795,7.92198901 2.25639252,8.1777135 C2.51211701,8.44437807 2.88407989,8.57155656 3.3736487,8.57155656 C3.72509892,8.57155656 4.08748924,8.50728356 4.47039221,8.38010507 C4.85329518,8.25155907 5.19380533,8.01771476 5.48098256,7.69908478 C5.65192139,7.49669321 5.77909987,7.27242147 5.84337287,7.01669698 C5.90627836,6.7609725 5.9500387,6.45328261 5.9500387,6.09089229 L5.9500387,5.64371632 C5.6409813,5.56850324 5.31141124,5.50559775 4.9709011,5.46183741 C4.62902344,5.41944458 4.29945338,5.39893192 3.96988333,5.39893192 Z"></path></clipPath><clipPath id="i3"><path d="M0.503425304,0.0697372198 C5.01621034,2.68988756 10.5819786,4.27619988 16.3405658,4.27619988 C20.2242959,4.27619988 24.4922966,3.4666336 28.4197871,1.80647571 C29.0050816,1.53981113 29.5055905,2.18937868 28.931236,2.61467448 C25.4290413,5.20337208 20.3419018,6.57635274 15.9672354,6.57635274 C9.83805279,6.57635274 4.31330989,4.30765263 0.142402501,0.538793362 C-0.188535069,0.240676047 0.109582246,-0.164107096 0.503425304,0.0697372198 Z"></path></clipPath><clipPath id="i4"><path d="M5.87523508,0.437908087 C6.25950556,0.916536803 5.76993676,4.20676735 3.89644721,5.78350709 C3.60926998,6.02829149 3.33166533,5.8997455 3.46021133,5.58111552 C3.88550713,4.52676484 4.83319199,2.15139889 4.38601602,1.58798452 C3.93884004,1.01226255 1.42672304,1.31037986 0.288954203,1.44986594 C-0.051555941,1.49225877 -0.104888855,1.19414146 0.202801034,0.969869717 C2.20346907,-0.435931198 5.49233211,-0.0311480554 5.87523508,0.437908087 Z"></path></clipPath><clipPath id="i5"><path d="M145,0 C147.761424,-5.07265313e-16 150,2.23857625 150,5 L150,265 C150,267.761424 147.761424,270 145,270 L5,270 C2.23857625,270 -5.50001544e-16,267.761424 0,265 L0,5 C-3.38176876e-16,2.23857625 2.23857625,-7.48634046e-15 5,0 L145,0 Z"></path></clipPath><clipPath id="i6"><path d="M2.78043333,0 L2.78043333,1.46348001 L0,1.46348001 L0,0.0160821979 C0.18226491,0.200134018 0.400268037,0.355595265 0.645074827,0.452088452 C0.880947063,0.548581639 1.13468841,0.591467501 1.38664284,0.591467501 C1.64038419,0.591467501 1.88340407,0.548581639 2.1192763,0.452088452 C2.34442707,0.357382176 2.55349564,0.226937681 2.72861291,0.0607549698 C2.74469511,0.0428858611 2.76256422,0.0178691088 2.78043333,0 Z"></path></clipPath><clipPath id="i7"><path d="M1.88260907,0.000988288879 C2.13635042,-0.00794626551 2.38830485,0.0438741499 2.61524253,0.149301892 C2.84218021,0.236860525 3.04231423,0.367305019 3.2174315,0.53348773 C3.3818273,0.699670442 3.52120635,0.89980446 3.61769953,1.11780759 C3.72312728,1.33581071 3.77494769,1.56989604 3.77494769,1.81470283 C3.77494769,2.05772271 3.72312728,2.29359495 3.61769953,2.52053263 C3.5301409,2.713519 3.41756552,2.88684936 3.26925191,3.04409751 C3.25316971,3.06196662 3.23530061,3.08698337 3.2174315,3.10485248 C3.03516659,3.26924828 2.83503257,3.39969278 2.60809489,3.49618597 C2.37222265,3.59267915 2.12741586,3.63556501 1.87546143,3.63556501 C1.62172008,3.63556501 1.36976565,3.59267915 1.13389341,3.49618597 C0.889086624,3.39254513 0.672870407,3.24423153 0.497753141,3.06017971 C0.349439539,2.90293155 0.227929599,2.72781429 0.140370966,2.52768027 C0.0438777784,2.30967714 0.000991917333,2.06665726 0.000991917333,1.82185047 C-0.00794263706,1.58776515 0.0438777784,1.34295836 0.140370966,1.12495523 C0.235077242,0.906952104 0.365521736,0.706818086 0.540639002,0.540635374 C0.898021178,0.201122307 1.37691329,0.00992284327 1.88260907,0.000988288879 Z"></path></clipPath><clipPath id="i8"><path d="M0.8541434,0.105494294 C1.10788474,6.65523088e-05 1.38664284,-0.0267371109 1.65646638,0.0268702155 C1.92628993,0.0804775418 2.17109672,0.210922036 2.36229618,0.4021215 C2.55349564,0.593320964 2.68394014,0.838127754 2.726826,1.09722983 C2.77864642,1.36705337 2.75362966,1.64759838 2.64820192,1.89955282 C2.54277418,2.15150725 2.36944382,2.36951038 2.14250614,2.51782398 C1.91556846,2.67507214 1.64574492,2.75369622 1.37592138,2.75369622 C1.00960465,2.75369622 0.661157025,2.61431717 0.400268037,2.35342818 C0.148313603,2.09253919 0,1.74409157 0,1.37777484 C0,1.1079513 0.087558633,0.838127754 0.235872236,0.611190073 C0.384185839,0.384252391 0.600402055,0.210922036 0.8541434,0.105494294 Z"></path></clipPath><clipPath id="i9"><path d="M0.8541434,0.105494294 C1.10788474,6.65523088e-05 1.38664284,-0.0267371109 1.65646638,0.0268702155 C1.92628993,0.0804775418 2.17109672,0.210922036 2.36229618,0.4021215 C2.55528256,0.593320964 2.68572705,0.838127754 2.73754746,1.1079513 C2.78936788,1.37777484 2.76435113,1.65831985 2.65892339,1.91027428 C2.55349564,2.16222871 2.38016529,2.38023184 2.14250614,2.51782398 C1.91556846,2.67507214 1.64574492,2.75369622 1.37592138,2.75369622 C1.00960465,2.75369622 0.661157025,2.61431717 0.400268037,2.35342818 C0.148313603,2.09253919 0,1.74409157 0,1.37777484 C0,1.1079513 0.087558633,0.838127754 0.235872236,0.611190073 C0.384185839,0.384252391 0.602188966,0.210922036 0.8541434,0.105494294 Z"></path></clipPath><clipPath id="i10"><path d="M2.88407416,0 L2.88407416,2.74648202 L0,2.74648202 L0,0 L2.88407416,0 Z"></path></clipPath><clipPath id="i11"><path d="M11.2789815,0 C14.3721242,0 16.882734,2.51060978 16.882734,5.60375251 C16.882734,8.69868215 14.3631896,11.2092919 11.2700469,11.2003574 L11.2432432,11.2003574 C11.3468841,11.4004914 11.4862631,11.5827563 11.6613804,11.7400045 C12.0795175,12.1313379 12.6549028,12.3493411 13.2481572,12.3493411 L13.2481572,15.0922493 C11.9830243,15.0922493 10.7643511,14.6651776 9.81371454,13.9075274 L9.81371454,15.4335493 L7.05115032,15.4335493 L7.05115032,13.9164619 C6.10051374,14.6741121 4.88005361,15.1011838 3.61670762,15.1011838 L3.61670762,12.3564887 C4.20996203,12.3493411 4.78534733,12.1313379 5.20348448,11.7471521 C5.37681483,11.5916909 5.51619388,11.407639 5.62162162,11.207505 L5.59481796,11.207505 C2.51060978,11.207505 0,8.69689524 0,5.60375251 C0,2.51060978 2.51060978,0 5.60375251,0 Z M11.26826,2.76256422 L5.59481796,2.76256422 C4.02591021,2.76256422 2.75362966,4.03484476 2.75362966,5.60375251 C2.75362966,7.17266026 4.02591021,8.44494081 5.59481796,8.44494081 L11.26826,8.44494081 C12.8371677,8.44494081 14.1094483,7.17266026 14.1094483,5.60375251 C14.1094483,4.03484476 12.8371677,2.76256422 11.26826,2.76256422 Z"></path></clipPath><clipPath id="i12"><path d="M2.88407416,0 L2.88407416,2.74648202 L0,2.74648202 L0,0 L2.88407416,0 Z"></path></clipPath><clipPath id="i13"><path d="M2.77149877,0 L2.77149877,2.91087782 L0,2.91087782 L0,0 L2.77149877,0 Z"></path></clipPath><clipPath id="i14"><path d="M0.816618271,0 L0.816618271,0.859504132 L0,0.859504132 L0,0 L0.816618271,0 Z"></path></clipPath><clipPath id="i15"><path d="M0.821979004,0 L0.821979004,1.37592138 L0,1.37592138 L0,1.27942819 C0.148313603,1.21152558 0.282331919,1.11860621 0.400268037,1.002457 C0.668304668,0.736207282 0.821979004,0.377038195 0.821979004,0 Z"></path></clipPath><clipPath id="i16"><path d="M0.852356489,0 L0.852356489,0.811257539 L0,0.811257539 L0,0 L0.852356489,0 Z"></path></clipPath><clipPath id="i17"><path d="M0.813044449,0 L0.813044449,0.813044449 L0,0.813044449 L0,0 L0.813044449,0 Z"></path></clipPath><clipPath id="i18"><path d="M0.821979004,0 L0.821979004,0.0964931874 C0.675452312,0.164395801 0.537860174,0.259102077 0.421710967,0.373464373 C0.153674335,0.639714094 0,0.998883181 0,1.37592138 L0,0 L0.821979004,0 Z"></path></clipPath><clipPath id="i19"><path d="M1.63144963,0 C1.93522448,0 2.2175564,0.0857717221 2.46236319,0.228724592 L2.46236319,0.0393120393 L3.27898146,0.0393120393 L3.27898146,3.73464373 L2.46236319,3.73464373 L2.46236319,3.03417467 C2.2175564,3.18070136 1.93522448,3.26289926 1.63144963,3.26289926 C0.73263346,3.26289926 0,2.5302658 0,1.63144963 C0,0.73263346 0.73263346,0 1.63144963,0 Z M1.63144963,0.809470628 C1.17757427,0.809470628 0.805896806,1.17936118 0.805896806,1.63502345 C0.805896806,2.08889882 1.17578736,2.46057628 1.63144963,2.46057628 C2.08711191,2.46057628 2.45700246,2.08889882 2.45700246,1.63502345 C2.45700246,1.18114809 2.08532499,0.809470628 1.63144963,0.809470628 Z"></path></clipPath><clipPath id="i20"><path d="M0.405430224,1.24065193e-06 L0.486039759,0.00787688489 C0.564663837,0.0239590828 0.637927183,0.0632711221 0.695108331,0.12045227 C0.75228948,0.175846507 0.791601519,0.249109853 0.805896806,0.327733932 C0.821979004,0.406358011 0.81483136,0.488555911 0.782666964,0.563606168 C0.750502569,0.636869514 0.698682153,0.699411395 0.632566451,0.745871077 C0.566450748,0.790543849 0.48782667,0.813773691 0.40741568,0.813773691 C0.298414117,0.813773691 0.194773286,0.772674741 0.117936118,0.695837573 C0.0428858611,0.619000405 0,0.513572663 0,0.406358011 C0,0.327733932 0.0214429305,0.247322943 0.0679026134,0.18120724 C0.110788474,0.113304627 0.175117266,0.0632711221 0.250167523,0.0311067263 C0.323430869,0.00072924138 0.405628769,-0.00820531301 0.486039759,0.00787688489 Z"></path></clipPath><clipPath id="i21"><path d="M0.836274291,0 L0.836274291,1.15970516 L1.80835381,1.15970516 L1.80835381,1.97632343 L0.836274291,1.97632343 L0.836274291,3.00737101 C0.836274291,3.16640608 0.902389993,3.32186732 1.02032611,3.43622962 C1.13647532,3.55059191 1.2972973,3.61492071 1.46348001,3.61492071 L1.46348001,4.42796516 C1.07393344,4.42796516 0.702255975,4.27786464 0.428858611,4.01340183 C0.155461246,3.7453652 0,3.38798302 0,3.01094483 L0,0 L0.836274291,0 Z"></path></clipPath><clipPath id="i22"><path d="M0.816618271,0 L0.816618271,0.132231405 C1.00424391,0.0464596828 1.20973866,0 1.41880724,0 L1.41880724,0.796962252 C1.25798526,0.796962252 1.10252401,0.859504132 0.988161715,0.972079518 C0.893455439,1.06321197 0.836274291,1.182935 0.816618271,1.30801876 L0.816618271,3.18070136 L0,3.18070136 L0,0 L0.816618271,0 Z"></path></clipPath><clipPath id="i23"><path d="M2.87871342,0 L2.87871342,1.8065669 C2.87871342,2.18181818 2.726826,2.54277418 2.45700246,2.8090239 C2.34085325,2.92517311 2.20504802,3.01987938 2.05852133,3.087782 C1.86732187,3.17712754 1.65646638,3.22537413 1.44025017,3.22537413 C1.05785124,3.22537413 0.69153451,3.07706053 0.421710967,2.81081081 C0.153674335,2.54456109 0,2.185392 0,1.80835381 L0,0.00178691088 L0.821979004,0.00178691088 L0.821979004,1.80835381 C0.821979004,1.96917579 0.886307795,2.12463703 1.002457,2.23899933 C1.11860621,2.35336163 1.27585437,2.41769042 1.44025017,2.41769042 C1.60464597,2.41769042 1.76189413,2.35336163 1.87804333,2.23899933 C1.99240563,2.12642394 2.05852133,1.9709627 2.05852133,1.80835381 L2.05673442,0 L2.87871342,0 Z"></path></clipPath><clipPath id="i24"><path d="M0.816618271,0 L0.816618271,2.9233862 L0,2.9233862 L0,0.00893455439 L0.0160821979,0.00893455439 C0.139379048,0.058968059 0.271610453,0.0839848113 0.403841858,0.0839848113 C0.537860174,0.0857717221 0.670091579,0.058968059 0.79338843,0.00893455439 L0.816618271,0 Z"></path></clipPath><clipPath id="i25"><path d="M0.557516194,0 C0.632566451,0 0.705829797,0.0160821979 0.77373241,0.0464596828 C0.839848113,0.0714764351 0.902389993,0.110788474 0.952423498,0.160821979 C1.00603082,0.212642394 1.04712977,0.271610453 1.07393344,0.332365423 C1.10431092,0.396694215 1.12039312,0.466383739 1.12039312,0.537860174 C1.12039312,0.609336609 1.10431092,0.680813044 1.07393344,0.746928747 C1.04712977,0.811257539 1.00603082,0.868438687 0.95599732,0.918472191 C0.904176904,0.966718785 0.841635023,1.00603082 0.775519321,1.03283449 C0.707616708,1.05963815 0.636140273,1.07393344 0.559303105,1.07393344 C0.482465937,1.07393344 0.40741568,1.05963815 0.339513067,1.03283449 C0.205494751,0.97744025 0.100067009,0.87558633 0.0428858611,0.745141836 C0.014295287,0.679026134 0,0.609336609 0,0.536073263 C0,0.464596828 0.0160821979,0.396694215 0.0428858611,0.330578512 C0.0696895242,0.266249721 0.110788474,0.209068573 0.160821979,0.159035068 C0.268036632,0.058968059 0.409202591,0.00178691088 0.557516194,0 Z"></path></clipPath><clipPath id="i26"><path d="M2.70761671,0 L2.70761671,0.813044449 L1.03328122,0.813044449 C0.977886978,0.813044449 0.926066562,0.832700469 0.886754523,0.872012508 C0.849229395,0.909537637 0.825999553,0.963144963 0.825999553,1.01496538 C0.825999553,1.04355595 0.831360286,1.07035962 0.842081751,1.09537637 C0.854590127,1.12039312 0.868885414,1.14362296 0.888541434,1.16327898 C0.906410543,1.18114809 0.929640384,1.19723029 0.954657136,1.20616484 C0.979673889,1.21688631 1.00826446,1.22224704 1.03506813,1.22224704 L1.89457226,1.22224704 C2.03037748,1.22046013 2.1643958,1.24547688 2.29305338,1.29372348 C2.41456332,1.33839625 2.52356489,1.40451195 2.62005807,1.48849676 C2.71476435,1.57426848 2.79338843,1.68327005 2.84342193,1.79941925 C2.89345544,1.91735537 2.9202591,2.04422604 2.91847219,2.17288363 C2.91847219,2.30868885 2.89166853,2.44449408 2.83627429,2.56957784 C2.78445388,2.68751396 2.70761671,2.79830243 2.61469734,2.8912218 C2.51999107,2.98235426 2.40920259,3.0556176 2.28769265,3.10743802 C2.16082198,3.15747152 2.02322984,3.18248827 1.88385079,3.18070136 L0.845655573,3.18070136 L0.845655573,2.37123073 L1.88385079,2.37123073 C1.91244137,2.37123073 1.93924503,2.36587 1.96426178,2.35514854 C1.98927853,2.34264016 2.01250838,2.32834487 2.03037748,2.30868885 C2.0500335,2.29081975 2.0661157,2.2675899 2.07683717,2.24436006 C2.08755863,2.22113022 2.09470628,2.19432656 2.09470628,2.16930981 C2.10006701,2.14607996 2.09470628,2.12285012 2.08398481,2.1031941 C2.07147644,2.08175117 2.05539424,2.06566897 2.03573822,2.05494751 C1.98927853,2.03529149 1.93924503,2.02635694 1.88921153,2.02814385 L1.02970739,2.02814385 C0.892115256,2.02814385 0.756310029,2.00312709 0.627652446,1.94773286 C0.506142506,1.89769935 0.393567121,1.82443601 0.300647755,1.73151664 C0.20772839,1.63859727 0.130891222,1.52959571 0.0790708063,1.40808577 C-0.0263569354,1.15434443 -0.0263569354,0.870225597 0.0790708063,0.616484253 C0.130891222,0.494974313 0.20772839,0.38775966 0.300647755,0.294840295 C0.497207952,0.107214653 0.759883851,0 1.03328122,0 L2.70761671,0 Z"></path></clipPath><clipPath id="i27"><path d="M0.832700469,0 L0.832700469,1.15970516 L1.84766585,1.15970516 L1.84766585,1.97632343 L0.832700469,1.97632343 L0.832700469,3.00737101 C0.832700469,3.16640608 0.898816172,3.32186732 1.01675229,3.43622962 C1.1329015,3.55059191 1.29372348,3.61313379 1.46348001,3.61492071 L1.46348001,4.42796516 C1.07393344,4.42796516 0.702255975,4.27786464 0.428858611,4.01340183 C0.155461246,3.7453652 0,3.38798302 0,3.01094483 L0,0 L0.832700469,0 Z"></path></clipPath><clipPath id="i28"><path d="M1.43846326,0 C1.82086218,0.00178691088 2.18717891,0.150100514 2.45878937,0.416350235 C2.726826,0.682599955 2.88050034,1.04176904 2.88050034,1.41880724 L2.88050034,3.22537413 L2.05852133,3.22537413 L2.05852133,1.41880724 C2.05852133,1.25798526 1.99419254,1.10252401 1.87804333,0.988161715 C1.76189413,0.873799419 1.60464597,0.809470628 1.44025017,0.809470628 C1.27585437,0.809470628 1.11860621,0.873799419 1.002457,0.988161715 C0.888094706,1.1007371 0.821979004,1.25619835 0.821979004,1.41880724 L0.821979004,3.22537413 L0,3.22537413 L0,1.41880724 C0,1.04355595 0.151887425,0.682599955 0.421710967,0.416350235 C0.537860174,0.300201027 0.673665401,0.205494751 0.820192093,0.137592138 C1.01139156,0.0482465937 1.22224704,0 1.43846326,0 Z"></path></clipPath><clipPath id="i29"><path d="M105,0 C107.761424,-5.07265313e-16 110,2.23857625 110,5 L110,194 C110,196.761424 107.761424,199 105,199 L5,199 C2.23857625,199 2.11453371e-15,196.761424 0,194 L0,5 C-3.38176876e-16,2.23857625 2.23857625,5.07265313e-16 5,0 L105,0 Z"></path></clipPath><linearGradient id="i30" x1="55px" y1="0px" x2="55px" y2="199px" gradientUnits="userSpaceOnUse"><stop stop-color="#F2F2F3" offset="0%"></stop><stop stop-color="#DBDBDC" offset="100%"></stop></linearGradient><clipPath id="i31"><path d="M85,0 C87.7614237,-5.07265313e-16 90,2.23857625 90,5 L90,195 C90,197.761424 87.7614237,200 85,200 L5,200 C2.23857625,200 2.11453371e-15,197.761424 0,195 L0,5 C-3.38176876e-16,2.23857625 2.23857625,4.94815741e-15 5,0 L85,0 Z"></path></clipPath><linearGradient id="i32" x1="45px" y1="0px" x2="45px" y2="200px" gradientUnits="userSpaceOnUse"><stop stop-color="#F2F2F3" offset="0%"></stop><stop stop-color="#DBDBDC" offset="100%"></stop></linearGradient><linearGradient id="i33" x1="45px" y1="0px" x2="45px" y2="200px" gradientUnits="userSpaceOnUse"><stop stop-color="#F2F2F3" offset="0%"></stop><stop stop-color="#DBDBDC" offset="100%"></stop></linearGradient><clipPath id="i34"><path d="M85,0 C87.7614237,-5.07265313e-16 90,2.23857625 90,5 L90,105 C90,107.761424 92.2385763,110 95,110 L195,110 C197.761424,110 200,112.238576 200,115 L200,195 C200,197.761424 197.761424,200 195,200 L5,200 C2.23857625,200 4.77906897e-15,197.761424 0,195 L0,5 C-3.38176876e-16,2.23857625 2.23857625,4.94815741e-15 5,0 L85,0 Z"></path></clipPath><linearGradient id="i35" x1="100px" y1="0px" x2="100px" y2="200px" gradientUnits="userSpaceOnUse"><stop stop-color="#F2F2F3" offset="0%"></stop><stop stop-color="#DBDBDC" offset="100%"></stop></linearGradient><clipPath id="i36"><path d="M85,0 C87.7614237,-5.07265313e-16 90,2.23857625 90,5 L90,85 C90,87.7614237 87.7614237,90 85,90 L5,90 C2.23857625,90 2.11453371e-15,87.7614237 0,85 L0,5 C-3.38176876e-16,2.23857625 2.23857625,2.28362215e-15 5,0 L85,0 Z"></path></clipPath><linearGradient id="i37" x1="45px" y1="0px" x2="45px" y2="90px" gradientUnits="userSpaceOnUse"><stop stop-color="#F2F2F3" offset="0%"></stop><stop stop-color="#DBDBDC" offset="100%"></stop></linearGradient><clipPath id="i38"><path d="M46,0 C47.1045695,-2.02906125e-16 48,0.8954305 48,2 L48,46 C48,47.1045695 47.1045695,48 46,48 L2,48 C0.8954305,48 1.02344917e-15,47.1045695 0,46 L0,2 C-1.3527075e-16,0.8954305 0.8954305,1.09108455e-15 2,0 L46,0 Z"></path></clipPath><clipPath id="i39"><path d="M16,0 C24.8363636,0 32,7.15636364 32,16 C32,24.8436364 24.8363636,32 16,32 C7.16363636,32 0,24.8436364 0,16 C0,7.15636364 7.16363636,0 16,0 Z M9.11563636,16.7272727 L2.20072727,16.7272727 C2.53672727,23.2 7.328,28.4945455 13.5665455,29.6 C10.8974545,25.8618182 9.344,21.3818182 9.11563636,16.7272727 Z M29.7992727,16.7272727 L22.8843636,16.7272727 C22.656,21.3818182 21.1025455,25.8618182 18.4334545,29.6 C24.672,28.4945455 29.4632727,23.2 29.7992727,16.7272727 Z M20.6996364,16.7272727 L11.3003636,16.7272727 C11.5476364,21.2945455 13.1956364,25.6727273 16,29.2072727 C18.8043636,25.6727273 20.4523636,21.2945455 20.6996364,16.7272727 Z M13.5665455,2.4 C7.56218182,3.46181818 2.90036364,8.40727273 2.25745455,14.5454545 L9.16218182,14.5454545 C9.50981818,10.1527273 11.0370909,5.94909091 13.5665455,2.4 Z M18.4334545,2.4 C20.9629091,5.94909091 22.4901818,10.1527273 22.8378182,14.5454545 L29.7425455,14.5454545 C29.0996364,8.40727273 24.4378182,3.46181818 18.4334545,2.4 Z M16,2.79272727 C13.3454545,6.13818182 11.7250909,10.24 11.3512727,14.5454545 L20.6487273,14.5454545 C20.2749091,10.24 18.6545455,6.13818182 16,2.79272727 Z"></path></clipPath><clipPath id="i40"><path d="M14.2458182,0.387697719 C15.3527273,-0.129232573 16.6472727,-0.129232573 17.7541818,0.387697719 L30.5701818,6.36018803 C31.4458182,6.76734011 32,7.61638422 32,8.54602499 L32,22.30582 C32,23.7398847 31.1592727,25.0530544 29.824,25.7075549 L17.824,31.5799941 C16.6792727,32.140002 15.3207273,32.140002 14.176,31.5799941 L2.176,25.7075549 C0.840727273,25.0530544 0,23.7398847 0,22.30582 L0,8.54602499 C0,7.61638422 0.554181818,6.76734011 1.42981818,6.36018803 Z M2.18181818,9.5090161 L2.18181818,22.30582 C2.18181818,22.9575413 2.56436364,23.5550682 3.17090909,23.8524421 L14.9090909,29.5956488 L14.9090909,15.2841836 L2.18181818,9.5090161 Z M29.8181818,9.5090161 L17.0909091,15.2841836 L17.0909091,29.5956488 L28.8290909,23.8524421 C29.4356364,23.5550682 29.8181818,22.9575413 29.8181818,22.30582 L29.8181818,9.5090161 Z M16.7970909,2.26087523 C16.2938182,2.02603324 15.7061818,2.02603324 15.2029091,2.26087523 L3.408,7.75673358 L16,13.4721483 L28.592,7.75812317 Z"></path></clipPath><clipPath id="i41"><path d="M27.2,0 C29.8512,0 32,2.1488 32,4.8 C32,7.4512 29.8512,9.6 27.2,9.6 C26.3104,9.6 25.4768,9.3584 24.7616,8.936 L21.8976,11.8 L22.9856,12.888 C24.704,14.6064 24.704,17.3936 22.9856,19.112 L21.8976,20.2 L24.7616,23.064 C25.4768,22.6416 26.3104,22.4 27.2,22.4 C29.8512,22.4 32,24.5488 32,27.2 C32,29.8512 29.8512,32 27.2,32 C24.5488,32 22.4,29.8512 22.4,27.2 C22.4,26.3104 22.6416,25.4768 23.064,24.7616 L20.2,21.8976 L19.112,22.9856 C17.3936,24.704 14.6064,24.704 12.888,22.9856 L11.8,21.8976 L8.936,24.7616 C9.3584,25.4768 9.6,26.3104 9.6,27.2 C9.6,29.8512 7.4512,32 4.8,32 C2.1488,32 0,29.8512 0,27.2 C0,24.5488 2.1488,22.4 4.8,22.4 C5.6896,22.4 6.5232,22.6416 7.2384,23.064 L10.1024,20.2 L9.0144,19.112 C7.296,17.3936 7.296,14.6064 9.0144,12.888 L10.1024,11.8 L7.2384,8.936 C6.5232,9.3584 5.6896,9.6 4.8,9.6 C2.1488,9.6 0,7.4512 0,4.8 C0,2.1488 2.1488,0 4.8,0 C7.4512,0 9.6,2.1488 9.6,4.8 C9.6,5.6896 9.3584,6.5232 8.936,7.2384 L11.8,10.1024 L12.888,9.0144 C14.6064,7.296 17.3936,7.296 19.112,9.0144 L20.2,10.1024 L23.064,7.2384 C22.6416,6.5232 22.4,5.6896 22.4,4.8 C22.4,2.1488 24.5488,0 27.2,0 Z M4.8,24.8 C3.4752,24.8 2.4,25.8752 2.4,27.2 C2.4,28.5248 3.4752,29.6 4.8,29.6 C6.1248,29.6 7.2,28.5248 7.2,27.2 C7.2,25.8752 6.1248,24.8 4.8,24.8 Z M27.2,24.8 C25.8752,24.8 24.8,25.8752 24.8,27.2 C24.8,28.5248 25.8752,29.6 27.2,29.6 C28.5248,29.6 29.6,28.5248 29.6,27.2 C29.6,25.8752 28.5248,24.8 27.2,24.8 Z M17.4144,10.712 C16.6336,9.9296 15.3664,9.9296 14.5856,10.712 L10.712,14.5856 C9.9296,15.3664 9.9296,16.6336 10.712,17.4144 L14.5856,21.288 C15.3664,22.0704 16.6336,22.0704 17.4144,21.288 L21.288,17.4144 C22.0704,16.6336 22.0704,15.3664 21.288,14.5856 Z M4.8,2.4 C3.4752,2.4 2.4,3.4752 2.4,4.8 C2.4,6.1248 3.4752,7.2 4.8,7.2 C6.1248,7.2 7.2,6.1248 7.2,4.8 C7.2,3.4752 6.1248,2.4 4.8,2.4 Z M27.2,2.4 C25.8752,2.4 24.8,3.4752 24.8,4.8 C24.8,6.1248 25.8752,7.2 27.2,7.2 C28.5248,7.2 29.6,6.1248 29.6,4.8 C29.6,3.4752 28.5248,2.4 27.2,2.4 Z"></path></clipPath><clipPath id="i42"><path d="M16,0 C20.1776,0 24.008,0.544 26.8352,1.472 C28.2432,1.92 29.4688,2.496 30.3664,3.184 C31.2496,3.856 32,4.8 32,6 L32,25.856 C32,27.056 31.2736,28.016 30.3904,28.72 C29.4944,29.44 28.2704,30.016 26.864,30.496 C24.0384,31.44 20.2032,32 16,32 C11.7968,32 7.9616,31.44 5.136,30.496 C3.7296,30.016 2.5056,29.44 1.6096,28.72 C0.7264,28.016 0,27.056 0,25.856 L0,6 C0,4.8 0.7504,3.856 1.6336,3.184 C2.5312,2.496 3.7568,1.92 5.1648,1.472 C7.992,0.544 11.8224,0 16,0 Z M29.6,18.944 C28.8208,19.408 27.888,19.808 26.8544,20.144 C24.032,21.056 20.2,21.6 16,21.6 C11.8,21.6 7.968,21.056 5.1456,20.144 C4.112,19.808 3.1792,19.408 2.4,18.944 L2.4,25.856 C2.4,26.016 2.496,26.368 3.1024,26.848 C3.696,27.312 4.632,27.792 5.8976,28.224 C8.416,29.056 11.9808,29.6 16,29.6 C20.0192,29.6 23.584,29.056 26.1024,28.224 C27.368,27.792 28.304,27.312 28.8976,26.848 C29.504,26.368 29.6,26.016 29.6,25.856 L29.6,18.944 Z M29.6,9.328 C28.816,9.792 27.8752,10.192 26.8352,10.528 C24.008,11.456 20.1776,12 16,12 C11.8224,12 7.992,11.456 5.1648,10.528 C4.1248,10.192 3.184,9.792 2.4,9.328 L2.4,15.6 C2.4,15.728 2.4784,16.048 3.0896,16.528 C3.6832,16.976 4.6192,17.44 5.888,17.856 C8.4096,18.672 11.9776,19.2 16,19.2 C20.0224,19.2 23.5904,18.672 26.112,17.856 C27.3808,17.44 28.3168,16.976 28.9104,16.528 C29.5216,16.048 29.6,15.728 29.6,15.6 L29.6,9.328 Z M16,2.4 C12.0032,2.4 8.4336,2.928 5.9056,3.744 C4.6336,4.16 3.6912,4.624 3.0928,5.088 C2.4768,5.552 2.4,5.872 2.4,6 C2.4,6.128 2.4768,6.448 3.0928,6.912 C3.6912,7.376 4.6336,7.84 5.9056,8.256 C8.4336,9.072 12.0032,9.6 16,9.6 C19.9968,9.6 23.5664,9.072 26.0944,8.256 C27.3664,7.84 28.3088,7.376 28.9072,6.912 C29.5232,6.448 29.6,6.128 29.6,6 C29.6,5.872 29.5232,5.552 28.9072,5.088 C28.3088,4.624 27.3664,4.16 26.0944,3.744 C23.5664,2.928 19.9968,2.4 16,2.4 Z"></path></clipPath><filter id="i43" x="-30.6451613%" y="-27.4193548%" filterUnits="userSpaceOnUse" width="138.709677%" height="138.709677%"><feGaussianBlur stdDeviation="2.5" in="SourceAlpha" result="i44"></feGaussianBlur><feOffset dx="0" dy="2" in="i44" result="i45"></feOffset><feColorMatrix values="0 0 0 0.0 0 0 0 0 0.0 0 0 0 0 0.0 0 0 0 0 0.1 0" type="matrix" in="i45"></feColorMatrix></filter><clipPath id="i46"><path d="M0,0 L8.72140351,5.04842105 L8.72140351,15.1522807 L0,10.1010526 L0,0 Z"></path></clipPath><clipPath id="i47"><path d="M8.71859649,0 L8.71859649,10.1010526 L0,15.1522807 L0,5.04842105 L8.71859649,0 Z"></path></clipPath><clipPath id="i48"><path d="M0,0 L8.71859649,5.05263158 L8.71859649,15.1536842 L0,10.1010526 L0,0 Z"></path></clipPath><clipPath id="i49"><path d="M0,0 L8.71859649,5.05263158 L8.71859649,15.1536842 L0,10.1024561 L0,0 Z"></path></clipPath><clipPath id="i50"><path d="M29.4821818,0.60411401 C31.4778182,1.82593219 31.84,4.5750231 30.2312727,6.27684128 L26.2647273,10.4804776 C26.672,11.1059322 26.9090909,11.8622958 26.9090909,12.6622958 C26.9090909,14.8732049 25.1185455,16.6622958 22.9090909,16.6622958 C20.6996364,16.6622958 18.9090909,14.8732049 18.9090909,12.6622958 C18.9090909,10.4513867 20.6996364,8.66229583 22.9090909,8.66229583 C23.5229091,8.66229583 24.1032727,8.79320492 24.6225455,9.04047765 C24.6356364,9.02593219 24.6487273,9.01138674 24.6618182,9.01138674 L26.7869091,6.75684128 C25.5927273,5.89865946 24.1294545,5.38956855 22.5454545,5.38956855 C18.5294545,5.38956855 15.2727273,8.64775037 15.2727273,12.6622958 C15.2727273,13.3168413 15.4021818,13.9132049 15.6014545,14.5677504 C15.7003636,14.8877504 15.8123636,15.2077504 15.9345455,15.5568413 L15.9418182,15.5859322 C16.0654545,15.9350231 16.1963636,16.3132049 16.3170909,16.7059322 C16.4334545,17.0986595 16.3287273,17.5059322 16.0436364,17.7968413 L7.63636364,26.204114 L7.63636364,28.6622958 L10.4567273,28.6622958 L11.2727273,27.8477504 L11.2727273,25.7532049 C11.2727273,25.1568413 11.7614545,24.6622958 12.3636364,24.6622958 L14.1818182,24.6622958 L14.1818182,22.844114 C14.1818182,22.2477504 14.6705455,21.7532049 15.2727273,21.7532049 L17.7294545,21.7532049 L19.5927273,19.8913867 C19.8632727,19.6150231 20.256,19.5132049 20.6269091,19.6004776 C21.3032727,19.7750231 22.0029091,19.9350231 22.5454545,19.9350231 C26.5614545,19.9350231 29.8181818,16.6768413 29.8181818,12.6622958 C29.8181818,12.0659322 30.3069091,11.5713867 30.9090909,11.5713867 C31.5112727,11.5713867 32,12.0659322 32,12.6622958 C32,17.884114 27.7672727,22.1168413 22.5454545,22.1168413 C21.9316364,22.1168413 21.2625455,22.0004776 20.7025455,21.8695686 L18.9527273,23.6150231 C18.7490909,23.8186595 18.4712727,23.9350231 18.1818182,23.9350231 L16.3636364,23.9350231 L16.3636364,25.7532049 C16.3636364,26.3495686 15.8749091,26.844114 15.2727273,26.844114 L13.4545455,26.844114 L13.4545455,28.2986595 C13.4545455,28.5895686 13.3396364,28.8659322 13.1345455,29.0695686 L11.68,30.524114 C11.4763636,30.7277504 11.1985455,30.844114 10.9090909,30.844114 L1.09090909,30.844114 C0.488727273,30.844114 0,30.3495686 0,29.7532049 L0,25.6950231 C0,25.404114 0.114909091,25.1277504 0.317090909,24.924114 L7.83418182,17.3750231 C7.24072727,16.0950231 6.90909091,14.6550231 6.90909091,13.1568413 C6.90909091,7.67320492 11.2901818,3.20775037 16.7272727,3.20775037 L22.4596364,3.20775037 C22.4727273,3.19320492 22.4872727,3.17865946 22.5018182,3.16411401 L24.4756364,1.18593219 C25.808,-0.137704172 27.8792727,-0.3849769 29.4821818,0.60411401 Z M16.5003636,5.38956855 C12.4014545,5.52047765 9.09090909,8.92411401 9.09090909,13.1568413 C9.09090909,14.5677504 9.46472727,15.8913867 10.1149091,17.0404776 C10.3578182,17.4622958 10.2865455,18.0004776 9.94036364,18.3495686 L2.18181818,26.1459322 L2.18181818,28.6622958 L5.45454545,28.6622958 L5.45454545,25.7532049 C5.45454545,25.4622958 5.56945455,25.1859322 5.77454545,24.9822958 L14.0290909,16.7204776 C13.9810909,16.5895686 13.9330909,16.444114 13.8821818,16.2986595 L13.8690909,16.2695686 C13.7512727,15.9350231 13.6276364,15.5713867 13.5156364,15.2077504 C13.2829091,14.4513867 13.0909091,13.6077504 13.0909091,12.6622958 C13.0909091,9.73865946 14.4174545,7.12047765 16.5003636,5.38956855 Z M22.9090909,10.844114 C21.9054545,10.844114 21.0909091,11.6586595 21.0909091,12.6622958 C21.0909091,13.6659322 21.9054545,14.4804776 22.9090909,14.4804776 C23.9127273,14.4804776 24.7272727,13.6659322 24.7272727,12.6622958 C24.7272727,11.6586595 23.9127273,10.844114 22.9090909,10.844114 Z M26.0189091,2.72775037 L25.1723636,3.57138674 C26.3185455,3.90593219 27.3730909,4.44411401 28.2952727,5.15684128 L28.6458182,4.77865946 C29.3047273,4.0950231 29.1549091,2.96047765 28.3389091,2.46593219 C27.5956364,2.00047765 26.6356364,2.11684128 26.0189091,2.72775037 Z"></path></clipPath><clipPath id="i51"><path d="M24,0 C37.254834,0 48,10.745166 48,24 C48,37.254834 37.254834,48 24,48 C10.745166,48 0,37.254834 0,24 C0,10.745166 10.745166,0 24,0 Z"></path></clipPath><clipPath id="i52"><path d="M13.999654,0 C13.999654,0 23.8808619,2.09553474 24.293015,10.1610215 C24.7032672,18.2247518 21.6845808,17.8642833 20.4491561,19.554715 C20.4491561,19.554715 24.2919322,19.7358516 26.2133805,21.6563614 C27.8142144,23.2576685 27.986177,25.8109172 27.999096,26.6175194 L27.9994698,26.804402 C27.9988503,26.8474307 27.9979097,26.8702944 27.9979175,26.8702944 L0.00211239889,26.8702944 C0.00211239889,26.8702944 0.00116480178,26.8474234 0.000538946551,26.8043818 L0.000895945535,26.6174459 C0.013765621,25.8106231 0.185743386,23.2567863 1.78616824,21.6563614 C3.70749617,19.7358347 7.55039263,19.554715 7.55039263,19.554715 C6.31386111,17.8651014 3.29531899,18.2255459 3.7065337,10.1610215 C4.11847025,2.09553474 13.999654,0 13.999654,0 Z M14.0081,5.19768651 L13.9912082,5.19768648 C13.7115818,5.21155546 6.5838996,5.60179744 6.86872425,9.33325042 C7.16083347,13.1395731 9.19789824,20.1198765 13.999654,23.2969854 C18.8013858,20.120839 20.8383543,13.1393325 21.1305838,9.33325042 C21.3471581,6.49736408 17.2821082,5.59133451 15.1956579,5.31369882 L14.8835737,5.27489397 C14.6876963,5.25225248 14.5173933,5.23581483 14.3799662,5.22406304 L14.1993952,5.20976002 C14.0709881,5.20045326 13.999654,5.19728227 13.999654,5.19728227 Z"></path></clipPath><clipPath id="i53"><path d="M9.88611595,0 C9.88611595,0 10.0952122,2.66862078 7.41425599,2.68001204 C6.0771465,2.68526331 5.76660601,1.54777462 4.94408035,1.34043001 C4.1214825,1.5477698 3.8108217,2.68525729 2.47390471,2.68001204 C-0.20361554,2.66868479 0.00372906903,0 0.00372906903,0 C0.3134274,0.618554502 1.44478517,1.6475778 2.26815299,0.926568513 C3.02082435,0.269112495 4.63041661,0.0397959839 4.90465442,0.00488616359 L4.94477814,0 C4.94477814,0 6.79803547,0.207339796 7.62140329,0.926568513 C8.44561327,1.6475778 9.57612887,0.618650749 9.88582721,0 Z"></path></clipPath><clipPath id="i54"><path d="M0.94410063,0.000167418208 C1.05108992,0.00284610954 1.95763942,0.0483838622 1.86041876,0.822525658 C1.76753814,1.56269047 1.09132214,2.88765241 0.957007751,3.14524314 L0.933850252,3.18930811 C0.933850252,3.18930811 0.109637868,1.64505132 0.00728173902,0.822525658 C-0.0960152025,0 0.933850252,0 0.933850252,0 Z"></path></clipPath><clipPath id="i55"><path d="M2.57243793,0.0517155955 C3.70463785,-0.281683524 4.42470873,1.10600369 4.42470873,1.10600369 C4.42478092,1.10600369 4.09580915,1.61957693 2.58735619,1.48225672 C1.07705048,1.34483546 0,1.10600369 0,1.10600369 C0,1.10600369 1.44021394,0.385956876 2.57243793,0.0517155955 Z"></path></clipPath><clipPath id="i56"><path d="M1.85234299,0.0517155955 C2.98456698,0.385956876 4.42478092,1.10600369 4.42478092,1.10600369 C4.42478092,1.10600369 3.34773044,1.34483546 1.83742473,1.48225672 C0.328971764,1.61957693 0,1.10600369 0,1.10600369 C7.21851443e-05,1.10600369 0.720143062,-0.281683524 1.85234299,0.0517155955 Z"></path></clipPath><clipPath id="i57"><path d="M1.23458252,0.0722201924 C2.06187584,-0.37852877 3.59995267,1.41254364 3.92004357,1.80151929 L3.97249253,1.8660875 L3.97932639,1.87468325 C1.27057885,0.806294987 9.39850579e-05,1.03300223 0,1.03290822 C0,1.03290822 0.308014011,0.576192808 1.23458252,0.0722201924 Z"></path></clipPath><clipPath id="i58"><path d="M2.74474387,0.0722201924 C3.67131238,0.576192808 3.97932639,1.03290822 3.97932639,1.03290822 C3.97923241,1.03300223 2.70874754,0.806294987 0,1.87468325 C0,1.87468325 1.81817535,-0.432618645 2.74474387,0.0722201924 Z"></path></clipPath><clipPath id="i59"><path d="M1.45387019,0.0605107247 C2.1322757,-0.107458638 2.8495929,0.0794164466 3.35966231,0.557047231 C3.86980324,1.03464134 4.10346035,1.73804055 3.98054382,2.42598145 C3.85755577,3.11392234 3.39468649,3.6927565 2.75066335,3.96409304 C2.13152388,2.83459076 1.16786384,1.93226888 0,1.38888066 C0.228353982,0.728464 0.775538019,0.228483755 1.45387019,0.0605107247 Z"></path></clipPath><clipPath id="i60"><path d="M3.01262378,0.00191149273 L3.2443209,0.0189010382 C3.93928497,0.0963943271 4.58681053,0.409063061 5.07969792,0.905031112 C5.57265866,1.40098083 5.88123452,2.05045014 5.95444055,2.74590931 C6.02764292,3.4412768 5.86103052,4.14080685 5.48218259,4.72853458 C5.10333466,5.31626232 4.53502609,5.75687016 3.87143709,5.97733912 C4.36806528,5.4690851 4.64583763,4.78651702 4.64504969,4.07594794 L4.63823663,3.88014529 C4.59186828,3.23018576 4.31594243,2.61539632 3.85614381,2.14772934 C3.35036532,1.63329566 2.66279117,1.3381733 1.94154979,1.32585304 C1.22021674,1.31347539 0.522978845,1.58501363 0,2.08184354 C0.224576505,1.41962983 0.668741778,0.854108523 1.25876167,0.47890971 C1.84881824,0.103710896 2.54937517,-0.058603253 3.2443209,0.0189010382 Z"></path></clipPath><clipPath id="i61"><path d="M2.02567179,7.33490666e-05 C2.45379196,-0.00256721733 2.87212002,0.128159157 3.22267355,0.373915204 C3.57322707,0.619744601 3.83861683,0.968519413 3.98201976,1.37193928 C2.81422927,1.91692284 1.85067926,2.82027161 1.23142976,3.95052572 C0.653384103,3.69594944 0.223817128,3.1905377 0.0657297188,2.57902653 C-0.0924292061,1.9675337 0.0382971679,1.31727589 0.420519154,0.814431361 C0.802667791,0.311513486 1.394173,0.0113890929 2.02567179,0 Z"></path></clipPath><clipPath id="i62"><path d="M2.72697896,0.0188972679 C3.42190636,-0.058596021 4.12244496,0.103707126 4.7125382,0.478905939 C5.30255809,0.854104752 5.7467417,1.41962606 5.97129987,2.08183977 C5.44822934,1.58500986 4.75099145,1.31345732 4.02975007,1.32584927 C3.30843535,1.33817192 2.6208612,1.63321854 2.11515606,2.14772557 C1.60945092,2.66223259 1.32608514,3.35468446 1.32608514,4.07607253 C1.32531498,4.78667829 1.60308789,5.46924636 2.09969775,5.97746371 C1.43627378,5.75684805 0.867965208,5.31625855 0.489117278,4.72853081 C0.110265682,4.14082142 -0.056346723,3.44129137 0.0168593129,2.74590554 C0.0900616814,2.0504647 0.398641205,1.40099539 0.891601944,0.905027342 C1.38448933,0.409059291 2.03203323,0.0964015592 2.72697896,0.0188972679 Z"></path></clipPath><clipPath id="i63"><path d="M0.54648661,1.15066885e-05 C0.689388929,-0.000918192731 0.826916595,0.0545226993 0.929203702,0.154231587 C1.03156232,0.254004655 1.09044255,0.390030499 1.09316454,0.532932818 C1.09681732,0.678622401 1.0421631,0.819813853 0.941236616,0.925038591 C0.84038165,1.03026333 0.701627221,1.09086231 0.55586062,1.09329768 C0.410097688,1.0957347 0.269421513,1.0399344 0.165056793,0.938147903 C0.060692074,0.836357735 0.00123909806,0.697181549 2.13935279e-05,0.551414949 C-0.00126771632,0.405652016 0.0557483469,0.265397598 0.158394864,0.161821381 C0.260973534,0.0583166798 0.400718176,8.12983254e-05 0.546484776,0 Z"></path></clipPath><clipPath id="i64"><path d="M0.543241525,0 C0.843294219,0 1.08648305,0.24318883 1.08648305,0.543241525 C1.08648305,0.843294219 0.843294219,1.08648305 0.543241525,1.08648305 C0.24318883,1.08648305 0,0.843294219 0,0.543241525 C0,0.24318883 0.24318883,0 0.543241525,0 Z"></path></clipPath><clipPath id="i65"><path d="M11.4184882,0.00196852481 C12.6051477,0.02539596 13.7793944,0.257828517 14.8871285,0.689561123 L15.0280962,0.754887635 C16.2010578,1.25842898 17.15918,2.15933889 17.7339433,3.29918338 C17.74698,3.31838067 17.7573662,3.33915312 17.7648874,3.36107166 L17.8095845,3.43327465 L17.8302139,3.47797173 C18.2968974,4.56280443 18.523315,5.73567434 18.493803,6.91620923 C18.4792615,8.09859619 18.2939634,9.27287807 17.943685,10.4024904 C18.166171,10.4385928 18.3865666,10.4867996 18.6038266,10.5468963 C19.914391,10.8828717 21.0808245,11.6344063 21.9285564,12.6888725 C21.9841542,12.7610534 22.0087949,12.8521658 21.9971909,12.9423485 C21.9855871,13.0326082 21.9387409,13.1145519 21.866824,13.1702807 C21.8049357,13.2215682 21.7271453,13.2495034 21.6467768,13.2493602 C21.542126,13.2488596 21.4434917,13.2007958 21.3785942,13.1187072 C20.6130134,12.1728893 19.5587122,11.5038541 18.3769671,11.2138319 C18.1534725,11.1553819 17.9299778,11.1106848 17.7133781,11.0728642 C17.5181779,11.6443818 17.2885403,12.20354 17.0257306,12.7472767 C17.2457778,12.7782208 17.4761305,12.8160414 17.7133781,12.867615 C19.1396507,13.1696298 20.4183083,13.9540063 21.333888,15.0886247 C21.3901183,15.1598925 21.4159051,15.2504327 21.4055904,15.3406154 C21.3952757,15.4308018 21.3497185,15.5132461 21.2788762,15.569978 C21.2183485,15.6185424 21.1432813,15.6451894 21.0657055,15.6456192 C20.9616983,15.6459768 20.863064,15.5992021 20.7975229,15.5184044 C19.9387887,14.46469 18.7291893,13.7555513 17.3902754,13.5207426 C17.1427223,13.4726072 16.9054748,13.4382249 16.6716746,13.4141572 C15.1793879,16.1267891 12.985884,18.1657097 11.0019751,18.1657097 C9.01806625,18.1657097 6.82452574,16.1302731 5.34951269,13.4174579 C5.10832262,13.4390904 4.8684345,13.4734728 4.63091188,13.520605 C3.29284153,13.7577426 2.08408559,14.4664596 1.22366436,15.5182669 C1.15812697,15.5990664 1.05948898,15.6458398 0.955481838,15.6454817 C0.876769121,15.6458392 0.800269712,15.6191218 0.738882045,15.5698404 C0.668542123,15.5126061 0.623700905,15.4299454 0.614030931,15.3397627 C0.60436169,15.2496552 0.630721511,15.1593295 0.687308482,15.0884872 C1.59481981,13.9580497 2.8633369,13.1738382 4.28031251,12.8674774 C4.51756007,12.8159039 4.7444654,12.7780833 4.96796001,12.7471391 C4.7045085,12.2048328 4.47485257,11.6468298 4.28031251,11.0761557 C4.06712345,11.1105381 3.84364718,11.1552352 3.61672351,11.2136852 C2.43395147,11.5037991 1.37862344,12.1727609 0.611612245,13.1185605 C0.55430462,13.1899034 0.470926902,13.2354598 0.379957556,13.2451298 C0.288909359,13.2548009 0.197868498,13.2277956 0.126811589,13.170134 C0.0564716683,13.1128997 0.0116304499,13.030239 0.0019604757,12.9400563 C-0.00770876501,12.8499488 0.0186510558,12.7596231 0.075238027,12.6887808 C0.932871989,11.6261178 2.11522227,10.8737214 3.44122669,10.5468047 C3.65855998,10.486994 3.87888224,10.4387872 4.10136829,10.4023987 C3.75108983,9.27282306 3.5657912,8.0986512 3.55125029,6.91611755 C3.52174563,5.73556432 3.7481742,4.56263939 4.2148393,3.47788005 C4.24162821,3.45001657 4.26061077,3.4156342 4.2698511,3.37817116 C4.28589621,3.35116587 4.29864629,3.32229934 4.30767171,3.29221522 C4.88236165,2.1494551 5.84169409,1.24605132 7.01700286,0.741134685 L7.0754529,0.741134685 C7.09479321,0.734043664 7.11320181,0.724803149 7.1304647,0.713628785 C7.14113754,0.707540263 7.15052108,0.699302796 7.1579706,0.689561123 C8.38876794,0.209858227 9.70177124,-0.023800726 11.0225495,0.00191362304 Z M11.0019293,13.407565 C9.8157832,13.407565 8.88745907,14.0986415 8.88745907,14.9444479 C8.88745907,15.7902544 9.81572818,16.4779019 11.0019293,16.4779019 C12.1880754,16.4779019 13.1163995,15.7936834 13.1163995,14.9444479 C13.1163995,14.0952125 12.1880754,13.407565 11.0019293,13.407565 Z M6.9334216,5.30014592 C6.62471372,5.30229138 6.32944705,5.42678308 6.11240716,5.64640853 C5.89535994,5.86594228 5.77437742,6.16271261 5.77586778,6.47143883 C5.7773853,6.78016505 5.90130855,7.07565177 6.12049389,7.29311341 C6.33960589,7.51057506 6.63608282,7.63220213 6.94480904,7.63127625 C7.25509393,7.63033574 7.55228601,7.50577069 7.7704078,7.28500834 C7.9886011,7.06431933 8.1096553,6.76569695 8.10693332,6.45539372 C8.10420106,6.1466675 7.97906756,5.85163922 7.75909371,5.63509443 C7.53904651,5.41847814 7.24214782,5.29806868 6.9334216,5.30014592 Z M15.0487623,5.30012625 C14.7402378,5.30199799 14.4449895,5.42606793 14.2278029,5.64517993 C14.01062,5.86431027 13.8891359,6.16056715 13.8900618,6.46914667 C13.890929,6.77765284 14.0141371,7.07319457 14.2326073,7.29109631 C14.4510775,7.50892654 14.7470593,7.6312762 15.0555655,7.6312762 C15.3668039,7.63220615 15.6653529,7.5082829 15.8844649,7.2873005 C16.1035017,7.06624475 16.224772,6.7665588 16.2211188,6.45539372 C16.2184049,6.14688755 16.0934731,5.85204264 15.8737193,5.63544284 C15.6539655,5.41890906 15.3572685,5.29835518 15.0487623,5.30012625 Z"></path></clipPath><clipPath id="i66"><path d="M1.42685939,0 C2.19702459,0 2.85371879,0.391959075 2.85371879,0.849235493 C2.85371879,1.30651191 2.19702459,1.69504192 1.42685939,1.69504192 C0.656694194,1.69504192 0,1.31338839 0,0.849235493 C0,0.3850826 0.656694194,0 1.42685939,0 Z"></path></clipPath><clipPath id="i67"><path d="M17.5033629,14.0499373 C17.6606774,14.1409937 17.7662242,14.2750243 17.8199692,14.4518377 L20.8459749,24.4775412 C20.9000228,24.6569086 20.8826054,24.832021 20.7941999,25.0023913 C20.7028599,25.172483 20.5656114,25.2861642 20.3827523,25.3428654 C20.199881,25.3966299 20.0233535,25.3789289 19.8532497,25.2908069 C19.6828746,25.199467 19.5709065,25.0622184 19.517428,24.8793593 L16.9166818,16.2629487 L14.8978262,19.2945275 C14.7904888,19.451842 14.6419678,19.5495136 14.4532301,19.5876779 C14.267141,19.6254448 14.0941222,19.5908961 13.9330082,19.4835584 C13.7721923,19.376599 13.673079,19.229687 13.6352297,19.0436148 C13.5974628,18.8575256 13.6320115,18.6845068 13.7390657,18.5233928 L16.5767941,14.2676483 C16.6775043,14.1127012 16.8174037,14.0150127 16.9970619,13.9740375 C17.1736766,13.9330406 17.3426367,13.9583129 17.5033629,14.0499373 Z M7.00529435,13.9736498 C7.18182427,14.0149182 7.32190062,14.1126018 7.42602255,14.2670667 L10.2632663,18.5228113 C10.3673858,18.6839107 10.4005149,18.8569368 10.362748,19.0430332 C10.3249811,19.2291224 10.2254994,19.3759229 10.0646787,19.4829768 C9.90386274,19.5903143 9.73055316,19.6248633 9.54445672,19.5870963 C9.35514963,19.5490459 9.20863503,19.4512677 9.1045131,19.293946 L7.08536671,16.2623671 L4.48462047,24.8787777 C4.42792406,25.061649 4.31452881,25.1988975 4.14414637,25.2902253 C3.97405471,25.3783473 3.79865639,25.3957648 3.61929625,25.3422839 C3.43320708,25.2855875 3.29624446,25.1719087 3.20784865,25.0018098 C3.11650874,24.8314346 3.09909127,24.6563198 3.15579011,24.4769597 L6.18247184,14.4514621 C6.23273242,14.2749322 6.33864989,14.1409137 6.49936888,14.0495617 C6.65696688,13.9582218 6.82564344,13.9329485 7.00529435,13.9736498 Z M21.191901,14.1441171 C21.3434412,14.2325226 21.4471779,14.3584139 21.5038791,14.5224405 L23.9626299,21.8049176 C24.0228302,21.984571 24.0103365,22.1610936 23.924863,22.3344202 C23.836741,22.5080157 23.7027103,22.6246385 23.5229625,22.6845383 C23.3433092,22.747673 23.1664957,22.7365969 22.99346,22.6511258 C22.8198645,22.5630038 22.7032416,22.4289732 22.6433418,22.2492253 L20.5959902,16.1824329 L19.9719371,16.9718404 C19.8486046,17.1233806 19.6927924,17.2099881 19.5034975,17.2324239 C19.3144739,17.2541943 19.1443895,17.2053527 18.9925561,17.0856161 C18.8416774,16.965785 18.7549754,16.8116811 18.7326269,16.6223862 C18.7105725,16.4330791 18.7594146,16.2626966 18.8791512,16.1114448 L20.2981123,14.3141603 C20.4055442,14.1786152 20.5437451,14.0955115 20.7144062,14.0635116 C20.8842797,14.0293019 21.0436781,14.0559951 21.191901,14.1441171 Z M3.28348425,14.0636231 C3.45357592,14.0953322 3.59403269,14.1788163 3.70421245,14.3142717 L5.12310331,16.1115006 C5.23971648,16.2626627 5.28713715,16.4328562 5.26498973,16.6224419 C5.24293537,16.8114655 5.15623236,16.965848 5.00479395,17.0856718 C4.85325378,17.2055029 4.68317181,17.2543435 4.4938526,17.2324796 C4.30482902,17.2104252 4.15044651,17.1237222 4.03033192,16.9718961 L3.40627883,16.1824886 L1.35863642,22.2492811 C1.29550175,22.4289344 1.17718512,22.5630523 1.00386584,22.6511815 C0.830556264,22.7366526 0.654014227,22.7477287 0.474363313,22.6845941 C0.294709976,22.6246773 0.162385229,22.5080642 0.0771879516,22.3344759 C-0.0109340445,22.1608804 -0.023713636,21.9846243 0.0394210357,21.8049734 L2.49841412,14.5224962 C2.55217855,14.3587459 2.65459217,14.2325686 2.80576403,14.1441728 C2.95408628,14.0557673 3.11311393,14.0289796 3.28348425,14.0636231 Z M12.9163159,19.1330033 C12.9730123,19.1330033 13.0282911,19.1397236 13.0814861,19.151934 C13.2204381,19.1807087 13.3432085,19.2481978 13.4507228,19.3551548 C13.598478,19.5037605 13.6731589,19.6817201 13.6731589,19.8895762 C13.6731589,20.0978152 13.5983835,20.2760414 13.4507228,20.4242643 C13.302117,20.572303 13.1241575,20.6464169 12.9163013,20.6464169 L11.308336,20.6464169 C11.1004774,20.6464169 10.9221374,20.572303 10.7742053,20.4242643 C10.6261665,20.275942 10.5520526,20.0976989 10.5520526,19.8895762 C10.5520526,19.6817177 10.6261665,19.5036684 10.7742053,19.3551548 C10.8904404,19.2388251 11.0262593,19.1679291 11.180637,19.1425638 C11.2216485,19.1364107 11.2644313,19.1330033 11.3083505,19.1330033 L12.9163159,19.1330033 Z M11.0813395,11.1554712 L12.0461333,11.6282725 L12.9917116,11.1601236 L12.9917116,18.5610919 C12.9917116,18.6020767 12.9900078,18.6413581 12.9865057,18.6794085 C12.9333107,18.6666304 12.8780318,18.6604778 12.8213354,18.6604778 L11.2136366,18.6604778 C11.1694339,18.6604778 11.1270291,18.663696 11.0859498,18.6697538 C11.0827316,18.6348268 11.0810279,18.5987633 11.0810279,18.5609964 L11.0809333,11.1556665 Z M12.0465429,0 L15.6872022,1.98631297 L15.6872022,9.16968408 L12.0464483,11.1559971 L8.40496737,9.16968408 L8.40506202,1.98631297 L12.0465429,0 Z"></path></clipPath></defs><g clip-path="url(#i0)"><g transform="translate(400.0 80.0)"><g clip-path="url(#i1)"><polygon points="0,0 440,0 440,270 0,270 0,0" stroke="none" fill="#FFFFFF"></polygon><path d="M5,0 L435,0 C437.761424,-5.07265313e-16 440,2.23857625 440,5 L440,265 C440,267.761424 437.761424,270 435,270 L5,270 C2.23857625,270 -3.2145368e-15,267.761424 0,265 L0,5 C-3.38176876e-16,2.23857625 2.23857625,-7.48634046e-15 5,0 Z" stroke="#F5C163" stroke-width="3" fill="none" stroke-miterlimit="5"></path></g><g transform="translate(20.0 10.0)"><g transform="translate(2.0 8.0)"><g transform="translate(1.3239316752867385 0.0)"><g clip-path="url(#i2)"><polygon points="0,0 29.3522479,0 29.3522479,10.0088102 0,10.0088102 0,0" stroke="none" fill="#252F3E"></polygon></g></g><g transform="translate(0.0 11.93532798832955)"><g transform="translate(-1.5631940186722204e-13 0.6334679268627021)"><g clip-path="url(#i3)"><polygon points="-3.26405569e-14,2.99760217e-15 29.1850073,2.99760217e-15 29.1850073,6.57635274 -3.26405569e-14,6.57635274 -3.26405569e-14,2.99760217e-15" stroke="none" fill="#FF9900"></polygon></g></g><g transform="translate(26.00298634254657 0.0)"><g clip-path="url(#i4)"><polygon points="3.61932706e-14,1.04360964e-14 5.99701366,1.04360964e-14 5.99701366,5.9112731 3.61932706e-14,5.9112731 3.61932706e-14,1.04360964e-14" stroke="none" fill="#FF9900"></polygon></g></g></g></g></g></g><g transform="translate(10.0 80.0)"><g clip-path="url(#i5)"><polygon points="0,0 150,0 150,270 0,270 0,0" stroke="none" fill="#FFFFFF"></polygon><path d="M5,0 L145,0 C147.761424,-5.07265313e-16 150,2.23857625 150,5 L150,265 C150,267.761424 147.761424,270 145,270 L5,270 C2.23857625,270 -5.50001544e-16,267.761424 0,265 L0,5 C-3.38176876e-16,2.23857625 2.23857625,-7.48634046e-15 5,0 Z" stroke="#CCCCCC" stroke-width="3" fill="none" stroke-miterlimit="5"></path></g><g transform="translate(10.0 10.0)"><g transform="translate(9.55863301317847 2.803121606139495)"><g transform="translate(7.051150323877594 3.044097513806874)"><g clip-path="url(#i6)"><polygon points="0,0 2.78043333,0 2.78043333,1.46348001 0,1.46348001 0,0" stroke="none" fill="#A07CB8"></polygon></g></g><g transform="translate(6.5533971825104365 0.0)"><g clip-path="url(#i7)"><polygon points="-1.2490009e-15,0 3.77494769,0 3.77494769,3.63556501 -1.2490009e-15,3.63556501 -1.2490009e-15,0" stroke="none" fill="#181849"></polygon></g></g><g transform="translate(4.218896582532944 8.733555196476857)"><g clip-path="url(#i8)"><polygon points="0,-5.75928194e-16 2.75290204,-5.75928194e-16 2.75290204,2.75369622 0,2.75369622 0,-5.75928194e-16" stroke="none" fill="#181849"></polygon></g></g><g transform="translate(9.892338619611351 8.733555196476857)"><g clip-path="url(#i9)"><polygon points="0,-5.75928194e-16 2.76362351,-5.75928194e-16 2.76362351,2.75369622 0,2.75369622 0,-5.75928194e-16" stroke="none" fill="#181849"></polygon></g></g><g transform="translate(0.7326334599061848 16.85691859935523)"><g clip-path="url(#i10)"><polygon points="0,0 2.88407416,0 2.88407416,2.74648202 0,2.74648202 0,0" stroke="none" fill="#EF539E"></polygon></g></g><g transform="translate(0.0 4.507577522741427)"><g clip-path="url(#i11)"><polygon points="0,0 16.882734,0 16.882734,15.4335493 0,15.4335493 0,0" stroke="none" fill="#181849"></polygon></g></g><g transform="translate(13.25709180254634 16.85691859935523)"><g clip-path="url(#i12)"><polygon points="0,0 2.88407416,0 2.88407416,2.74648202 0,2.74648202 0,0" stroke="none" fill="#58C9E9"></polygon></g></g><g transform="translate(7.0511503238775965 19.93397913096122)"><g clip-path="url(#i13)"><polygon points="0,0 2.77149877,0 2.77149877,2.91087782 0,2.91087782 0,0" stroke="none" fill="#F78F2E"></polygon></g></g></g><g transform="translate(7.103417467053847 27.42952870225596)"><g transform="translate(18.18896582532946 4.905070359615813)"><g clip-path="url(#i14)"><polygon points="0,0 0.816618271,0 0.816618271,0.859504132 0,0.859504132 0,0" stroke="none" fill="#F78F2E"></polygon></g></g><g transform="translate(14.48469957560867 3.014518650882288)"><g clip-path="url(#i15)"><polygon points="0,0 0.821979004,0 0.821979004,1.37592138 0,1.37592138 0,0" stroke="none" fill="#A07CB8"></polygon></g></g><g transform="translate(4.989055170873351 3.5773955773955795)"><g clip-path="url(#i16)"><polygon points="0,0 0.852356489,0 0.852356489,0.811257539 0,0.811257539 0,0" stroke="none" fill="#EF539E"></polygon></g></g><g transform="translate(20.98190752736207 3.664954210408755)"><g clip-path="url(#i17)"><polygon points="0,0 0.813044449,0 0.813044449,0.813044449 0,0.813044449 0,0" stroke="none" fill="#58C9E9"></polygon></g></g><g transform="translate(1.635023453205271 1.206164842528479)"><g clip-path="url(#i18)"><polygon points="0,0 0.821979004,0 0.821979004,1.37592138 0,1.37592138 0,0" stroke="none" fill="#A07CB8"></polygon></g></g><g transform="translate(15.726602635693538 1.165065892338622)"><g clip-path="url(#i19)"><polygon points="0,0 3.27898146,0 3.27898146,3.73464373 0,3.73464373 0,0" stroke="none" fill="#181849"></polygon></g></g><g transform="translate(16.95242349787804 2.3901575131431896)"><g clip-path="url(#i20)"><polygon points="0,1.13103971e-15 0.814174504,1.13103971e-15 0.814174504,0.813773691 0,0.813773691 0,1.13103971e-15" stroke="none" fill="#181849"></polygon></g></g><g transform="translate(8.344873799419254 0.04824659370113604)"><g clip-path="url(#i21)"><polygon points="0,0 1.80835381,0 1.80835381,4.42796516 0,4.42796516 0,0" stroke="none" fill="#181849"></polygon></g></g><g transform="translate(10.57851239669421 1.2061648425284792)"><g clip-path="url(#i22)"><polygon points="0,0 1.41880724,0 1.41880724,3.18070136 0,3.18070136 0,0" stroke="none" fill="#181849"></polygon></g></g><g transform="translate(12.42617824436006 1.206164842528479)"><g clip-path="url(#i23)"><polygon points="0,0 2.87871342,0 2.87871342,3.22537413 0,3.22537413 0,0" stroke="none" fill="#181849"></polygon></g></g><g transform="translate(0.13223140495867747 1.4652669198123722)"><g clip-path="url(#i24)"><polygon points="0,0 0.816618271,0 0.816618271,2.9233862 0,2.9233862 0,0" stroke="none" fill="#181849"></polygon></g></g><g transform=""><g clip-path="url(#i25)"><polygon points="0,0 1.12039312,0 1.12039312,1.07393344 0,1.07393344 0,0" stroke="none" fill="#181849"></polygon></g></g><g transform="translate(4.992182264909538 1.2061648425284692)"><g clip-path="url(#i26)"><polygon points="0,0 2.91855612,0 2.91855612,3.18079077 0,3.18079077 0,0" stroke="none" fill="#181849"></polygon></g></g><g transform="translate(19.52200134018316 0.04824659370113604)"><g clip-path="url(#i27)"><polygon points="0,0 1.84766585,0 1.84766585,4.42796516 0,4.42796516 0,0" stroke="none" fill="#181849"></polygon></g></g><g transform="translate(1.6368103640830922 1.1632789814607982)"><g clip-path="url(#i28)"><polygon points="0,0 2.88050034,0 2.88050034,3.22537413 0,3.22537413 0,0" stroke="none" fill="#181849"></polygon></g></g></g></g></g><g transform="translate(30.0 131.0)"><g clip-path="url(#i29)"><polygon points="0,0 110,0 110,199 0,199 0,0" stroke="none" fill="url(#i30)"></polygon></g></g><g transform="translate(115.0 194.0)"><path d="M0,0.5 L305,0.5" stroke="#F25053" stroke-width="2" fill="none" stroke-miterlimit="10" stroke-dasharray=" 5.0 5.0"></path></g><g transform="translate(199.99999999999994 120.0)"><path d="M70,0 C23.3333333,28 0,53.5 0,76.5 C0,99.5 23.3333333,124 70,150" stroke="#F25053" stroke-width="2" fill="none" stroke-miterlimit="10" stroke-dasharray=" 1.0 1.0"></path></g><g transform="translate(520.0 130.0)"><g clip-path="url(#i31)"><polygon points="0,0 90,0 90,200 0,200 0,0" stroke="none" fill="url(#i32)"></polygon><path d="M5,0 L85,0 C87.7614237,-5.07265313e-16 90,2.23857625 90,5 L90,195 C90,197.761424 87.7614237,200 85,200 L5,200 C2.23857625,200 2.11453371e-15,197.761424 0,195 L0,5 C-3.38176876e-16,2.23857625 2.23857625,4.94815741e-15 5,0 Z" stroke="#F25053" stroke-width="4" fill="none" stroke-miterlimit="5"></path></g></g><g transform="translate(420.0 130.0)"><g clip-path="url(#i31)"><polygon points="0,0 90,0 90,200 0,200 0,0" stroke="none" fill="url(#i33)"></polygon><path d="M5,0 L85,0 C87.7614237,-5.07265313e-16 90,2.23857625 90,5 L90,195 C90,197.761424 87.7614237,200 85,200 L5,200 C2.23857625,200 2.11453371e-15,197.761424 0,195 L0,5 C-3.38176876e-16,2.23857625 2.23857625,4.94815741e-15 5,0 Z" stroke="#F25053" stroke-width="4" fill="none" stroke-miterlimit="5"></path></g></g><g transform="translate(620.0 130.0)"><g clip-path="url(#i34)"><polygon points="0,0 200,0 200,200 0,200 0,0" stroke="none" fill="url(#i35)"></polygon><path d="M5,0 L85,0 C87.7614237,-5.07265313e-16 90,2.23857625 90,5 L90,105 C90,107.761424 92.2385763,110 95,110 L195,110 C197.761424,110 200,112.238576 200,115 L200,195 C200,197.761424 197.761424,200 195,200 L5,200 C2.23857625,200 4.77906897e-15,197.761424 0,195 L0,5 C-3.38176876e-16,2.23857625 2.23857625,4.94815741e-15 5,0 Z" stroke="#F25053" stroke-width="4" fill="none" stroke-miterlimit="5"></path></g></g><g transform="translate(730.0 131.0)"><g clip-path="url(#i36)"><polygon points="0,0 90,0 90,90 0,90 0,0" stroke="none" fill="url(#i37)"></polygon><path d="M5,0 L85,0 C87.7614237,-5.07265313e-16 90,2.23857625 90,5 L90,85 C90,87.7614237 87.7614237,90 85,90 L5,90 C2.23857625,90 2.11453371e-15,87.7614237 0,85 L0,5 C-3.38176876e-16,2.23857625 2.23857625,2.28362215e-15 5,0 Z" stroke="#F25053" stroke-width="4" fill="none" stroke-miterlimit="5"></path></g></g><g transform="translate(464.5 220.0)"><path d="M0.5,0 L0.5,20" stroke="#000000" stroke-width="2" fill="none" stroke-linecap="round" stroke-miterlimit="10"></path></g><g transform="translate(489.03906250000006 200.0)"><path d="M0,0 L20.9609375,0 C23.7223612,-5.07265313e-16 25.9609375,2.23857625 25.9609375,5 L25.9609375,25 C25.9609375,27.7614237 28.1995138,30 30.9609375,30 L51.8489583,30 L51.8489583,30" stroke="#000000" stroke-width="2" fill="none" stroke-linecap="round" stroke-miterlimit="10"></path></g><g transform="translate(490.0390625 254.5703045035825)"><path d="M0,10.4296955 L70.9609375,10.4296955 C73.7223612,10.4296955 75.9609375,8.19111925 75.9609375,5.4296955 L75.9609375,0 L75.9609375,0" stroke="#B6B8C2" stroke-width="2" fill="none" stroke-linecap="round" stroke-miterlimit="10" stroke-dasharray=" 5.0 5.0"></path></g><g transform="translate(589.0000000000001 230.0)"><path d="M0,0 L20.9609375,0 C23.7223612,-5.07265313e-16 25.9609375,2.23857625 25.9609375,5 L25.9609375,50 C25.9609375,52.7614237 28.1995138,55 30.9609375,55 L51.8489583,55 L51.8489583,55" stroke="#000000" stroke-width="2" fill="none" stroke-linecap="round" stroke-miterlimit="10"></path></g><g transform="translate(689.0390625000001 175.5)"><path d="M0,0.5 L60.9609375,0.5" stroke="#000000" stroke-width="2" fill="none" stroke-linecap="round" stroke-miterlimit="10"></path></g><g transform="translate(688.0390625000001 284.5)"><path d="M0,0.5 L61.9609375,0.5" stroke="#000000" stroke-width="2" fill="none" stroke-linecap="round" stroke-miterlimit="10"></path></g><g transform="translate(589.0000000000001 230.0) scale(1.0 -1.0)"><path d="M0,0 L20.9609375,0 C23.7223612,-5.07265313e-16 25.9609375,2.23857625 25.9609375,5 L25.9609375,48 C25.9609375,50.7614237 28.1995138,53 30.9609375,53 L51.8489583,53 L51.8489583,53" stroke="#000000" stroke-width="2" fill="none" stroke-linecap="round" stroke-miterlimit="10"></path></g><g transform="translate(435.0 148.0)"><g transform="translate(0.0 17.0)"><g transform="translate(6.0 6.0)"><g clip-path="url(#i38)"><polygon points="0,0 48,0 48,48 0,48 0,0" stroke="none" fill="#F25053"></polygon></g></g></g><g transform="translate(12.0 30.0)"><g transform="translate(2.0 2.0)"><g clip-path="url(#i39)"><polygon points="0,0 32,0 32,32 0,32 0,0" stroke="none" fill="#FFFFFF"></polygon></g></g></g><g transform="translate(5.0 0.0)"><text transform="translate(12.9438671875 11.0)" font-family="Roboto-Medium, Roboto" font-size="12.0" font-weight="400" fill="#212121" text-anchor="center" letter-spacing="0.18">Web</text></g></g><g transform="translate(435.0 235.0)"><g transform="translate(6.0 6.0)"><g clip-path="url(#i38)"><polygon points="0,0 48,0 48,48 0,48 0,0" stroke="none" fill="#F25053"></polygon></g></g><g transform="translate(12.0 12.0)"><g transform="translate(2.0 2.0)"><g clip-path="url(#i40)"><polygon points="0,5.55111512e-17 32,5.55111512e-17 32,32 0,32 0,5.55111512e-17" stroke="none" fill="#FFFFFF"></polygon></g></g></g><g transform="translate(5.0 63.0)"><text transform="translate(0.36496093750000114 11.0)" font-family="Roboto-Medium, Roboto" font-size="12.0" font-weight="400" fill="#212121" text-anchor="center" letter-spacing="0.18">Frontend</text></g></g><g transform="translate(630.0 145.0)"><g transform="translate(5.0 0.0)"><g transform="translate(6.0 6.0)"><g clip-path="url(#i38)"><polygon points="0,0 48,0 48,48 0,48 0,0" stroke="none" fill="#F25053"></polygon></g></g></g><g transform="translate(17.0 13.0)"><g transform="translate(2.0 2.0)"><g clip-path="url(#i40)"><polygon points="0,5.55111512e-17 32,5.55111512e-17 32,32 0,32 0,5.55111512e-17" stroke="none" fill="#FFFFFF"></polygon></g></g></g><g transform="translate(0.0 59.0)"><text transform="translate(1.8830468749999625 11.0)" font-family="Roboto-Medium, Roboto" font-size="12.0" font-weight="400" fill="#212121" text-anchor="center" letter-spacing="0.18">Product API</text></g></g><g transform="translate(630.0 243.0)"><g transform="translate(5.0 12.0)"><g transform="translate(6.0 6.0)"><g clip-path="url(#i38)"><polygon points="0,0 48,0 48,48 0,48 0,0" stroke="none" fill="#F25053"></polygon></g></g></g><g transform="translate(17.0 24.0)"><g transform="translate(2.0 2.0)"><g clip-path="url(#i40)"><polygon points="0,5.55111512e-17 32,5.55111512e-17 32,32 0,32 0,5.55111512e-17" stroke="none" fill="#FFFFFF"></polygon></g></g></g><text transform="translate(7.485078125000001 11.0)" font-family="Roboto-Medium, Roboto" font-size="12.0" font-weight="400" fill="#212121" text-anchor="center" letter-spacing="0.18">Payments</text></g><g transform="translate(530.0 186.0)"><g transform="translate(5.0 14.0)"><g transform="translate(6.0 6.0)"><g clip-path="url(#i38)"><polygon points="0,0 48,0 48,48 0,48 0,0" stroke="none" fill="#F25053"></polygon></g></g></g><g transform="translate(17.0 26.0)"><g transform="translate(2.0 2.0)"><g clip-path="url(#i41)"><polygon points="0,0 32,0 32,32 0,32 0,0" stroke="none" fill="#FFFFFF"></polygon></g></g></g><text transform="translate(6.332421875000001 11.0)" font-family="Roboto-Medium, Roboto" font-size="12.0" font-weight="400" fill="#212121" text-anchor="center" letter-spacing="0.18">Public API</text></g><g transform="translate(738.0 146.0)"><g transform="translate(5.0 0.0)"><g transform="translate(6.0 6.0)"><g clip-path="url(#i38)"><polygon points="0,0 48,0 48,48 0,48 0,0" stroke="none" fill="#F25053"></polygon></g></g></g><g transform="translate(17.0 12.0)"><g transform="translate(2.0 2.0)"><g clip-path="url(#i42)"><polygon points="0,0 32,0 32,32 0,32 0,0" stroke="none" fill="#FFFFFF"></polygon></g></g></g><g transform="translate(0.0 58.0)"><text transform="translate(10.203828125000001 11.0)" font-family="Roboto-Medium, Roboto" font-size="12.0" font-weight="400" fill="#212121" text-anchor="center" letter-spacing="0.18">Postgres</text></g></g><g transform="translate(738.0 243.0)"><g transform="translate(5.0 12.0)"><g transform="translate(6.0 6.0)"><g clip-path="url(#i38)"><polygon points="0,0 48,0 48,48 0,48 0,0" stroke="none" fill="#F25053"></polygon></g></g></g><g transform="translate(17.0 24.0)"><g transform="translate(2.0 2.0)"><g clip-path="url(#i42)"><polygon points="0,0 32,0 32,32 0,32 0,0" stroke="none" fill="#FFFFFF"></polygon></g></g></g><text transform="translate(18.17890625 11.0)" font-family="Roboto-Medium, Roboto" font-size="12.0" font-weight="400" fill="#212121" text-anchor="center" letter-spacing="0.18">REDIS</text></g><g transform="translate(55.0 235.0)"><g transform="translate(6.0 6.0)"><path d="M46,-2 C47.1045695,-2 48.1045695,-1.55228475 48.8284271,-0.828427125 C49.5522847,-0.1045695 50,0.8954305 50,2 L50,46 C50,47.1045695 49.5522847,48.1045695 48.8284271,48.8284271 C48.1045695,49.5522847 47.1045695,50 46,50 L2,50 C0.8954305,50 -0.1045695,49.5522847 -0.828427125,48.8284271 C-1.55228475,48.1045695 -2,47.1045695 -2,46 L-2,2 C-2,0.8954305 -1.55228475,-0.1045695 -0.828427125,-0.828427125 C-0.1045695,-1.55228475 0.8954305,-2 2,-2 Z" stroke="none" fill="#000000" filter="url(#i43)"></path><g clip-path="url(#i38)"><polygon points="0,0 48,0 48,48 0,48 0,0" stroke="none" fill="#FFFFFF"></polygon></g></g><g transform="translate(12.0 13.0)"><g transform="translate(3.9999999999999982 2.0)"><g transform="translate(9.674385964912286 5.639298245614021)"><g clip-path="url(#i46)"><polygon points="0,0 8.72140351,0 8.72140351,15.1522807 0,15.1522807 0,0" stroke="none" fill="#7B41BC"></polygon></g></g><g transform="translate(19.35157894736852 5.639298245614021)"><g clip-path="url(#i47)"><polygon points="0,0 8.71859649,0 8.71859649,15.1522807 0,15.1522807 0,0" stroke="none" fill="#7B41BC"></polygon></g></g><g clip-path="url(#i48)"><polygon points="0,0 8.71859649,0 8.71859649,15.1536842 0,15.1536842 0,0" stroke="none" fill="#7B41BC"></polygon></g><g transform="translate(9.674385964912286 16.846315789473742)"><g clip-path="url(#i49)"><polygon points="0,0 8.71859649,0 8.71859649,15.1536842 0,15.1536842 0,0" stroke="none" fill="#7B41BC"></polygon></g></g></g></g><g transform="translate(5.0 63.0)"><text transform="translate(10.9796875 11.0)" font-family="Roboto-Medium, Roboto" font-size="12.0" font-weight="400" fill="#212121" text-anchor="center" letter-spacing="0.18">Build</text></g></g><g transform="translate(55.0 148.0)"><g transform="translate(0.0 17.0)"><g transform="translate(6.0 6.0)"><g clip-path="url(#i38)"><polygon points="0,0 48,0 48,48 0,48 0,0" stroke="none" fill="#F25053"></polygon></g></g></g><g transform="translate(12.0 28.0)"><g transform="translate(2.0 3.0)"><g clip-path="url(#i50)"><polygon points="0,6.60804744e-13 32,6.60804744e-13 32,30.844114 0,30.844114 0,6.60804744e-13" stroke="none" fill="#FFFFFF"></polygon></g></g></g><g transform="translate(5.0 0.0)"><text transform="translate(2.756875000000001 11.0)" font-family="Roboto-Medium, Roboto" font-size="12.0" font-weight="400" fill="#212121" text-anchor="center" letter-spacing="0.18">Manage</text></g></g><g transform="translate(260.0 171.0)"><g clip-path="url(#i51)"><polygon points="0,0 48,0 48,48 0,48 0,0" stroke="none" fill="#FFFFFF"></polygon><path d="M24,48 C37.254834,48 48,37.254834 48,24 C48,10.745166 37.254834,0 24,0 C10.745166,0 0,10.745166 0,24 C0,37.254834 10.745166,48 24,48 Z" stroke="#F25053" stroke-width="4" fill="none" stroke-miterlimit="5"></path></g><g transform="translate(6.0 5.0)"><g transform="translate(4.0 5.0)"><g clip-path="url(#i52)"><polygon points="4.4408921e-16,0 28,0 28,26.8702944 4.4408921e-16,26.8702944 4.4408921e-16,0" stroke="none" fill="#212121"></polygon></g><g transform="translate(9.053937502073296 15.007387754981462)"><g clip-path="url(#i53)"><polygon points="-4.35415592e-16,0 9.88992322,0 9.88992322,2.68003017 -4.35415592e-16,2.68003017 -4.35415592e-16,0" stroke="none" fill="#212121"></polygon></g></g><g transform="translate(13.06580379452572 19.35341467849764)"><g clip-path="url(#i54)"><polygon points="7.77156117e-16,0 1.8677005,0 1.8677005,3.18930811 7.77156117e-16,3.18930811 7.77156117e-16,0" stroke="none" fill="#212121"></polygon></g></g><g transform="translate(8.324698615482532 9.396309206449324)"><g clip-path="url(#i55)"><polygon points="0,-4.4408921e-16 4.42478092,-4.4408921e-16 4.42478092,1.50559222 0,1.50559222 0,-4.4408921e-16" stroke="none" fill="#212121"></polygon></g></g><g transform="translate(15.249828561094521 9.396309206449324)"><g clip-path="url(#i56)"><polygon points="0,-4.4408921e-16 4.42478092,-4.4408921e-16 4.42478092,1.50559222 0,1.50559222 0,-4.4408921e-16" stroke="none" fill="#212121"></polygon></g></g><g transform="translate(8.546812304614292 6.957265410234292)"><g clip-path="url(#i57)"><polygon points="0,6.66133815e-16 3.97932639,6.66133815e-16 3.97932639,1.87468325 0,1.87468325 0,6.66133815e-16" stroke="none" fill="#212121"></polygon></g></g><g transform="translate(15.47316939768007 6.957265410234292)"><g clip-path="url(#i58)"><polygon points="0,6.66133815e-16 3.97932639,6.66133815e-16 3.97932639,1.87468325 0,1.87468325 0,6.66133815e-16" stroke="none" fill="#212121"></polygon></g></g></g></g></g><g transform="translate(260.0 250.0)"><g clip-path="url(#i51)"><polygon points="0,0 48,0 48,48 0,48 0,0" stroke="none" fill="#FFFFFF"></polygon><path d="M24,48 C37.254834,48 48,37.254834 48,24 C48,10.745166 37.254834,0 24,0 C10.745166,0 0,10.745166 0,24 C0,37.254834 10.745166,48 24,48 Z" stroke="#F25053" stroke-width="4" fill="none" stroke-miterlimit="5"></path></g><g transform="translate(6.0 6.0)"><g transform="translate(7.0 6.999999999999998)"><g transform="translate(15.48825160144884 2.002918426399276)"><g clip-path="url(#i59)"><polygon points="0,1.11022302e-16 4.01274474,1.11022302e-16 4.01274474,3.96416639 0,3.96416639 0,1.11022302e-16" stroke="none" fill="#212121"></polygon></g></g><g transform="translate(15.546967529284071 0.00012459059644243098)"><g clip-path="url(#i60)"><polygon points="0,-1.73472348e-17 5.97129843,-1.73472348e-17 5.97129843,5.97733912 0,5.97733912 0,-1.73472348e-17" stroke="none" fill="#212121"></polygon></g></g><g transform="translate(2.5290579155014257 2.020098189996645)"><g clip-path="url(#i61)"><polygon points="1.66533454e-16,0 3.98201976,0 3.98201976,3.95052572 1.66533454e-16,3.95052572 1.66533454e-16,0" stroke="none" fill="#212121"></polygon></g></g><g transform="translate(0.4848760305956148 0.0)"><g clip-path="url(#i62)"><polygon points="-1.38777878e-17,5.55111512e-17 5.97129987,5.55111512e-17 5.97129987,5.97746371 -1.38777878e-17,5.97746371 -1.38777878e-17,5.55111512e-17" stroke="none" fill="#212121"></polygon></g></g><g transform="translate(14.50853056342476 9.113126632576495)"><g clip-path="url(#i63)"><polygon points="6.38378239e-16,0 1.09333654,0 1.09333654,1.09337428 6.38378239e-16,1.09337428 6.38378239e-16,0" stroke="none" fill="#212121"></polygon></g></g><g transform="translate(6.401109086039924 9.11304461920497)"><g clip-path="url(#i64)"><polygon points="0,0 1.08648305,0 1.08648305,1.08648305 0,1.08648305 0,0" stroke="none" fill="#212121"></polygon></g></g><g transform="translate(0.0 3.1907152401651615)"><g clip-path="url(#i65)"><polygon points="-1.38777878e-17,-2.16840434e-19 22,-2.16840434e-19 22,18.1657097 -1.38777878e-17,18.1657097 -1.38777878e-17,-2.16840434e-19" stroke="none" fill="#212121"></polygon></g></g><g transform="translate(9.57451977914343 17.28587268183617)"><g clip-path="url(#i66)"><polygon points="0,0 2.85371879,0 2.85371879,1.69504192 0,1.69504192 0,0" stroke="none" fill="#212121"></polygon></g></g></g></g></g><g transform="translate(283.5 218.0)"><path d="M0.5,0 L0.5,32" stroke="#F25053" stroke-width="2" fill="none" stroke-miterlimit="10"></path></g><g transform="translate(283.5 138.0)"><path d="M0.5,0 L0.5,34" stroke="#F25053" stroke-width="2" fill="none" stroke-miterlimit="10"></path></g><g transform="translate(308.0 273.5)"><path d="M0,0.5 L112,0.5" stroke="#F25053" stroke-width="2" fill="none" stroke-miterlimit="10"></path></g><g transform="translate(260.0 90.0)"><g clip-path="url(#i51)"><polygon points="0,0 48,0 48,48 0,48 0,0" stroke="none" fill="#FFFFFF"></polygon><path d="M24,48 C37.254834,48 48,37.254834 48,24 C48,10.745166 37.254834,0 24,0 C10.745166,0 0,10.745166 0,24 C0,37.254834 10.745166,48 24,48 Z" stroke="#F25053" stroke-width="4" fill="none" stroke-miterlimit="5"></path></g><g transform="translate(6.0 6.0)"><g transform="translate(6.0 5.0)"><g clip-path="url(#i67)"><polygon points="1.34614542e-15,0 24,0 24,25.373257 1.34614542e-15,25.373257 1.34614542e-15,0" stroke="none" fill="#212121"></polygon></g></g></g></g></g></svg>