<?xml version="1.0" encoding="UTF-8"?>
<svg width="19px" height="19px" viewBox="0 0 19 19" version="1.1" xmlns="http://www.w3.org/2000/svg" xmlns:xlink="http://www.w3.org/1999/xlink">
    <title>icon-copy</title>
    <g id="Page-1" stroke="none" stroke-width="1" fill="none" fill-rule="evenodd">
        <g id="icon-copy" fill="#979797" fill-rule="nonzero">
            <path d="M16.625,4.75 L14.25,4.75 L14.25,2.03571429 C14.25,0.911420331 13.1866763,0 11.875,0 L2.375,0 C1.06332372,0 0,0.911420331 0,2.03571429 L0,12.8928571 C0,14.0171511 1.06332372,14.9285714 2.375,14.9285714 L4.75,14.9285714 L4.75,16.9642857 C4.75,18.0885797 5.81332372,19 7.125,19 L16.625,19 C17.9366763,19 19,18.0885797 19,16.9642857 L19,6.78571429 C19,5.66142033 17.9366763,4.75 16.625,4.75 Z M1.5,12.1388889 L1.5,2.36111111 C1.5,2.02360376 1.85177627,1.75 2.28571429,1.75 L11.7142857,1.75 C12.1482237,1.75 12.5,2.02360376 12.5,2.36111111 L12.5,12.1388889 C12.5,12.4763962 12.1482237,12.75 11.7142857,12.75 L2.28571429,12.75 C1.85177627,12.75 1.5,12.4763962 1.5,12.1388889 Z M17.3333333,16.460084 C17.3333333,16.8174448 16.9815571,17.1071429 16.547619,17.1071429 L7.11904762,17.1071429 C6.6851096,17.1071429 6.33333333,16.8174448 6.33333333,16.460084 L6.33333333,14.5189076 L11.8333333,14.5189076 C13.1351474,14.5189076 14.1904762,13.6498133 14.1904762,12.5777311 L14.1904762,6.10714286 L16.547619,6.10714286 C16.9815571,6.10714286 17.3333333,6.39684096 17.3333333,6.75420168 L17.3333333,16.460084 Z" id="Shape"></path>
        </g>
    </g>
</svg>