<?xml version="1.0" encoding="UTF-8"?><svg version="1.1" width="60px" height="60px" viewBox="0 0 60.0 60.0" xmlns="http://www.w3.org/2000/svg" xmlns:xlink="http://www.w3.org/1999/xlink"><defs><clipPath id="i0"><path d="M480,0 L480,96 L0,96 L0,0 L480,0 Z"></path></clipPath><clipPath id="i1"><path d="M46,0 C47.1045695,-2.02906125e-16 48,0.8954305 48,2 L48,46 C48,47.1045695 47.1045695,48 46,48 L2,48 C0.8954305,48 1.02344917e-15,47.1045695 0,46 L0,2 C-1.3527075e-16,0.8954305 0.8954305,1.09108455e-15 2,0 L46,0 Z"></path></clipPath><linearGradient id="i2" x1="1.13242749e-14px" y1="-4.6629367e-15px" x2="48px" y2="48px" gradientUnits="userSpaceOnUse"><stop stop-color="#0D0F12" offset="0%"></stop><stop stop-color="#363941" offset="100%"></stop></linearGradient><clipPath id="i3"><path d="M18.7365494,0 C20.8845357,0 22.6252672,1.73931742 22.6252672,3.8887178 L22.6252672,11.6661534 L25.9144154,13.0660918 C27.3497058,13.6741459 28.281584,15.0882251 28.281584,16.6437122 L28.281584,25.8069454 C28.281584,27.1786022 27.1729459,28.281584 25.8069454,28.281584 L21.5647078,28.281584 C21.3525959,28.281584 21.1560389,28.2250208 20.9891776,28.1118945 C20.8689808,28.0411905 20.7657531,27.9280642 20.6851505,27.8149379 C20.5706101,27.6452484 20.5041484,27.4472773 20.5041484,27.2210246 L20.5041484,3.8887178 C20.5041484,2.91300315 19.7122641,2.1211188 18.7365494,2.1211188 L3.8887178,2.1211188 C2.91300315,2.1211188 2.1211188,2.91300315 2.1211188,3.8887178 L2.1211188,27.2210246 C2.1211188,27.8007971 1.64598819,28.281584 1.0605594,28.281584 C0.475130611,28.281584 0,27.8007971 0,27.2210246 L0,3.8887178 C0,1.73931742 1.7407315,0 3.8887178,0 L18.7365494,0 Z M22.6252672,13.9711025 L22.6252672,26.1604652 L25.8069454,26.1604652 C26.0020883,26.1604652 26.1604652,26.0049165 26.1604652,25.8069454 L26.1604652,16.6437122 C26.1604652,15.9366726 25.7362415,15.300337 25.0843509,15.0175211 L22.6252672,13.9711025 Z"></path></clipPath><clipPath id="i4"><path d="M6.7168762,0 C7.69259085,0 8.4844752,0.791884352 8.4844752,1.767599 L8.4844752,7.4239158 C8.4844752,8.00368828 8.00934459,8.4844752 7.4239158,8.4844752 C6.83848701,8.4844752 6.3633564,8.00368828 6.3633564,7.4239158 L6.3633564,2.1211188 L2.1211188,2.1211188 L2.1211188,7.4239158 C2.1211188,8.00368828 1.64598819,8.4844752 1.0605594,8.4844752 C0.475130611,8.4844752 0,8.00368828 0,7.4239158 L0,1.767599 C0,0.791884352 0.791884352,0 1.767599,0 Z"></path></clipPath><clipPath id="i5"><path d="M1.767599,0 C2.35302779,0 2.8281584,0.480786928 2.8281584,1.0605594 C2.8281584,1.64033187 2.35302779,2.1211188 1.767599,2.1211188 L1.0605594,2.1211188 C0.475130611,2.1211188 0,1.64033187 0,1.0605594 C0,0.480786928 0.475130611,0 1.0605594,0 L1.767599,0 Z"></path></clipPath><clipPath id="i6"><path d="M1.767599,0 C2.35302779,0 2.8281584,0.480786928 2.8281584,1.0605594 C2.8281584,1.64033187 2.35302779,2.1211188 1.767599,2.1211188 L1.0605594,2.1211188 C0.475130611,2.1211188 0,1.64033187 0,1.0605594 C0,0.480786928 0.475130611,0 1.0605594,0 Z"></path></clipPath><clipPath id="i7"><path d="M1.767599,0 C2.35302779,0 2.8281584,0.480786928 2.8281584,1.0605594 C2.8281584,1.64033187 2.35302779,2.1211188 1.767599,2.1211188 L1.0605594,2.1211188 C0.475130611,2.1211188 0,1.64033187 0,1.0605594 C0,0.480786928 0.475130611,0 1.0605594,0 L1.767599,0 Z"></path></clipPath><clipPath id="i8"><path d="M1.767599,0 C2.35302779,0 2.8281584,0.480786928 2.8281584,1.0605594 C2.8281584,1.64033187 2.35302779,2.1211188 1.767599,2.1211188 L1.0605594,2.1211188 C0.475130611,2.1211188 0,1.64033187 0,1.0605594 C0,0.480786928 0.475130611,0 1.0605594,0 Z"></path></clipPath><clipPath id="i9"><path d="M1.767599,0 C2.35302779,0 2.8281584,0.480786928 2.8281584,1.0605594 C2.8281584,1.64033187 2.35302779,2.1211188 1.767599,2.1211188 L1.0605594,2.1211188 C0.475130611,2.1211188 0,1.64033187 0,1.0605594 C0,0.480786928 0.475130611,0 1.0605594,0 L1.767599,0 Z"></path></clipPath><clipPath id="i10"><path d="M1.767599,0 C2.35302779,0 2.8281584,0.480786928 2.8281584,1.0605594 C2.8281584,1.64033187 2.35302779,2.1211188 1.767599,2.1211188 L1.0605594,2.1211188 C0.475130611,2.1211188 0,1.64033187 0,1.0605594 C0,0.480786928 0.475130611,0 1.0605594,0 Z"></path></clipPath></defs><g transform="translate(-402.0 -18.0)"><g clip-path="url(#i0)"><g transform="translate(402.0 18.0)"><g transform="translate(6.0 6.0)"><g clip-path="url(#i1)"><polygon points="0,0 48,0 48,48 0,48 0,0" stroke="none" fill="url(#i2)"></polygon></g></g><g transform="translate(7.0 6.0)"><g transform="translate(2.666666666666668 9.333333333333336)"><g clip-path="url(#i3)"><polygon points="0,0 28.281584,0 28.281584,28.281584 0,28.281584 0,0" stroke="none" fill="#FFFFFF"></polygon></g><g transform="translate(7.07039600288026 19.79710880806472)"><g clip-path="url(#i4)"><polygon points="0,0 8.4844752,0 8.4844752,8.4844752 0,8.4844752 0,0" stroke="none" fill="#FFFFFF"></polygon></g></g><g transform="translate(7.070396002880261 5.656316802304207)"><g clip-path="url(#i5)"><polygon points="0,0 2.8281584,0 2.8281584,2.1211188 0,2.1211188 0,0" stroke="none" fill="#FFFFFF"></polygon></g></g><g transform="translate(12.726712805184468 5.656316802304207)"><g clip-path="url(#i6)"><polygon points="0,0 2.8281584,0 2.8281584,2.1211188 0,2.1211188 0,0" stroke="none" fill="#FFFFFF"></polygon></g></g><g transform="translate(7.070396002880261 9.898554404032362)"><g clip-path="url(#i7)"><polygon points="0,0 2.8281584,0 2.8281584,2.1211188 0,2.1211188 0,0" stroke="none" fill="#FFFFFF"></polygon></g></g><g transform="translate(12.726712805184468 9.898554404032362)"><g clip-path="url(#i8)"><polygon points="0,0 2.8281584,0 2.8281584,2.1211188 0,2.1211188 0,0" stroke="none" fill="#FFFFFF"></polygon></g></g><g transform="translate(7.070396002880261 14.140792005760524)"><g clip-path="url(#i9)"><polygon points="0,0 2.8281584,0 2.8281584,2.1211188 0,2.1211188 0,0" stroke="none" fill="#FFFFFF"></polygon></g></g><g transform="translate(12.726712805184468 14.140792005760524)"><g clip-path="url(#i10)"><polygon points="0,0 2.8281584,0 2.8281584,2.1211188 0,2.1211188 0,0" stroke="none" fill="#FFFFFF"></polygon></g></g><g transform="translate(29.3333333333333 5.333333333333296)"><g transform="translate(11.285782307166286 5.779991580462822) rotate(-176.63353933657024)"><path d="M11.2931122,0.167849641 L0,0.832150359" stroke="#FFFFFF" stroke-width="1" fill="none" stroke-linecap="round" stroke-miterlimit="10"></path></g><g transform="translate(7.102170949116093 0.0)"><path d="M0,0 L5.11552052,5.01321011 L0,9.8985544" stroke="#FFFFFF" stroke-width="1" fill="none" stroke-linecap="round" stroke-miterlimit="10"></path></g></g></g></g></g></g></g></svg>