<?xml version="1.0" encoding="UTF-8"?><svg version="1.1" width="60px" height="60px" viewBox="0 0 60.0 60.0" xmlns="http://www.w3.org/2000/svg" xmlns:xlink="http://www.w3.org/1999/xlink"><defs><clipPath id="i0"><path d="M480,0 L480,96 L0,96 L0,0 L480,0 Z"></path></clipPath><clipPath id="i1"><path d="M46,0 C47.1045695,-2.02906125e-16 48,0.8954305 48,2 L48,46 C48,47.1045695 47.1045695,48 46,48 L2,48 C0.8954305,48 1.02344917e-15,47.1045695 0,46 L0,2 C-1.3527075e-16,0.8954305 0.8954305,1.09108455e-15 2,0 L46,0 Z"></path></clipPath><linearGradient id="i2" x1="1.13242749e-14px" y1="-4.6629367e-15px" x2="48px" y2="48px" gradientUnits="userSpaceOnUse"><stop stop-color="#0D0F12" offset="0%"></stop><stop stop-color="#363941" offset="100%"></stop></linearGradient><clipPath id="i3"><path d="M16.5128205,0 C17.8998974,0 19.025641,1.12 19.025641,2.51282051 L19.025641,7.53846154 C19.025641,8.93128205 17.8998974,10.0512821 16.5128205,10.0512821 L14.7179487,10.0512821 L14.7179487,12.2051282 L26.9230769,12.2051282 C27.5175385,12.2051282 28,12.6933333 28,13.2820513 C28,13.8707692 27.5175385,14.3589744 26.9230769,14.3589744 L21.8974359,14.3589744 L21.8974359,17.2307692 L23.6923077,17.2307692 C25.0793846,17.2307692 26.2051282,18.3507692 26.2051282,19.7435897 L26.2051282,24.7692308 C26.2051282,26.1620513 25.0793846,27.2820513 23.6923077,27.2820513 L18.6666667,27.2820513 C17.2795897,27.2820513 16.1538462,26.1620513 16.1538462,24.7692308 L16.1538462,19.7435897 C16.1538462,18.3507692 17.2795897,17.2307692 18.6666667,17.2307692 L19.7435897,17.2307692 L19.7435897,14.3589744 L8.25641026,14.3589744 L8.25641026,17.2307692 L9.33333333,17.2307692 C10.7204103,17.2307692 11.8461538,18.3507692 11.8461538,19.7435897 L11.8461538,24.7692308 C11.8461538,26.1620513 10.7204103,27.2820513 9.33333333,27.2820513 L4.30769231,27.2820513 C2.92061538,27.2820513 1.79487179,26.1620513 1.79487179,24.7692308 L1.79487179,19.7435897 C1.79487179,18.3507692 2.92061538,17.2307692 4.30769231,17.2307692 L6.1025641,17.2307692 L6.1025641,14.3589744 L1.07692308,14.3589744 C0.482461538,14.3589744 0,13.8707692 0,13.2820513 C0,12.6933333 0.482461538,12.2051282 1.07692308,12.2051282 L12.5641026,12.2051282 L12.5641026,10.0512821 L11.4871795,10.0512821 C10.1001026,10.0512821 8.97435897,8.93128205 8.97435897,7.53846154 L8.97435897,2.51282051 C8.97435897,1.12 10.1001026,0 11.4871795,0 Z M9.33333333,19.3846154 L4.30769231,19.3846154 C4.10953846,19.3846154 3.94871795,19.5425641 3.94871795,19.7435897 L3.94871795,24.7692308 C3.94871795,24.9702564 4.10953846,25.1282051 4.30769231,25.1282051 L9.33333333,25.1282051 C9.53148718,25.1282051 9.69230769,24.9702564 9.69230769,24.7692308 L9.69230769,19.7435897 C9.69230769,19.5425641 9.53148718,19.3846154 9.33333333,19.3846154 Z M23.6923077,19.3846154 L18.6666667,19.3846154 C18.4685128,19.3846154 18.3076923,19.5425641 18.3076923,19.7435897 L18.3076923,24.7692308 C18.3076923,24.9702564 18.4685128,25.1282051 18.6666667,25.1282051 L23.6923077,25.1282051 C23.8904615,25.1282051 24.0512821,24.9702564 24.0512821,24.7692308 L24.0512821,19.7435897 C24.0512821,19.5425641 23.8904615,19.3846154 23.6923077,19.3846154 Z M16.5128205,2.15384615 L11.4871795,2.15384615 C11.2890256,2.15384615 11.1282051,2.31179487 11.1282051,2.51282051 L11.1282051,7.53846154 C11.1282051,7.73948718 11.2890256,7.8974359 11.4871795,7.8974359 L16.5128205,7.8974359 C16.7109744,7.8974359 16.8717949,7.73948718 16.8717949,7.53846154 L16.8717949,2.51282051 C16.8717949,2.31179487 16.7109744,2.15384615 16.5128205,2.15384615 Z"></path></clipPath></defs><g transform="translate(-306.0 -18.0)"><g clip-path="url(#i0)"><g transform="translate(306.0 18.0)"><g transform="translate(6.0 6.0)"><g clip-path="url(#i1)"><polygon points="0,0 48,0 48,48 0,48 0,0" stroke="none" fill="url(#i2)"></polygon></g></g><g transform="translate(12.0 12.0)"><g transform="translate(4.0 4.000000000000002)"><g clip-path="url(#i3)"><polygon points="0,0 28,0 28,27.2820513 0,27.2820513 0,0" stroke="none" fill="#FFFFFF"></polygon></g></g></g></g></g></g></svg>