<?xml version="1.0" encoding="UTF-8"?><svg version="1.1" width="60px" height="60px" viewBox="0 0 60.0 60.0" xmlns="http://www.w3.org/2000/svg" xmlns:xlink="http://www.w3.org/1999/xlink"><defs><clipPath id="i0"><path d="M480,0 L480,96 L0,96 L0,0 L480,0 Z"></path></clipPath><clipPath id="i1"><path d="M46,0 C47.1045695,-2.02906125e-16 48,0.8954305 48,2 L48,46 C48,47.1045695 47.1045695,48 46,48 L2,48 C0.8954305,48 1.02344917e-15,47.1045695 0,46 L0,2 C-1.3527075e-16,0.8954305 0.8954305,1.09108455e-15 2,0 L46,0 Z"></path></clipPath><linearGradient id="i2" x1="1.13242749e-14px" y1="-4.6629367e-15px" x2="48px" y2="48px" gradientUnits="userSpaceOnUse"><stop stop-color="#0D0F12" offset="0%"></stop><stop stop-color="#363941" offset="100%"></stop></linearGradient><clipPath id="i3"><path d="M19.0555556,0 C20.5582222,0 21.7777778,0.992727273 21.7777778,2.22727273 L21.7777778,2.54545455 L23.7222222,2.54545455 C26.0851111,2.54545455 28,4.11090909 28,6.04545455 L28,24.5 C28,26.4345455 26.0851111,28 23.7222222,28 L4.27777778,28 C1.91488889,28 0,26.4345455 0,24.5 L0,6.04545455 C0,4.11090909 1.91488889,2.54545455 4.27777778,2.54545455 L6.22222222,2.54545455 L6.22222222,2.22727273 C6.22222222,0.992727273 7.44177778,0 8.94444444,0 L19.0555556,0 Z M6.25022222,4.45454545 L4.27777778,4.45454545 C3.20444444,4.45454545 2.33333333,5.16727273 2.33333333,6.04545455 L2.33333333,24.5 C2.33333333,25.3781818 3.20444444,26.0909091 4.27777778,26.0909091 L23.7222222,26.0909091 C24.7955556,26.0909091 25.6666667,25.3781818 25.6666667,24.5 L25.6666667,6.04545455 C25.6666667,5.16727273 24.7955556,4.45454545 23.7222222,4.45454545 L21.7497778,4.45454545 C21.5615556,5.53636364 20.4275556,6.36363636 19.0555556,6.36363636 L8.94444444,6.36363636 C7.57244444,6.36363636 6.43844444,5.53636364 6.25022222,4.45454545 Z M16.25,18 C18.321,18 20,19.68 20,21.75 L20,22.25 C20,22.66 19.664,23 19.25,23 C18.836,23 18.5,22.66 18.5,22.25 L18.5,21.75 C18.5,20.51 17.493,19.5 16.25,19.5 L10.75,19.5 C9.507,19.5 8.5,20.51 8.5,21.75 L8.5,22.25 C8.5,22.66 8.164,23 7.75,23 C7.336,23 7,22.66 7,22.25 L7,21.75 C7,19.68 8.679,18 10.75,18 L16.25,18 Z M13.5,9 C15.709,9 17.5,10.79 17.5,13 C17.5,15.21 15.709,17 13.5,17 C11.291,17 9.5,15.21 9.5,13 C9.5,10.79 11.291,9 13.5,9 Z M13.5,10.5 C12.119,10.5 11,11.62 11,13 C11,14.38 12.119,15.5 13.5,15.5 C14.881,15.5 16,14.38 16,13 C16,11.62 14.881,10.5 13.5,10.5 Z M19.0555556,1.90909091 L8.94444444,1.90909091 C8.72977778,1.90909091 8.55555556,2.04909091 8.55555556,2.22727273 L8.55555556,4.13636364 C8.55555556,4.31454545 8.72977778,4.45454545 8.94444444,4.45454545 L19.0555556,4.45454545 C19.2702222,4.45454545 19.4444444,4.31454545 19.4444444,4.13636364 L19.4444444,2.22727273 C19.4444444,2.04909091 19.2702222,1.90909091 19.0555556,1.90909091 Z"></path></clipPath></defs><g transform="translate(-210.0 -18.0)"><g clip-path="url(#i0)"><g transform="translate(210.0 18.0)"><g transform="translate(6.0 6.0)"><g clip-path="url(#i1)"><polygon points="0,0 48,0 48,48 0,48 0,0" stroke="none" fill="url(#i2)"></polygon></g></g><g transform="translate(12.0 12.0)"><g transform="translate(4.0 4.0)"><g clip-path="url(#i3)"><polygon points="0,0 28,0 28,28 0,28 0,0" stroke="none" fill="#FFFFFF"></polygon></g></g></g></g></g></g></svg>