<?xml version="1.0" encoding="UTF-8"?><svg version="1.1" width="60px" height="60px" viewBox="0 0 60.0 60.0" xmlns="http://www.w3.org/2000/svg" xmlns:xlink="http://www.w3.org/1999/xlink"><defs><clipPath id="i0"><path d="M480,0 L480,96 L0,96 L0,0 L480,0 Z"></path></clipPath><clipPath id="i1"><path d="M46,0 C47.1045695,-2.02906125e-16 48,0.8954305 48,2 L48,46 C48,47.1045695 47.1045695,48 46,48 L2,48 C0.8954305,48 1.02344917e-15,47.1045695 0,46 L0,2 C-1.3527075e-16,0.8954305 0.8954305,1.09108455e-15 2,0 L46,0 Z"></path></clipPath><linearGradient id="i2" x1="1.13242749e-14px" y1="-4.6629367e-15px" x2="48px" y2="48px" gradientUnits="userSpaceOnUse"><stop stop-color="#0D0F12" offset="0%"></stop><stop stop-color="#363941" offset="100%"></stop></linearGradient><clipPath id="i3"><path d="M29.4821818,0.60411401 C31.4778182,1.82593219 31.84,4.5750231 30.2312727,6.27684128 L26.2647273,10.4804776 C26.672,11.1059322 26.9090909,11.8622958 26.9090909,12.6622958 C26.9090909,14.8732049 25.1185455,16.6622958 22.9090909,16.6622958 C20.6996364,16.6622958 18.9090909,14.8732049 18.9090909,12.6622958 C18.9090909,10.4513867 20.6996364,8.66229583 22.9090909,8.66229583 C23.5229091,8.66229583 24.1032727,8.79320492 24.6225455,9.04047765 C24.6356364,9.02593219 24.6487273,9.01138674 24.6618182,9.01138674 L26.7869091,6.75684128 C25.5927273,5.89865946 24.1294545,5.38956855 22.5454545,5.38956855 C18.5294545,5.38956855 15.2727273,8.64775037 15.2727273,12.6622958 C15.2727273,13.3168413 15.4021818,13.9132049 15.6014545,14.5677504 C15.7003636,14.8877504 15.8123636,15.2077504 15.9345455,15.5568413 L15.9418182,15.5859322 C16.0654545,15.9350231 16.1963636,16.3132049 16.3170909,16.7059322 C16.4334545,17.0986595 16.3287273,17.5059322 16.0436364,17.7968413 L7.63636364,26.204114 L7.63636364,28.6622958 L10.4567273,28.6622958 L11.2727273,27.8477504 L11.2727273,25.7532049 C11.2727273,25.1568413 11.7614545,24.6622958 12.3636364,24.6622958 L14.1818182,24.6622958 L14.1818182,22.844114 C14.1818182,22.2477504 14.6705455,21.7532049 15.2727273,21.7532049 L17.7294545,21.7532049 L19.5927273,19.8913867 C19.8632727,19.6150231 20.256,19.5132049 20.6269091,19.6004776 C21.3032727,19.7750231 22.0029091,19.9350231 22.5454545,19.9350231 C26.5614545,19.9350231 29.8181818,16.6768413 29.8181818,12.6622958 C29.8181818,12.0659322 30.3069091,11.5713867 30.9090909,11.5713867 C31.5112727,11.5713867 32,12.0659322 32,12.6622958 C32,17.884114 27.7672727,22.1168413 22.5454545,22.1168413 C21.9316364,22.1168413 21.2625455,22.0004776 20.7025455,21.8695686 L18.9527273,23.6150231 C18.7490909,23.8186595 18.4712727,23.9350231 18.1818182,23.9350231 L16.3636364,23.9350231 L16.3636364,25.7532049 C16.3636364,26.3495686 15.8749091,26.844114 15.2727273,26.844114 L13.4545455,26.844114 L13.4545455,28.2986595 C13.4545455,28.5895686 13.3396364,28.8659322 13.1345455,29.0695686 L11.68,30.524114 C11.4763636,30.7277504 11.1985455,30.844114 10.9090909,30.844114 L1.09090909,30.844114 C0.488727273,30.844114 0,30.3495686 0,29.7532049 L0,25.6950231 C0,25.404114 0.114909091,25.1277504 0.317090909,24.924114 L7.83418182,17.3750231 C7.24072727,16.0950231 6.90909091,14.6550231 6.90909091,13.1568413 C6.90909091,7.67320492 11.2901818,3.20775037 16.7272727,3.20775037 L22.4596364,3.20775037 C22.4727273,3.19320492 22.4872727,3.17865946 22.5018182,3.16411401 L24.4756364,1.18593219 C25.808,-0.137704172 27.8792727,-0.3849769 29.4821818,0.60411401 Z M16.5003636,5.38956855 C12.4014545,5.52047765 9.09090909,8.92411401 9.09090909,13.1568413 C9.09090909,14.5677504 9.46472727,15.8913867 10.1149091,17.0404776 C10.3578182,17.4622958 10.2865455,18.0004776 9.94036364,18.3495686 L2.18181818,26.1459322 L2.18181818,28.6622958 L5.45454545,28.6622958 L5.45454545,25.7532049 C5.45454545,25.4622958 5.56945455,25.1859322 5.77454545,24.9822958 L14.0290909,16.7204776 C13.9810909,16.5895686 13.9330909,16.444114 13.8821818,16.2986595 L13.8690909,16.2695686 C13.7512727,15.9350231 13.6276364,15.5713867 13.5156364,15.2077504 C13.2829091,14.4513867 13.0909091,13.6077504 13.0909091,12.6622958 C13.0909091,9.73865946 14.4174545,7.12047765 16.5003636,5.38956855 Z M22.9090909,10.844114 C21.9054545,10.844114 21.0909091,11.6586595 21.0909091,12.6622958 C21.0909091,13.6659322 21.9054545,14.4804776 22.9090909,14.4804776 C23.9127273,14.4804776 24.7272727,13.6659322 24.7272727,12.6622958 C24.7272727,11.6586595 23.9127273,10.844114 22.9090909,10.844114 Z M26.0189091,2.72775037 L25.1723636,3.57138674 C26.3185455,3.90593219 27.3730909,4.44411401 28.2952727,5.15684128 L28.6458182,4.77865946 C29.3047273,4.0950231 29.1549091,2.96047765 28.3389091,2.46593219 C27.5956364,2.00047765 26.6356364,2.11684128 26.0189091,2.72775037 Z"></path></clipPath></defs><g transform="translate(-114.0 -18.0)"><g clip-path="url(#i0)"><g transform="translate(114.0 18.0)"><g transform="translate(6.0 6.0)"><g clip-path="url(#i1)"><polygon points="0,0 48,0 48,48 0,48 0,0" stroke="none" fill="url(#i2)"></polygon></g></g><g transform="translate(12.0 12.0)"><g transform="translate(2.0 3.0)"><g clip-path="url(#i3)"><polygon points="0,6.60804744e-13 32,6.60804744e-13 32,30.844114 0,30.844114 0,6.60804744e-13" stroke="none" fill="#FFFFFF"></polygon></g></g></g></g></g></g></svg>