<?xml version="1.0" encoding="UTF-8"?><svg version="1.1" width="850px" height="400px" viewBox="0 0 850.0 400.0" xmlns="http://www.w3.org/2000/svg" xmlns:xlink="http://www.w3.org/1999/xlink"><defs><clipPath id="i0"><path d="M850,0 L850,400 L0,400 L0,0 L850,0 Z"></path></clipPath><clipPath id="i1"><path d="M195,0 C197.761424,-5.07265313e-16 200,2.23857625 200,5 L200,335 C200,337.761424 197.761424,340 195,340 L5,340 C2.23857625,340 4.77906897e-15,337.761424 0,335 L0,5 C-3.38176876e-16,2.23857625 2.23857625,1.39544373e-15 5,0 L195,0 Z"></path></clipPath><clipPath id="i2"><path d="M8.46841905,0 L8.46841905,3.63885714 L3.18090159,6.66514286 L3.18090159,18.3029841 L0,16.4815238 L0,4.84368254 L8.46841905,0 Z"></path></clipPath><clipPath id="i3"><path d="M6.56335238,0 L9.74425397,1.82146032 L9.74425397,13.7020952 L6.56335238,15.5235556 L6.56335238,12.087873 L3.18283175,12.087873 L3.18283175,21.3292698 L0,19.503746 L0,7.6312381 L3.18283175,5.80977778 L3.18283175,9.26780952 L6.56335238,9.26780952 L6.56335238,0 Z"></path></clipPath><clipPath id="i4"><path d="M5.28568889,0 L8.46841905,1.82146032 L8.46841905,13.4593016 L0,18.3029841 L0,14.664127 L5.28568889,11.6378413 L5.28568889,0 Z"></path></clipPath><clipPath id="i5"><path d="M435,0 C437.761424,-5.07265313e-16 440,2.23857625 440,5 L440,265 C440,267.761424 437.761424,270 435,270 L5,270 C2.23857625,270 -3.2145368e-15,267.761424 0,265 L0,5 C-3.38176876e-16,2.23857625 2.23857625,-7.48634046e-15 5,0 L435,0 Z"></path></clipPath><clipPath id="i6"><path d="M25.9471465,0 C26.1809908,0 26.4257752,0.0109400849 26.6596195,0.0423928292 C26.9044039,0.075213084 27.1286756,0.117605913 27.3515799,0.159998742 C27.5649115,0.213331656 27.7673031,0.266664571 27.9587546,0.329570059 C28.1502061,0.393843058 28.2992647,0.458116057 28.4059306,0.522389056 C28.5549892,0.607174715 28.6616551,0.691960373 28.7245605,0.787686116 C28.7888335,0.872471775 28.8202863,0.990077688 28.8202863,1.13913635 L28.8202863,1.63964523 C28.8202863,1.86391697 28.7355006,1.98015538 28.5755019,1.98015538 C28.4907162,1.98015538 28.3525977,1.93776255 28.1720862,1.85297689 C27.5649115,1.57537223 26.8838912,1.43725366 26.1276579,1.43725366 C25.5218507,1.43725366 25.043222,1.5329794 24.7122844,1.73537097 C24.3827143,1.93776255 24.2117755,2.24681995 24.2117755,2.68305583 C24.2117755,2.98117315 24.3184413,3.23689763 24.531773,3.43928921 C24.7451046,3.64168078 25.1389477,3.84407235 25.7023621,4.02458375 L27.2134613,4.50457998 C27.9806348,4.74936438 28.5331091,5.08987452 28.8626791,5.52611041 C29.1936167,5.9623463 29.3522479,6.46285518 29.3522479,7.01669698 C29.3522479,7.47481304 29.2565222,7.89053627 29.0760108,8.25155907 C28.8845593,8.61394939 28.6288348,8.93394687 28.2992647,9.18967136 C27.9696947,9.45496842 27.5758516,9.64778741 27.1177356,9.78590599 C26.6391068,9.93496464 26.138598,10.0088102 25.5956962,10.0088102 C25.043222,10.0088102 24.4893802,9.94590473 23.9574185,9.81735873 C23.4254569,9.69018024 23.0097337,9.55069416 22.7334965,9.39206293 C22.5625577,9.29633718 22.4463193,9.18967136 22.402559,9.09394561 C22.3601661,8.99821987 22.3396535,8.89155404 22.3396535,8.7958283 L22.3396535,8.25155907 C22.3396535,8.02865484 22.4244391,7.92198901 22.5844379,7.92198901 C22.6473434,7.92198901 22.7116163,7.9329291 22.7758893,7.95344176 C22.8401623,7.97532193 22.9358881,8.01771476 23.0411864,8.06010758 C23.4035767,8.22010633 23.7974198,8.34865233 24.2117755,8.43343798 C24.6384388,8.51822364 25.0527945,8.56061647 25.4794578,8.56061647 C26.149538,8.56061647 26.6705596,8.44437807 27.0329499,8.20916624 C27.3939727,7.97532193 27.5867917,7.63481178 27.5867917,7.1985759 C27.5867917,6.90045858 27.491066,6.65567418 27.298247,6.45328261 C27.1067955,6.25089104 26.7457727,6.06901212 26.2233836,5.89944081 L24.6808316,5.41944458 C23.9040856,5.17466018 23.3297311,4.81226987 22.9782809,4.33364115 C22.6268307,3.86458501 22.4463193,3.34356346 22.4463193,2.78972166 C22.4463193,2.34254569 22.542045,1.94870263 22.7334965,1.60819249 C22.924948,1.26768234 23.1806725,0.969565028 23.4993025,0.734353202 C23.8193,0.489568801 24.1803228,0.3090574 24.6056186,0.180511402 C25.0322819,0.0533329141 25.4794578,0 25.9471465,0 Z M4.00133607,0.0218801699 C5.2676509,0.0218801699 6.1948231,0.3090574 6.78969022,0.883411859 C7.37498476,1.45913383 7.67310208,2.3316056 7.67310208,3.5035622 L7.67310208,6.95379149 L7.69498225,6.95379149 C7.69498225,7.34763455 7.73737508,7.66626453 7.81122065,7.90147635 C7.89737382,8.13532067 8.00403965,8.39104515 8.15309831,8.6672823 C8.20506371,8.75206796 8.22694388,8.83822113 8.22694388,8.9120667 C8.22694388,9.01873253 8.16267088,9.12539836 8.02455231,9.23206418 L7.35447211,9.67924016 C7.25874636,9.74351316 7.16302062,9.7749659 7.07686745,9.7749659 C6.97156913,9.7749659 6.8649033,9.72163299 6.75823748,9.62590724 C6.60917882,9.4659085 6.48200033,9.29633718 6.3753345,9.12539836 C6.26866867,8.94488695 6.16200285,8.74249538 6.04576444,8.49771098 C5.2156855,9.47684859 4.1722749,9.96641739 2.91553264,9.96641739 C2.0225482,9.96641739 1.30870766,9.7106929 0.787686116,9.19924393 C0.266664571,8.68916247 0,8.00677467 0,7.15481556 C0,6.25089104 0.319997485,5.51517032 0.968197518,4.96132852 C1.61776506,4.40885423 2.47929675,4.13124958 3.57604027,4.13124958 C3.93843058,4.13124958 4.31039347,4.16270232 4.70423653,4.21603524 C5.09807959,4.26936815 5.50286273,4.35552132 5.92815853,4.45124706 L5.92815853,3.67313352 C5.92815853,2.86493475 5.7572197,2.30015286 5.42764964,1.96921529 C5.0871395,1.63964523 4.51278504,1.47964649 3.69364618,1.47964649 C3.32031578,1.47964649 2.93741281,1.52203932 2.54356975,1.61913257 C2.14972669,1.71485832 1.76682372,1.83109672 1.39486083,1.98015538 C1.223922,2.05536846 1.09674352,2.09776129 1.02153043,2.11827395 C0.947684859,2.14015412 0.894351944,2.1510942 0.851959115,2.1510942 C0.702900458,2.1510942 0.627687374,2.04442837 0.627687374,1.82015663 L0.627687374,1.29913509 C0.627687374,1.12819626 0.649567544,1.00101777 0.702900458,0.925804689 C0.756233372,0.851959115 0.851959115,0.776746031 1.00101777,0.702900458 C1.37298066,0.511448971 1.82015663,0.351450229 2.34117818,0.224271741 C2.86356723,0.0847856583 3.41604152,0.0218801699 4.00133607,0.0218801699 Z M9.9937676,0.276237145 C10.1961592,0.276237145 10.3342777,0.3090574 10.4081233,0.382902973 C10.4942765,0.447175972 10.557182,0.59623463 10.621455,0.798626201 L12.4101589,7.84814344 L14.0703168,0.798626201 C14.1236497,0.585294545 14.1865552,0.447175972 14.2727083,0.382902973 C14.357494,0.319997485 14.5065526,0.276237145 14.6980041,0.276237145 L15.5485957,0.276237145 C15.7509873,0.276237145 15.8891059,0.3090574 15.975259,0.382902973 C16.0600447,0.447175972 16.1338903,0.59623463 16.1776506,0.798626201 L17.8583212,7.9329291 L19.700358,0.798626201 C19.7632635,0.585294545 19.8384765,0.447175972 19.9123221,0.382902973 C19.9984753,0.319997485 20.1365939,0.276237145 20.3280453,0.276237145 L21.318123,0.276237145 C21.4876943,0.276237145 21.5834201,0.362390314 21.5834201,0.542901715 C21.5834201,0.59623463 21.57248,0.649567544 21.5629074,0.713840543 C21.5519673,0.776746031 21.5300872,0.8628992 21.4876943,0.979137603 L18.9236119,9.21018401 C18.8593389,9.42351567 18.7841259,9.56163424 18.6993402,9.62590724 C18.6145545,9.69018024 18.476436,9.73257307 18.2945571,9.73257307 L17.3796924,9.73257307 C17.1773009,9.73257307 17.0391823,9.69975282 16.9543966,9.62590724 C16.8682435,9.55069416 16.7943979,9.41257559 16.7520051,9.19924393 L15.1027873,2.3316056 L13.463142,9.18967136 C13.4098091,9.4016355 13.3455361,9.54112158 13.2607505,9.61496716 C13.1759648,9.69018024 13.0269062,9.72163299 12.8354547,9.72163299 L11.9205901,9.72163299 C11.7277711,9.72163299 11.6005926,9.69018024 11.5158069,9.61496716 C11.4310213,9.55069416 11.3558082,9.4016355 11.2915352,9.19924393 L8.79035825,0.969565028 C8.72745277,0.756233372 8.69463251,0.6181148 8.69463251,0.542901715 C8.69463251,0.373330399 8.78078568,0.276237145 8.950357,0.276237145 L9.9937676,0.276237145 Z M3.96988333,5.39893192 C3.25741029,5.39893192 2.73502124,5.53705049 2.38357101,5.82422772 C2.03348829,6.11140495 1.86254946,6.5161881 1.86254946,7.04951724 C1.86254946,7.55002612 1.98972795,7.92198901 2.25639252,8.1777135 C2.51211701,8.44437807 2.88407989,8.57155656 3.3736487,8.57155656 C3.72509892,8.57155656 4.08748924,8.50728356 4.47039221,8.38010507 C4.85329518,8.25155907 5.19380533,8.01771476 5.48098256,7.69908478 C5.65192139,7.49669321 5.77909987,7.27242147 5.84337287,7.01669698 C5.90627836,6.7609725 5.9500387,6.45328261 5.9500387,6.09089229 L5.9500387,5.64371632 C5.6409813,5.56850324 5.31141124,5.50559775 4.9709011,5.46183741 C4.62902344,5.41944458 4.29945338,5.39893192 3.96988333,5.39893192 Z"></path></clipPath><clipPath id="i7"><path d="M0.503425304,0.0697372198 C5.01621034,2.68988756 10.5819786,4.27619988 16.3405658,4.27619988 C20.2242959,4.27619988 24.4922966,3.4666336 28.4197871,1.80647571 C29.0050816,1.53981113 29.5055905,2.18937868 28.931236,2.61467448 C25.4290413,5.20337208 20.3419018,6.57635274 15.9672354,6.57635274 C9.83805279,6.57635274 4.31330989,4.30765263 0.142402501,0.538793362 C-0.188535069,0.240676047 0.109582246,-0.164107096 0.503425304,0.0697372198 Z"></path></clipPath><clipPath id="i8"><path d="M5.87523508,0.437908087 C6.25950556,0.916536803 5.76993676,4.20676735 3.89644721,5.78350709 C3.60926998,6.02829149 3.33166533,5.8997455 3.46021133,5.58111552 C3.88550713,4.52676484 4.83319199,2.15139889 4.38601602,1.58798452 C3.93884004,1.01226255 1.42672304,1.31037986 0.288954203,1.44986594 C-0.051555941,1.49225877 -0.104888855,1.19414146 0.202801034,0.969869717 C2.20346907,-0.435931198 5.49233211,-0.0311480554 5.87523508,0.437908087 Z"></path></clipPath><clipPath id="i9"><path d="M85,0 C87.7614237,-5.07265313e-16 90,2.23857625 90,5 L90,195 C90,197.761424 87.7614237,200 85,200 L5,200 C2.23857625,200 2.11453371e-15,197.761424 0,195 L0,5 C-3.38176876e-16,2.23857625 2.23857625,4.94815741e-15 5,0 L85,0 Z"></path></clipPath><linearGradient id="i10" x1="45px" y1="0px" x2="45px" y2="200px" gradientUnits="userSpaceOnUse"><stop stop-color="#F2F2F3" offset="0%"></stop><stop stop-color="#DBDBDC" offset="100%"></stop></linearGradient><linearGradient id="i11" x1="45px" y1="0px" x2="45px" y2="200px" gradientUnits="userSpaceOnUse"><stop stop-color="#F2F2F3" offset="0%"></stop><stop stop-color="#DBDBDC" offset="100%"></stop></linearGradient><clipPath id="i12"><path d="M85,0 C87.7614237,-5.07265313e-16 90,2.23857625 90,5 L90,105 C90,107.761424 92.2385763,110 95,110 L195,110 C197.761424,110 200,112.238576 200,115 L200,195 C200,197.761424 197.761424,200 195,200 L5,200 C2.23857625,200 4.77906897e-15,197.761424 0,195 L0,5 C-3.38176876e-16,2.23857625 2.23857625,4.94815741e-15 5,0 L85,0 Z"></path></clipPath><linearGradient id="i13" x1="100px" y1="0px" x2="100px" y2="200px" gradientUnits="userSpaceOnUse"><stop stop-color="#F2F2F3" offset="0%"></stop><stop stop-color="#DBDBDC" offset="100%"></stop></linearGradient><clipPath id="i14"><path d="M85,0 C87.7614237,-5.07265313e-16 90,2.23857625 90,5 L90,85 C90,87.7614237 87.7614237,90 85,90 L5,90 C2.23857625,90 2.11453371e-15,87.7614237 0,85 L0,5 C-3.38176876e-16,2.23857625 2.23857625,2.28362215e-15 5,0 L85,0 Z"></path></clipPath><linearGradient id="i15" x1="45px" y1="0px" x2="45px" y2="90px" gradientUnits="userSpaceOnUse"><stop stop-color="#F2F2F3" offset="0%"></stop><stop stop-color="#DBDBDC" offset="100%"></stop></linearGradient><filter id="i16" x="-10.9195402%" y="-9.77011494%" filterUnits="userSpaceOnUse" width="113.793103%" height="113.793103%"><feGaussianBlur stdDeviation="2.5" in="SourceAlpha" result="i17"></feGaussianBlur><feOffset dx="0" dy="2" in="i17" result="i18"></feOffset><feColorMatrix values="0 0 0 0.0 0 0 0 0 0.0 0 0 0 0 0.0 0 0 0 0 0.1 0" type="matrix" in="i18"></feColorMatrix></filter><clipPath id="i19"><path d="M155,0 C157.761424,-5.07265313e-16 160,2.23857625 160,5 L160,155 C160,157.761424 157.761424,160 155,160 L5,160 C2.23857625,160 3.38176876e-16,157.761424 0,155 L0,5 C-3.38176876e-16,2.23857625 2.23857625,5.07265313e-16 5,0 L155,0 Z"></path></clipPath><filter id="i20" x="-30.6451613%" y="-27.4193548%" filterUnits="userSpaceOnUse" width="138.709677%" height="138.709677%"><feGaussianBlur stdDeviation="2.5" in="SourceAlpha" result="i21"></feGaussianBlur><feOffset dx="0" dy="2" in="i21" result="i22"></feOffset><feColorMatrix values="0 0 0 0.0 0 0 0 0 0.0 0 0 0 0 0.0 0 0 0 0 0.1 0" type="matrix" in="i22"></feColorMatrix></filter><clipPath id="i23"><path d="M46,0 C47.1045695,-2.02906125e-16 48,0.8954305 48,2 L48,46 C48,47.1045695 47.1045695,48 46,48 L2,48 C0.8954305,48 1.02344917e-15,47.1045695 0,46 L0,2 C-1.3527075e-16,0.8954305 0.8954305,1.09108455e-15 2,0 L46,0 Z"></path></clipPath><clipPath id="i24"><path d="M16,0 C24.8363636,0 32,7.15636364 32,16 C32,24.8436364 24.8363636,32 16,32 C7.16363636,32 0,24.8436364 0,16 C0,7.15636364 7.16363636,0 16,0 Z M9.11563636,16.7272727 L2.20072727,16.7272727 C2.53672727,23.2 7.328,28.4945455 13.5665455,29.6 C10.8974545,25.8618182 9.344,21.3818182 9.11563636,16.7272727 Z M29.7992727,16.7272727 L22.8843636,16.7272727 C22.656,21.3818182 21.1025455,25.8618182 18.4334545,29.6 C24.672,28.4945455 29.4632727,23.2 29.7992727,16.7272727 Z M20.6996364,16.7272727 L11.3003636,16.7272727 C11.5476364,21.2945455 13.1956364,25.6727273 16,29.2072727 C18.8043636,25.6727273 20.4523636,21.2945455 20.6996364,16.7272727 Z M13.5665455,2.4 C7.56218182,3.46181818 2.90036364,8.40727273 2.25745455,14.5454545 L9.16218182,14.5454545 C9.50981818,10.1527273 11.0370909,5.94909091 13.5665455,2.4 Z M18.4334545,2.4 C20.9629091,5.94909091 22.4901818,10.1527273 22.8378182,14.5454545 L29.7425455,14.5454545 C29.0996364,8.40727273 24.4378182,3.46181818 18.4334545,2.4 Z M16,2.79272727 C13.3454545,6.13818182 11.7250909,10.24 11.3512727,14.5454545 L20.6487273,14.5454545 C20.2749091,10.24 18.6545455,6.13818182 16,2.79272727 Z"></path></clipPath><filter id="i25" x="-30.6451613%" y="-27.4193548%" filterUnits="userSpaceOnUse" width="138.709677%" height="138.709677%"><feGaussianBlur stdDeviation="2.5" in="SourceAlpha" result="i26"></feGaussianBlur><feOffset dx="0" dy="2" in="i26" result="i27"></feOffset><feColorMatrix values="0 0 0 0.0 0 0 0 0 0.0 0 0 0 0 0.0 0 0 0 0 0.1 0" type="matrix" in="i27"></feColorMatrix></filter><clipPath id="i28"><path d="M14.2458182,0.387697719 C15.3527273,-0.129232573 16.6472727,-0.129232573 17.7541818,0.387697719 L30.5701818,6.36018803 C31.4458182,6.76734011 32,7.61638422 32,8.54602499 L32,22.30582 C32,23.7398847 31.1592727,25.0530544 29.824,25.7075549 L17.824,31.5799941 C16.6792727,32.140002 15.3207273,32.140002 14.176,31.5799941 L2.176,25.7075549 C0.840727273,25.0530544 0,23.7398847 0,22.30582 L0,8.54602499 C0,7.61638422 0.554181818,6.76734011 1.42981818,6.36018803 Z M2.18181818,9.5090161 L2.18181818,22.30582 C2.18181818,22.9575413 2.56436364,23.5550682 3.17090909,23.8524421 L14.9090909,29.5956488 L14.9090909,15.2841836 L2.18181818,9.5090161 Z M29.8181818,9.5090161 L17.0909091,15.2841836 L17.0909091,29.5956488 L28.8290909,23.8524421 C29.4356364,23.5550682 29.8181818,22.9575413 29.8181818,22.30582 L29.8181818,9.5090161 Z M16.7970909,2.26087523 C16.2938182,2.02603324 15.7061818,2.02603324 15.2029091,2.26087523 L3.408,7.75673358 L16,13.4721483 L28.592,7.75812317 Z"></path></clipPath><filter id="i29" x="-30.6451613%" y="-27.4193548%" filterUnits="userSpaceOnUse" width="138.709677%" height="138.709677%"><feGaussianBlur stdDeviation="2.5" in="SourceAlpha" result="i30"></feGaussianBlur><feOffset dx="0" dy="2" in="i30" result="i31"></feOffset><feColorMatrix values="0 0 0 0.0 0 0 0 0 0.0 0 0 0 0 0.0 0 0 0 0 0.1 0" type="matrix" in="i31"></feColorMatrix></filter><filter id="i32" x="-30.6451613%" y="-27.4193548%" filterUnits="userSpaceOnUse" width="138.709677%" height="138.709677%"><feGaussianBlur stdDeviation="2.5" in="SourceAlpha" result="i33"></feGaussianBlur><feOffset dx="0" dy="2" in="i33" result="i34"></feOffset><feColorMatrix values="0 0 0 0.0 0 0 0 0 0.0 0 0 0 0 0.0 0 0 0 0 0.1 0" type="matrix" in="i34"></feColorMatrix></filter><filter id="i35" x="-30.6451613%" y="-27.4193548%" filterUnits="userSpaceOnUse" width="138.709677%" height="138.709677%"><feGaussianBlur stdDeviation="2.5" in="SourceAlpha" result="i36"></feGaussianBlur><feOffset dx="0" dy="2" in="i36" result="i37"></feOffset><feColorMatrix values="0 0 0 0.0 0 0 0 0 0.0 0 0 0 0 0.0 0 0 0 0 0.1 0" type="matrix" in="i37"></feColorMatrix></filter><clipPath id="i38"><path d="M27.2,0 C29.8512,0 32,2.1488 32,4.8 C32,7.4512 29.8512,9.6 27.2,9.6 C26.3104,9.6 25.4768,9.3584 24.7616,8.936 L21.8976,11.8 L22.9856,12.888 C24.704,14.6064 24.704,17.3936 22.9856,19.112 L21.8976,20.2 L24.7616,23.064 C25.4768,22.6416 26.3104,22.4 27.2,22.4 C29.8512,22.4 32,24.5488 32,27.2 C32,29.8512 29.8512,32 27.2,32 C24.5488,32 22.4,29.8512 22.4,27.2 C22.4,26.3104 22.6416,25.4768 23.064,24.7616 L20.2,21.8976 L19.112,22.9856 C17.3936,24.704 14.6064,24.704 12.888,22.9856 L11.8,21.8976 L8.936,24.7616 C9.3584,25.4768 9.6,26.3104 9.6,27.2 C9.6,29.8512 7.4512,32 4.8,32 C2.1488,32 0,29.8512 0,27.2 C0,24.5488 2.1488,22.4 4.8,22.4 C5.6896,22.4 6.5232,22.6416 7.2384,23.064 L10.1024,20.2 L9.0144,19.112 C7.296,17.3936 7.296,14.6064 9.0144,12.888 L10.1024,11.8 L7.2384,8.936 C6.5232,9.3584 5.6896,9.6 4.8,9.6 C2.1488,9.6 0,7.4512 0,4.8 C0,2.1488 2.1488,0 4.8,0 C7.4512,0 9.6,2.1488 9.6,4.8 C9.6,5.6896 9.3584,6.5232 8.936,7.2384 L11.8,10.1024 L12.888,9.0144 C14.6064,7.296 17.3936,7.296 19.112,9.0144 L20.2,10.1024 L23.064,7.2384 C22.6416,6.5232 22.4,5.6896 22.4,4.8 C22.4,2.1488 24.5488,0 27.2,0 Z M4.8,24.8 C3.4752,24.8 2.4,25.8752 2.4,27.2 C2.4,28.5248 3.4752,29.6 4.8,29.6 C6.1248,29.6 7.2,28.5248 7.2,27.2 C7.2,25.8752 6.1248,24.8 4.8,24.8 Z M27.2,24.8 C25.8752,24.8 24.8,25.8752 24.8,27.2 C24.8,28.5248 25.8752,29.6 27.2,29.6 C28.5248,29.6 29.6,28.5248 29.6,27.2 C29.6,25.8752 28.5248,24.8 27.2,24.8 Z M17.4144,10.712 C16.6336,9.9296 15.3664,9.9296 14.5856,10.712 L10.712,14.5856 C9.9296,15.3664 9.9296,16.6336 10.712,17.4144 L14.5856,21.288 C15.3664,22.0704 16.6336,22.0704 17.4144,21.288 L21.288,17.4144 C22.0704,16.6336 22.0704,15.3664 21.288,14.5856 Z M4.8,2.4 C3.4752,2.4 2.4,3.4752 2.4,4.8 C2.4,6.1248 3.4752,7.2 4.8,7.2 C6.1248,7.2 7.2,6.1248 7.2,4.8 C7.2,3.4752 6.1248,2.4 4.8,2.4 Z M27.2,2.4 C25.8752,2.4 24.8,3.4752 24.8,4.8 C24.8,6.1248 25.8752,7.2 27.2,7.2 C28.5248,7.2 29.6,6.1248 29.6,4.8 C29.6,3.4752 28.5248,2.4 27.2,2.4 Z"></path></clipPath><filter id="i39" x="-30.6451613%" y="-27.4193548%" filterUnits="userSpaceOnUse" width="138.709677%" height="138.709677%"><feGaussianBlur stdDeviation="2.5" in="SourceAlpha" result="i40"></feGaussianBlur><feOffset dx="0" dy="2" in="i40" result="i41"></feOffset><feColorMatrix values="0 0 0 0.0 0 0 0 0 0.0 0 0 0 0 0.0 0 0 0 0 0.1 0" type="matrix" in="i41"></feColorMatrix></filter><clipPath id="i42"><path d="M16,0 C20.1776,0 24.008,0.544 26.8352,1.472 C28.2432,1.92 29.4688,2.496 30.3664,3.184 C31.2496,3.856 32,4.8 32,6 L32,25.856 C32,27.056 31.2736,28.016 30.3904,28.72 C29.4944,29.44 28.2704,30.016 26.864,30.496 C24.0384,31.44 20.2032,32 16,32 C11.7968,32 7.9616,31.44 5.136,30.496 C3.7296,30.016 2.5056,29.44 1.6096,28.72 C0.7264,28.016 0,27.056 0,25.856 L0,6 C0,4.8 0.7504,3.856 1.6336,3.184 C2.5312,2.496 3.7568,1.92 5.1648,1.472 C7.992,0.544 11.8224,0 16,0 Z M29.6,18.944 C28.8208,19.408 27.888,19.808 26.8544,20.144 C24.032,21.056 20.2,21.6 16,21.6 C11.8,21.6 7.968,21.056 5.1456,20.144 C4.112,19.808 3.1792,19.408 2.4,18.944 L2.4,25.856 C2.4,26.016 2.496,26.368 3.1024,26.848 C3.696,27.312 4.632,27.792 5.8976,28.224 C8.416,29.056 11.9808,29.6 16,29.6 C20.0192,29.6 23.584,29.056 26.1024,28.224 C27.368,27.792 28.304,27.312 28.8976,26.848 C29.504,26.368 29.6,26.016 29.6,25.856 L29.6,18.944 Z M29.6,9.328 C28.816,9.792 27.8752,10.192 26.8352,10.528 C24.008,11.456 20.1776,12 16,12 C11.8224,12 7.992,11.456 5.1648,10.528 C4.1248,10.192 3.184,9.792 2.4,9.328 L2.4,15.6 C2.4,15.728 2.4784,16.048 3.0896,16.528 C3.6832,16.976 4.6192,17.44 5.888,17.856 C8.4096,18.672 11.9776,19.2 16,19.2 C20.0224,19.2 23.5904,18.672 26.112,17.856 C27.3808,17.44 28.3168,16.976 28.9104,16.528 C29.5216,16.048 29.6,15.728 29.6,15.6 L29.6,9.328 Z M16,2.4 C12.0032,2.4 8.4336,2.928 5.9056,3.744 C4.6336,4.16 3.6912,4.624 3.0928,5.088 C2.4768,5.552 2.4,5.872 2.4,6 C2.4,6.128 2.4768,6.448 3.0928,6.912 C3.6912,7.376 4.6336,7.84 5.9056,8.256 C8.4336,9.072 12.0032,9.6 16,9.6 C19.9968,9.6 23.5664,9.072 26.0944,8.256 C27.3664,7.84 28.3088,7.376 28.9072,6.912 C29.5232,6.448 29.6,6.128 29.6,6 C29.6,5.872 29.5232,5.552 28.9072,5.088 C28.3088,4.624 27.3664,4.16 26.0944,3.744 C23.5664,2.928 19.9968,2.4 16,2.4 Z"></path></clipPath><filter id="i43" x="-30.6451613%" y="-27.4193548%" filterUnits="userSpaceOnUse" width="138.709677%" height="138.709677%"><feGaussianBlur stdDeviation="2.5" in="SourceAlpha" result="i44"></feGaussianBlur><feOffset dx="0" dy="2" in="i44" result="i45"></feOffset><feColorMatrix values="0 0 0 0.0 0 0 0 0 0.0 0 0 0 0 0.0 0 0 0 0 0.1 0" type="matrix" in="i45"></feColorMatrix></filter><clipPath id="i46"><path d="M45,0 C69.8528137,0 90,20.1471863 90,45 C90,69.8528137 69.8528137,90 45,90 C20.1471863,90 0,69.8528137 0,45 C0,20.1471863 20.1471863,0 45,0 Z"></path></clipPath><linearGradient id="i47" x1="-6.12010442e-14px" y1="90px" x2="53.9088597px" y2="-9.99200722e-15px" gradientUnits="userSpaceOnUse"><stop stop-color="#E03875" offset="0%"></stop><stop stop-color="#A92663" offset="100%"></stop></linearGradient><clipPath id="i48"><path d="M22.0282795,0.731335797 C26.5380534,-0.310773651 31.2340106,-0.238369024 35.710168,0.943377918 C40.1863255,2.12512486 44.3056316,4.38259768 47.7112349,7.51926955 L40.9595035,14.5813065 C38.2753605,12.1557515 34.9473336,10.5628497 31.3762339,9.99137037 C27.8051343,9.42247688 24.1461148,9.90086459 20.8413608,11.3696442 C17.5366067,12.8384237 14.7283416,15.2329482 12.7579014,18.263599 C10.7848753,21.2968356 9.73759409,24.8369047 9.73759409,28.4519643 C9.73759409,32.0696097 10.7848753,35.6070929 12.7579014,38.6403296 C14.7283416,41.6709804 17.5366067,44.0655049 20.8413608,45.5342844 C24.1461148,47.003064 27.8051343,47.4814517 31.3762339,46.9125582 C34.9473336,46.3410788 38.2753605,44.7481771 40.9595035,42.3226221 L47.7112349,49.384659 C42.4670712,54.215082 35.5963893,56.8940532 28.4671195,56.8888889 C23.8383951,56.8914673 19.2769037,55.7666097 15.1834564,53.6074003 C11.0874232,51.4507768 7.58097057,48.3244484 4.96664637,44.5051044 C2.35232217,40.6831744 0.712874553,36.2820075 0.18535513,31.6843137 C-0.342164293,27.084034 0.260345637,22.426865 1.94116733,18.113618 C3.62198902,13.8003709 6.33199076,9.9629257 9.83068575,6.93486077 C13.3319666,3.90420997 17.5185056,1.77603112 22.0282795,0.731335797 Z"></path></clipPath><clipPath id="i49"><path d="M1.87849781,0.0451092317 C2.32844085,-0.0453965516 2.79907092,0.00114927979 3.22315517,0.176989087 C3.64982529,0.355414775 4.0144343,0.65279092 4.27043637,1.03550109 C4.52643845,1.42079714 4.66349006,1.87074018 4.66349006,2.33102673 C4.66349006,2.94905194 4.41524563,3.54121835 3.97823199,3.97823199 C3.54121835,4.41524563 2.94905194,4.66090418 2.33102673,4.66349006 C1.87074018,4.66349006 1.42079714,4.52643845 1.03808697,4.27043637 C0.65279092,4.0144343 0.355414775,3.64982529 0.176989087,3.22315517 C0.00114927979,2.79907092 -0.0453965516,2.32844085 0.0451092317,1.87591193 C0.135615015,1.4259689 0.358000654,1.00964229 0.683821474,0.683821474 C1.00964229,0.358000654 1.4259689,0.135615015 1.87849781,0.0451092317 Z"></path></clipPath><clipPath id="i50"><path d="M8.52010737,0.469482355 C9.64755084,0.934940669 10.6120839,1.7262198 11.2895843,2.73988458 C11.9670848,3.75613523 12.3291079,4.94822569 12.3265358,6.16876083 C12.3239362,7.79786493 11.6774663,9.35973616 10.5267499,10.5130384 C9.37861937,11.6663407 7.81933402,12.3179823 6.19022992,12.3283809 C4.96969479,12.3334976 3.77501845,11.9740604 2.75618191,11.3017317 C1.73993126,10.6268171 0.946066246,9.66486994 0.475436173,8.54001235 C0.00480609939,7.41256888 -0.119316118,6.17393258 0.115998919,4.97408449 C0.351313956,3.77682227 0.935722728,2.67782347 1.79682061,1.81155383 C2.65791849,0.947870067 3.75691729,0.358289536 4.95417951,0.120388619 C6.15144173,-0.120098176 7.3926639,0.00143816128 8.52010737,0.469482355 Z"></path></clipPath><clipPath id="i51"><path d="M1.8784025,0.0451092317 C2.33093141,-0.0453965516 2.79897561,0.00114927979 3.22564573,0.176989087 C3.64972997,0.352828895 4.01433898,0.65279092 4.27034106,1.03550109 C4.52634313,1.41821126 4.66339475,1.87074018 4.66339475,2.33102673 C4.66339475,2.94905194 4.41515031,3.54121835 3.97813667,3.97823199 C3.54370891,4.41524563 2.94895662,4.66090418 2.33351729,4.66349006 C1.87064486,4.66349006 1.42070182,4.52643845 1.03799165,4.27043637 C0.652695604,4.0144343 0.355319459,3.64982529 0.179479651,3.22315517 C0.00105396398,2.79648504 -0.0454918674,2.32844085 0.0450139159,1.87591193 C0.135519699,1.42338302 0.357905338,1.00964229 0.683726158,0.683821474 C1.00954698,0.355414775 1.42587358,0.135615015 1.8784025,0.0451092317 Z"></path></clipPath><clipPath id="i52"><path d="M3.24193415,0.185507961 C3.66601839,0.363933648 4.02804153,0.666481552 4.28145772,1.05436348 C4.53487391,1.44224541 4.66675377,1.89477433 4.66158201,2.35764676 C4.65641025,2.97050021 4.40557994,3.55749486 3.97115218,3.98933674 C3.53413854,4.42117862 2.94455801,4.66166542 2.33170456,4.66166542 C1.86883212,4.66166542 1.41630321,4.5246138 1.03359304,4.26861173 C0.648296989,4.01002378 0.350920844,3.64541476 0.175081036,3.21615876 C-0.000758771612,2.78948864 -0.0447187235,2.31885857 0.0457870598,1.86632965 C0.138878723,1.41380073 0.363850241,0.997474131 0.692256941,0.674239191 C1.02066364,0.348418371 1.43699024,0.128618611 1.89210504,0.0406987072 C2.34721984,-0.0446353171 2.81526403,0.00449639388 3.24193415,0.185507961 Z"></path></clipPath><clipPath id="i53"><path d="M1.8784025,0.0451092317 C2.33093141,-0.0453965516 2.79897561,0.00114927979 3.22564573,0.176989087 C3.64972997,0.352828895 4.01433898,0.65279092 4.27034106,1.03550109 C4.52634313,1.41821126 4.66339475,1.87074018 4.66339475,2.33102673 C4.66339475,2.94905194 4.41515031,3.54121835 3.97813667,3.97823199 C3.54370891,4.41524563 2.94895662,4.66090418 2.33351729,4.66349006 C1.87064486,4.66349006 1.42070182,4.52643845 1.03799165,4.27043637 C0.652695604,4.0144343 0.355319459,3.64982529 0.179479651,3.22315517 C0.00105396398,2.79648504 -0.0454918674,2.32844085 0.0450139159,1.87591193 C0.135519699,1.42338302 0.357905338,1.00705641 0.683726158,0.681235595 C1.00954698,0.355414775 1.42587358,0.133029136 1.8784025,0.0451092317 Z"></path></clipPath><clipPath id="i54"><path d="M3.22392882,0.176989087 C3.65059894,0.355414775 4.01262207,0.65279092 4.26862414,1.03550109 C4.52462622,1.42079714 4.66167783,1.87074018 4.66167783,2.33102673 C4.66167783,2.94905194 4.41601928,3.54380423 3.97900564,3.98081787 C3.541992,4.41783151 2.94982559,4.66349006 2.33180038,4.66349006 C1.86892794,4.66349006 1.41898491,4.52643845 1.03627474,4.27043637 C0.653564569,4.0144343 0.353602544,3.64982529 0.177762736,3.22315517 C0.00192292875,2.79907092 -0.0446229027,2.32844085 0.0432970011,1.87591193 C0.133802784,1.4259689 0.356188424,1.00964229 0.682009244,0.683821474 C1.00783006,0.358000654 1.42415667,0.135615015 1.87668558,0.0451092317 C2.3292145,-0.0453965516 2.79725869,0.00114927979 3.22392882,0.176989087 Z"></path></clipPath><clipPath id="i55"><path d="M1.8740997,0.0456880156 C2.32662862,-0.0448177677 2.79467281,-0.000857815804 3.22134294,0.177567871 C3.64801306,0.353407679 4.01262207,0.650783824 4.26862414,1.03607987 C4.52462622,1.41879004 4.66167783,1.86873308 4.66167783,2.33160551 C4.66167783,2.94963072 4.41860516,3.54179713 3.98159152,3.97881077 C3.54457788,4.41582441 2.95241147,4.6615189 2.33697214,4.6615189 C1.8740997,4.66406885 1.42415667,4.52701723 1.03886062,4.27101516 C0.656150448,4.01759896 0.356188424,3.65298995 0.177762736,3.22631983 C0.00192292875,2.80223559 -0.0446229027,2.33160551 0.0432970011,1.8790766 C0.133802784,1.42654768 0.353602544,1.01022108 0.679423364,0.684400258 C1.00524418,0.358579438 1.42157079,0.136193799 1.8740997,0.0456880156 Z"></path></clipPath><clipPath id="i56"><path d="M145,0 C147.761424,-5.07265313e-16 150,2.23857625 150,5 L150,265 C150,267.761424 147.761424,270 145,270 L5,270 C2.23857625,270 -5.50001544e-16,267.761424 0,265 L0,5 C-3.38176876e-16,2.23857625 2.23857625,-7.48634046e-15 5,0 L145,0 Z"></path></clipPath><clipPath id="i57"><path d="M2.78043333,0 L2.78043333,1.46348001 L0,1.46348001 L0,0.0160821979 C0.18226491,0.200134018 0.400268037,0.355595265 0.645074827,0.452088452 C0.880947063,0.548581639 1.13468841,0.591467501 1.38664284,0.591467501 C1.64038419,0.591467501 1.88340407,0.548581639 2.1192763,0.452088452 C2.34442707,0.357382176 2.55349564,0.226937681 2.72861291,0.0607549698 C2.74469511,0.0428858611 2.76256422,0.0178691088 2.78043333,0 Z"></path></clipPath><clipPath id="i58"><path d="M1.88260907,0.000988288879 C2.13635042,-0.00794626551 2.38830485,0.0438741499 2.61524253,0.149301892 C2.84218021,0.236860525 3.04231423,0.367305019 3.2174315,0.53348773 C3.3818273,0.699670442 3.52120635,0.89980446 3.61769953,1.11780759 C3.72312728,1.33581071 3.77494769,1.56989604 3.77494769,1.81470283 C3.77494769,2.05772271 3.72312728,2.29359495 3.61769953,2.52053263 C3.5301409,2.713519 3.41756552,2.88684936 3.26925191,3.04409751 C3.25316971,3.06196662 3.23530061,3.08698337 3.2174315,3.10485248 C3.03516659,3.26924828 2.83503257,3.39969278 2.60809489,3.49618597 C2.37222265,3.59267915 2.12741586,3.63556501 1.87546143,3.63556501 C1.62172008,3.63556501 1.36976565,3.59267915 1.13389341,3.49618597 C0.889086624,3.39254513 0.672870407,3.24423153 0.497753141,3.06017971 C0.349439539,2.90293155 0.227929599,2.72781429 0.140370966,2.52768027 C0.0438777784,2.30967714 0.000991917333,2.06665726 0.000991917333,1.82185047 C-0.00794263706,1.58776515 0.0438777784,1.34295836 0.140370966,1.12495523 C0.235077242,0.906952104 0.365521736,0.706818086 0.540639002,0.540635374 C0.898021178,0.201122307 1.37691329,0.00992284327 1.88260907,0.000988288879 Z"></path></clipPath><clipPath id="i59"><path d="M0.8541434,0.105494294 C1.10788474,6.65523088e-05 1.38664284,-0.0267371109 1.65646638,0.0268702155 C1.92628993,0.0804775418 2.17109672,0.210922036 2.36229618,0.4021215 C2.55349564,0.593320964 2.68394014,0.838127754 2.726826,1.09722983 C2.77864642,1.36705337 2.75362966,1.64759838 2.64820192,1.89955282 C2.54277418,2.15150725 2.36944382,2.36951038 2.14250614,2.51782398 C1.91556846,2.67507214 1.64574492,2.75369622 1.37592138,2.75369622 C1.00960465,2.75369622 0.661157025,2.61431717 0.400268037,2.35342818 C0.148313603,2.09253919 0,1.74409157 0,1.37777484 C0,1.1079513 0.087558633,0.838127754 0.235872236,0.611190073 C0.384185839,0.384252391 0.600402055,0.210922036 0.8541434,0.105494294 Z"></path></clipPath><clipPath id="i60"><path d="M0.8541434,0.105494294 C1.10788474,6.65523088e-05 1.38664284,-0.0267371109 1.65646638,0.0268702155 C1.92628993,0.0804775418 2.17109672,0.210922036 2.36229618,0.4021215 C2.55528256,0.593320964 2.68572705,0.838127754 2.73754746,1.1079513 C2.78936788,1.37777484 2.76435113,1.65831985 2.65892339,1.91027428 C2.55349564,2.16222871 2.38016529,2.38023184 2.14250614,2.51782398 C1.91556846,2.67507214 1.64574492,2.75369622 1.37592138,2.75369622 C1.00960465,2.75369622 0.661157025,2.61431717 0.400268037,2.35342818 C0.148313603,2.09253919 0,1.74409157 0,1.37777484 C0,1.1079513 0.087558633,0.838127754 0.235872236,0.611190073 C0.384185839,0.384252391 0.602188966,0.210922036 0.8541434,0.105494294 Z"></path></clipPath><clipPath id="i61"><path d="M2.88407416,0 L2.88407416,2.74648202 L0,2.74648202 L0,0 L2.88407416,0 Z"></path></clipPath><clipPath id="i62"><path d="M11.2789815,0 C14.3721242,0 16.882734,2.51060978 16.882734,5.60375251 C16.882734,8.69868215 14.3631896,11.2092919 11.2700469,11.2003574 L11.2432432,11.2003574 C11.3468841,11.4004914 11.4862631,11.5827563 11.6613804,11.7400045 C12.0795175,12.1313379 12.6549028,12.3493411 13.2481572,12.3493411 L13.2481572,15.0922493 C11.9830243,15.0922493 10.7643511,14.6651776 9.81371454,13.9075274 L9.81371454,15.4335493 L7.05115032,15.4335493 L7.05115032,13.9164619 C6.10051374,14.6741121 4.88005361,15.1011838 3.61670762,15.1011838 L3.61670762,12.3564887 C4.20996203,12.3493411 4.78534733,12.1313379 5.20348448,11.7471521 C5.37681483,11.5916909 5.51619388,11.407639 5.62162162,11.207505 L5.59481796,11.207505 C2.51060978,11.207505 0,8.69689524 0,5.60375251 C0,2.51060978 2.51060978,0 5.60375251,0 Z M11.26826,2.76256422 L5.59481796,2.76256422 C4.02591021,2.76256422 2.75362966,4.03484476 2.75362966,5.60375251 C2.75362966,7.17266026 4.02591021,8.44494081 5.59481796,8.44494081 L11.26826,8.44494081 C12.8371677,8.44494081 14.1094483,7.17266026 14.1094483,5.60375251 C14.1094483,4.03484476 12.8371677,2.76256422 11.26826,2.76256422 Z"></path></clipPath><clipPath id="i63"><path d="M2.88407416,0 L2.88407416,2.74648202 L0,2.74648202 L0,0 L2.88407416,0 Z"></path></clipPath><clipPath id="i64"><path d="M2.77149877,0 L2.77149877,2.91087782 L0,2.91087782 L0,0 L2.77149877,0 Z"></path></clipPath><clipPath id="i65"><path d="M0.816618271,0 L0.816618271,0.859504132 L0,0.859504132 L0,0 L0.816618271,0 Z"></path></clipPath><clipPath id="i66"><path d="M0.821979004,0 L0.821979004,1.37592138 L0,1.37592138 L0,1.27942819 C0.148313603,1.21152558 0.282331919,1.11860621 0.400268037,1.002457 C0.668304668,0.736207282 0.821979004,0.377038195 0.821979004,0 Z"></path></clipPath><clipPath id="i67"><path d="M0.852356489,0 L0.852356489,0.811257539 L0,0.811257539 L0,0 L0.852356489,0 Z"></path></clipPath><clipPath id="i68"><path d="M0.813044449,0 L0.813044449,0.813044449 L0,0.813044449 L0,0 L0.813044449,0 Z"></path></clipPath><clipPath id="i69"><path d="M0.821979004,0 L0.821979004,0.0964931874 C0.675452312,0.164395801 0.537860174,0.259102077 0.421710967,0.373464373 C0.153674335,0.639714094 0,0.998883181 0,1.37592138 L0,0 L0.821979004,0 Z"></path></clipPath><clipPath id="i70"><path d="M1.63144963,0 C1.93522448,0 2.2175564,0.0857717221 2.46236319,0.228724592 L2.46236319,0.0393120393 L3.27898146,0.0393120393 L3.27898146,3.73464373 L2.46236319,3.73464373 L2.46236319,3.03417467 C2.2175564,3.18070136 1.93522448,3.26289926 1.63144963,3.26289926 C0.73263346,3.26289926 0,2.5302658 0,1.63144963 C0,0.73263346 0.73263346,0 1.63144963,0 Z M1.63144963,0.809470628 C1.17757427,0.809470628 0.805896806,1.17936118 0.805896806,1.63502345 C0.805896806,2.08889882 1.17578736,2.46057628 1.63144963,2.46057628 C2.08711191,2.46057628 2.45700246,2.08889882 2.45700246,1.63502345 C2.45700246,1.18114809 2.08532499,0.809470628 1.63144963,0.809470628 Z"></path></clipPath><clipPath id="i71"><path d="M0.405430224,1.24065193e-06 L0.486039759,0.00787688489 C0.564663837,0.0239590828 0.637927183,0.0632711221 0.695108331,0.12045227 C0.75228948,0.175846507 0.791601519,0.249109853 0.805896806,0.327733932 C0.821979004,0.406358011 0.81483136,0.488555911 0.782666964,0.563606168 C0.750502569,0.636869514 0.698682153,0.699411395 0.632566451,0.745871077 C0.566450748,0.790543849 0.48782667,0.813773691 0.40741568,0.813773691 C0.298414117,0.813773691 0.194773286,0.772674741 0.117936118,0.695837573 C0.0428858611,0.619000405 0,0.513572663 0,0.406358011 C0,0.327733932 0.0214429305,0.247322943 0.0679026134,0.18120724 C0.110788474,0.113304627 0.175117266,0.0632711221 0.250167523,0.0311067263 C0.323430869,0.00072924138 0.405628769,-0.00820531301 0.486039759,0.00787688489 Z"></path></clipPath><clipPath id="i72"><path d="M0.836274291,0 L0.836274291,1.15970516 L1.80835381,1.15970516 L1.80835381,1.97632343 L0.836274291,1.97632343 L0.836274291,3.00737101 C0.836274291,3.16640608 0.902389993,3.32186732 1.02032611,3.43622962 C1.13647532,3.55059191 1.2972973,3.61492071 1.46348001,3.61492071 L1.46348001,4.42796516 C1.07393344,4.42796516 0.702255975,4.27786464 0.428858611,4.01340183 C0.155461246,3.7453652 0,3.38798302 0,3.01094483 L0,0 L0.836274291,0 Z"></path></clipPath><clipPath id="i73"><path d="M0.816618271,0 L0.816618271,0.132231405 C1.00424391,0.0464596828 1.20973866,0 1.41880724,0 L1.41880724,0.796962252 C1.25798526,0.796962252 1.10252401,0.859504132 0.988161715,0.972079518 C0.893455439,1.06321197 0.836274291,1.182935 0.816618271,1.30801876 L0.816618271,3.18070136 L0,3.18070136 L0,0 L0.816618271,0 Z"></path></clipPath><clipPath id="i74"><path d="M2.87871342,0 L2.87871342,1.8065669 C2.87871342,2.18181818 2.726826,2.54277418 2.45700246,2.8090239 C2.34085325,2.92517311 2.20504802,3.01987938 2.05852133,3.087782 C1.86732187,3.17712754 1.65646638,3.22537413 1.44025017,3.22537413 C1.05785124,3.22537413 0.69153451,3.07706053 0.421710967,2.81081081 C0.153674335,2.54456109 0,2.185392 0,1.80835381 L0,0.00178691088 L0.821979004,0.00178691088 L0.821979004,1.80835381 C0.821979004,1.96917579 0.886307795,2.12463703 1.002457,2.23899933 C1.11860621,2.35336163 1.27585437,2.41769042 1.44025017,2.41769042 C1.60464597,2.41769042 1.76189413,2.35336163 1.87804333,2.23899933 C1.99240563,2.12642394 2.05852133,1.9709627 2.05852133,1.80835381 L2.05673442,0 L2.87871342,0 Z"></path></clipPath><clipPath id="i75"><path d="M0.816618271,0 L0.816618271,2.9233862 L0,2.9233862 L0,0.00893455439 L0.0160821979,0.00893455439 C0.139379048,0.058968059 0.271610453,0.0839848113 0.403841858,0.0839848113 C0.537860174,0.0857717221 0.670091579,0.058968059 0.79338843,0.00893455439 L0.816618271,0 Z"></path></clipPath><clipPath id="i76"><path d="M0.557516194,0 C0.632566451,0 0.705829797,0.0160821979 0.77373241,0.0464596828 C0.839848113,0.0714764351 0.902389993,0.110788474 0.952423498,0.160821979 C1.00603082,0.212642394 1.04712977,0.271610453 1.07393344,0.332365423 C1.10431092,0.396694215 1.12039312,0.466383739 1.12039312,0.537860174 C1.12039312,0.609336609 1.10431092,0.680813044 1.07393344,0.746928747 C1.04712977,0.811257539 1.00603082,0.868438687 0.95599732,0.918472191 C0.904176904,0.966718785 0.841635023,1.00603082 0.775519321,1.03283449 C0.707616708,1.05963815 0.636140273,1.07393344 0.559303105,1.07393344 C0.482465937,1.07393344 0.40741568,1.05963815 0.339513067,1.03283449 C0.205494751,0.97744025 0.100067009,0.87558633 0.0428858611,0.745141836 C0.014295287,0.679026134 0,0.609336609 0,0.536073263 C0,0.464596828 0.0160821979,0.396694215 0.0428858611,0.330578512 C0.0696895242,0.266249721 0.110788474,0.209068573 0.160821979,0.159035068 C0.268036632,0.058968059 0.409202591,0.00178691088 0.557516194,0 Z"></path></clipPath><clipPath id="i77"><path d="M2.70761671,0 L2.70761671,0.813044449 L1.03328122,0.813044449 C0.977886978,0.813044449 0.926066562,0.832700469 0.886754523,0.872012508 C0.849229395,0.909537637 0.825999553,0.963144963 0.825999553,1.01496538 C0.825999553,1.04355595 0.831360286,1.07035962 0.842081751,1.09537637 C0.854590127,1.12039312 0.868885414,1.14362296 0.888541434,1.16327898 C0.906410543,1.18114809 0.929640384,1.19723029 0.954657136,1.20616484 C0.979673889,1.21688631 1.00826446,1.22224704 1.03506813,1.22224704 L1.89457226,1.22224704 C2.03037748,1.22046013 2.1643958,1.24547688 2.29305338,1.29372348 C2.41456332,1.33839625 2.52356489,1.40451195 2.62005807,1.48849676 C2.71476435,1.57426848 2.79338843,1.68327005 2.84342193,1.79941925 C2.89345544,1.91735537 2.9202591,2.04422604 2.91847219,2.17288363 C2.91847219,2.30868885 2.89166853,2.44449408 2.83627429,2.56957784 C2.78445388,2.68751396 2.70761671,2.79830243 2.61469734,2.8912218 C2.51999107,2.98235426 2.40920259,3.0556176 2.28769265,3.10743802 C2.16082198,3.15747152 2.02322984,3.18248827 1.88385079,3.18070136 L0.845655573,3.18070136 L0.845655573,2.37123073 L1.88385079,2.37123073 C1.91244137,2.37123073 1.93924503,2.36587 1.96426178,2.35514854 C1.98927853,2.34264016 2.01250838,2.32834487 2.03037748,2.30868885 C2.0500335,2.29081975 2.0661157,2.2675899 2.07683717,2.24436006 C2.08755863,2.22113022 2.09470628,2.19432656 2.09470628,2.16930981 C2.10006701,2.14607996 2.09470628,2.12285012 2.08398481,2.1031941 C2.07147644,2.08175117 2.05539424,2.06566897 2.03573822,2.05494751 C1.98927853,2.03529149 1.93924503,2.02635694 1.88921153,2.02814385 L1.02970739,2.02814385 C0.892115256,2.02814385 0.756310029,2.00312709 0.627652446,1.94773286 C0.506142506,1.89769935 0.393567121,1.82443601 0.300647755,1.73151664 C0.20772839,1.63859727 0.130891222,1.52959571 0.0790708063,1.40808577 C-0.0263569354,1.15434443 -0.0263569354,0.870225597 0.0790708063,0.616484253 C0.130891222,0.494974313 0.20772839,0.38775966 0.300647755,0.294840295 C0.497207952,0.107214653 0.759883851,0 1.03328122,0 L2.70761671,0 Z"></path></clipPath><clipPath id="i78"><path d="M0.832700469,0 L0.832700469,1.15970516 L1.84766585,1.15970516 L1.84766585,1.97632343 L0.832700469,1.97632343 L0.832700469,3.00737101 C0.832700469,3.16640608 0.898816172,3.32186732 1.01675229,3.43622962 C1.1329015,3.55059191 1.29372348,3.61313379 1.46348001,3.61492071 L1.46348001,4.42796516 C1.07393344,4.42796516 0.702255975,4.27786464 0.428858611,4.01340183 C0.155461246,3.7453652 0,3.38798302 0,3.01094483 L0,0 L0.832700469,0 Z"></path></clipPath><clipPath id="i79"><path d="M1.43846326,0 C1.82086218,0.00178691088 2.18717891,0.150100514 2.45878937,0.416350235 C2.726826,0.682599955 2.88050034,1.04176904 2.88050034,1.41880724 L2.88050034,3.22537413 L2.05852133,3.22537413 L2.05852133,1.41880724 C2.05852133,1.25798526 1.99419254,1.10252401 1.87804333,0.988161715 C1.76189413,0.873799419 1.60464597,0.809470628 1.44025017,0.809470628 C1.27585437,0.809470628 1.11860621,0.873799419 1.002457,0.988161715 C0.888094706,1.1007371 0.821979004,1.25619835 0.821979004,1.41880724 L0.821979004,3.22537413 L0,3.22537413 L0,1.41880724 C0,1.04355595 0.151887425,0.682599955 0.421710967,0.416350235 C0.537860174,0.300201027 0.673665401,0.205494751 0.820192093,0.137592138 C1.01139156,0.0482465937 1.22224704,0 1.43846326,0 Z"></path></clipPath><clipPath id="i80"><path d="M105,0 C107.761424,-5.07265313e-16 110,2.23857625 110,5 L110,194 C110,196.761424 107.761424,199 105,199 L5,199 C2.23857625,199 2.11453371e-15,196.761424 0,194 L0,5 C-3.38176876e-16,2.23857625 2.23857625,5.07265313e-16 5,0 L105,0 Z"></path></clipPath><linearGradient id="i81" x1="55px" y1="0px" x2="55px" y2="199px" gradientUnits="userSpaceOnUse"><stop stop-color="#F2F2F3" offset="0%"></stop><stop stop-color="#DBDBDC" offset="100%"></stop></linearGradient><filter id="i82" x="-30.6451613%" y="-27.4193548%" filterUnits="userSpaceOnUse" width="138.709677%" height="138.709677%"><feGaussianBlur stdDeviation="2.5" in="SourceAlpha" result="i83"></feGaussianBlur><feOffset dx="0" dy="2" in="i83" result="i84"></feOffset><feColorMatrix values="0 0 0 0.0 0 0 0 0 0.0 0 0 0 0 0.0 0 0 0 0 0.1 0" type="matrix" in="i84"></feColorMatrix></filter><clipPath id="i85"><path d="M8.88888889,0 C13.7973333,0 17.7777778,3.98222222 17.7777778,8.88888889 C17.7777778,13.7955556 13.7973333,17.7777778 8.88888889,17.7777778 C3.98044444,17.7777778 0,13.7955556 0,8.88888889 C0,3.98222222 3.98044444,0 8.88888889,0 Z M8.88888889,2.66666667 C5.45244444,2.66666667 2.66666667,5.45777778 2.66666667,8.88888889 C2.66666667,12.32 5.45244444,15.1111111 8.88888889,15.1111111 C12.3253333,15.1111111 15.1111111,12.32 15.1111111,8.88888889 C15.1111111,5.45777778 12.3253333,2.66666667 8.88888889,2.66666667 Z"></path></clipPath><clipPath id="i86"><path d="M23.5555556,0 C28.2186667,0 32,3.78666667 32,8.44444444 L32,10.2222222 C32,10.9511111 31.4026667,11.5555556 30.6666667,11.5555556 C29.9306667,11.5555556 29.3333333,10.9511111 29.3333333,10.2222222 L29.3333333,8.44444444 C29.3333333,5.26222222 26.7466667,2.66666667 23.5555556,2.66666667 L8.44444444,2.66666667 C5.25333333,2.66666667 2.66666667,5.26222222 2.66666667,8.44444444 L2.66666667,10.2222222 C2.66666667,10.9511111 2.06933333,11.5555556 1.33333333,11.5555556 C0.597333333,11.5555556 0,10.9511111 0,10.2222222 L0,8.44444444 C0,3.78666667 3.78133333,0 8.44444444,0 Z"></path></clipPath><filter id="i87" x="-30.6451613%" y="-27.4193548%" filterUnits="userSpaceOnUse" width="138.709677%" height="138.709677%"><feGaussianBlur stdDeviation="2.5" in="SourceAlpha" result="i88"></feGaussianBlur><feOffset dx="0" dy="2" in="i88" result="i89"></feOffset><feColorMatrix values="0 0 0 0.0 0 0 0 0 0.0 0 0 0 0 0.0 0 0 0 0 0.1 0" type="matrix" in="i89"></feColorMatrix></filter><clipPath id="i90"><path d="M29.4821818,0.60411401 C31.4778182,1.82593219 31.84,4.5750231 30.2312727,6.27684128 L26.2647273,10.4804776 C26.672,11.1059322 26.9090909,11.8622958 26.9090909,12.6622958 C26.9090909,14.8732049 25.1185455,16.6622958 22.9090909,16.6622958 C20.6996364,16.6622958 18.9090909,14.8732049 18.9090909,12.6622958 C18.9090909,10.4513867 20.6996364,8.66229583 22.9090909,8.66229583 C23.5229091,8.66229583 24.1032727,8.79320492 24.6225455,9.04047765 C24.6356364,9.02593219 24.6487273,9.01138674 24.6618182,9.01138674 L26.7869091,6.75684128 C25.5927273,5.89865946 24.1294545,5.38956855 22.5454545,5.38956855 C18.5294545,5.38956855 15.2727273,8.64775037 15.2727273,12.6622958 C15.2727273,13.3168413 15.4021818,13.9132049 15.6014545,14.5677504 C15.7003636,14.8877504 15.8123636,15.2077504 15.9345455,15.5568413 L15.9418182,15.5859322 C16.0654545,15.9350231 16.1963636,16.3132049 16.3170909,16.7059322 C16.4334545,17.0986595 16.3287273,17.5059322 16.0436364,17.7968413 L7.63636364,26.204114 L7.63636364,28.6622958 L10.4567273,28.6622958 L11.2727273,27.8477504 L11.2727273,25.7532049 C11.2727273,25.1568413 11.7614545,24.6622958 12.3636364,24.6622958 L14.1818182,24.6622958 L14.1818182,22.844114 C14.1818182,22.2477504 14.6705455,21.7532049 15.2727273,21.7532049 L17.7294545,21.7532049 L19.5927273,19.8913867 C19.8632727,19.6150231 20.256,19.5132049 20.6269091,19.6004776 C21.3032727,19.7750231 22.0029091,19.9350231 22.5454545,19.9350231 C26.5614545,19.9350231 29.8181818,16.6768413 29.8181818,12.6622958 C29.8181818,12.0659322 30.3069091,11.5713867 30.9090909,11.5713867 C31.5112727,11.5713867 32,12.0659322 32,12.6622958 C32,17.884114 27.7672727,22.1168413 22.5454545,22.1168413 C21.9316364,22.1168413 21.2625455,22.0004776 20.7025455,21.8695686 L18.9527273,23.6150231 C18.7490909,23.8186595 18.4712727,23.9350231 18.1818182,23.9350231 L16.3636364,23.9350231 L16.3636364,25.7532049 C16.3636364,26.3495686 15.8749091,26.844114 15.2727273,26.844114 L13.4545455,26.844114 L13.4545455,28.2986595 C13.4545455,28.5895686 13.3396364,28.8659322 13.1345455,29.0695686 L11.68,30.524114 C11.4763636,30.7277504 11.1985455,30.844114 10.9090909,30.844114 L1.09090909,30.844114 C0.488727273,30.844114 0,30.3495686 0,29.7532049 L0,25.6950231 C0,25.404114 0.114909091,25.1277504 0.317090909,24.924114 L7.83418182,17.3750231 C7.24072727,16.0950231 6.90909091,14.6550231 6.90909091,13.1568413 C6.90909091,7.67320492 11.2901818,3.20775037 16.7272727,3.20775037 L22.4596364,3.20775037 C22.4727273,3.19320492 22.4872727,3.17865946 22.5018182,3.16411401 L24.4756364,1.18593219 C25.808,-0.137704172 27.8792727,-0.3849769 29.4821818,0.60411401 Z M16.5003636,5.38956855 C12.4014545,5.52047765 9.09090909,8.92411401 9.09090909,13.1568413 C9.09090909,14.5677504 9.46472727,15.8913867 10.1149091,17.0404776 C10.3578182,17.4622958 10.2865455,18.0004776 9.94036364,18.3495686 L2.18181818,26.1459322 L2.18181818,28.6622958 L5.45454545,28.6622958 L5.45454545,25.7532049 C5.45454545,25.4622958 5.56945455,25.1859322 5.77454545,24.9822958 L14.0290909,16.7204776 C13.9810909,16.5895686 13.9330909,16.444114 13.8821818,16.2986595 L13.8690909,16.2695686 C13.7512727,15.9350231 13.6276364,15.5713867 13.5156364,15.2077504 C13.2829091,14.4513867 13.0909091,13.6077504 13.0909091,12.6622958 C13.0909091,9.73865946 14.4174545,7.12047765 16.5003636,5.38956855 Z M22.9090909,10.844114 C21.9054545,10.844114 21.0909091,11.6586595 21.0909091,12.6622958 C21.0909091,13.6659322 21.9054545,14.4804776 22.9090909,14.4804776 C23.9127273,14.4804776 24.7272727,13.6659322 24.7272727,12.6622958 C24.7272727,11.6586595 23.9127273,10.844114 22.9090909,10.844114 Z M26.0189091,2.72775037 L25.1723636,3.57138674 C26.3185455,3.90593219 27.3730909,4.44411401 28.2952727,5.15684128 L28.6458182,4.77865946 C29.3047273,4.0950231 29.1549091,2.96047765 28.3389091,2.46593219 C27.5956364,2.00047765 26.6356364,2.11684128 26.0189091,2.72775037 Z"></path></clipPath><clipPath id="i91"><path d="M155,0 C157.761424,-5.07265313e-16 160,2.23857625 160,5 L160,85 C160,87.7614237 157.761424,90 155,90 L5,90 C2.23857625,90 3.38176876e-16,87.7614237 0,85 L0,5 C-3.38176876e-16,2.23857625 2.23857625,2.28362215e-15 5,0 L155,0 Z"></path></clipPath><linearGradient id="i92" x1="80px" y1="0px" x2="80px" y2="90px" gradientUnits="userSpaceOnUse"><stop stop-color="#F2F2F3" offset="0%"></stop><stop stop-color="#DBDBDC" offset="100%"></stop></linearGradient><clipPath id="i93"><path d="M8,0 C12.418278,0 16,3.581722 16,8 C16,12.418278 12.418278,16 8,16 C3.581722,16 0,12.418278 0,8 C0,3.581722 3.581722,0 8,0 Z"></path></clipPath><linearGradient id="i94" x1="-1.08801856e-14px" y1="16px" x2="9.58379728px" y2="-1.77635684e-15px" gradientUnits="userSpaceOnUse"><stop stop-color="#E03875" offset="0%"></stop><stop stop-color="#A92663" offset="100%"></stop></linearGradient><clipPath id="i95"><path d="M3.44191867,0.114271218 C4.14657084,-0.048558383 4.88031415,-0.03724516 5.57971375,0.1474028 C6.27911336,0.332050759 6.92275493,0.684780888 7.45488045,1.17488587 L6.39992242,2.27832914 C5.98052508,1.89933618 5.46052087,1.65044527 4.90253655,1.56115162 C4.34455224,1.47226201 3.77283044,1.54701009 3.25646262,1.7765069 C2.7400948,2.00600371 2.30130337,2.38014815 1.99342209,2.85368734 C1.68513677,3.32763057 1.52149908,3.88076636 1.52149908,4.44561942 C1.52149908,5.01087652 1.68513677,5.56360827 1.99342209,6.0375515 C2.30130337,6.51109069 2.7400948,6.88523513 3.25646262,7.11473194 C3.77283044,7.34422875 4.34455224,7.41897683 4.90253655,7.33008722 C5.46052087,7.24079357 5.98052508,6.99190266 6.39992242,6.6129097 L7.45488045,7.71635297 C6.63547988,8.47110656 5.56193583,8.88969581 4.44798742,8.88888889 C3.72474924,8.88929176 3.0120162,8.71353277 2.37241506,8.3761563 C1.73240988,8.03918387 1.18452665,7.55069507 0.776038495,6.95392256 C0.367550339,6.35674601 0.111386649,5.66906367 0.0289617391,4.95067402 C-0.0534631707,4.23188032 0.0406790057,3.50419766 0.303307395,2.83025281 C0.565935784,2.15630795 0.989373556,1.55670714 1.53604465,1.083572 C2.08311979,0.610032808 2.7372665,0.277504863 3.44191867,0.114271218 Z"></path></clipPath><clipPath id="i96"><path d="M0.293515283,0.00704831745 C0.363818883,-0.00709321119 0.437354832,0.000179574967 0.503617995,0.0276545449 C0.570285201,0.0555335585 0.627255359,0.101998581 0.667255683,0.161797045 C0.707256007,0.221999553 0.728670322,0.292303152 0.728670322,0.364222927 C0.728670322,0.460789365 0.689882129,0.553315367 0.621598748,0.621598748 C0.553315367,0.689882129 0.460789365,0.728266278 0.364222927,0.728670322 C0.292303152,0.728670322 0.221999553,0.707256007 0.162201089,0.667255683 C0.101998581,0.627255359 0.0555335585,0.570285201 0.0276545449,0.503617995 C0.000179574967,0.437354832 -0.00709321119,0.363818883 0.00704831745,0.29311124 C0.0211898461,0.22280764 0.0559376022,0.157756608 0.106847105,0.106847105 C0.157756608,0.0559376022 0.22280764,0.0211898461 0.293515283,0.00704831745 Z"></path></clipPath><clipPath id="i97"><path d="M1.33126678,0.073356618 C1.50742982,0.14608448 1.65813811,0.269721844 1.76399755,0.428106965 C1.869857,0.58689613 1.92642311,0.773160264 1.92602122,0.963868879 C1.92561502,1.21841639 1.8246041,1.46245877 1.64480467,1.64266225 C1.46540928,1.82286573 1.22177094,1.92468474 0.967223425,1.92630951 C0.77651481,1.927109 0.589846632,1.87094693 0.430653424,1.76589558 C0.271864259,1.66044018 0.147822851,1.51013593 0.074286902,1.33437693 C0.00075095303,1.15821389 -0.0186431434,0.964676966 0.0181248311,0.777200701 C0.0548928056,0.590128479 0.146206676,0.418409917 0.28075322,0.283055286 C0.415299764,0.148104698 0.587018326,0.0559827399 0.774090548,0.0188107218 C0.96116277,-0.0187653401 1.15510373,0.000224712701 1.33126678,0.073356618 Z"></path></clipPath><clipPath id="i98"><path d="M0.29350039,0.00704831745 C0.364208034,-0.00709321119 0.437339939,0.000179574967 0.504007145,0.0276545449 C0.570270308,0.0551295148 0.627240466,0.101998581 0.66724079,0.161797045 C0.707241114,0.221595509 0.728655429,0.292303152 0.728655429,0.364222927 C0.728655429,0.460789365 0.689867236,0.553315367 0.621583855,0.621598748 C0.553704517,0.689882129 0.460774472,0.728266278 0.364612077,0.728670322 C0.292288259,0.728670322 0.22198466,0.707256007 0.162186196,0.667255683 C0.101983688,0.627255359 0.0555186654,0.570285201 0.0280436955,0.503617995 C0.000164681872,0.436950788 -0.00710810429,0.363818883 0.00703342436,0.29311124 C0.021174953,0.222403597 0.0559227091,0.157756608 0.106832212,0.106847105 C0.157741715,0.0555335585 0.222792747,0.0211898461 0.29350039,0.00704831745 Z"></path></clipPath><clipPath id="i99"><path d="M0.506552211,0.0289856188 C0.572815374,0.0568646325 0.629381489,0.104137742 0.668977769,0.164744294 C0.708574049,0.225350845 0.729180276,0.296058488 0.728372189,0.368382306 C0.727564102,0.464140657 0.688371865,0.555858572 0.620492528,0.623333866 C0.552209146,0.690809159 0.460087188,0.728385221 0.364328837,0.728385221 C0.292005019,0.728385221 0.221297376,0.706970906 0.161498912,0.666970583 C0.101296405,0.626566215 0.0548313818,0.569596057 0.0273564119,0.502524807 C-0.000118558064,0.4358576 -0.00698730055,0.362321651 0.0071542281,0.291614008 C0.0216998004,0.220906365 0.0568516002,0.155855333 0.108165147,0.105349874 C0.159478694,0.0544403704 0.224529726,0.020096658 0.295641412,0.006359173 C0.366753099,-0.00697426829 0.439885005,0.000702561544 0.506552211,0.0289856188 Z"></path></clipPath><clipPath id="i100"><path d="M0.29350039,0.00704831745 C0.364208034,-0.00709321119 0.437339939,0.000179574967 0.504007145,0.0276545449 C0.570270308,0.0551295148 0.627240466,0.101998581 0.66724079,0.161797045 C0.707241114,0.221595509 0.728655429,0.292303152 0.728655429,0.364222927 C0.728655429,0.460789365 0.689867236,0.553315367 0.621583855,0.621598748 C0.553704517,0.689882129 0.460774472,0.728266278 0.364612077,0.728670322 C0.292288259,0.728670322 0.22198466,0.707256007 0.162186196,0.667255683 C0.101983688,0.627255359 0.0555186654,0.570285201 0.0280436955,0.503617995 C0.000164681872,0.436950788 -0.00710810429,0.363818883 0.00703342436,0.29311124 C0.021174953,0.222403597 0.0559227091,0.157352565 0.106832212,0.106443062 C0.157741715,0.0555335585 0.222792747,0.0207858024 0.29350039,0.00704831745 Z"></path></clipPath><clipPath id="i101"><path d="M0.503738877,0.0276545449 C0.570406084,0.0555335585 0.626972198,0.101998581 0.666972522,0.161797045 C0.706972846,0.221999553 0.728387161,0.292303152 0.728387161,0.364222927 C0.728387161,0.460789365 0.690003012,0.553719411 0.621719631,0.622002792 C0.553436249,0.690286173 0.460910248,0.728670322 0.364343809,0.728670322 C0.292019991,0.728670322 0.221716392,0.707256007 0.161917928,0.667255683 C0.102119464,0.627255359 0.0552503975,0.570285201 0.0277754276,0.503617995 C0.000300457617,0.437354832 -0.00697232854,0.363818883 0.00676515643,0.29311124 C0.0209066851,0.22280764 0.0556544412,0.157756608 0.106563944,0.106847105 C0.157473447,0.0559376022 0.222524479,0.0211898461 0.293232122,0.00704831745 C0.363939766,-0.00709321119 0.437071671,0.000179574967 0.503738877,0.0276545449 Z"></path></clipPath><clipPath id="i102"><path d="M0.292828079,0.00713875244 C0.363535722,-0.0070027762 0.436667627,-0.000134033719 0.503334834,0.0277449799 C0.57000204,0.0552199498 0.626972198,0.101684973 0.666972522,0.16188748 C0.706972846,0.221685944 0.728387161,0.291989544 0.728387161,0.364313362 C0.728387161,0.4608798 0.690407056,0.553405802 0.622123674,0.621689183 C0.553840293,0.689972564 0.461314291,0.728362328 0.365151897,0.728362328 C0.292828079,0.728760757 0.222524479,0.707346442 0.162321972,0.667346118 C0.102523508,0.627749838 0.0556544412,0.57077968 0.0277754276,0.504112473 C0.000300457617,0.437849311 -0.00697232854,0.364313362 0.00676515643,0.293605718 C0.0209066851,0.222898075 0.0552503975,0.157847043 0.106159901,0.10693754 C0.157069404,0.0560280372 0.222120436,0.0212802811 0.292828079,0.00713875244 Z"></path></clipPath><clipPath id="i103"><path d="M8,0 C12.418278,0 16,3.581722 16,8 C16,12.418278 12.418278,16 8,16 C3.581722,16 0,12.418278 0,8 C0,3.581722 3.581722,0 8,0 Z"></path></clipPath><linearGradient id="i104" x1="-1.08801856e-14px" y1="16px" x2="9.58379728px" y2="-1.77635684e-15px" gradientUnits="userSpaceOnUse"><stop stop-color="#E03875" offset="0%"></stop><stop stop-color="#A92663" offset="100%"></stop></linearGradient><filter id="i105" x="-30.6451613%" y="-27.4193548%" filterUnits="userSpaceOnUse" width="138.709677%" height="138.709677%"><feGaussianBlur stdDeviation="2.5" in="SourceAlpha" result="i106"></feGaussianBlur><feOffset dx="0" dy="2" in="i106" result="i107"></feOffset><feColorMatrix values="0 0 0 0.0 0 0 0 0 0.0 0 0 0 0 0.0 0 0 0 0 0.1 0" type="matrix" in="i107"></feColorMatrix></filter><clipPath id="i108"><path d="M26.6666667,0 C29.6121853,0 32,2.38781467 32,5.33333333 C32,8.278852 29.6121853,10.6666667 26.6666667,10.6666667 C25.0149391,10.6666667 23.5385823,9.91581546 22.5603023,8.7368192 L10.2608714,13.9558164 C10.5223361,14.5853697 10.6666667,15.2758297 10.6666667,16 C10.6666667,16.487671 10.6012134,16.9600547 10.4786127,17.4088452 L22.6957374,23.1062333 C23.6721684,22.017955 25.0894666,21.3333333 26.6666667,21.3333333 C29.6121853,21.3333333 32,23.721148 32,26.6666667 C32,29.6121853 29.6121853,32 26.6666667,32 C23.721148,32 21.3333333,29.6121853 21.3333333,26.6666667 C21.3333333,26.2566533 21.3796005,25.8574463 21.4671987,25.4739816 L9.14543027,19.7299306 C8.17723577,20.7193189 6.82698993,21.3333333 5.33333333,21.3333333 C2.38781467,21.3333333 0,18.9455187 0,16 C0,13.0544813 2.38781467,10.6666667 5.33333333,10.6666667 C6.5562657,10.6666667 7.68306228,11.0782729 8.58274478,11.7705071 L21.424538,6.32063641 C21.3646512,6.00068269 21.3333333,5.67066535 21.3333333,5.33333333 C21.3333333,2.38781467 23.721148,0 26.6666667,0 Z"></path></clipPath><clipPath id="i109"><path d="M10.8,0 C11.9045695,7.78148667e-16 12.8,0.8954305 12.8,2 L12.8,10.8 C12.8,11.9045695 11.9045695,12.8 10.8,12.8 L2,12.8 C0.8954305,12.8 1.11632554e-15,11.9045695 0,10.8 L0,2 C-1.3527075e-16,0.8954305 0.8954305,2.02906125e-16 2,0 L10.8,0 Z"></path></clipPath><linearGradient id="i110" x1="-8.70414851e-15px" y1="12.8px" x2="7.66703783px" y2="-1.42108547e-15px" gradientUnits="userSpaceOnUse"><stop stop-color="#E03875" offset="0%"></stop><stop stop-color="#A92663" offset="100%"></stop></linearGradient><clipPath id="i111"><path d="M0.303030303,0 C0.47030303,0 0.606060606,0.137373737 0.606060606,0.303030303 L0.606060606,1.11111111 C0.606060606,1.27676768 0.47030303,1.41414141 0.303030303,1.41414141 C0.135757576,1.41414141 0,1.27676768 0,1.11111111 L0,0.303030303 C0,0.137373737 0.135757576,0 0.303030303,0 Z"></path></clipPath><clipPath id="i112"><path d="M3.23232323,0 C3.87070707,0 4.48565657,0.242424242 4.94141414,0.674747475 C5.39757576,1.11111111 5.65656566,1.7010101 5.65656566,2.32323232 L5.65656566,3.67676768 C6.12282828,3.81010101 6.46464646,4.23838384 6.46464646,4.74747475 L6.46464646,7.77777778 C6.46464646,8.39191919 5.96727273,8.88888889 5.35353535,8.88888889 L1.11111111,8.88888889 C0.497373737,8.88888889 0,8.39191919 0,7.77777778 L0,4.74747475 C0,4.23838384 0.341818182,3.81010101 0.808080808,3.67676768 L0.808080808,2.32323232 C0.808080808,1.7010101 1.06707071,1.11111111 1.52323232,0.674747475 C1.9789899,0.242424242 2.59393939,0 3.23232323,0 Z M5.35353535,4.24242424 L1.11111111,4.24242424 C0.832323232,4.24242424 0.606060606,4.46868687 0.606060606,4.74747475 L0.606060606,7.77777778 C0.606060606,8.05656566 0.832323232,8.28282828 1.11111111,8.28282828 L5.35353535,8.28282828 C5.63232323,8.28282828 5.85858586,8.05656566 5.85858586,7.77777778 L5.85858586,4.74747475 C5.85858586,4.46868687 5.63232323,4.24242424 5.35353535,4.24242424 Z M3.23232323,0.606060606 C2.74545455,0.606060606 2.28121212,0.791919192 1.94141414,1.11515152 C1.6020202,1.43838384 1.41414141,1.87070707 1.41414141,2.32323232 L1.41414141,3.63636364 L5.05050505,3.63636364 L5.05050505,2.32323232 C5.05050505,1.87070707 4.86262626,1.43838384 4.52323232,1.11515152 C4.18343434,0.791919192 3.71919192,0.606060606 3.23232323,0.606060606 Z"></path></clipPath></defs><g clip-path="url(#i0)"><g transform="translate(640.0 10.0)"><g clip-path="url(#i1)"><polygon points="0,0 200,0 200,340 0,340 0,0" stroke="none" fill="#FFFFFF"></polygon><path d="M5,0 L195,0 C197.761424,-5.07265313e-16 200,2.23857625 200,5 L200,335 C200,337.761424 197.761424,340 195,340 L5,340 C2.23857625,340 4.77906897e-15,337.761424 0,335 L0,5 C-3.38176876e-16,2.23857625 2.23857625,1.39544373e-15 5,0 Z" stroke="#CCCCCC" stroke-width="3" fill="none" stroke-miterlimit="5"></path></g><g transform="translate(20.0 10.0)"><g transform="translate(2.0 1.333333333333334)"><g clip-path="url(#i2)"><polygon points="0,0 8.46841905,0 8.46841905,18.3029841 0,18.3029841 0,0" stroke="none" fill="#000001"></polygon></g><g transform="translate(5.285688888888897 0.0)"><g clip-path="url(#i3)"><polygon points="0,0 9.74425397,0 9.74425397,21.3292698 0,21.3292698 0,0" stroke="none" fill="#000001"></polygon></g></g><g transform="translate(11.84883809523811 3.030349206349152)"><g clip-path="url(#i4)"><polygon points="0,0 8.46841905,0 8.46841905,18.3029841 0,18.3029841 0,0" stroke="none" fill="#000001"></polygon></g></g></g></g></g><g transform="translate(739.5 221.0)"><path d="M0.5,0 L0.5,20" stroke="#000000" stroke-width="2" fill="none" stroke-linecap="round" stroke-miterlimit="10"></path></g><g transform="translate(180.0 80.0)"><g clip-path="url(#i5)"><polygon points="0,0 440,0 440,270 0,270 0,0" stroke="none" fill="#FFFFFF"></polygon><path d="M5,0 L435,0 C437.761424,-5.07265313e-16 440,2.23857625 440,5 L440,265 C440,267.761424 437.761424,270 435,270 L5,270 C2.23857625,270 -3.2145368e-15,267.761424 0,265 L0,5 C-3.38176876e-16,2.23857625 2.23857625,-7.48634046e-15 5,0 Z" stroke="#F5C163" stroke-width="3" fill="none" stroke-miterlimit="5"></path></g><g transform="translate(20.0 10.0)"><g transform="translate(2.0 8.0)"><g transform="translate(1.3239316752867385 0.0)"><g clip-path="url(#i6)"><polygon points="0,0 29.3522479,0 29.3522479,10.0088102 0,10.0088102 0,0" stroke="none" fill="#252F3E"></polygon></g></g><g transform="translate(0.0 11.93532798832955)"><g transform="translate(-1.5631940186722204e-13 0.6334679268627021)"><g clip-path="url(#i7)"><polygon points="-3.26405569e-14,2.99760217e-15 29.1850073,2.99760217e-15 29.1850073,6.57635274 -3.26405569e-14,6.57635274 -3.26405569e-14,2.99760217e-15" stroke="none" fill="#FF9900"></polygon></g></g><g transform="translate(26.00298634254657 0.0)"><g clip-path="url(#i8)"><polygon points="3.61932706e-14,1.04360964e-14 5.99701366,1.04360964e-14 5.99701366,5.9112731 3.61932706e-14,5.9112731 3.61932706e-14,1.04360964e-14" stroke="none" fill="#FF9900"></polygon></g></g></g></g></g></g><g transform="translate(300.0 130.0)"><g clip-path="url(#i9)"><polygon points="0,0 90,0 90,200 0,200 0,0" stroke="none" fill="url(#i10)"></polygon></g></g><g transform="translate(200.0 130.0)"><g clip-path="url(#i9)"><polygon points="0,0 90,0 90,200 0,200 0,0" stroke="none" fill="url(#i11)"></polygon></g></g><g transform="translate(400.0 130.0)"><g clip-path="url(#i12)"><polygon points="0,0 200,0 200,200 0,200 0,0" stroke="none" fill="url(#i13)"></polygon></g></g><g transform="translate(510.0 131.0)"><g clip-path="url(#i14)"><polygon points="0,0 90,0 90,90 0,90 0,0" stroke="none" fill="url(#i15)"></polygon></g></g><g transform="translate(660.0 60.0)"><path d="M155,-2 C156.932997,-2 158.682997,-1.21649831 159.949747,0.0502525317 C161.216498,1.31700338 162,3.06700338 162,5 L162,155 C162,156.932997 161.216498,158.682997 159.949747,159.949747 C158.682997,161.216498 156.932997,162 155,162 L5,162 C3.06700338,162 1.31700338,161.216498 0.0502525317,159.949747 C-1.21649831,158.682997 -2,156.932997 -2,155 L-2,5 C-2,3.06700338 -1.21649831,1.31700338 0.0502525317,0.0502525317 C1.31700338,-1.21649831 3.06700338,-2 5,-2 Z" stroke="none" fill="#000000" filter="url(#i16)"></path><g clip-path="url(#i19)"><polygon points="0,0 160,0 160,160 0,160 0,0" stroke="none" fill="#FFFFFF"></polygon></g></g><g transform="translate(244.5 220.0)"><path d="M0.5,0 L0.5,20" stroke="#000000" stroke-width="2" fill="none" stroke-linecap="round" stroke-miterlimit="10"></path></g><g transform="translate(269.0390625 200.0)"><path d="M0,0 L20.9609375,0 C23.7223612,-5.07265313e-16 25.9609375,2.23857625 25.9609375,5 L25.9609375,25 C25.9609375,27.7614237 28.1995138,30 30.9609375,30 L51.8489583,30 L51.8489583,30" stroke="#000000" stroke-width="2" fill="none" stroke-linecap="round" stroke-miterlimit="10"></path></g><g transform="translate(270.0390625 254.5703045035825)"><path d="M0,10.4296955 L70.9609375,10.4296955 C73.7223612,10.4296955 75.9609375,8.19111925 75.9609375,5.4296955 L75.9609375,0 L75.9609375,0" stroke="#B6B8C2" stroke-width="2" fill="none" stroke-linecap="round" stroke-miterlimit="10" stroke-dasharray=" 5.0 5.0"></path></g><g transform="translate(369.0 230.0)"><path d="M0,0 L20.9609375,0 C23.7223612,-5.07265313e-16 25.9609375,2.23857625 25.9609375,5 L25.9609375,50 C25.9609375,52.7614237 28.1995138,55 30.9609375,55 L51.8489583,55 L51.8489583,55" stroke="#000000" stroke-width="2" fill="none" stroke-linecap="round" stroke-miterlimit="10"></path></g><g transform="translate(469.0390625000001 175.5)"><path d="M0,0.5 L60.9609375,0.5" stroke="#000000" stroke-width="2" fill="none" stroke-linecap="round" stroke-miterlimit="10"></path></g><g transform="translate(468.0390625000001 284.5)"><path d="M0,0.5 L61.9609375,0.5" stroke="#000000" stroke-width="2" fill="none" stroke-linecap="round" stroke-miterlimit="10"></path></g><g transform="translate(369.0 230.0) scale(1.0 -1.0)"><path d="M0,0 L20.9609375,0 C23.7223612,-5.07265313e-16 25.9609375,2.23857625 25.9609375,5 L25.9609375,48 C25.9609375,50.7614237 28.1995138,53 30.9609375,53 L51.8489583,53 L51.8489583,53" stroke="#000000" stroke-width="2" fill="none" stroke-linecap="round" stroke-miterlimit="10"></path></g><g transform="translate(215.0 148.0)"><g transform="translate(0.0 17.0)"><g transform="translate(6.0 6.0)"><path d="M46,-2 C47.1045695,-2 48.1045695,-1.55228475 48.8284271,-0.828427125 C49.5522847,-0.1045695 50,0.8954305 50,2 L50,46 C50,47.1045695 49.5522847,48.1045695 48.8284271,48.8284271 C48.1045695,49.5522847 47.1045695,50 46,50 L2,50 C0.8954305,50 -0.1045695,49.5522847 -0.828427125,48.8284271 C-1.55228475,48.1045695 -2,47.1045695 -2,46 L-2,2 C-2,0.8954305 -1.55228475,-0.1045695 -0.828427125,-0.828427125 C-0.1045695,-1.55228475 0.8954305,-2 2,-2 Z" stroke="none" fill="#000000" filter="url(#i20)"></path><g clip-path="url(#i23)"><polygon points="0,0 48,0 48,48 0,48 0,0" stroke="none" fill="#FFFFFF"></polygon></g></g></g><g transform="translate(12.0 30.0)"><g transform="translate(2.0 2.0)"><g clip-path="url(#i24)"><polygon points="0,0 32,0 32,32 0,32 0,0" stroke="none" fill="#212121"></polygon></g></g></g><g transform="translate(5.0 0.0)"><text transform="translate(12.9438671875 11.0)" font-family="Roboto-Medium, Roboto" font-size="12.0" font-weight="400" fill="#212121" text-anchor="center" letter-spacing="0.18">Web</text></g></g><g transform="translate(215.0 235.0)"><g transform="translate(6.0 6.0)"><path d="M46,-2 C47.1045695,-2 48.1045695,-1.55228475 48.8284271,-0.828427125 C49.5522847,-0.1045695 50,0.8954305 50,2 L50,46 C50,47.1045695 49.5522847,48.1045695 48.8284271,48.8284271 C48.1045695,49.5522847 47.1045695,50 46,50 L2,50 C0.8954305,50 -0.1045695,49.5522847 -0.828427125,48.8284271 C-1.55228475,48.1045695 -2,47.1045695 -2,46 L-2,2 C-2,0.8954305 -1.55228475,-0.1045695 -0.828427125,-0.828427125 C-0.1045695,-1.55228475 0.8954305,-2 2,-2 Z" stroke="none" fill="#000000" filter="url(#i25)"></path><g clip-path="url(#i23)"><polygon points="0,0 48,0 48,48 0,48 0,0" stroke="none" fill="#FFFFFF"></polygon></g></g><g transform="translate(12.0 12.0)"><g transform="translate(2.0 2.0)"><g clip-path="url(#i28)"><polygon points="0,5.55111512e-17 32,5.55111512e-17 32,32 0,32 0,5.55111512e-17" stroke="none" fill="#212121"></polygon></g></g></g><g transform="translate(5.0 63.0)"><text transform="translate(0.36496093750000114 11.0)" font-family="Roboto-Medium, Roboto" font-size="12.0" font-weight="400" fill="#212121" text-anchor="center" letter-spacing="0.18">Frontend</text></g></g><g transform="translate(410.0 145.0)"><g transform="translate(5.0 0.0)"><g transform="translate(6.0 6.0)"><path d="M46,-2 C47.1045695,-2 48.1045695,-1.55228475 48.8284271,-0.828427125 C49.5522847,-0.1045695 50,0.8954305 50,2 L50,46 C50,47.1045695 49.5522847,48.1045695 48.8284271,48.8284271 C48.1045695,49.5522847 47.1045695,50 46,50 L2,50 C0.8954305,50 -0.1045695,49.5522847 -0.828427125,48.8284271 C-1.55228475,48.1045695 -2,47.1045695 -2,46 L-2,2 C-2,0.8954305 -1.55228475,-0.1045695 -0.828427125,-0.828427125 C-0.1045695,-1.55228475 0.8954305,-2 2,-2 Z" stroke="none" fill="#000000" filter="url(#i29)"></path><g clip-path="url(#i23)"><polygon points="0,0 48,0 48,48 0,48 0,0" stroke="none" fill="#FFFFFF"></polygon></g></g></g><g transform="translate(17.0 13.0)"><g transform="translate(2.0 2.0)"><g clip-path="url(#i28)"><polygon points="0,5.55111512e-17 32,5.55111512e-17 32,32 0,32 0,5.55111512e-17" stroke="none" fill="#212121"></polygon></g></g></g><g transform="translate(0.0 59.0)"><text transform="translate(1.8830468749999625 11.0)" font-family="Roboto-Medium, Roboto" font-size="12.0" font-weight="400" fill="#212121" text-anchor="center" letter-spacing="0.18">Product API</text></g></g><g transform="translate(410.0 243.0)"><g transform="translate(5.0 12.0)"><g transform="translate(6.0 6.0)"><path d="M46,-2 C47.1045695,-2 48.1045695,-1.55228475 48.8284271,-0.828427125 C49.5522847,-0.1045695 50,0.8954305 50,2 L50,46 C50,47.1045695 49.5522847,48.1045695 48.8284271,48.8284271 C48.1045695,49.5522847 47.1045695,50 46,50 L2,50 C0.8954305,50 -0.1045695,49.5522847 -0.828427125,48.8284271 C-1.55228475,48.1045695 -2,47.1045695 -2,46 L-2,2 C-2,0.8954305 -1.55228475,-0.1045695 -0.828427125,-0.828427125 C-0.1045695,-1.55228475 0.8954305,-2 2,-2 Z" stroke="none" fill="#000000" filter="url(#i32)"></path><g clip-path="url(#i23)"><polygon points="0,0 48,0 48,48 0,48 0,0" stroke="none" fill="#FFFFFF"></polygon></g></g></g><g transform="translate(17.0 24.0)"><g transform="translate(2.0 2.0)"><g clip-path="url(#i28)"><polygon points="0,5.55111512e-17 32,5.55111512e-17 32,32 0,32 0,5.55111512e-17" stroke="none" fill="#212121"></polygon></g></g></g><text transform="translate(7.485078125000001 11.0)" font-family="Roboto-Medium, Roboto" font-size="12.0" font-weight="400" fill="#212121" text-anchor="center" letter-spacing="0.18">Payments</text></g><g transform="translate(310.0 186.0)"><g transform="translate(5.0 14.0)"><g transform="translate(6.0 6.0)"><path d="M46,-2 C47.1045695,-2 48.1045695,-1.55228475 48.8284271,-0.828427125 C49.5522847,-0.1045695 50,0.8954305 50,2 L50,46 C50,47.1045695 49.5522847,48.1045695 48.8284271,48.8284271 C48.1045695,49.5522847 47.1045695,50 46,50 L2,50 C0.8954305,50 -0.1045695,49.5522847 -0.828427125,48.8284271 C-1.55228475,48.1045695 -2,47.1045695 -2,46 L-2,2 C-2,0.8954305 -1.55228475,-0.1045695 -0.828427125,-0.828427125 C-0.1045695,-1.55228475 0.8954305,-2 2,-2 Z" stroke="none" fill="#000000" filter="url(#i35)"></path><g clip-path="url(#i23)"><polygon points="0,0 48,0 48,48 0,48 0,0" stroke="none" fill="#FFFFFF"></polygon></g></g></g><g transform="translate(17.0 26.0)"><g transform="translate(2.0 2.0)"><g clip-path="url(#i38)"><polygon points="0,0 32,0 32,32 0,32 0,0" stroke="none" fill="#212121"></polygon></g></g></g><text transform="translate(6.332421875000001 11.0)" font-family="Roboto-Medium, Roboto" font-size="12.0" font-weight="400" fill="#212121" text-anchor="center" letter-spacing="0.18">Public API</text></g><g transform="translate(518.0 152.0)"><g transform="translate(11.0 0.0)"><path d="M46,-2 C47.1045695,-2 48.1045695,-1.55228475 48.8284271,-0.828427125 C49.5522847,-0.1045695 50,0.8954305 50,2 L50,46 C50,47.1045695 49.5522847,48.1045695 48.8284271,48.8284271 C48.1045695,49.5522847 47.1045695,50 46,50 L2,50 C0.8954305,50 -0.1045695,49.5522847 -0.828427125,48.8284271 C-1.55228475,48.1045695 -2,47.1045695 -2,46 L-2,2 C-2,0.8954305 -1.55228475,-0.1045695 -0.828427125,-0.828427125 C-0.1045695,-1.55228475 0.8954305,-2 2,-2 Z" stroke="none" fill="#000000" filter="url(#i39)"></path><g clip-path="url(#i23)"><polygon points="0,0 48,0 48,48 0,48 0,0" stroke="none" fill="#FFFFFF"></polygon></g></g><g transform="translate(17.0 6.0)"><g transform="translate(2.0 2.0)"><g clip-path="url(#i42)"><polygon points="0,0 32,0 32,32 0,32 0,0" stroke="none" fill="#212121"></polygon></g></g></g><g transform="translate(0.0 52.0)"><text transform="translate(10.203828125000001 11.0)" font-family="Roboto-Medium, Roboto" font-size="12.0" font-weight="400" fill="#212121" text-anchor="center" letter-spacing="0.18">Postgres</text></g></g><g transform="translate(518.0 243.0)"><g transform="translate(5.0 12.0)"><g transform="translate(6.0 6.0)"><path d="M46,-2 C47.1045695,-2 48.1045695,-1.55228475 48.8284271,-0.828427125 C49.5522847,-0.1045695 50,0.8954305 50,2 L50,46 C50,47.1045695 49.5522847,48.1045695 48.8284271,48.8284271 C48.1045695,49.5522847 47.1045695,50 46,50 L2,50 C0.8954305,50 -0.1045695,49.5522847 -0.828427125,48.8284271 C-1.55228475,48.1045695 -2,47.1045695 -2,46 L-2,2 C-2,0.8954305 -1.55228475,-0.1045695 -0.828427125,-0.828427125 C-0.1045695,-1.55228475 0.8954305,-2 2,-2 Z" stroke="none" fill="#000000" filter="url(#i43)"></path><g clip-path="url(#i23)"><polygon points="0,0 48,0 48,48 0,48 0,0" stroke="none" fill="#FFFFFF"></polygon></g></g></g><g transform="translate(17.0 24.0)"><g transform="translate(2.0 2.0)"><g clip-path="url(#i42)"><polygon points="0,0 32,0 32,32 0,32 0,0" stroke="none" fill="#212121"></polygon></g></g></g><text transform="translate(18.17890625 11.0)" font-family="Roboto-Medium, Roboto" font-size="12.0" font-weight="400" fill="#212121" text-anchor="center" letter-spacing="0.18">REDIS</text></g><g transform="translate(695.0 95.0)"><g clip-path="url(#i46)"><polygon points="0,0 90,0 90,90 0,90 0,0" stroke="none" fill="url(#i47)"></polygon></g><g transform="translate(13.0 13.0)"><g transform="translate(3.555555555555557 3.555555555555557)"><g transform=""><g clip-path="url(#i48)"><polygon points="-1.04360964e-14,3.51940699e-14 47.7112349,3.51940699e-14 47.7112349,56.8888963 -1.04360964e-14,56.8888963 -1.04360964e-14,3.51940699e-14" stroke="none" fill="#FFFFFF"></polygon></g></g><g transform="translate(49.02371241587416 37.9978822138883)"><g clip-path="url(#i49)"><polygon points="-4.90024687e-14,-1.36279876e-14 4.66349006,-1.36279876e-14 4.66349006,4.66349006 -4.90024687e-14,4.66349006 -4.90024687e-14,-1.36279876e-14" stroke="none" fill="#FFFFFF"></polygon></g></g><g transform="translate(22.09587799484052 22.28061758695513)"><g clip-path="url(#i50)"><polygon points="-6.05071548e-15,1.37945211e-14 12.3265494,1.37945211e-14 12.3265494,12.3284348 -6.05071548e-15,12.3284348 -6.05071548e-15,1.37945211e-14" stroke="none" fill="#FFFFFF"></polygon></g></g><g transform="translate(51.69760715925215 30.05406031688544)"><g clip-path="url(#i51)"><polygon points="-2.10734208e-14,-1.36279876e-14 4.66339475,-1.36279876e-14 4.66339475,4.66349006 -2.10734208e-14,4.66349006 -2.10734208e-14,-1.36279876e-14" stroke="none" fill="#FFFFFF"></polygon></g></g><g transform="translate(44.766676891634816 29.763680575656792)"><g clip-path="url(#i52)"><polygon points="-6.72240041e-14,1.98452366e-15 4.66172848,1.98452366e-15 4.66172848,4.66166542 -6.72240041e-14,4.66166542 -6.72240041e-14,1.98452366e-15" stroke="none" fill="#FFFFFF"></polygon></g></g><g transform="translate(51.69760715925215 22.198158323690613)"><g clip-path="url(#i53)"><polygon points="-2.10734208e-14,-1.6348034e-14 4.66339475,-1.6348034e-14 4.66339475,4.66349006 -2.10734208e-14,4.66349006 -2.10734208e-14,-1.6348034e-14" stroke="none" fill="#FFFFFF"></polygon></g></g><g transform="translate(44.7665810707969 22.46191803511454)"><g clip-path="url(#i54)"><polygon points="-2.08444373e-14,-1.63341562e-14 4.66167783,-1.63341562e-14 4.66167783,4.66349006 -2.08444373e-14,4.66349006 -2.08444373e-14,-1.63341562e-14" stroke="none" fill="#FFFFFF"></polygon></g></g><g transform="translate(49.15481862262432 14.357192823706399)"><g clip-path="url(#i55)"><polygon points="-2.08444373e-14,1.69309011e-15 4.66167783,1.69309011e-15 4.66167783,4.66155385 -2.08444373e-14,4.66155385 -2.08444373e-14,1.69309011e-15" stroke="none" fill="#FFFFFF"></polygon></g></g></g></g></g><g transform="translate(10.0 80.0)"><g clip-path="url(#i56)"><polygon points="0,0 150,0 150,270 0,270 0,0" stroke="none" fill="#FFFFFF"></polygon><path d="M5,0 L145,0 C147.761424,-5.07265313e-16 150,2.23857625 150,5 L150,265 C150,267.761424 147.761424,270 145,270 L5,270 C2.23857625,270 -5.50001544e-16,267.761424 0,265 L0,5 C-3.38176876e-16,2.23857625 2.23857625,-7.48634046e-15 5,0 Z" stroke="#CCCCCC" stroke-width="3" fill="none" stroke-miterlimit="5"></path></g><g transform="translate(10.0 10.0)"><g transform="translate(9.55863301317847 2.803121606139495)"><g transform="translate(7.051150323877594 3.044097513806874)"><g clip-path="url(#i57)"><polygon points="0,0 2.78043333,0 2.78043333,1.46348001 0,1.46348001 0,0" stroke="none" fill="#A07CB8"></polygon></g></g><g transform="translate(6.5533971825104365 0.0)"><g clip-path="url(#i58)"><polygon points="-1.2490009e-15,0 3.77494769,0 3.77494769,3.63556501 -1.2490009e-15,3.63556501 -1.2490009e-15,0" stroke="none" fill="#181849"></polygon></g></g><g transform="translate(4.218896582532944 8.733555196476857)"><g clip-path="url(#i59)"><polygon points="0,-5.75928194e-16 2.75290204,-5.75928194e-16 2.75290204,2.75369622 0,2.75369622 0,-5.75928194e-16" stroke="none" fill="#181849"></polygon></g></g><g transform="translate(9.892338619611351 8.733555196476857)"><g clip-path="url(#i60)"><polygon points="0,-5.75928194e-16 2.76362351,-5.75928194e-16 2.76362351,2.75369622 0,2.75369622 0,-5.75928194e-16" stroke="none" fill="#181849"></polygon></g></g><g transform="translate(0.7326334599061848 16.85691859935523)"><g clip-path="url(#i61)"><polygon points="0,0 2.88407416,0 2.88407416,2.74648202 0,2.74648202 0,0" stroke="none" fill="#EF539E"></polygon></g></g><g transform="translate(0.0 4.507577522741427)"><g clip-path="url(#i62)"><polygon points="0,0 16.882734,0 16.882734,15.4335493 0,15.4335493 0,0" stroke="none" fill="#181849"></polygon></g></g><g transform="translate(13.25709180254634 16.85691859935523)"><g clip-path="url(#i63)"><polygon points="0,0 2.88407416,0 2.88407416,2.74648202 0,2.74648202 0,0" stroke="none" fill="#58C9E9"></polygon></g></g><g transform="translate(7.0511503238775965 19.93397913096122)"><g clip-path="url(#i64)"><polygon points="0,0 2.77149877,0 2.77149877,2.91087782 0,2.91087782 0,0" stroke="none" fill="#F78F2E"></polygon></g></g></g><g transform="translate(7.103417467053847 27.42952870225596)"><g transform="translate(18.18896582532946 4.905070359615813)"><g clip-path="url(#i65)"><polygon points="0,0 0.816618271,0 0.816618271,0.859504132 0,0.859504132 0,0" stroke="none" fill="#F78F2E"></polygon></g></g><g transform="translate(14.48469957560867 3.014518650882288)"><g clip-path="url(#i66)"><polygon points="0,0 0.821979004,0 0.821979004,1.37592138 0,1.37592138 0,0" stroke="none" fill="#A07CB8"></polygon></g></g><g transform="translate(4.989055170873351 3.5773955773955795)"><g clip-path="url(#i67)"><polygon points="0,0 0.852356489,0 0.852356489,0.811257539 0,0.811257539 0,0" stroke="none" fill="#EF539E"></polygon></g></g><g transform="translate(20.98190752736207 3.664954210408755)"><g clip-path="url(#i68)"><polygon points="0,0 0.813044449,0 0.813044449,0.813044449 0,0.813044449 0,0" stroke="none" fill="#58C9E9"></polygon></g></g><g transform="translate(1.635023453205271 1.206164842528479)"><g clip-path="url(#i69)"><polygon points="0,0 0.821979004,0 0.821979004,1.37592138 0,1.37592138 0,0" stroke="none" fill="#A07CB8"></polygon></g></g><g transform="translate(15.726602635693538 1.165065892338622)"><g clip-path="url(#i70)"><polygon points="0,0 3.27898146,0 3.27898146,3.73464373 0,3.73464373 0,0" stroke="none" fill="#181849"></polygon></g></g><g transform="translate(16.95242349787804 2.3901575131431896)"><g clip-path="url(#i71)"><polygon points="0,1.13103971e-15 0.814174504,1.13103971e-15 0.814174504,0.813773691 0,0.813773691 0,1.13103971e-15" stroke="none" fill="#181849"></polygon></g></g><g transform="translate(8.344873799419254 0.04824659370113604)"><g clip-path="url(#i72)"><polygon points="0,0 1.80835381,0 1.80835381,4.42796516 0,4.42796516 0,0" stroke="none" fill="#181849"></polygon></g></g><g transform="translate(10.57851239669421 1.2061648425284792)"><g clip-path="url(#i73)"><polygon points="0,0 1.41880724,0 1.41880724,3.18070136 0,3.18070136 0,0" stroke="none" fill="#181849"></polygon></g></g><g transform="translate(12.42617824436006 1.206164842528479)"><g clip-path="url(#i74)"><polygon points="0,0 2.87871342,0 2.87871342,3.22537413 0,3.22537413 0,0" stroke="none" fill="#181849"></polygon></g></g><g transform="translate(0.13223140495867747 1.4652669198123722)"><g clip-path="url(#i75)"><polygon points="0,0 0.816618271,0 0.816618271,2.9233862 0,2.9233862 0,0" stroke="none" fill="#181849"></polygon></g></g><g transform=""><g clip-path="url(#i76)"><polygon points="0,0 1.12039312,0 1.12039312,1.07393344 0,1.07393344 0,0" stroke="none" fill="#181849"></polygon></g></g><g transform="translate(4.992182264909538 1.2061648425284692)"><g clip-path="url(#i77)"><polygon points="0,0 2.91855612,0 2.91855612,3.18079077 0,3.18079077 0,0" stroke="none" fill="#181849"></polygon></g></g><g transform="translate(19.52200134018316 0.04824659370113604)"><g clip-path="url(#i78)"><polygon points="0,0 1.84766585,0 1.84766585,4.42796516 0,4.42796516 0,0" stroke="none" fill="#181849"></polygon></g></g><g transform="translate(1.6368103640830922 1.1632789814607982)"><g clip-path="url(#i79)"><polygon points="0,0 2.88050034,0 2.88050034,3.22537413 0,3.22537413 0,0" stroke="none" fill="#181849"></polygon></g></g></g></g></g><g transform="translate(30.0 131.0)"><g clip-path="url(#i80)"><polygon points="0,0 110,0 110,199 0,199 0,0" stroke="none" fill="url(#i81)"></polygon></g></g><g transform="translate(55.0 235.0)"><g transform="translate(6.0 6.0)"><path d="M46,-2 C47.1045695,-2 48.1045695,-1.55228475 48.8284271,-0.828427125 C49.5522847,-0.1045695 50,0.8954305 50,2 L50,46 C50,47.1045695 49.5522847,48.1045695 48.8284271,48.8284271 C48.1045695,49.5522847 47.1045695,50 46,50 L2,50 C0.8954305,50 -0.1045695,49.5522847 -0.828427125,48.8284271 C-1.55228475,48.1045695 -2,47.1045695 -2,46 L-2,2 C-2,0.8954305 -1.55228475,-0.1045695 -0.828427125,-0.828427125 C-0.1045695,-1.55228475 0.8954305,-2 2,-2 Z" stroke="none" fill="#000000" filter="url(#i82)"></path><g clip-path="url(#i23)"><polygon points="0,0 48,0 48,48 0,48 0,0" stroke="none" fill="#FFFFFF"></polygon></g></g><g transform="translate(12.0 13.0)"><g transform="translate(2.0 2.0)"><g transform="translate(7.111111111111111 0.0)"><g clip-path="url(#i85)"><polygon points="0,0 17.7777778,0 17.7777778,17.7777778 0,17.7777778 0,0" stroke="none" fill="#212121"></polygon></g></g><g transform="translate(0.0 20.444444444444443)"><g clip-path="url(#i86)"><polygon points="0,0 32,0 32,11.5555556 0,11.5555556 0,0" stroke="none" fill="#212121"></polygon></g></g></g></g><g transform="translate(5.0 63.0)"><text transform="translate(10.9796875 11.0)" font-family="Roboto-Medium, Roboto" font-size="12.0" font-weight="400" fill="#212121" text-anchor="center" letter-spacing="0.18">Build</text></g></g><g transform="translate(55.0 148.0)"><g transform="translate(0.0 17.0)"><g transform="translate(6.0 6.0)"><path d="M46,-2 C47.1045695,-2 48.1045695,-1.55228475 48.8284271,-0.828427125 C49.5522847,-0.1045695 50,0.8954305 50,2 L50,46 C50,47.1045695 49.5522847,48.1045695 48.8284271,48.8284271 C48.1045695,49.5522847 47.1045695,50 46,50 L2,50 C0.8954305,50 -0.1045695,49.5522847 -0.828427125,48.8284271 C-1.55228475,48.1045695 -2,47.1045695 -2,46 L-2,2 C-2,0.8954305 -1.55228475,-0.1045695 -0.828427125,-0.828427125 C-0.1045695,-1.55228475 0.8954305,-2 2,-2 Z" stroke="none" fill="#000000" filter="url(#i87)"></path><g clip-path="url(#i23)"><polygon points="0,0 48,0 48,48 0,48 0,0" stroke="none" fill="#FFFFFF"></polygon></g></g></g><g transform="translate(12.0 28.0)"><g transform="translate(2.0 3.0)"><g clip-path="url(#i90)"><polygon points="0,6.60804744e-13 32,6.60804744e-13 32,30.844114 0,30.844114 0,6.60804744e-13" stroke="none" fill="#212121"></polygon></g></g></g><g transform="translate(5.0 0.0)"><text transform="translate(2.756875000000001 11.0)" font-family="Roboto-Medium, Roboto" font-size="12.0" font-weight="400" fill="#212121" text-anchor="center" letter-spacing="0.18">Manage</text></g></g><g transform="translate(660.0 240.0)"><g clip-path="url(#i91)"><polygon points="0,0 160,0 160,90 0,90 0,0" stroke="none" fill="url(#i92)"></polygon></g></g><g transform="translate(272.0 312.0)"><g clip-path="url(#i93)"><polygon points="0,0 16,0 16,16 0,16 0,0" stroke="none" fill="url(#i94)"></polygon></g><g transform="translate(3.0 3.0)"><g transform="translate(0.5555555555555554 0.5555555555555554)"><g transform=""><g clip-path="url(#i95)"><polygon points="-1.66533454e-15,5.49560397e-15 7.45488045,5.49560397e-15 7.45488045,8.88889005 -1.66533454e-15,8.88889005 -1.66533454e-15,5.49560397e-15" stroke="none" fill="#FFFFFF"></polygon></g></g><g transform="translate(7.659955064980338 5.937169095920048)"><g clip-path="url(#i96)"><polygon points="-7.65446734e-15,-2.12677098e-15 0.728670322,-2.12677098e-15 0.728670322,0.728670322 -7.65446734e-15,0.728670322 -7.65446734e-15,-2.12677098e-15" stroke="none" fill="#FFFFFF"></polygon></g></g><g transform="translate(3.4524809366938305 3.4813464979617397)"><g clip-path="url(#i97)"><polygon points="-9.29811783e-16,2.157996e-15 1.92602334,2.157996e-15 1.92602334,1.92631793 -9.29811783e-16,1.92631793 -9.29811783e-16,2.157996e-15" stroke="none" fill="#FFFFFF"></polygon></g></g><g transform="translate(8.077751118633149 4.6959469245133505)"><g clip-path="url(#i98)"><polygon points="-3.29250516e-15,-2.12677098e-15 0.728655429,-2.12677098e-15 0.728655429,0.728670322 -3.29250516e-15,0.728670322 -3.29250516e-15,-2.12677098e-15" stroke="none" fill="#FFFFFF"></polygon></g></g><g transform="translate(6.99479326431794 4.650575089946374)"><g clip-path="url(#i99)"><polygon points="-1.05054854e-14,3.13117587e-16 0.728395076,3.13117587e-16 0.728395076,0.728385221 -1.05054854e-14,0.728385221 -1.05054854e-14,3.13117587e-16" stroke="none" fill="#FFFFFF"></polygon></g></g><g transform="translate(8.077751118633149 3.4684622380766585)"><g clip-path="url(#i100)"><polygon points="-3.29250516e-15,-2.55004351e-15 0.728655429,-2.55004351e-15 0.728655429,0.728670322 -3.29250516e-15,0.728670322 -3.29250516e-15,-2.55004351e-15" stroke="none" fill="#FFFFFF"></polygon></g></g><g transform="translate(6.9947782923120165 3.509674692986647)"><g clip-path="url(#i101)"><polygon points="-3.26128013e-15,-2.55351296e-15 0.728387161,-2.55351296e-15 0.728387161,0.728670322 -3.26128013e-15,0.728670322 -3.26128013e-15,-2.55351296e-15" stroke="none" fill="#FFFFFF"></polygon></g></g><g transform="translate(7.680440409785052 2.2433113787041243)"><g clip-path="url(#i102)"><polygon points="-3.25607596e-15,2.70616862e-16 0.728387161,2.70616862e-16 0.728387161,0.728367788 -3.25607596e-15,0.728367788 -3.25607596e-15,2.70616862e-16" stroke="none" fill="#FFFFFF"></polygon></g></g></g></g></g><g transform="translate(372.0 312.00000000000006)"><g clip-path="url(#i103)"><polygon points="0,0 16,0 16,16 0,16 0,0" stroke="none" fill="url(#i104)"></polygon></g><g transform="translate(3.0 3.0)"><g transform="translate(0.5555555555555554 0.5555555555555554)"><g transform=""><g clip-path="url(#i95)"><polygon points="-1.66533454e-15,5.49560397e-15 7.45488045,5.49560397e-15 7.45488045,8.88889005 -1.66533454e-15,8.88889005 -1.66533454e-15,5.49560397e-15" stroke="none" fill="#FFFFFF"></polygon></g></g><g transform="translate(7.659955064980338 5.937169095920048)"><g clip-path="url(#i96)"><polygon points="-7.65446734e-15,-2.12677098e-15 0.728670322,-2.12677098e-15 0.728670322,0.728670322 -7.65446734e-15,0.728670322 -7.65446734e-15,-2.12677098e-15" stroke="none" fill="#FFFFFF"></polygon></g></g><g transform="translate(3.4524809366938305 3.4813464979617397)"><g clip-path="url(#i97)"><polygon points="-9.29811783e-16,2.157996e-15 1.92602334,2.157996e-15 1.92602334,1.92631793 -9.29811783e-16,1.92631793 -9.29811783e-16,2.157996e-15" stroke="none" fill="#FFFFFF"></polygon></g></g><g transform="translate(8.077751118633149 4.6959469245133505)"><g clip-path="url(#i98)"><polygon points="-3.29250516e-15,-2.12677098e-15 0.728655429,-2.12677098e-15 0.728655429,0.728670322 -3.29250516e-15,0.728670322 -3.29250516e-15,-2.12677098e-15" stroke="none" fill="#FFFFFF"></polygon></g></g><g transform="translate(6.99479326431794 4.650575089946374)"><g clip-path="url(#i99)"><polygon points="-1.05054854e-14,3.13117587e-16 0.728395076,3.13117587e-16 0.728395076,0.728385221 -1.05054854e-14,0.728385221 -1.05054854e-14,3.13117587e-16" stroke="none" fill="#FFFFFF"></polygon></g></g><g transform="translate(8.077751118633149 3.4684622380766585)"><g clip-path="url(#i100)"><polygon points="-3.29250516e-15,-2.55004351e-15 0.728655429,-2.55004351e-15 0.728655429,0.728670322 -3.29250516e-15,0.728670322 -3.29250516e-15,-2.55004351e-15" stroke="none" fill="#FFFFFF"></polygon></g></g><g transform="translate(6.9947782923120165 3.509674692986647)"><g clip-path="url(#i101)"><polygon points="-3.26128013e-15,-2.55351296e-15 0.728387161,-2.55351296e-15 0.728387161,0.728670322 -3.26128013e-15,0.728670322 -3.26128013e-15,-2.55351296e-15" stroke="none" fill="#FFFFFF"></polygon></g></g><g transform="translate(7.680440409785052 2.2433113787041243)"><g clip-path="url(#i102)"><polygon points="-3.25607596e-15,2.70616862e-16 0.728387161,2.70616862e-16 0.728387161,0.728367788 -3.25607596e-15,0.728367788 -3.25607596e-15,2.70616862e-16" stroke="none" fill="#FFFFFF"></polygon></g></g></g></g></g><g transform="translate(582.0 312.00000000000006)"><g clip-path="url(#i103)"><polygon points="0,0 16,0 16,16 0,16 0,0" stroke="none" fill="url(#i104)"></polygon></g><g transform="translate(3.0 3.0)"><g transform="translate(0.5555555555555554 0.5555555555555554)"><g transform=""><g clip-path="url(#i95)"><polygon points="-1.66533454e-15,5.49560397e-15 7.45488045,5.49560397e-15 7.45488045,8.88889005 -1.66533454e-15,8.88889005 -1.66533454e-15,5.49560397e-15" stroke="none" fill="#FFFFFF"></polygon></g></g><g transform="translate(7.659955064980338 5.937169095920048)"><g clip-path="url(#i96)"><polygon points="-7.65446734e-15,-2.12677098e-15 0.728670322,-2.12677098e-15 0.728670322,0.728670322 -7.65446734e-15,0.728670322 -7.65446734e-15,-2.12677098e-15" stroke="none" fill="#FFFFFF"></polygon></g></g><g transform="translate(3.4524809366938305 3.4813464979617397)"><g clip-path="url(#i97)"><polygon points="-9.29811783e-16,2.157996e-15 1.92602334,2.157996e-15 1.92602334,1.92631793 -9.29811783e-16,1.92631793 -9.29811783e-16,2.157996e-15" stroke="none" fill="#FFFFFF"></polygon></g></g><g transform="translate(8.077751118633149 4.6959469245133505)"><g clip-path="url(#i98)"><polygon points="-3.29250516e-15,-2.12677098e-15 0.728655429,-2.12677098e-15 0.728655429,0.728670322 -3.29250516e-15,0.728670322 -3.29250516e-15,-2.12677098e-15" stroke="none" fill="#FFFFFF"></polygon></g></g><g transform="translate(6.99479326431794 4.650575089946374)"><g clip-path="url(#i99)"><polygon points="-1.05054854e-14,3.13117587e-16 0.728395076,3.13117587e-16 0.728395076,0.728385221 -1.05054854e-14,0.728385221 -1.05054854e-14,3.13117587e-16" stroke="none" fill="#FFFFFF"></polygon></g></g><g transform="translate(8.077751118633149 3.4684622380766585)"><g clip-path="url(#i100)"><polygon points="-3.29250516e-15,-2.55004351e-15 0.728655429,-2.55004351e-15 0.728655429,0.728670322 -3.29250516e-15,0.728670322 -3.29250516e-15,-2.55004351e-15" stroke="none" fill="#FFFFFF"></polygon></g></g><g transform="translate(6.9947782923120165 3.509674692986647)"><g clip-path="url(#i101)"><polygon points="-3.26128013e-15,-2.55351296e-15 0.728387161,-2.55351296e-15 0.728387161,0.728670322 -3.26128013e-15,0.728670322 -3.26128013e-15,-2.55351296e-15" stroke="none" fill="#FFFFFF"></polygon></g></g><g transform="translate(7.680440409785052 2.2433113787041243)"><g clip-path="url(#i102)"><polygon points="-3.25607596e-15,2.70616862e-16 0.728387161,2.70616862e-16 0.728387161,0.728367788 -3.25607596e-15,0.728367788 -3.25607596e-15,2.70616862e-16" stroke="none" fill="#FFFFFF"></polygon></g></g></g></g></g><g transform="translate(705.0 243.0)"><g transform="translate(4.0 12.0)"><g transform="translate(6.0 6.0)"><path d="M46,-2 C47.1045695,-2 48.1045695,-1.55228475 48.8284271,-0.828427125 C49.5522847,-0.1045695 50,0.8954305 50,2 L50,46 C50,47.1045695 49.5522847,48.1045695 48.8284271,48.8284271 C48.1045695,49.5522847 47.1045695,50 46,50 L2,50 C0.8954305,50 -0.1045695,49.5522847 -0.828427125,48.8284271 C-1.55228475,48.1045695 -2,47.1045695 -2,46 L-2,2 C-2,0.8954305 -1.55228475,-0.1045695 -0.828427125,-0.828427125 C-0.1045695,-1.55228475 0.8954305,-2 2,-2 Z" stroke="none" fill="#000000" filter="url(#i105)"></path><g clip-path="url(#i23)"><polygon points="0,0 48,0 48,48 0,48 0,0" stroke="none" fill="#FFFFFF"></polygon></g></g></g><g transform="translate(16.0 22.000000000000057)"><g transform="translate(2.0 2.0)"><g clip-path="url(#i108)"><path d="M26.6666667,0 C29.6121853,0 32,2.38781467 32,5.33333333 C32,8.278852 29.6121853,10.6666667 26.6666667,10.6666667 C25.0149391,10.6666667 23.5385823,9.91581546 22.5603023,8.7368192 L10.2608714,13.9558164 C10.5223361,14.5853697 10.6666667,15.2758297 10.6666667,16 C10.6666667,16.487671 10.6012134,16.9600547 10.4786127,17.4088452 L22.6957374,23.1062333 C23.6721684,22.017955 25.0894666,21.3333333 26.6666667,21.3333333 C29.6121853,21.3333333 32,23.721148 32,26.6666667 C32,29.6121853 29.6121853,32 26.6666667,32 C23.721148,32 21.3333333,29.6121853 21.3333333,26.6666667 C21.3333333,26.2566533 21.3796005,25.8574463 21.4671987,25.4739816 L9.14543027,19.7299306 C8.17723577,20.7193189 6.82698993,21.3333333 5.33333333,21.3333333 C2.38781467,21.3333333 0,18.9455187 0,16 C0,13.0544813 2.38781467,10.6666667 5.33333333,10.6666667 C6.5562657,10.6666667 7.68306228,11.0782729 8.58274478,11.7705071 L21.424538,6.32063641 C21.3646512,6.00068269 21.3333333,5.67066535 21.3333333,5.33333333 C21.3333333,2.38781467 23.721148,0 26.6666667,0 Z" stroke="#212121" stroke-width="6" fill="none" stroke-miterlimit="5"></path></g></g></g><text transform="translate(22.325703125 11.0)" font-family="Roboto-Medium, Roboto" font-size="12.0" font-weight="400" fill="#212121" text-anchor="center" letter-spacing="0.18">HVN</text></g><g transform="translate(237.0 222.0)"><g transform="translate(1.5999999999999996 1.5999999999999996)"><g clip-path="url(#i109)"><polygon points="0,0 12.8,0 12.8,12.8 0,12.8 0,0" stroke="none" fill="url(#i110)"></polygon></g></g><g transform="translate(3.0 3.0)"><g transform="translate(1.6666666666666665 0.5555555555555554)"><g transform="translate(2.9292929292929273 6.161616161616162)"><g clip-path="url(#i111)"><polygon points="0,0 0.606060606,0 0.606060606,1.41414141 0,1.41414141 0,0" stroke="none" fill="#FFFFFF"></polygon></g></g><g clip-path="url(#i112)"><polygon points="0,0 6.46464646,0 6.46464646,8.88888889 0,8.88888889 0,0" stroke="none" fill="#FFFFFF"></polygon></g></g></g></g><g transform="translate(287.0 208.0)"><g transform="translate(1.5999999999999996 1.5999999999999996)"><g clip-path="url(#i109)"><polygon points="0,0 12.8,0 12.8,12.8 0,12.8 0,0" stroke="none" fill="url(#i110)"></polygon></g></g><g transform="translate(3.0 3.0)"><g transform="translate(1.6666666666666665 0.5555555555555554)"><g transform="translate(2.9292929292929273 6.161616161616162)"><g clip-path="url(#i111)"><polygon points="0,0 0.606060606,0 0.606060606,1.41414141 0,1.41414141 0,0" stroke="none" fill="#FFFFFF"></polygon></g></g><g clip-path="url(#i112)"><polygon points="0,0 6.46464646,0 6.46464646,8.88888889 0,8.88888889 0,0" stroke="none" fill="#FFFFFF"></polygon></g></g></g></g><g transform="translate(387.0 192.0)"><g transform="translate(1.5999999999999996 1.5999999999999996)"><g clip-path="url(#i109)"><polygon points="0,0 12.8,0 12.8,12.8 0,12.8 0,0" stroke="none" fill="url(#i110)"></polygon></g></g><g transform="translate(3.0 3.0)"><g transform="translate(1.6666666666666665 0.5555555555555554)"><g transform="translate(2.9292929292929273 6.161616161616162)"><g clip-path="url(#i111)"><polygon points="0,0 0.606060606,0 0.606060606,1.41414141 0,1.41414141 0,0" stroke="none" fill="#FFFFFF"></polygon></g></g><g clip-path="url(#i112)"><polygon points="0,0 6.46464646,0 6.46464646,8.88888889 0,8.88888889 0,0" stroke="none" fill="#FFFFFF"></polygon></g></g></g></g><g transform="translate(387.0 257.0)"><g transform="translate(1.5999999999999996 1.5999999999999996)"><g clip-path="url(#i109)"><polygon points="0,0 12.8,0 12.8,12.8 0,12.8 0,0" stroke="none" fill="url(#i110)"></polygon></g></g><g transform="translate(3.0 3.0)"><g transform="translate(1.6666666666666665 0.5555555555555554)"><g transform="translate(2.9292929292929273 6.161616161616162)"><g clip-path="url(#i111)"><polygon points="0,0 0.606060606,0 0.606060606,1.41414141 0,1.41414141 0,0" stroke="none" fill="#FFFFFF"></polygon></g></g><g clip-path="url(#i112)"><polygon points="0,0 6.46464646,0 6.46464646,8.88888889 0,8.88888889 0,0" stroke="none" fill="#FFFFFF"></polygon></g></g></g></g><g transform="translate(491.0 168.0)"><g transform="translate(1.5999999999999996 1.5999999999999996)"><g clip-path="url(#i109)"><polygon points="0,0 12.8,0 12.8,12.8 0,12.8 0,0" stroke="none" fill="url(#i110)"></polygon></g></g><g transform="translate(3.0 3.0)"><g transform="translate(1.6666666666666665 0.5555555555555554)"><g transform="translate(2.9292929292929273 6.161616161616162)"><g clip-path="url(#i111)"><polygon points="0,0 0.606060606,0 0.606060606,1.41414141 0,1.41414141 0,0" stroke="none" fill="#FFFFFF"></polygon></g></g><g clip-path="url(#i112)"><polygon points="0,0 6.46464646,0 6.46464646,8.88888889 0,8.88888889 0,0" stroke="none" fill="#FFFFFF"></polygon></g></g></g></g><g transform="translate(491.0 277.0)"><g transform="translate(1.5999999999999996 1.5999999999999996)"><g clip-path="url(#i109)"><polygon points="0,0 12.8,0 12.8,12.8 0,12.8 0,0" stroke="none" fill="url(#i110)"></polygon></g></g><g transform="translate(3.0 3.0)"><g transform="translate(1.6666666666666665 0.5555555555555554)"><g transform="translate(2.9292929292929273 6.161616161616162)"><g clip-path="url(#i111)"><polygon points="0,0 0.606060606,0 0.606060606,1.41414141 0,1.41414141 0,0" stroke="none" fill="#FFFFFF"></polygon></g></g><g clip-path="url(#i112)"><polygon points="0,0 6.46464646,0 6.46464646,8.88888889 0,8.88888889 0,0" stroke="none" fill="#FFFFFF"></polygon></g></g></g></g><g transform="translate(400.0 350.0)"><path d="M341,0 L348,14 L342,14 L342,35 C342,38.3137085 339.313708,41 336,41 L5,41 C1.6862915,41 -1,38.3137085 -1,35 L-1,14 L-7,14 L0,0 L7,14 L1,14 L1,35 C1,37.209139 2.790861,39 5,39 L336,39 C338.209139,39 340,37.209139 340,35 L340,14 L334,14 L341,0 Z" stroke="none" fill="#E03875"></path><g transform="translate(116.0 20.0)"><text transform="translate(19.842031249999962 11.0)" font-family="Roboto-Medium, Roboto" font-size="12.0" font-weight="400" fill="#212121" text-anchor="center" letter-spacing="0.18">VPN peering</text></g></g></g></svg>