<?xml version="1.0" encoding="UTF-8"?><svg version="1.1" width="480px" height="480px" viewBox="0 0 480.0 480.0" xmlns="http://www.w3.org/2000/svg" xmlns:xlink="http://www.w3.org/1999/xlink"><defs><clipPath id="i0"><path d="M480,0 L480,480 L0,480 L0,0 L480,0 Z"></path></clipPath><clipPath id="i1"><path d="M141.971831,0 L288,287 L0,287 L141.971831,0 Z"></path></clipPath><linearGradient id="i2" x1="288px" y1="287px" x2="-1.91846539e-13px" y2="-3.18634008e-14px" gradientUnits="userSpaceOnUse"><stop stop-color="#FFE959" offset="0%"></stop><stop stop-color="#FFF2A3" offset="100%"></stop></linearGradient><clipPath id="i3"><path d="M96.8888889,0 L48.2700444,93.955798 L0,0 L96.8888889,0 Z M52.2940162,41.1381414 L44.6036808,41.1381414 L44.6036808,48.827596 L52.2940162,48.827596 L52.2940162,41.1381414 Z M40.7633576,29.6083636 L33.0730222,29.6083636 L33.0730222,37.2978182 L40.7633576,37.2978182 L40.7633576,29.6083636 Z M52.2940162,29.6083636 L44.6036808,29.6083636 L44.6036808,37.2978182 L52.2940162,37.2978182 L52.2940162,29.6083636 Z M63.7634586,29.6083636 L56.0735636,29.6083636 L56.0735636,37.2978182 L63.7634586,37.2978182 L63.7634586,29.6083636 Z M40.7633576,18.0785859 L33.0730222,18.0785859 L33.0730222,25.7592323 L40.7633576,25.7592323 L40.7633576,18.0785859 Z M52.2940162,18.0785859 L44.6036808,18.0785859 L44.6036808,25.7592323 L52.2940162,25.7592323 L52.2940162,18.0785859 Z M63.7634586,18.0785859 L56.0735636,18.0785859 L56.0735636,25.7592323 L63.7634586,25.7592323 L63.7634586,18.0785859 Z"></path></clipPath><clipPath id="i4"><path d="M46,0 C47.1045695,-2.02906125e-16 48,0.8954305 48,2 L48,46 C48,47.1045695 47.1045695,48 46,48 L2,48 C0.8954305,48 1.02344917e-15,47.1045695 0,46 L0,2 C-1.3527075e-16,0.8954305 0.8954305,1.09108455e-15 2,0 L46,0 Z"></path></clipPath><linearGradient id="i5" x1="1.13242749e-14px" y1="-4.6629367e-15px" x2="48px" y2="48px" gradientUnits="userSpaceOnUse"><stop stop-color="#0D0F12" offset="0%"></stop><stop stop-color="#363941" offset="100%"></stop></linearGradient><clipPath id="i6"><path d="M5.55555556,0 C8.62333333,0 11.1111111,2.65481481 11.1111111,5.92592593 C11.1111111,9.19703704 8.62333333,11.8518519 5.55555556,11.8518519 C2.48777778,11.8518519 0,9.19703704 0,5.92592593 C0,2.65481481 2.48777778,0 5.55555556,0 Z M5.55555556,1.77777778 C3.40777778,1.77777778 1.66666667,3.63851852 1.66666667,5.92592593 C1.66666667,8.21333333 3.40777778,10.0740741 5.55555556,10.0740741 C7.70333333,10.0740741 9.44444444,8.21333333 9.44444444,5.92592593 C9.44444444,3.63851852 7.70333333,1.77777778 5.55555556,1.77777778 Z"></path></clipPath><clipPath id="i7"><path d="M14.7222222,0 C17.6366667,0 20,2.52444444 20,5.62962963 L20,6.81481481 C20,7.30074074 19.6266667,7.7037037 19.1666667,7.7037037 C18.7066667,7.7037037 18.3333333,7.30074074 18.3333333,6.81481481 L18.3333333,5.62962963 C18.3333333,3.50814815 16.7166667,1.77777778 14.7222222,1.77777778 L5.27777778,1.77777778 C3.28333333,1.77777778 1.66666667,3.50814815 1.66666667,5.62962963 L1.66666667,6.81481481 C1.66666667,7.30074074 1.29333333,7.7037037 0.833333333,7.7037037 C0.373333333,7.7037037 0,7.30074074 0,6.81481481 L0,5.62962963 C0,2.52444444 2.36333333,0 5.27777778,0 Z"></path></clipPath><clipPath id="i8"><path d="M1.11111111,0 C4.02555556,0 6.38888889,2.52444444 6.38888889,5.62962963 L6.38888889,6.81481481 C6.38888889,7.30074074 6.01555556,7.7037037 5.55555556,7.7037037 C5.09555556,7.7037037 4.72222222,7.30074074 4.72222222,6.81481481 L4.72222222,5.62962963 C4.72222222,3.50814815 3.10555556,1.77777778 1.11111111,1.77777778 L0.833333333,1.77777778 C0.373333333,1.77777778 0,1.37481481 0,0.888888889 C0,0.402962963 0.373333333,0 0.833333333,0 L1.11111111,0 Z"></path></clipPath><clipPath id="i9"><path d="M0.833333333,0 C3.90111111,0 6.38888889,2.65481481 6.38888889,5.92592593 C6.38888889,9.19703704 3.90111111,11.8518519 0.833333333,11.8518519 C0.373333333,11.8518519 0,11.4488889 0,10.962963 C0,10.477037 0.373333333,10.0740741 0.833333333,10.0740741 C2.98111111,10.0740741 4.72222222,8.21333333 4.72222222,5.92592593 C4.72222222,3.63851852 2.98111111,1.77777778 0.833333333,1.77777778 C0.373333333,1.77777778 0,1.37481481 0,0.888888889 C0,0.402962963 0.373333333,0 0.833333333,0 Z"></path></clipPath><clipPath id="i10"><path d="M1.61616162,0 C2.15143434,0 2.58585859,0.43959596 2.58585859,0.96969697 C2.58585859,1.49979798 2.15143434,1.93939394 1.61616162,1.93939394 L0.96969697,1.93939394 C0.434424242,1.93939394 0,1.49979798 0,0.96969697 C0,0.43959596 0.434424242,0 0.96969697,0 L1.61616162,0 Z"></path></clipPath><clipPath id="i11"><path d="M24.8888889,0 C26.8528485,0 28.4444444,1.59030303 28.4444444,3.55555556 L28.4444444,9.37373737 C28.4444444,11.3389899 26.8528485,12.9292929 24.8888889,12.9292929 L3.55555556,12.9292929 C1.59159596,12.9292929 0,11.3389899 0,9.37373737 L0,3.55555556 C0,1.59030303 1.59159596,0 3.55555556,0 Z M24.8888889,1.93939394 L3.55555556,1.93939394 C2.66343434,1.93939394 1.93939394,2.66343434 1.93939394,3.55555556 L1.93939394,9.37373737 C1.93939394,10.2658586 2.66343434,10.989899 3.55555556,10.989899 L24.8888889,10.989899 C25.7810101,10.989899 26.5050505,10.2658586 26.5050505,9.37373737 L26.5050505,3.55555556 C26.5050505,2.66343434 25.7810101,1.93939394 24.8888889,1.93939394 Z"></path></clipPath><clipPath id="i12"><path d="M1.61616162,0 C2.15143434,0 2.58585859,0.43959596 2.58585859,0.96969697 C2.58585859,1.49979798 2.15143434,1.93939394 1.61616162,1.93939394 L0.96969697,1.93939394 C0.434424242,1.93939394 0,1.49979798 0,0.96969697 C0,0.43959596 0.434424242,0 0.96969697,0 Z"></path></clipPath><clipPath id="i13"><path d="M24.8888889,0 C26.8528485,0 28.4444444,1.59030303 28.4444444,3.55555556 L28.4444444,9.37373737 C28.4444444,11.3389899 26.8528485,12.9292929 24.8888889,12.9292929 L3.55555556,12.9292929 C1.59159596,12.9292929 0,11.3389899 0,9.37373737 L0,3.55555556 C0,1.59030303 1.59159596,0 3.55555556,0 Z M24.8888889,1.93939394 L3.55555556,1.93939394 C2.66343434,1.93939394 1.93939394,2.66343434 1.93939394,3.55555556 L1.93939394,9.37373737 C1.93939394,10.2658586 2.66343434,10.989899 3.55555556,10.989899 L24.8888889,10.989899 C25.7810101,10.989899 26.5050505,10.2658586 26.5050505,9.37373737 L26.5050505,3.55555556 C26.5050505,2.66343434 25.7810101,1.93939394 24.8888889,1.93939394 Z"></path></clipPath><clipPath id="i14"><path d="M24.5333333,0 C26.6951111,0 28.4444444,1.74933333 28.4444444,3.91111111 L28.4444444,24.5333333 C28.4444444,26.6951111 26.6951111,28.4444444 24.5333333,28.4444444 L3.91111111,28.4444444 C1.74933333,28.4444444 0,26.6951111 0,24.5333333 L0,3.91111111 C0,1.74933333 1.74933333,0 3.91111111,0 L24.5333333,0 Z M26.3111111,10.6666667 L9.95555556,10.6666667 L9.95555556,26.3111111 L24.5333333,26.3111111 C25.5146667,26.3111111 26.3111111,25.5146667 26.3111111,24.5333333 L26.3111111,10.6666667 Z M7.82222222,10.6666667 L2.13333333,10.6666667 L2.13333333,24.5333333 C2.13333333,25.5146667 2.92977778,26.3111111 3.91111111,26.3111111 L7.82222222,26.3111111 L7.82222222,10.6666667 Z M24.5333333,2.13333333 L3.91111111,2.13333333 C2.92977778,2.13333333 2.13333333,2.92977778 2.13333333,3.91111111 L2.13333333,8.53333333 L26.3111111,8.53333333 L26.3111111,3.91111111 C26.3111111,2.92977778 25.5146667,2.13333333 24.5333333,2.13333333 Z"></path></clipPath><clipPath id="i15"><path d="M13.7350601,0.321924144 C14.1687327,0.751156337 14.1687327,1.46160962 13.7350601,1.89084181 L5.59592969,10.0314524 C5.19175367,10.4300251 4.55806226,10.4584946 4.12236699,10.1168608 L4.02553191,10.0314524 L0.325254394,6.33117484 C-0.108418131,5.90194265 -0.108418131,5.19148936 0.325254394,4.76225717 C0.75892692,4.33302498 1.46049954,4.33302498 1.89417206,4.76225717 L4.80999075,7.67807586 L12.1661425,0.321924144 C12.599815,-0.107308048 13.3013876,-0.107308048 13.7350601,0.321924144 Z"></path></clipPath><clipPath id="i16"><path d="M14.7419056,0.255319149 L23.9925994,3.7039778 C25.5851989,4.2960222 26.6419981,5.82053654 26.6419981,7.50786309 L26.6419981,16.0777058 C26.6419981,20.1184089 24.4780759,23.5374653 22.0477336,26.0980574 C19.6070305,28.6882516 16.7755782,30.5383904 15.1666975,31.5004625 C14.0196115,32.1665125 12.6223867,32.1665125 11.4753006,31.5004625 C9.86641998,30.5383904 7.03496762,28.6882516 4.59426457,26.0980574 C2.16392229,23.5374653 0,20.1184089 0,16.0777058 L0,7.50786309 C0,5.82053654 1.05679926,4.2960222 2.6493987,3.7039778 L11.9000925,0.255319149 C12.8162812,-0.085106383 13.8257169,-0.085106383 14.7419056,0.255319149 Z M12.6741906,2.32747456 L3.42349676,5.77613321 C2.69972248,6.04255319 2.22016651,6.73820537 2.22016651,7.50786309 L2.22016651,16.0777058 C2.22016651,19.3043478 3.95485661,22.2053654 6.20610546,24.573543 C8.44699352,26.9417206 11.0815911,28.6882516 12.6046253,29.5763182 C13.0545791,29.8427382 13.5874191,29.8427382 14.0373728,29.5763182 C15.560407,28.6882516 18.1950046,26.9417206 20.4358927,24.573543 C22.6871415,22.2053654 24.4218316,19.3043478 24.4218316,16.0777058 L24.4218316,7.50786309 C24.4218316,6.73820537 23.9422757,6.04255319 23.2185014,5.77613321 L13.9678076,2.32747456 C13.5504163,2.17946346 13.0915819,2.17946346 12.6741906,2.32747456 Z"></path></clipPath><clipPath id="i17"><path d="M29.4821818,0.60411401 C31.4778182,1.82593219 31.84,4.5750231 30.2312727,6.27684128 L26.2647273,10.4804776 C26.672,11.1059322 26.9090909,11.8622958 26.9090909,12.6622958 C26.9090909,14.8732049 25.1185455,16.6622958 22.9090909,16.6622958 C20.6996364,16.6622958 18.9090909,14.8732049 18.9090909,12.6622958 C18.9090909,10.4513867 20.6996364,8.66229583 22.9090909,8.66229583 C23.5229091,8.66229583 24.1032727,8.79320492 24.6225455,9.04047765 C24.6356364,9.02593219 24.6487273,9.01138674 24.6618182,9.01138674 L26.7869091,6.75684128 C25.5927273,5.89865946 24.1294545,5.38956855 22.5454545,5.38956855 C18.5294545,5.38956855 15.2727273,8.64775037 15.2727273,12.6622958 C15.2727273,13.3168413 15.4021818,13.9132049 15.6014545,14.5677504 C15.7003636,14.8877504 15.8123636,15.2077504 15.9345455,15.5568413 L15.9418182,15.5859322 C16.0654545,15.9350231 16.1963636,16.3132049 16.3170909,16.7059322 C16.4334545,17.0986595 16.3287273,17.5059322 16.0436364,17.7968413 L7.63636364,26.204114 L7.63636364,28.6622958 L10.4567273,28.6622958 L11.2727273,27.8477504 L11.2727273,25.7532049 C11.2727273,25.1568413 11.7614545,24.6622958 12.3636364,24.6622958 L14.1818182,24.6622958 L14.1818182,22.844114 C14.1818182,22.2477504 14.6705455,21.7532049 15.2727273,21.7532049 L17.7294545,21.7532049 L19.5927273,19.8913867 C19.8632727,19.6150231 20.256,19.5132049 20.6269091,19.6004776 C21.3032727,19.7750231 22.0029091,19.9350231 22.5454545,19.9350231 C26.5614545,19.9350231 29.8181818,16.6768413 29.8181818,12.6622958 C29.8181818,12.0659322 30.3069091,11.5713867 30.9090909,11.5713867 C31.5112727,11.5713867 32,12.0659322 32,12.6622958 C32,17.884114 27.7672727,22.1168413 22.5454545,22.1168413 C21.9316364,22.1168413 21.2625455,22.0004776 20.7025455,21.8695686 L18.9527273,23.6150231 C18.7490909,23.8186595 18.4712727,23.9350231 18.1818182,23.9350231 L16.3636364,23.9350231 L16.3636364,25.7532049 C16.3636364,26.3495686 15.8749091,26.844114 15.2727273,26.844114 L13.4545455,26.844114 L13.4545455,28.2986595 C13.4545455,28.5895686 13.3396364,28.8659322 13.1345455,29.0695686 L11.68,30.524114 C11.4763636,30.7277504 11.1985455,30.844114 10.9090909,30.844114 L1.09090909,30.844114 C0.488727273,30.844114 0,30.3495686 0,29.7532049 L0,25.6950231 C0,25.404114 0.114909091,25.1277504 0.317090909,24.924114 L7.83418182,17.3750231 C7.24072727,16.0950231 6.90909091,14.6550231 6.90909091,13.1568413 C6.90909091,7.67320492 11.2901818,3.20775037 16.7272727,3.20775037 L22.4596364,3.20775037 C22.4727273,3.19320492 22.4872727,3.17865946 22.5018182,3.16411401 L24.4756364,1.18593219 C25.808,-0.137704172 27.8792727,-0.3849769 29.4821818,0.60411401 Z M16.5003636,5.38956855 C12.4014545,5.52047765 9.09090909,8.92411401 9.09090909,13.1568413 C9.09090909,14.5677504 9.46472727,15.8913867 10.1149091,17.0404776 C10.3578182,17.4622958 10.2865455,18.0004776 9.94036364,18.3495686 L2.18181818,26.1459322 L2.18181818,28.6622958 L5.45454545,28.6622958 L5.45454545,25.7532049 C5.45454545,25.4622958 5.56945455,25.1859322 5.77454545,24.9822958 L14.0290909,16.7204776 C13.9810909,16.5895686 13.9330909,16.444114 13.8821818,16.2986595 L13.8690909,16.2695686 C13.7512727,15.9350231 13.6276364,15.5713867 13.5156364,15.2077504 C13.2829091,14.4513867 13.0909091,13.6077504 13.0909091,12.6622958 C13.0909091,9.73865946 14.4174545,7.12047765 16.5003636,5.38956855 Z M22.9090909,10.844114 C21.9054545,10.844114 21.0909091,11.6586595 21.0909091,12.6622958 C21.0909091,13.6659322 21.9054545,14.4804776 22.9090909,14.4804776 C23.9127273,14.4804776 24.7272727,13.6659322 24.7272727,12.6622958 C24.7272727,11.6586595 23.9127273,10.844114 22.9090909,10.844114 Z M26.0189091,2.72775037 L25.1723636,3.57138674 C26.3185455,3.90593219 27.3730909,4.44411401 28.2952727,5.15684128 L28.6458182,4.77865946 C29.3047273,4.0950231 29.1549091,2.96047765 28.3389091,2.46593219 C27.5956364,2.00047765 26.6356364,2.11684128 26.0189091,2.72775037 Z"></path></clipPath><clipPath id="i18"><path d="M92,0 L92,20 L0,20 L0,0 L92,0 Z"></path></clipPath></defs><g clip-path="url(#i0)"><g transform="translate(96.0 96.0)"><g clip-path="url(#i1)"><polygon points="0,0 288,0 288,287 0,287 0,0" stroke="none" fill="url(#i2)"></polygon></g></g><g transform="translate(187.0 233.0)"><g transform="translate(6.055555555555557 6.055555555555557)"><g clip-path="url(#i3)"><polygon points="0,0 96.8888889,0 96.8888889,93.955798 0,93.955798 0,0" stroke="none" fill="#000001"></polygon></g></g></g><g transform="translate(124.0 26.0)"><g transform="translate(6.0 6.0)"><g clip-path="url(#i4)"><polygon points="0,0 48,0 48,48 0,48 0,0" stroke="none" fill="url(#i5)"></polygon></g></g></g><g transform="translate(296.0 26.0)"><g transform="translate(6.0 6.0)"><g clip-path="url(#i4)"><polygon points="0,0 48,0 48,48 0,48 0,0" stroke="none" fill="url(#i5)"></polygon></g></g></g><g transform="translate(210.0 26.0)"><g transform="translate(6.0 6.0)"><g clip-path="url(#i4)"><polygon points="0,0 48,0 48,48 0,48 0,0" stroke="none" fill="url(#i5)"></polygon></g></g></g><g transform="translate(224.0 40.0)"><g transform="translate(2.666666666666666 5.333333333333334)"><g transform="translate(4.444444444444427 0.0)"><g clip-path="url(#i6)"><polygon points="0,0 11.1111111,0 11.1111111,11.8518519 0,11.8518519 0,0" stroke="none" fill="#FFFFFF"></polygon></g></g><g transform="translate(0.0 13.629629629629639)"><g clip-path="url(#i7)"><polygon points="0,0 20,0 20,7.7037037 0,7.7037037 0,0" stroke="none" fill="#FFFFFF"></polygon></g></g><g transform="translate(20.277777777777793 13.629629629629639)"><g clip-path="url(#i8)"><polygon points="0,0 6.38888889,0 6.38888889,7.7037037 0,7.7037037 0,0" stroke="none" fill="#FFFFFF"></polygon></g></g><g transform="translate(15.833333333333321 0.0)"><g clip-path="url(#i9)"><polygon points="0,0 6.38888889,0 6.38888889,11.8518519 0,11.8518519 0,0" stroke="none" fill="#FFFFFF"></polygon></g></g></g></g><g transform="translate(138.0 40.0)"><g transform="translate(1.7777777777777786 1.7777777777777786)"><g transform="translate(5.171717171717171 5.171717171717171)"><g clip-path="url(#i10)"><polygon points="0,0 2.58585859,0 2.58585859,1.93939394 0,1.93939394 0,0" stroke="none" fill="#FFFFFF"></polygon></g></g><g clip-path="url(#i11)"><polygon points="0,0 28.4444444,0 28.4444444,12.9292929 0,12.9292929 0,0" stroke="none" fill="#FFFFFF"></polygon></g><g transform="translate(5.171717171717171 20.68686868686868)"><g clip-path="url(#i12)"><polygon points="0,0 2.58585859,0 2.58585859,1.93939394 0,1.93939394 0,0" stroke="none" fill="#FFFFFF"></polygon></g></g><g transform="translate(0.0 15.515151515151508)"><g clip-path="url(#i13)"><polygon points="0,0 28.4444444,0 28.4444444,12.9292929 0,12.9292929 0,0" stroke="none" fill="#FFFFFF"></polygon></g></g></g></g><g transform="translate(310.0 40.0)"><g transform="translate(1.7777777777777786 1.7777777777777786)"><g clip-path="url(#i14)"><polygon points="0,0 28.4444444,0 28.4444444,28.4444444 0,28.4444444 0,0" stroke="none" fill="#FFFFFF"></polygon></g></g></g><g transform="translate(34.0 386.0)"><g transform="translate(6.0 6.0)"><g clip-path="url(#i4)"><polygon points="0,0 48,0 48,48 0,48 0,0" stroke="none" fill="url(#i5)"></polygon></g></g></g><g transform="translate(386.0 386.0)"><g transform="translate(6.0 6.0)"><g clip-path="url(#i4)"><polygon points="0,0 48,0 48,48 0,48 0,0" stroke="none" fill="url(#i5)"></polygon></g></g></g><g transform="translate(46.0 398.0)"><g transform="translate(5.0 2.0)"><g transform="translate(6.6608695652175 10.16096207215514)"><g clip-path="url(#i15)"><polygon points="-4.20774526e-14,-3.3656411e-13 14.0603145,-3.3656411e-13 14.0603145,10.3533765 -4.20774526e-14,10.3533765 -4.20774526e-14,-3.3656411e-13" stroke="none" fill="#FFFFFF"></polygon></g></g><g clip-path="url(#i16)"><polygon points="0,0 26.6419981,0 26.6419981,32 0,32 0,0" stroke="none" fill="#FFFFFF"></polygon></g></g></g><g transform="translate(398.0 398.0)"><g transform="translate(2.0 3.0)"><g clip-path="url(#i17)"><polygon points="0,6.60804744e-13 32,6.60804744e-13 32,30.844114 0,30.844114 0,6.60804744e-13" stroke="none" fill="#FFFFFF"></polygon></g></g></g><g transform="translate(72.0 96.0)"><path d="M147.130495,-6.26099034 C150.588345,-4.5320656 151.989915,-0.327354313 150.26099,3.13049517 C148.683887,6.28470184 145.046717,7.72790786 141.795528,6.64476367 L7.155,275.925 L12.5219807,278.608514 L0,288 L-2.22044605e-14,272.347524 L5.366,275.03 L140.006542,5.75020707 C137.189563,3.79907662 136.161968,0.0235884178 137.73901,-3.13049517 C139.467934,-6.58834465 143.672646,-7.98991508 147.130495,-6.26099034 Z M139.527864,-2.23606798 C138.329509,0.16064251 139.236677,3.05968086 141.548274,4.35776527 C141.627024,4.37470901 141.704842,4.40197543 141.780178,4.43964367 C141.855049,4.47707932 141.923172,4.5226401 141.984013,4.57472298 C144.409468,5.64674334 147.273617,4.63310517 148.472136,2.23606798 C149.707082,-0.233824509 148.70596,-3.23718971 146.236068,-4.47213595 C143.766175,-5.7070822 140.76281,-4.70596046 139.527864,-2.23606798 Z" stroke="none" fill="#000000"></path></g><g transform="translate(264.0 96.0)"><path d="M0,0 L12.6278868,9.24859314 L7.291,11.992 L141.720031,273.380762 C144.958735,272.260658 148.61215,273.662437 150.225015,276.798564 C151.993119,280.236545 150.639417,284.45691 147.201436,286.225015 C143.763455,287.993119 139.54309,286.639417 137.774985,283.201436 C136.16219,280.065445 137.146854,276.278481 139.941543,274.295483 L5.513,12.907 L0.17785756,15.6514653 L0,0 Z M141.919146,275.453463 C141.858923,275.503817 141.796114,275.545947 141.727494,275.581237 C141.657974,275.61699 141.586216,275.643808 141.513528,275.66211 L141.575,275.628 L141.51208,275.66281 C139.205562,276.983536 138.325711,279.899254 139.553561,282.28674 C140.816493,284.742441 143.83104,285.709371 146.28674,284.446439 C148.742441,283.183507 149.709371,280.16896 148.446439,277.71326 C147.218589,275.325773 144.335084,274.345496 141.919146,275.453463 Z" stroke="none" fill="#000000"></path></g><g transform="translate(104.0 415.0)"><path d="M266,-6 L280,1 L266,8 L266,2 L6.92896659,2.00101007 C6.44330235,5.39281176 3.5261219,8 0,8 C-3.86599325,8 -7,4.86599325 -7,1 C-7,-2.86599325 -3.86599325,-6 0,-6 C3.52639391,-6 6.44375243,-3.39240949 6.92907894,-0.000225081465 L266,0 L266,-6 Z M0,-4 C-2.76142375,-4 -5,-1.76142375 -5,1 C-5,3.76142375 -2.76142375,6 0,6 C2.76142375,6 5,3.76142375 5,1 C5,-1.76142375 2.76142375,-4 0,-4 Z" stroke="none" fill="#000000"></path></g><g transform="translate(18.0 448.0)"><g clip-path="url(#i18)"><text transform="translate(5.367929687499952 11.0)" font-family="Roboto-Medium, Roboto" font-size="12.0" font-weight="400" fill="#212121" text-anchor="center" letter-spacing="0.18">Authentication</text></g></g><g transform="translate(370.0 448.0)"><g clip-path="url(#i18)"><text transform="translate(28.21 11.0)" font-family="Roboto-Medium, Roboto" font-size="12.0" font-weight="400" fill="#212121" text-anchor="center" letter-spacing="0.18">Secret</text></g></g><g transform="translate(194.0 8.0)"><g clip-path="url(#i18)"><text transform="translate(29.926796875 11.0)" font-family="Roboto-Medium, Roboto" font-size="12.0" font-weight="400" fill="#212121" text-anchor="center" letter-spacing="0.18">Client</text></g></g></g></svg>