<?xml version="1.0" encoding="UTF-8"?><svg version="1.1" width="570px" height="460px" viewBox="0 0 570.0 460.0" xmlns="http://www.w3.org/2000/svg" xmlns:xlink="http://www.w3.org/1999/xlink"><defs><clipPath id="i0"><path d="M672,0 L672,480 L0,480 L0,0 L672,0 Z"></path></clipPath><clipPath id="i1"><path d="M450,0 C455.522847,-1.01453063e-15 460,4.4771525 460,10 L460,450 C460,455.522847 455.522847,460 450,460 L10,460 C4.4771525,460 -8.20543045e-15,455.522847 0,450 L0,10 C-6.76353751e-16,4.4771525 4.4771525,-7.86725357e-15 10,0 L450,0 Z"></path></clipPath><linearGradient id="i2" x1="230px" y1="0px" x2="230px" y2="460px" gradientUnits="userSpaceOnUse"><stop stop-color="#F2F2F3" offset="0%"></stop><stop stop-color="#DBDBDC" offset="100%"></stop></linearGradient><clipPath id="i3"><path d="M47.9166667,0 C74.3803109,0 95.8333333,21.4530224 95.8333333,47.9166667 C95.8333333,74.3803109 74.3803109,95.8333333 47.9166667,95.8333333 C21.4530224,95.8333333 0,74.3803109 0,47.9166667 C0,21.4530224 21.4530224,0 47.9166667,0 Z"></path></clipPath><linearGradient id="i4" x1="-6.51677786e-14px" y1="95.8333333px" x2="57.4029525px" y2="-1.06396373e-14px" gradientUnits="userSpaceOnUse"><stop stop-color="#E03875" offset="0%"></stop><stop stop-color="#A92663" offset="100%"></stop></linearGradient><clipPath id="i5"><path d="M19.7910323,0.657059505 C23.8427823,-0.279210702 28.0618064,-0.21415967 32.0833541,0.847566098 C36.1049018,1.90929187 39.8058409,3.93749011 42.8655626,6.75559373 L36.7995539,13.1003926 C34.3880192,10.921183 31.397995,9.49006032 28.1895852,8.97662182 C24.9811754,8.46550657 21.693775,8.89530803 18.7246601,10.2149147 C15.7555451,11.5345213 13.2324944,13.6858519 11.462177,16.4087022 C9.6895364,19.1338758 8.74861969,22.3144066 8.74861969,25.5623117 C8.74861969,28.81254 9.6895364,31.9907476 11.462177,34.7159211 C13.2324944,37.4387715 15.7555451,39.590102 18.7246601,40.9097087 C21.693775,42.2293153 24.9811754,42.6591168 28.1895852,42.1480015 C31.397995,41.634563 34.3880192,40.2034403 36.7995539,38.0242308 L42.8655626,44.3690296 C38.1540093,48.7088627 31.981131,51.1157509 25.5759277,51.1111111 C21.4173081,51.1134276 17.3190931,50.1028134 13.6413866,48.1628987 C9.96135678,46.2253073 6.81102824,43.4164966 4.46222135,39.9850547 C2.11341445,36.5512895 0.640473231,32.5971161 0.16653,28.4663756 C-0.307413232,24.3333118 0.233904283,20.1491365 1.74401752,16.2739536 C3.25413076,12.3987707 5.68889795,8.95106606 8.83225673,6.23053898 C11.9779388,3.50768865 15.7392824,1.59565296 19.7910323,0.657059505 Z"></path></clipPath><clipPath id="i6"><path d="M1.68771288,0.0405278253 C2.09195858,-0.0407859644 2.51479028,0.00103255606 2.89580347,0.159013633 C3.27913991,0.319317962 3.60671832,0.586491842 3.83672018,0.93033301 C4.06672204,1.27649743 4.18985435,1.68074313 4.18985435,2.09428183 C4.18985435,2.64953885 3.96682224,3.18156336 3.5741928,3.5741928 C3.18156336,3.96682224 2.64953885,4.1875311 2.09428183,4.18985435 C1.68074313,4.18985435 1.27649743,4.06672204 0.932656261,3.83672018 C0.586491842,3.60671832 0.319317962,3.27913991 0.159013633,2.89580347 C0.00103255606,2.51479028 -0.0407859644,2.09195858 0.0405278253,1.68538963 C0.121841615,1.28114393 0.321641213,0.907100499 0.614370856,0.614370856 C0.907100499,0.321641213 1.28114393,0.121841615 1.68771288,0.0405278253 Z"></path></clipPath><clipPath id="i7"><path d="M7.65478397,0.421800553 C8.66772146,0.839985758 9.53429413,1.5509006 10.1429859,2.46161505 C10.7516777,3.37465275 11.0769329,4.44567152 11.074622,5.54224605 C11.0722864,7.00589427 10.4914736,8.40913795 9.45762685,9.44530796 C8.42610334,10.481478 7.02518291,11.0669373 5.56153469,11.0762797 C4.46496016,11.0808768 3.39161813,10.7579449 2.47625719,10.1538996 C1.56321949,9.54753101 0.849981393,8.68328159 0.427149686,7.67266734 C0.00431797992,6.65972985 -0.107198075,5.54689256 0.104217779,4.46890403 C0.315633632,3.39323875 0.840688388,2.40585702 1.61433102,1.62756789 C2.38797364,0.851602013 3.37535538,0.321900755 4.45102065,0.10816165 C5.52668593,-0.107900705 6.64184647,0.00129209803 7.65478397,0.421800553 Z"></path></clipPath><clipPath id="i8"><path d="M1.68762724,0.0405278253 C2.09419619,-0.0407859644 2.51470465,0.00103255606 2.89804109,0.159013633 C3.27905427,0.31699471 3.60663268,0.586491842 3.83663454,0.93033301 C4.06663641,1.27417418 4.18976872,1.68074313 4.18976872,2.09428183 C4.18976872,2.64953885 3.96673661,3.18156336 3.57410717,3.5741928 C3.18380098,3.96682224 2.64945321,4.1875311 2.09651944,4.18985435 C1.68065749,4.18985435 1.27641179,4.06672204 0.932570626,3.83672018 C0.586406207,3.60671832 0.319232326,3.27913991 0.161251249,2.89580347 C0.000946920765,2.51246703 -0.0408715997,2.09195858 0.0404421901,1.68538963 C0.12175598,1.27882068 0.321555577,0.907100499 0.61428522,0.614370856 C0.907014863,0.319317962 1.2810583,0.121841615 1.68762724,0.0405278253 Z"></path></clipPath><clipPath id="i9"><path d="M2.91267521,0.166667308 C3.2936884,0.326971637 3.61894356,0.598792019 3.84662217,0.94727969 C4.07430078,1.29576736 4.19278659,1.70233631 4.18814009,2.11819826 C4.18349358,2.66880878 3.95813822,3.19618679 3.56783203,3.58416973 C3.17520259,3.97215267 2.64550133,4.18821502 2.09489081,4.18821502 C1.67902886,4.18821502 1.27245991,4.06508271 0.928618745,3.83508085 C0.582454326,3.60275574 0.315280445,3.27517733 0.157299368,2.88951764 C-0.00068170887,2.5061812 -0.0401769782,2.08334949 0.0411368116,1.67678055 C0.124773852,1.2702116 0.326896701,0.896168165 0.621949595,0.605761773 C0.917002489,0.31303213 1.29104592,0.115555783 1.69993812,0.0365652448 C2.10883032,-0.0401020427 2.52933878,0.00403972888 2.91267521,0.166667308 Z"></path></clipPath><clipPath id="i10"><path d="M1.68762724,0.0405278253 C2.09419619,-0.0407859644 2.51470465,0.00103255606 2.89804109,0.159013633 C3.27905427,0.31699471 3.60663268,0.586491842 3.83663454,0.93033301 C4.06663641,1.27417418 4.18976872,1.68074313 4.18976872,2.09428183 C4.18976872,2.64953885 3.96673661,3.18156336 3.57410717,3.5741928 C3.18380098,3.96682224 2.64945321,4.1875311 2.09651944,4.18985435 C1.68065749,4.18985435 1.27641179,4.06672204 0.932570626,3.83672018 C0.586406207,3.60671832 0.319232326,3.27913991 0.161251249,2.89580347 C0.000946920765,2.51246703 -0.0408715997,2.09195858 0.0404421901,1.68538963 C0.12175598,1.27882068 0.321555577,0.904777247 0.61428522,0.612047604 C0.907014863,0.319317962 1.2810583,0.119518364 1.68762724,0.0405278253 Z"></path></clipPath><clipPath id="i11"><path d="M2.89649855,0.159013633 C3.27983498,0.319317962 3.60509014,0.586491842 3.835092,0.93033301 C4.06509387,1.27649743 4.18822618,1.68074313 4.18822618,2.09428183 C4.18822618,2.64953885 3.96751732,3.18388661 3.57488788,3.57651605 C3.18225843,3.96914549 2.65023392,4.18985435 2.0949769,4.18985435 C1.67911495,4.18985435 1.27486925,4.06672204 0.931028085,3.83672018 C0.587186917,3.60671832 0.317689786,3.27913991 0.159708708,2.89580347 C0.0017276313,2.51479028 -0.0400908891,2.09195858 0.0388996495,1.68538963 C0.120213439,1.28114393 0.320013037,0.907100499 0.61274268,0.614370856 C0.905472323,0.321641213 1.27951576,0.121841615 1.6860847,0.0405278253 C2.09265365,-0.0407859644 2.51316211,0.00103255606 2.89649855,0.159013633 Z"></path></clipPath><clipPath id="i12"><path d="M1.68376145,0.0410478265 C2.0903304,-0.0402659632 2.51083886,-0.000770693886 2.89417529,0.159533634 C3.27751173,0.317514712 3.60509014,0.584688592 3.835092,0.930853011 C4.06509387,1.27469418 4.18822618,1.67893988 4.18822618,2.09480183 C4.18822618,2.65005885 3.96984057,3.18208336 3.57721113,3.5747128 C3.18458169,3.96734224 2.65255718,4.18808338 2.09962341,4.18808338 C1.68376145,4.19037435 1.27951576,4.06724204 0.933351336,3.83724018 C0.589510168,3.60956157 0.320013037,3.28198316 0.159708708,2.89864672 C0.0017276313,2.51763354 -0.0400908891,2.09480183 0.0388996495,1.68823288 C0.120213439,1.28166393 0.317689786,0.9076205 0.610419429,0.614890857 C0.903149072,0.322161214 1.2771925,0.122361616 1.68376145,0.0410478265 Z"></path></clipPath><filter id="i13" x="-20.9558824%" y="-18.75%" filterUnits="userSpaceOnUse" width="126.470588%" height="126.470588%"><feGaussianBlur stdDeviation="2.5" in="SourceAlpha" result="i14"></feGaussianBlur><feOffset dx="0" dy="2" in="i14" result="i15"></feOffset><feColorMatrix values="0 0 0 0.0 0 0 0 0 0.0 0 0 0 0 0.0 0 0 0 0 0.1 0" type="matrix" in="i15"></feColorMatrix></filter><clipPath id="i16"><path d="M74.6666667,0 C75.7712362,-2.02906125e-16 76.6666667,0.8954305 76.6666667,2 L76.6666667,74.6666667 C76.6666667,75.7712362 75.7712362,76.6666667 74.6666667,76.6666667 L2,76.6666667 C0.8954305,76.6666667 1.91162759e-15,75.7712362 0,74.6666667 L0,2 C-1.3527075e-16,0.8954305 0.8954305,1.53517375e-15 2,0 L74.6666667,0 Z"></path></clipPath><clipPath id="i17"><path d="M74.6666667,0 C75.7712362,-2.02906125e-16 76.6666667,0.8954305 76.6666667,2 L76.6666667,74.6666667 C76.6666667,75.7712362 75.7712362,76.6666667 74.6666667,76.6666667 L2,76.6666667 C0.8954305,76.6666667 1.91162759e-15,75.7712362 0,74.6666667 L0,2 C-1.3527075e-16,0.8954305 0.8954305,1.09108455e-15 2,0 L74.6666667,0 Z"></path></clipPath><linearGradient id="i18" x1="76.6666667px" y1="76.6666667px" x2="-5.10702591e-14px" y2="-8.51170986e-15px" gradientUnits="userSpaceOnUse"><stop stop-color="#FFE959" offset="0%"></stop><stop stop-color="#FFF2A3" offset="100%"></stop></linearGradient><filter id="i19" x="-20.9558824%" y="-18.75%" filterUnits="userSpaceOnUse" width="126.470588%" height="126.470588%"><feGaussianBlur stdDeviation="2.5" in="SourceAlpha" result="i20"></feGaussianBlur><feOffset dx="0" dy="2" in="i20" result="i21"></feOffset><feColorMatrix values="0 0 0 0.0 0 0 0 0 0.0 0 0 0 0 0.0 0 0 0 0 0.1 0" type="matrix" in="i21"></feColorMatrix></filter><clipPath id="i22"><path d="M74.6666667,0 C75.7712362,-2.02906125e-16 76.6666667,0.8954305 76.6666667,2 L76.6666667,74.6666667 C76.6666667,75.7712362 75.7712362,76.6666667 74.6666667,76.6666667 L2,76.6666667 C0.8954305,76.6666667 1.91162759e-15,75.7712362 0,74.6666667 L0,2 C-1.3527075e-16,0.8954305 0.8954305,1.97926296e-15 2,0 L74.6666667,0 Z"></path></clipPath><filter id="i23" x="-20.9558824%" y="-18.75%" filterUnits="userSpaceOnUse" width="126.470588%" height="126.470588%"><feGaussianBlur stdDeviation="2.5" in="SourceAlpha" result="i24"></feGaussianBlur><feOffset dx="0" dy="2" in="i24" result="i25"></feOffset><feColorMatrix values="0 0 0 0.0 0 0 0 0 0.0 0 0 0 0 0.0 0 0 0 0 0.1 0" type="matrix" in="i25"></feColorMatrix></filter><filter id="i26" x="-20.9558824%" y="-18.75%" filterUnits="userSpaceOnUse" width="126.470588%" height="126.470588%"><feGaussianBlur stdDeviation="2.5" in="SourceAlpha" result="i27"></feGaussianBlur><feOffset dx="0" dy="2" in="i27" result="i28"></feOffset><feColorMatrix values="0 0 0 0.0 0 0 0 0 0.0 0 0 0 0 0.0 0 0 0 0 0.1 0" type="matrix" in="i28"></feColorMatrix></filter><clipPath id="i29"><path d="M51.1111111,0 L25.4635556,49.5638384 L0,0 L51.1111111,0 Z M27.5862929,21.7013131 L23.5294646,21.7013131 L23.5294646,25.7576768 L27.5862929,25.7576768 L27.5862929,21.7013131 Z M21.5036061,15.6190909 L17.4467778,15.6190909 L17.4467778,19.6754545 L21.5036061,19.6754545 L21.5036061,15.6190909 Z M27.5862929,15.6190909 L23.5294646,15.6190909 L23.5294646,19.6754545 L27.5862929,19.6754545 L27.5862929,15.6190909 Z M33.6366869,15.6190909 L29.5800909,15.6190909 L29.5800909,19.6754545 L33.6366869,19.6754545 L33.6366869,15.6190909 Z M21.5036061,9.53686869 L17.4467778,9.53686869 L17.4467778,13.5885859 L21.5036061,13.5885859 L21.5036061,9.53686869 Z M27.5862929,9.53686869 L23.5294646,9.53686869 L23.5294646,13.5885859 L27.5862929,13.5885859 L27.5862929,9.53686869 Z M33.6366869,9.53686869 L29.5800909,9.53686869 L29.5800909,13.5885859 L33.6366869,13.5885859 L33.6366869,9.53686869 Z"></path></clipPath><clipPath id="i30"><path d="M17.5694641,0 C18.323353,0 19.0612697,0.202847222 19.7129363,0.584583333 C20.3630058,0.966319444 20.9028669,1.51256944 21.284603,2.16583333 L34.5687002,25.2696528 C34.940853,25.9404861 35.1373113,26.6991667 35.1389185,27.4690278 C35.1405058,28.2404861 34.9488391,28.9991667 34.5798808,29.6731944 C34.2109225,30.3488194 33.675853,30.9158333 33.0225891,31.3167361 C32.367728,31.7176389 31.6218252,31.9348611 30.8551586,31.9444444 L4.28376968,31.9444444 C3.51710301,31.9364583 2.77120024,31.7176389 2.11633913,31.3167361 C1.46307524,30.9158333 0.928005792,30.3488194 0.559047458,29.6731944 C0.190089125,28.9991667 -0.00157754158,28.2404861 9.77938209e-06,27.4690278 C0.00161690287,26.6991667 0.198075236,25.9404861 0.570228014,25.2696528 L0.579811347,25.2520833 L13.8543252,2.16583333 C14.2360613,1.51256944 14.7759225,0.966319444 15.4259919,0.584583333 C16.0776586,0.202847222 16.8155752,0 17.5694641,0 Z M17.5854363,22.3611111 L17.5694641,22.3611111 C16.6877975,22.3611111 15.9722419,23.0766667 15.9722419,23.9583333 C15.9722419,24.84 16.6877975,25.5555556 17.5694641,25.5555556 L17.5854363,25.5555556 C18.467103,25.5555556 19.1826586,24.84 19.1826586,23.9583333 C19.1826586,23.0766667 18.467103,22.3611111 17.5854363,22.3611111 Z M17.5694641,9.58333333 C16.9082141,9.58333333 16.3715475,10.12 16.3715475,10.78125 L16.3715475,17.96875 C16.3715475,18.63 16.9082141,19.1666667 17.5694641,19.1666667 C18.2307141,19.1666667 18.7673808,18.63 18.7673808,17.96875 L18.7673808,10.78125 C18.7673808,10.12 18.2307141,9.58333333 17.5694641,9.58333333 Z"></path></clipPath><clipPath id="i31"><path d="M8.78472222,0 C13.636663,0 17.5694444,3.93000731 17.5694444,8.78472222 C17.5694444,13.6394371 13.636663,17.5694444 8.78472222,17.5694444 C3.93278143,17.5694444 0,13.6394371 0,8.78472222 C0,3.93000731 3.93278143,0 8.78472222,0 Z"></path></clipPath><clipPath id="i32"><path d="M7.62883772,0 C8.01166667,0 8.32236842,0.314400585 8.32236842,0.693530702 C8.32236842,1.07266082 8.01166667,1.3870614 7.62883772,1.3870614 L0.693530702,1.3870614 C0.310701754,1.3870614 0,1.07266082 0,0.693530702 C0,0.314400585 0.310701754,0 0.693530702,0 Z"></path></clipPath><clipPath id="i33"><path d="M8.78472222,0 C13.636663,0 17.5694444,3.93000731 17.5694444,8.78472222 C17.5694444,13.6394371 13.636663,17.5694444 8.78472222,17.5694444 C3.93278143,17.5694444 0,13.6394371 0,8.78472222 C0,3.93000731 3.93278143,0 8.78472222,0 Z"></path></clipPath><clipPath id="i34"><path d="M7.62883772,0 C8.01166667,0 8.32236842,0.314400585 8.32236842,0.693530702 C8.32236842,1.07266082 8.01166667,1.3870614 7.62883772,1.3870614 L0.693530702,1.3870614 C0.310701754,1.3870614 0,1.07266082 0,0.693530702 C0,0.314400585 0.310701754,0 0.693530702,0 Z"></path></clipPath><clipPath id="i35"><path d="M3.99305556,0 C6.19835924,0 7.98611111,1.78775187 7.98611111,3.99305556 C7.98611111,6.19835924 6.19835924,7.98611111 3.99305556,7.98611111 C1.78775187,7.98611111 0,6.19835924 0,3.99305556 C0,1.78775187 1.78775187,0 3.99305556,0 Z"></path></clipPath><linearGradient id="i36" x1="-5.43064822e-15px" y1="7.98611111px" x2="4.78357937px" y2="-8.86636443e-16px" gradientUnits="userSpaceOnUse"><stop stop-color="#E03875" offset="0%"></stop><stop stop-color="#A92663" offset="100%"></stop></linearGradient><clipPath id="i37"><path d="M3.99305556,0 C6.19835924,0 7.98611111,1.78775187 7.98611111,3.99305556 C7.98611111,6.19835924 6.19835924,7.98611111 3.99305556,7.98611111 C1.78775187,7.98611111 0,6.19835924 0,3.99305556 C0,1.78775187 1.78775187,0 3.99305556,0 Z"></path></clipPath><linearGradient id="i38" x1="-5.43064822e-15px" y1="7.98611111px" x2="4.78357937px" y2="-8.86636443e-16px" gradientUnits="userSpaceOnUse"><stop stop-color="#E03875" offset="0%"></stop><stop stop-color="#A92663" offset="100%"></stop></linearGradient><clipPath id="i39"><path d="M14,0 C15.1045695,-2.02906125e-16 16,0.8954305 16,2 L16,14 C16,15.1045695 15.1045695,16 14,16 L2,16 C0.8954305,16 1.3527075e-16,15.1045695 0,14 L0,2 C-1.3527075e-16,0.8954305 0.8954305,2.02906125e-16 2,0 L14,0 Z"></path></clipPath><linearGradient id="i40" x1="3.77475828e-15px" y1="-1.55431223e-15px" x2="16px" y2="16px" gradientUnits="userSpaceOnUse"><stop stop-color="#0D0F12" offset="0%"></stop><stop stop-color="#363941" offset="100%"></stop></linearGradient><clipPath id="i41"><path d="M13.999654,0 C13.999654,0 23.8808619,2.09553474 24.293015,10.1610215 C24.7032672,18.2247518 21.6845808,17.8642833 20.4491561,19.554715 C20.4491561,19.554715 24.2919322,19.7358516 26.2133805,21.6563614 C27.8142144,23.2576685 27.986177,25.8109172 27.999096,26.6175194 L27.9994698,26.804402 C27.9988503,26.8474307 27.9979097,26.8702944 27.9979175,26.8702944 L0.00211239889,26.8702944 C0.00211239889,26.8702944 0.00116480178,26.8474234 0.000538946551,26.8043818 L0.000895945535,26.6174459 C0.013765621,25.8106231 0.185743386,23.2567863 1.78616824,21.6563614 C3.70749617,19.7358347 7.55039263,19.554715 7.55039263,19.554715 C6.31386111,17.8651014 3.29531899,18.2255459 3.7065337,10.1610215 C4.11847025,2.09553474 13.999654,0 13.999654,0 Z M14.0081,5.19768651 L13.9912082,5.19768648 C13.7115818,5.21155546 6.5838996,5.60179744 6.86872425,9.33325042 C7.16083347,13.1395731 9.19789824,20.1198765 13.999654,23.2969854 C18.8013858,20.120839 20.8383543,13.1393325 21.1305838,9.33325042 C21.3471581,6.49736408 17.2821082,5.59133451 15.1956579,5.31369882 L14.8835737,5.27489397 C14.6876963,5.25225248 14.5173933,5.23581483 14.3799662,5.22406304 L14.1993952,5.20976002 C14.0709881,5.20045326 13.999654,5.19728227 13.999654,5.19728227 Z"></path></clipPath><clipPath id="i42"><path d="M9.88611595,0 C9.88611595,0 10.0952122,2.66862078 7.41425599,2.68001204 C6.0771465,2.68526331 5.76660601,1.54777462 4.94408035,1.34043001 C4.1214825,1.5477698 3.8108217,2.68525729 2.47390471,2.68001204 C-0.20361554,2.66868479 0.00372906903,0 0.00372906903,0 C0.3134274,0.618554502 1.44478517,1.6475778 2.26815299,0.926568513 C3.02082435,0.269112495 4.63041661,0.0397959839 4.90465442,0.00488616359 L4.94477814,0 C4.94477814,0 6.79803547,0.207339796 7.62140329,0.926568513 C8.44561327,1.6475778 9.57612887,0.618650749 9.88582721,0 Z"></path></clipPath><clipPath id="i43"><path d="M0.94410063,0.000167418208 C1.05108992,0.00284610954 1.95763942,0.0483838622 1.86041876,0.822525658 C1.76753814,1.56269047 1.09132214,2.88765241 0.957007751,3.14524314 L0.933850252,3.18930811 C0.933850252,3.18930811 0.109637868,1.64505132 0.00728173902,0.822525658 C-0.0960152025,0 0.933850252,0 0.933850252,0 Z"></path></clipPath><clipPath id="i44"><path d="M2.57243793,0.0517155955 C3.70463785,-0.281683524 4.42470873,1.10600369 4.42470873,1.10600369 C4.42478092,1.10600369 4.09580915,1.61957693 2.58735619,1.48225672 C1.07705048,1.34483546 0,1.10600369 0,1.10600369 C0,1.10600369 1.44021394,0.385956876 2.57243793,0.0517155955 Z"></path></clipPath><clipPath id="i45"><path d="M1.85234299,0.0517155955 C2.98456698,0.385956876 4.42478092,1.10600369 4.42478092,1.10600369 C4.42478092,1.10600369 3.34773044,1.34483546 1.83742473,1.48225672 C0.328971764,1.61957693 0,1.10600369 0,1.10600369 C7.21851443e-05,1.10600369 0.720143062,-0.281683524 1.85234299,0.0517155955 Z"></path></clipPath><clipPath id="i46"><path d="M1.23458252,0.0722201924 C2.06187584,-0.37852877 3.59995267,1.41254364 3.92004357,1.80151929 L3.97249253,1.8660875 L3.97932639,1.87468325 C1.27057885,0.806294987 9.39850579e-05,1.03300223 0,1.03290822 C0,1.03290822 0.308014011,0.576192808 1.23458252,0.0722201924 Z"></path></clipPath><clipPath id="i47"><path d="M2.74474387,0.0722201924 C3.67131238,0.576192808 3.97932639,1.03290822 3.97932639,1.03290822 C3.97923241,1.03300223 2.70874754,0.806294987 0,1.87468325 C0,1.87468325 1.81817535,-0.432618645 2.74474387,0.0722201924 Z"></path></clipPath><clipPath id="i48"><path d="M24,0 L24,24 L0,24 L0,0 L24,0 Z"></path></clipPath><linearGradient id="i49" x1="24px" y1="24px" x2="-1.59872116e-14px" y2="-2.66453526e-15px" gradientUnits="userSpaceOnUse"><stop stop-color="#FFE959" offset="0%"></stop><stop stop-color="#FFF2A3" offset="100%"></stop></linearGradient><clipPath id="i50"><path d="M8.62761905,0.397939048 C9.46952381,-0.132646349 10.5304762,-0.132646349 11.372381,0.397939048 L18.7533333,4.9995615 C19.5285714,5.48191186 20,6.3308485 20,7.25696119 L20,14.7430388 C20,15.6691515 19.5285714,16.5180881 18.7533333,17.0004385 L11.372381,21.602061 C10.5304762,22.1326463 9.46952381,22.1326463 8.62761905,21.602061 L1.24666667,17.0004385 C0.471428571,16.5180881 0,15.6691515 0,14.7430388 L0,7.25696119 C0,6.3308485 0.471428571,5.48191186 1.24666667,4.9995615 Z M14.0761905,7.83578163 C13.7971429,7.55601842 13.3457143,7.55601842 13.0666667,7.83578163 L8.33333333,12.6303442 L6.45714286,10.7298838 C6.17809524,10.4501206 5.72666667,10.4501206 5.44761905,10.7298838 C5.16857143,11.009647 5.16857143,11.4727034 5.44761905,11.7524666 L7.82857143,14.1642184 C8.10761905,14.4439816 8.55904762,14.4439816 8.83809524,14.1642184 L14.0761905,8.85836439 C14.3552381,8.57860118 14.3552381,8.11554484 14.0761905,7.83578163 Z"></path></clipPath><clipPath id="i51"><path d="M0.363636364,0 C0.564363636,0 0.727272727,0.164848485 0.727272727,0.363636364 L0.727272727,1.33333333 C0.727272727,1.53212121 0.564363636,1.6969697 0.363636364,1.6969697 C0.162909091,1.6969697 0,1.53212121 0,1.33333333 L0,0.363636364 C0,0.164848485 0.162909091,0 0.363636364,0 Z"></path></clipPath><clipPath id="i52"><path d="M3.87878788,0 C4.64484848,0 5.38278788,0.290909091 5.92969697,0.80969697 C6.47709091,1.33333333 6.78787879,2.04121212 6.78787879,2.78787879 L6.78787879,4.41212121 C7.34739394,4.57212121 7.75757576,5.08606061 7.75757576,5.6969697 L7.75757576,9.33333333 C7.75757576,10.070303 7.16072727,10.6666667 6.42424242,10.6666667 L1.33333333,10.6666667 C0.596848485,10.6666667 0,10.070303 0,9.33333333 L0,5.6969697 C0,5.08606061 0.410181818,4.57212121 0.96969697,4.41212121 L0.96969697,2.78787879 C0.96969697,2.04121212 1.28048485,1.33333333 1.82787879,0.80969697 C2.37478788,0.290909091 3.11272727,0 3.87878788,0 Z M6.42424242,5.09090909 L1.33333333,5.09090909 C0.998787879,5.09090909 0.727272727,5.36242424 0.727272727,5.6969697 L0.727272727,9.33333333 C0.727272727,9.66787879 0.998787879,9.93939394 1.33333333,9.93939394 L6.42424242,9.93939394 C6.75878788,9.93939394 7.03030303,9.66787879 7.03030303,9.33333333 L7.03030303,5.6969697 C7.03030303,5.36242424 6.75878788,5.09090909 6.42424242,5.09090909 Z M3.87878788,0.727272727 C3.29454545,0.727272727 2.73745455,0.95030303 2.32969697,1.33818182 C1.92242424,1.72606061 1.6969697,2.24484848 1.6969697,2.78787879 L1.6969697,4.36363636 L6.06060606,4.36363636 L6.06060606,2.78787879 C6.06060606,2.24484848 5.83515152,1.72606061 5.42787879,1.33818182 C5.02012121,0.95030303 4.4630303,0.727272727 3.87878788,0.727272727 Z"></path></clipPath></defs><g transform="translate(-79.0 -16.0)"><g clip-path="url(#i0)"><g transform="translate(79.66666666666674 16.0)"><g transform="translate(47.11111111111106 0.0)"><g clip-path="url(#i1)"><polygon points="0,0 460,0 460,460 0,460 0,0" stroke="none" fill="url(#i2)"></polygon></g></g><g transform="translate(28.218344848174297 79.43055555555566)"><path d="M0,0.430555556 L56.0594854,0.569444444" stroke="#F25053" stroke-width="1" fill="none" stroke-miterlimit="10" stroke-dasharray=" 5.0 4.0"></path></g><g transform="translate(162.1111111111109 75.86805555555551)"><path d="M0,0.798611111 L48.7152778,0.798611111" stroke="#000000" stroke-width="2" fill="none" stroke-linecap="round" stroke-miterlimit="10"></path></g><g transform="translate(329.81944444444434 229.20138888888889)"><path d="M34.7152778,-6.20138889 L48.7152778,0.798611111 L34.7152778,7.79861111 L34.715,1.798 L0,1.79861111 C-0.55228475,1.79861111 -1,1.35089586 -1,0.798611111 C-1,0.246326361 -0.55228475,-0.201388889 0,-0.201388889 L34.715,-0.201 L34.7152778,-6.20138889 Z" stroke="none" fill="#000000"></path></g><g transform="translate(122.3333333333332 114.0000000000001)"><path d="M1.59722222,0.798611111 L1.59722222,107.8125" stroke="#000000" stroke-width="2" fill="none" stroke-linecap="round" stroke-miterlimit="10"></path></g><g transform="translate(225.99999999999986 76.4354897660822)"><path d="M33.3333333,-1 C36.6470418,-1 39.3333333,1.6862915 39.3333333,5 L39.333,75.675 L45.3333333,75.6756213 L38.3333333,89.6756213 L31.3333333,75.6756213 L37.333,75.675 L37.3333333,5 C37.3333333,2.790861 35.5424723,1 33.3333333,1 L0,1 C-0.55228475,1 -1,0.55228475 -1,0 C-1,-0.55228475 -0.55228475,-1 0,-1 L33.3333333,-1 Z" stroke="none" fill="#B6B8C2"></path></g><g transform="translate(302.666666666666 76.66666666666669)"><path d="M62.6247071,-6.91544442 L76.6666667,0 L62.7091354,7.084301 L62.673,1.084 L4.97587763,1.43236395 C2.77619319,1.44562959 1,3.23256677 1,5.43229121 L1,89.4444444 C1,89.9967292 0.55228475,90.4444444 0,90.4444444 C-0.55228475,90.4444444 -1,89.9967292 -1,89.4444444 L-1,5.43229121 C-1,2.13270455 1.66428978,-0.547701219 4.96381645,-0.56759968 L62.66,-0.915 L62.6247071,-6.91544442 Z" stroke="none" fill="#000000"></path></g><g transform="translate(302.666666666666 386.52777777777794) scale(1.0 -1.0)"><path d="M62.623218,-6.91241999 L76.6666667,0 L62.7106615,7.08730693 L62.673,1.087 L4.97501615,1.44781157 C2.77567062,1.46154887 1,3.24834512 1,5.44773355 L1,92.6388889 C1,93.1911736 0.55228475,93.6388889 0,93.6388889 C-0.55228475,93.6388889 -1,93.1911736 -1,92.6388889 L-1,5.44773355 C-1,2.1486509 1.66350593,-0.531543467 4.96252423,-0.552149413 L62.66,-0.912 L62.623218,-6.91241999 Z" stroke="none" fill="#000000"></path></g><g transform="translate(264.77777777777766 386.6388888888888) rotate(-180.0)"><path d="M75.4071691,-6.92494775 L89.4444444,0 L75.482121,7.07485161 L75.45,1.074 L4.97858516,1.45222649 C2.77783613,1.46400883 1,3.25138859 1,5.45216916 L1,92.6388889 C1,93.1911736 0.55228475,93.6388889 0,93.6388889 C-0.55228475,93.6388889 -1,93.1911736 -1,92.6388889 L-1,5.45216916 C-1,2.1509983 1.66675419,-0.53007134 4.96787774,-0.54774485 L75.439,-0.925 L75.4071691,-6.92494775 Z" stroke="none" fill="#000000"></path></g><g transform="translate(123.33333333333324 239.0)"><path d="M1.41039895,-0.999917825 C1.96263832,-0.992837716 2.40457722,-0.539419696 2.39749711,0.0128196699 L1.378,79.451 L7.37854309,79.5283881 L0.199642937,93.4375 L-6.62030646,79.3489128 L-0.62,79.425 L0.39766146,-0.0128196699 C0.404741568,-0.565059036 0.858159589,-1.00699793 1.41039895,-0.999917825 Z" stroke="none" fill="#B6B8C2"></path></g><g transform="translate(229.1944444444444 182.08333333333331)"><g clip-path="url(#i3)"><polygon points="0,0 95.8333333,0 95.8333333,95.8333333 0,95.8333333 0,0" stroke="none" fill="url(#i4)"></polygon></g></g><g transform="translate(248.3611111111111 201.25)"><g transform="translate(3.194444444444443 3.194444444444443)"><g transform=""><g clip-path="url(#i5)"><polygon points="-9.32587341e-15,3.14193116e-14 42.8655626,3.14193116e-14 42.8655626,51.1111178 -9.32587341e-15,51.1111178 -9.32587341e-15,3.14193116e-14" stroke="none" fill="#FFFFFF"></polygon></g></g><g transform="translate(44.044741623636945 34.13872230154027)"><g clip-path="url(#i6)"><polygon points="-4.40203429e-14,-1.22402088e-14 4.18985435,-1.22402088e-14 4.18985435,4.18985435 -4.40203429e-14,4.18985435 -4.40203429e-14,-1.22402088e-14" stroke="none" fill="#FFFFFF"></polygon></g></g><g transform="translate(19.851765385989523 20.01774236328)"><g clip-path="url(#i7)"><polygon points="-5.44009282e-15,1.24067423e-14 11.0746342,1.24067423e-14 11.0746342,11.0763281 -5.44009282e-15,11.0763281 -5.44009282e-15,1.24067423e-14" stroke="none" fill="#FFFFFF"></polygon></g></g><g transform="translate(46.4470689321406 27.001694815951765)"><g clip-path="url(#i8)"><polygon points="-1.89362415e-14,-1.22402088e-14 4.18976872,-1.22402088e-14 4.18976872,4.18985435 -1.89362415e-14,4.18985435 -1.89362415e-14,-1.22402088e-14" stroke="none" fill="#FFFFFF"></polygon></g></g><g transform="translate(40.22006126982815 26.740806767191657)"><g clip-path="url(#i9)"><polygon points="-6.03961325e-14,1.79717352e-15 4.18827169,1.79717352e-15 4.18827169,4.18821502 -6.03961325e-14,4.18821502 -6.03961325e-14,1.79717352e-15" stroke="none" fill="#FFFFFF"></polygon></g></g><g transform="translate(46.4470689321406 19.943657868940782)"><g clip-path="url(#i10)"><polygon points="-1.89362415e-14,-1.46549439e-14 4.18976872,-1.46549439e-14 4.18976872,4.18985435 -1.89362415e-14,4.18985435 -1.89362415e-14,-1.46549439e-14" stroke="none" fill="#FFFFFF"></polygon></g></g><g transform="translate(40.2199751807941 20.18062948467322)"><g clip-path="url(#i11)"><polygon points="-1.8707258e-14,-1.46688217e-14 4.18822618,-1.46688217e-14 4.18822618,4.18985435 -1.8707258e-14,4.18985435 -1.8707258e-14,-1.46688217e-14" stroke="none" fill="#FFFFFF"></polygon></g></g><g transform="translate(44.16253235626404 12.89904042754872)"><g clip-path="url(#i12)"><polygon points="-1.87280746e-14,1.52655666e-15 4.18822618,1.52655666e-15 4.18822618,4.18811478 -1.87280746e-14,4.18811478 -1.87280746e-14,1.52655666e-15" stroke="none" fill="#FFFFFF"></polygon></g></g></g></g><g transform="translate(382.52777777777743 28.749999999999964)"><g transform="translate(9.583333333333336 9.583333333333336)"><path d="M74.6666667,-2 C75.7712362,-2 76.7712362,-1.55228475 77.4950938,-0.828427125 C78.2189514,-0.1045695 78.6666667,0.8954305 78.6666667,2 L78.6666667,74.6666667 C78.6666667,75.7712362 78.2189514,76.7712362 77.4950938,77.4950938 C76.7712362,78.2189514 75.7712362,78.6666667 74.6666667,78.6666667 L2,78.6666667 C0.8954305,78.6666667 -0.1045695,78.2189514 -0.828427125,77.4950938 C-1.55228475,76.7712362 -2,75.7712362 -2,74.6666667 L-2,2 C-2,0.8954305 -1.55228475,-0.1045695 -0.828427125,-0.828427125 C-0.1045695,-1.55228475 0.8954305,-2 2,-2 Z" stroke="none" fill="#000000" filter="url(#i13)"></path><g clip-path="url(#i16)"><polygon points="0,0 76.6666667,0 76.6666667,76.6666667 0,76.6666667 0,0" stroke="none" fill="#FFFFFF"></polygon></g></g></g><g transform="translate(382.52777777777743 335.41666666666686)"><g transform="translate(9.583333333333336 9.583333333333329)"><g clip-path="url(#i17)"><polygon points="0,0 76.6666667,0 76.6666667,76.6666667 0,76.6666667 0,0" stroke="none" fill="url(#i18)"></polygon></g></g></g><g transform="translate(382.52777777777743 182.08333333333331)"><g transform="translate(9.583333333333336 9.583333333333336)"><path d="M74.6666667,-2 C75.7712362,-2 76.7712362,-1.55228475 77.4950938,-0.828427125 C78.2189514,-0.1045695 78.6666667,0.8954305 78.6666667,2 L78.6666667,74.6666667 C78.6666667,75.7712362 78.2189514,76.7712362 77.4950938,77.4950938 C76.7712362,78.2189514 75.7712362,78.6666667 74.6666667,78.6666667 L2,78.6666667 C0.8954305,78.6666667 -0.1045695,78.2189514 -0.828427125,77.4950938 C-1.55228475,76.7712362 -2,75.7712362 -2,74.6666667 L-2,2 C-2,0.8954305 -1.55228475,-0.1045695 -0.828427125,-0.828427125 C-0.1045695,-1.55228475 0.8954305,-2 2,-2 Z" stroke="none" fill="#000000" filter="url(#i19)"></path><g clip-path="url(#i22)"><polygon points="0,0 76.6666667,0 76.6666667,76.6666667 0,76.6666667 0,0" stroke="none" fill="#FFFFFF"></polygon></g></g></g><g transform="translate(76.33333333333333 28.999999999999964)"><g transform="translate(9.583333333333336 9.583333333333336)"><path d="M74.6666667,-2 C75.7712362,-2 76.7712362,-1.55228475 77.4950938,-0.828427125 C78.2189514,-0.1045695 78.6666667,0.8954305 78.6666667,2 L78.6666667,74.6666667 C78.6666667,75.7712362 78.2189514,76.7712362 77.4950938,77.4950938 C76.7712362,78.2189514 75.7712362,78.6666667 74.6666667,78.6666667 L2,78.6666667 C0.8954305,78.6666667 -0.1045695,78.2189514 -0.828427125,77.4950938 C-1.55228475,76.7712362 -2,75.7712362 -2,74.6666667 L-2,2 C-2,0.8954305 -1.55228475,-0.1045695 -0.828427125,-0.828427125 C-0.1045695,-1.55228475 0.8954305,-2 2,-2 Z" stroke="none" fill="#000000" filter="url(#i23)"></path><g clip-path="url(#i16)"><polygon points="0,0 76.6666667,0 76.6666667,76.6666667 0,76.6666667 0,0" stroke="none" fill="#FFFFFF"></polygon></g></g></g><g transform="translate(76.33333333333333 334.9999999999999)"><g transform="translate(9.583333333333336 9.583333333333329)"><path d="M74.6666667,-2 C75.7712362,-2 76.7712362,-1.55228475 77.4950938,-0.828427125 C78.2189514,-0.1045695 78.6666667,0.8954305 78.6666667,2 L78.6666667,74.6666667 C78.6666667,75.7712362 78.2189514,76.7712362 77.4950938,77.4950938 C76.7712362,78.2189514 75.7712362,78.6666667 74.6666667,78.6666667 L2,78.6666667 C0.8954305,78.6666667 -0.1045695,78.2189514 -0.828427125,77.4950938 C-1.55228475,76.7712362 -2,75.7712362 -2,74.6666667 L-2,2 C-2,0.8954305 -1.55228475,-0.1045695 -0.828427125,-0.828427125 C-0.1045695,-1.55228475 0.8954305,-2 2,-2 Z" stroke="none" fill="#000000" filter="url(#i26)"></path><g clip-path="url(#i17)"><polygon points="0,0 76.6666667,0 76.6666667,76.6666667 0,76.6666667 0,0" stroke="none" fill="#FFFFFF"></polygon></g></g></g><g transform="translate(401.69444444444406 357.7777777777778)"><g transform="translate(3.19444444444445 3.194444444444443)"><g clip-path="url(#i29)"><polygon points="0,0 51.1111111,0 51.1111111,49.5638384 0,49.5638384 0,0" stroke="none" fill="#000001"></polygon></g></g></g><g transform="translate(106.20833333333327 60.69444444444441)"><g clip-path="url(#i30)"><polygon points="-2.08604191e-14,0 35.1389283,0 35.1389283,31.9444444 -2.08604191e-14,31.9444444 -2.08604191e-14,0" stroke="none" fill="#F25053"></polygon></g></g><g transform="translate(210.82638888888863 67.8819444444444)"><g clip-path="url(#i31)"><polygon points="0,0 17.5694444,0 17.5694444,17.5694444 0,17.5694444 0,0" stroke="none" fill="#B6B8C2"></polygon></g><g transform="translate(4.62353801169591 7.8600146198830405)"><g clip-path="url(#i32)"><polygon points="0,0 8.32236842,0 8.32236842,1.3870614 0,1.3870614 0,0" stroke="none" fill="#FFFFFF"></polygon></g></g></g><g transform="translate(115.3333333333332 220.99999999999994)"><g clip-path="url(#i33)"><polygon points="0,0 17.5694444,0 17.5694444,17.5694444 0,17.5694444 0,0" stroke="none" fill="#B6B8C2"></polygon></g><g transform="translate(4.62353801169591 7.860014619883047)"><g clip-path="url(#i34)"><polygon points="0,0 8.32236842,0 8.32236842,1.3870614 0,1.3870614 0,0" stroke="none" fill="#FFFFFF"></polygon></g></g></g><g transform="translate(144.5416666666664 405.69444444444446)"><g clip-path="url(#i35)"><polygon points="0,0 7.98611111,0 7.98611111,7.98611111 0,7.98611111 0,0" stroke="none" fill="url(#i36)"></polygon></g></g><g transform="translate(451.2083333333333 250.7638888888888)"><g clip-path="url(#i37)"><polygon points="0,0 7.98611111,0 7.98611111,7.98611111 0,7.98611111 0,0" stroke="none" fill="url(#i38)"></polygon></g></g><g transform="translate(451.2083333333333 97.43055555555553)"><g clip-path="url(#i37)"><polygon points="0,0 7.98611111,0 7.98611111,7.98611111 0,7.98611111 0,0" stroke="none" fill="url(#i38)"></polygon></g></g><g transform="translate(0.0 221.0)"><text transform="translate(2.643515624999935 11.0)" font-family="Roboto-Medium, Roboto" font-size="12.0" font-weight="400" fill="#212121" text-anchor="center" letter-spacing="0.18">Default deny policy</text></g><g transform="translate(181.27777777777777 24.944444444444457)"><text transform="translate(44.44169270833325 11.0)" font-family="Roboto-Medium, Roboto" font-size="12.0" font-weight="400" fill="#212121" text-anchor="center" letter-spacing="0.18">Invalid Credentials</text></g><g transform="translate(186.06944444444426 413.06944444444434)"><text transform="translate(37.52763020833328 11.0)" font-family="Roboto-Medium, Roboto" font-size="12.0" font-weight="400" fill="#212121" text-anchor="center" letter-spacing="0.18">mTLS Authentication</text></g><g transform="translate(481.55555555555543 364.1388888888889)"><text transform="translate(0.0 11.0)"><tspan x="0px" y="0px" font-family="Roboto-Medium, Roboto" font-size="12.0" font-weight="400" fill="#212121" text-anchor="left" letter-spacing="0.18">Root certificate </tspan><tspan x="0px" y="14px" font-family="Roboto-Medium, Roboto" font-size="12.0" font-weight="400" fill="#212121" text-anchor="left" letter-spacing="0.18">stored in Vault</tspan></text></g><g transform="translate(334.53472222222194 67.58333333333337)"><g transform="translate(2.0 2.0)"><g clip-path="url(#i39)"><polygon points="0,0 16,0 16,16 0,16 0,0" stroke="none" fill="url(#i40)"></polygon></g></g></g><g transform="translate(209.33333333333326 375.0)"><g transform="translate(2.0 2.0)"><g clip-path="url(#i39)"><polygon points="0,0 16,0 16,16 0,16 0,0" stroke="none" fill="url(#i40)"></polygon></g></g></g><g transform="translate(0.0 59.0)"><g transform="translate(4.0 5.0)"><g clip-path="url(#i41)"><polygon points="4.4408921e-16,0 28,0 28,26.8702944 4.4408921e-16,26.8702944 4.4408921e-16,0" stroke="none" fill="#212121"></polygon></g><g transform="translate(9.053937502073296 15.007387754981462)"><g clip-path="url(#i42)"><polygon points="-4.35415592e-16,0 9.88992322,0 9.88992322,2.68003017 -4.35415592e-16,2.68003017 -4.35415592e-16,0" stroke="none" fill="#212121"></polygon></g></g><g transform="translate(13.06580379452572 19.35341467849764)"><g clip-path="url(#i43)"><polygon points="7.77156117e-16,0 1.8677005,0 1.8677005,3.18930811 7.77156117e-16,3.18930811 7.77156117e-16,0" stroke="none" fill="#212121"></polygon></g></g><g transform="translate(8.324698615482532 9.396309206449324)"><g clip-path="url(#i44)"><polygon points="0,-4.4408921e-16 4.42478092,-4.4408921e-16 4.42478092,1.50559222 0,1.50559222 0,-4.4408921e-16" stroke="none" fill="#212121"></polygon></g></g><g transform="translate(15.249828561094521 9.396309206449324)"><g clip-path="url(#i45)"><polygon points="0,-4.4408921e-16 4.42478092,-4.4408921e-16 4.42478092,1.50559222 0,1.50559222 0,-4.4408921e-16" stroke="none" fill="#212121"></polygon></g></g><g transform="translate(8.546812304614292 6.957265410234292)"><g clip-path="url(#i46)"><polygon points="0,6.66133815e-16 3.97932639,6.66133815e-16 3.97932639,1.87468325 0,1.87468325 0,6.66133815e-16" stroke="none" fill="#212121"></polygon></g></g><g transform="translate(15.47316939768007 6.957265410234292)"><g clip-path="url(#i47)"><polygon points="0,6.66133815e-16 3.97932639,6.66133815e-16 3.97932639,1.87468325 0,1.87468325 0,6.66133815e-16" stroke="none" fill="#212121"></polygon></g></g></g></g><g transform="translate(334.33333333333326 220.0)"><g transform="translate(2.0 2.0)"><g clip-path="url(#i39)"><polygon points="0,0 16,0 16,16 0,16 0,0" stroke="none" fill="url(#i40)"></polygon></g></g></g><g transform="translate(334.33333333333326 67.0)"><g transform="translate(2.0 2.0)"><g clip-path="url(#i39)"><polygon points="0,0 16,0 16,16 0,16 0,0" stroke="none" fill="url(#i40)"></polygon></g></g></g><g transform="translate(332.33333333333326 373.0)"><g clip-path="url(#i48)"><polygon points="0,0 24,0 24,24 0,24 0,0" stroke="none" fill="url(#i49)"></polygon></g><g transform="translate(2.0 1.0)"><g clip-path="url(#i50)"><polygon points="0,-5.55111512e-17 20,-5.55111512e-17 20,22 0,22 0,-5.55111512e-17" stroke="none" fill="#000001"></polygon></g></g></g><g transform="translate(338.33333333333326 70.0)"><g transform="translate(2.0 0.666666666666667)"><g transform="translate(3.515151515151514 7.393939393939394)"><g clip-path="url(#i51)"><polygon points="0,0 0.727272727,0 0.727272727,1.6969697 0,1.6969697 0,0" stroke="none" fill="#FFFFFF"></polygon></g></g><g clip-path="url(#i52)"><polygon points="0,0 7.75757576,0 7.75757576,10.6666667 0,10.6666667 0,0" stroke="none" fill="#FFFFFF"></polygon></g></g></g><g transform="translate(338.33333333333326 224.0)"><g transform="translate(2.0 0.666666666666667)"><g transform="translate(3.515151515151514 7.393939393939394)"><g clip-path="url(#i51)"><polygon points="0,0 0.727272727,0 0.727272727,1.6969697 0,1.6969697 0,0" stroke="none" fill="#FFFFFF"></polygon></g></g><g clip-path="url(#i52)"><polygon points="0,0 7.75757576,0 7.75757576,10.6666667 0,10.6666667 0,0" stroke="none" fill="#FFFFFF"></polygon></g></g></g><g transform="translate(213.33333333333326 378.0)"><g transform="translate(2.0 0.666666666666667)"><g transform="translate(3.515151515151514 7.393939393939394)"><g clip-path="url(#i51)"><polygon points="0,0 0.727272727,0 0.727272727,1.6969697 0,1.6969697 0,0" stroke="none" fill="#FFFFFF"></polygon></g></g><g clip-path="url(#i52)"><polygon points="0,0 7.75757576,0 7.75757576,10.6666667 0,10.6666667 0,0" stroke="none" fill="#FFFFFF"></polygon></g></g></g></g></g></g></svg>