<?xml version="1.0" encoding="UTF-8"?><svg version="1.1" width="850px" height="400px" viewBox="0 0 850.0 400.0" xmlns="http://www.w3.org/2000/svg" xmlns:xlink="http://www.w3.org/1999/xlink"><defs><clipPath id="i0"><path d="M850,0 L850,400 L0,400 L0,0 L850,0 Z"></path></clipPath><clipPath id="i1"><path d="M195,0 C197.761424,-5.07265313e-16 200,2.23857625 200,5 L200,335 C200,337.761424 197.761424,340 195,340 L5,340 C2.23857625,340 4.77906897e-15,337.761424 0,335 L0,5 C-3.38176876e-16,2.23857625 2.23857625,1.39544373e-15 5,0 L195,0 Z"></path></clipPath><clipPath id="i2"><path d="M8.46841905,0 L8.46841905,3.63885714 L3.18090159,6.66514286 L3.18090159,18.3029841 L0,16.4815238 L0,4.84368254 L8.46841905,0 Z"></path></clipPath><clipPath id="i3"><path d="M6.56335238,0 L9.74425397,1.82146032 L9.74425397,13.7020952 L6.56335238,15.5235556 L6.56335238,12.087873 L3.18283175,12.087873 L3.18283175,21.3292698 L0,19.503746 L0,7.6312381 L3.18283175,5.80977778 L3.18283175,9.26780952 L6.56335238,9.26780952 L6.56335238,0 Z"></path></clipPath><clipPath id="i4"><path d="M5.28568889,0 L8.46841905,1.82146032 L8.46841905,13.4593016 L0,18.3029841 L0,14.664127 L5.28568889,11.6378413 L5.28568889,0 Z"></path></clipPath><filter id="i5" x="-10.9195402%" y="-6.02836879%" filterUnits="userSpaceOnUse" width="113.793103%" height="108.510638%"><feGaussianBlur stdDeviation="2.5" in="SourceAlpha" result="i6"></feGaussianBlur><feOffset dx="0" dy="2" in="i6" result="i7"></feOffset><feColorMatrix values="0 0 0 0.0 0 0 0 0 0.0 0 0 0 0 0.0 0 0 0 0 0.1 0" type="matrix" in="i7"></feColorMatrix></filter><clipPath id="i8"><path d="M155,0 C157.761424,-5.07265313e-16 160,2.23857625 160,5 L160,263 C160,265.761424 157.761424,268 155,268 L5,268 C2.23857625,268 3.38176876e-16,265.761424 0,263 L0,5 C-3.38176876e-16,2.23857625 2.23857625,5.07265313e-16 5,0 L155,0 Z"></path></clipPath><clipPath id="i9"><path d="M44.3661972,0 L90,96.3380282 L0,96.3380282 L44.3661972,0 Z"></path></clipPath><linearGradient id="i10" x1="90px" y1="96.3380282px" x2="-5.99520433e-14px" y2="-1.06956697e-14px" gradientUnits="userSpaceOnUse"><stop stop-color="#FFE959" offset="0%"></stop><stop stop-color="#FFF2A3" offset="100%"></stop></linearGradient><clipPath id="i11"><path d="M70,0 C71.1045695,-2.02906125e-16 72,0.8954305 72,2 L72,70 C72,71.1045695 71.1045695,72 70,72 L2,72 C0.8954305,72 1.02344917e-15,71.1045695 0,70 L0,2 C-1.3527075e-16,0.8954305 0.8954305,1.09108455e-15 2,0 L70,0 Z"></path></clipPath><linearGradient id="i12" x1="72px" y1="72px" x2="-4.79616347e-14px" y2="-7.99360578e-15px" gradientUnits="userSpaceOnUse"><stop stop-color="#C9363B" offset="0%"></stop><stop stop-color="#F24C53" offset="100%"></stop></linearGradient><clipPath id="i13"><path d="M33.51432,0 L39.10656,9.7104 L30.8796,24 L39.27264,38.5776 L33.84624,48 L6.20736,48 L6.20736,44.28 L13.91832,44.28 L13.91832,41.9808 L10.1796,41.9808 L10.1796,38.2368 L27.83208,38.2368 L19.63176,24 L27.83208,9.7584 L9.73968,9.7584 L9.73968,29.508 L0,29.508 L0,0 L33.51432,0 Z"></path></clipPath><clipPath id="i14"><path d="M3.7344,0 L3.7344,3.744 L0,3.744 L0,0 L3.7344,0 Z"></path></clipPath><clipPath id="i15"><path d="M3.73416,0 L3.73416,3.744 L0,3.744 L0,0 L3.73416,0 Z"></path></clipPath><clipPath id="i16"><path d="M435,0 C437.761424,-5.07265313e-16 440,2.23857625 440,5 L440,265 C440,267.761424 437.761424,270 435,270 L5,270 C2.23857625,270 -3.2145368e-15,267.761424 0,265 L0,5 C-3.38176876e-16,2.23857625 2.23857625,-7.48634046e-15 5,0 L435,0 Z"></path></clipPath><clipPath id="i17"><path d="M25.9471465,0 C26.1809908,0 26.4257752,0.0109400849 26.6596195,0.0423928292 C26.9044039,0.075213084 27.1286756,0.117605913 27.3515799,0.159998742 C27.5649115,0.213331656 27.7673031,0.266664571 27.9587546,0.329570059 C28.1502061,0.393843058 28.2992647,0.458116057 28.4059306,0.522389056 C28.5549892,0.607174715 28.6616551,0.691960373 28.7245605,0.787686116 C28.7888335,0.872471775 28.8202863,0.990077688 28.8202863,1.13913635 L28.8202863,1.63964523 C28.8202863,1.86391697 28.7355006,1.98015538 28.5755019,1.98015538 C28.4907162,1.98015538 28.3525977,1.93776255 28.1720862,1.85297689 C27.5649115,1.57537223 26.8838912,1.43725366 26.1276579,1.43725366 C25.5218507,1.43725366 25.043222,1.5329794 24.7122844,1.73537097 C24.3827143,1.93776255 24.2117755,2.24681995 24.2117755,2.68305583 C24.2117755,2.98117315 24.3184413,3.23689763 24.531773,3.43928921 C24.7451046,3.64168078 25.1389477,3.84407235 25.7023621,4.02458375 L27.2134613,4.50457998 C27.9806348,4.74936438 28.5331091,5.08987452 28.8626791,5.52611041 C29.1936167,5.9623463 29.3522479,6.46285518 29.3522479,7.01669698 C29.3522479,7.47481304 29.2565222,7.89053627 29.0760108,8.25155907 C28.8845593,8.61394939 28.6288348,8.93394687 28.2992647,9.18967136 C27.9696947,9.45496842 27.5758516,9.64778741 27.1177356,9.78590599 C26.6391068,9.93496464 26.138598,10.0088102 25.5956962,10.0088102 C25.043222,10.0088102 24.4893802,9.94590473 23.9574185,9.81735873 C23.4254569,9.69018024 23.0097337,9.55069416 22.7334965,9.39206293 C22.5625577,9.29633718 22.4463193,9.18967136 22.402559,9.09394561 C22.3601661,8.99821987 22.3396535,8.89155404 22.3396535,8.7958283 L22.3396535,8.25155907 C22.3396535,8.02865484 22.4244391,7.92198901 22.5844379,7.92198901 C22.6473434,7.92198901 22.7116163,7.9329291 22.7758893,7.95344176 C22.8401623,7.97532193 22.9358881,8.01771476 23.0411864,8.06010758 C23.4035767,8.22010633 23.7974198,8.34865233 24.2117755,8.43343798 C24.6384388,8.51822364 25.0527945,8.56061647 25.4794578,8.56061647 C26.149538,8.56061647 26.6705596,8.44437807 27.0329499,8.20916624 C27.3939727,7.97532193 27.5867917,7.63481178 27.5867917,7.1985759 C27.5867917,6.90045858 27.491066,6.65567418 27.298247,6.45328261 C27.1067955,6.25089104 26.7457727,6.06901212 26.2233836,5.89944081 L24.6808316,5.41944458 C23.9040856,5.17466018 23.3297311,4.81226987 22.9782809,4.33364115 C22.6268307,3.86458501 22.4463193,3.34356346 22.4463193,2.78972166 C22.4463193,2.34254569 22.542045,1.94870263 22.7334965,1.60819249 C22.924948,1.26768234 23.1806725,0.969565028 23.4993025,0.734353202 C23.8193,0.489568801 24.1803228,0.3090574 24.6056186,0.180511402 C25.0322819,0.0533329141 25.4794578,0 25.9471465,0 Z M4.00133607,0.0218801699 C5.2676509,0.0218801699 6.1948231,0.3090574 6.78969022,0.883411859 C7.37498476,1.45913383 7.67310208,2.3316056 7.67310208,3.5035622 L7.67310208,6.95379149 L7.69498225,6.95379149 C7.69498225,7.34763455 7.73737508,7.66626453 7.81122065,7.90147635 C7.89737382,8.13532067 8.00403965,8.39104515 8.15309831,8.6672823 C8.20506371,8.75206796 8.22694388,8.83822113 8.22694388,8.9120667 C8.22694388,9.01873253 8.16267088,9.12539836 8.02455231,9.23206418 L7.35447211,9.67924016 C7.25874636,9.74351316 7.16302062,9.7749659 7.07686745,9.7749659 C6.97156913,9.7749659 6.8649033,9.72163299 6.75823748,9.62590724 C6.60917882,9.4659085 6.48200033,9.29633718 6.3753345,9.12539836 C6.26866867,8.94488695 6.16200285,8.74249538 6.04576444,8.49771098 C5.2156855,9.47684859 4.1722749,9.96641739 2.91553264,9.96641739 C2.0225482,9.96641739 1.30870766,9.7106929 0.787686116,9.19924393 C0.266664571,8.68916247 0,8.00677467 0,7.15481556 C0,6.25089104 0.319997485,5.51517032 0.968197518,4.96132852 C1.61776506,4.40885423 2.47929675,4.13124958 3.57604027,4.13124958 C3.93843058,4.13124958 4.31039347,4.16270232 4.70423653,4.21603524 C5.09807959,4.26936815 5.50286273,4.35552132 5.92815853,4.45124706 L5.92815853,3.67313352 C5.92815853,2.86493475 5.7572197,2.30015286 5.42764964,1.96921529 C5.0871395,1.63964523 4.51278504,1.47964649 3.69364618,1.47964649 C3.32031578,1.47964649 2.93741281,1.52203932 2.54356975,1.61913257 C2.14972669,1.71485832 1.76682372,1.83109672 1.39486083,1.98015538 C1.223922,2.05536846 1.09674352,2.09776129 1.02153043,2.11827395 C0.947684859,2.14015412 0.894351944,2.1510942 0.851959115,2.1510942 C0.702900458,2.1510942 0.627687374,2.04442837 0.627687374,1.82015663 L0.627687374,1.29913509 C0.627687374,1.12819626 0.649567544,1.00101777 0.702900458,0.925804689 C0.756233372,0.851959115 0.851959115,0.776746031 1.00101777,0.702900458 C1.37298066,0.511448971 1.82015663,0.351450229 2.34117818,0.224271741 C2.86356723,0.0847856583 3.41604152,0.0218801699 4.00133607,0.0218801699 Z M9.9937676,0.276237145 C10.1961592,0.276237145 10.3342777,0.3090574 10.4081233,0.382902973 C10.4942765,0.447175972 10.557182,0.59623463 10.621455,0.798626201 L12.4101589,7.84814344 L14.0703168,0.798626201 C14.1236497,0.585294545 14.1865552,0.447175972 14.2727083,0.382902973 C14.357494,0.319997485 14.5065526,0.276237145 14.6980041,0.276237145 L15.5485957,0.276237145 C15.7509873,0.276237145 15.8891059,0.3090574 15.975259,0.382902973 C16.0600447,0.447175972 16.1338903,0.59623463 16.1776506,0.798626201 L17.8583212,7.9329291 L19.700358,0.798626201 C19.7632635,0.585294545 19.8384765,0.447175972 19.9123221,0.382902973 C19.9984753,0.319997485 20.1365939,0.276237145 20.3280453,0.276237145 L21.318123,0.276237145 C21.4876943,0.276237145 21.5834201,0.362390314 21.5834201,0.542901715 C21.5834201,0.59623463 21.57248,0.649567544 21.5629074,0.713840543 C21.5519673,0.776746031 21.5300872,0.8628992 21.4876943,0.979137603 L18.9236119,9.21018401 C18.8593389,9.42351567 18.7841259,9.56163424 18.6993402,9.62590724 C18.6145545,9.69018024 18.476436,9.73257307 18.2945571,9.73257307 L17.3796924,9.73257307 C17.1773009,9.73257307 17.0391823,9.69975282 16.9543966,9.62590724 C16.8682435,9.55069416 16.7943979,9.41257559 16.7520051,9.19924393 L15.1027873,2.3316056 L13.463142,9.18967136 C13.4098091,9.4016355 13.3455361,9.54112158 13.2607505,9.61496716 C13.1759648,9.69018024 13.0269062,9.72163299 12.8354547,9.72163299 L11.9205901,9.72163299 C11.7277711,9.72163299 11.6005926,9.69018024 11.5158069,9.61496716 C11.4310213,9.55069416 11.3558082,9.4016355 11.2915352,9.19924393 L8.79035825,0.969565028 C8.72745277,0.756233372 8.69463251,0.6181148 8.69463251,0.542901715 C8.69463251,0.373330399 8.78078568,0.276237145 8.950357,0.276237145 L9.9937676,0.276237145 Z M3.96988333,5.39893192 C3.25741029,5.39893192 2.73502124,5.53705049 2.38357101,5.82422772 C2.03348829,6.11140495 1.86254946,6.5161881 1.86254946,7.04951724 C1.86254946,7.55002612 1.98972795,7.92198901 2.25639252,8.1777135 C2.51211701,8.44437807 2.88407989,8.57155656 3.3736487,8.57155656 C3.72509892,8.57155656 4.08748924,8.50728356 4.47039221,8.38010507 C4.85329518,8.25155907 5.19380533,8.01771476 5.48098256,7.69908478 C5.65192139,7.49669321 5.77909987,7.27242147 5.84337287,7.01669698 C5.90627836,6.7609725 5.9500387,6.45328261 5.9500387,6.09089229 L5.9500387,5.64371632 C5.6409813,5.56850324 5.31141124,5.50559775 4.9709011,5.46183741 C4.62902344,5.41944458 4.29945338,5.39893192 3.96988333,5.39893192 Z"></path></clipPath><clipPath id="i18"><path d="M0.503425304,0.0697372198 C5.01621034,2.68988756 10.5819786,4.27619988 16.3405658,4.27619988 C20.2242959,4.27619988 24.4922966,3.4666336 28.4197871,1.80647571 C29.0050816,1.53981113 29.5055905,2.18937868 28.931236,2.61467448 C25.4290413,5.20337208 20.3419018,6.57635274 15.9672354,6.57635274 C9.83805279,6.57635274 4.31330989,4.30765263 0.142402501,0.538793362 C-0.188535069,0.240676047 0.109582246,-0.164107096 0.503425304,0.0697372198 Z"></path></clipPath><clipPath id="i19"><path d="M5.87523508,0.437908087 C6.25950556,0.916536803 5.76993676,4.20676735 3.89644721,5.78350709 C3.60926998,6.02829149 3.33166533,5.8997455 3.46021133,5.58111552 C3.88550713,4.52676484 4.83319199,2.15139889 4.38601602,1.58798452 C3.93884004,1.01226255 1.42672304,1.31037986 0.288954203,1.44986594 C-0.051555941,1.49225877 -0.104888855,1.19414146 0.202801034,0.969869717 C2.20346907,-0.435931198 5.49233211,-0.0311480554 5.87523508,0.437908087 Z"></path></clipPath><clipPath id="i20"><path d="M85,0 C87.7614237,-5.07265313e-16 90,2.23857625 90,5 L90,195 C90,197.761424 87.7614237,200 85,200 L5,200 C2.23857625,200 2.11453371e-15,197.761424 0,195 L0,5 C-3.38176876e-16,2.23857625 2.23857625,4.94815741e-15 5,0 L85,0 Z"></path></clipPath><linearGradient id="i21" x1="45px" y1="0px" x2="45px" y2="200px" gradientUnits="userSpaceOnUse"><stop stop-color="#F2F2F3" offset="0%"></stop><stop stop-color="#DBDBDC" offset="100%"></stop></linearGradient><linearGradient id="i22" x1="45px" y1="0px" x2="45px" y2="200px" gradientUnits="userSpaceOnUse"><stop stop-color="#F2F2F3" offset="0%"></stop><stop stop-color="#DBDBDC" offset="100%"></stop></linearGradient><clipPath id="i23"><path d="M85,0 C87.7614237,-5.07265313e-16 90,2.23857625 90,5 L90,105 C90,107.761424 92.2385763,110 95,110 L195,110 C197.761424,110 200,112.238576 200,115 L200,195 C200,197.761424 197.761424,200 195,200 L5,200 C2.23857625,200 4.77906897e-15,197.761424 0,195 L0,5 C-3.38176876e-16,2.23857625 2.23857625,4.94815741e-15 5,0 L85,0 Z"></path></clipPath><linearGradient id="i24" x1="100px" y1="0px" x2="100px" y2="200px" gradientUnits="userSpaceOnUse"><stop stop-color="#F2F2F3" offset="0%"></stop><stop stop-color="#DBDBDC" offset="100%"></stop></linearGradient><clipPath id="i25"><path d="M85,0 C87.7614237,-5.07265313e-16 90,2.23857625 90,5 L90,85 C90,87.7614237 87.7614237,90 85,90 L5,90 C2.23857625,90 2.11453371e-15,87.7614237 0,85 L0,5 C-3.38176876e-16,2.23857625 2.23857625,2.28362215e-15 5,0 L85,0 Z"></path></clipPath><linearGradient id="i26" x1="45px" y1="0px" x2="45px" y2="90px" gradientUnits="userSpaceOnUse"><stop stop-color="#F2F2F3" offset="0%"></stop><stop stop-color="#DBDBDC" offset="100%"></stop></linearGradient><filter id="i27" x="-30.6451613%" y="-27.4193548%" filterUnits="userSpaceOnUse" width="138.709677%" height="138.709677%"><feGaussianBlur stdDeviation="2.5" in="SourceAlpha" result="i28"></feGaussianBlur><feOffset dx="0" dy="2" in="i28" result="i29"></feOffset><feColorMatrix values="0 0 0 0.0 0 0 0 0 0.0 0 0 0 0 0.0 0 0 0 0 0.1 0" type="matrix" in="i29"></feColorMatrix></filter><clipPath id="i30"><path d="M46,0 C47.1045695,-2.02906125e-16 48,0.8954305 48,2 L48,46 C48,47.1045695 47.1045695,48 46,48 L2,48 C0.8954305,48 1.02344917e-15,47.1045695 0,46 L0,2 C-1.3527075e-16,0.8954305 0.8954305,1.09108455e-15 2,0 L46,0 Z"></path></clipPath><clipPath id="i31"><path d="M16,0 C24.8363636,0 32,7.15636364 32,16 C32,24.8436364 24.8363636,32 16,32 C7.16363636,32 0,24.8436364 0,16 C0,7.15636364 7.16363636,0 16,0 Z M9.11563636,16.7272727 L2.20072727,16.7272727 C2.53672727,23.2 7.328,28.4945455 13.5665455,29.6 C10.8974545,25.8618182 9.344,21.3818182 9.11563636,16.7272727 Z M29.7992727,16.7272727 L22.8843636,16.7272727 C22.656,21.3818182 21.1025455,25.8618182 18.4334545,29.6 C24.672,28.4945455 29.4632727,23.2 29.7992727,16.7272727 Z M20.6996364,16.7272727 L11.3003636,16.7272727 C11.5476364,21.2945455 13.1956364,25.6727273 16,29.2072727 C18.8043636,25.6727273 20.4523636,21.2945455 20.6996364,16.7272727 Z M13.5665455,2.4 C7.56218182,3.46181818 2.90036364,8.40727273 2.25745455,14.5454545 L9.16218182,14.5454545 C9.50981818,10.1527273 11.0370909,5.94909091 13.5665455,2.4 Z M18.4334545,2.4 C20.9629091,5.94909091 22.4901818,10.1527273 22.8378182,14.5454545 L29.7425455,14.5454545 C29.0996364,8.40727273 24.4378182,3.46181818 18.4334545,2.4 Z M16,2.79272727 C13.3454545,6.13818182 11.7250909,10.24 11.3512727,14.5454545 L20.6487273,14.5454545 C20.2749091,10.24 18.6545455,6.13818182 16,2.79272727 Z"></path></clipPath><filter id="i32" x="-30.6451613%" y="-27.4193548%" filterUnits="userSpaceOnUse" width="138.709677%" height="138.709677%"><feGaussianBlur stdDeviation="2.5" in="SourceAlpha" result="i33"></feGaussianBlur><feOffset dx="0" dy="2" in="i33" result="i34"></feOffset><feColorMatrix values="0 0 0 0.0 0 0 0 0 0.0 0 0 0 0 0.0 0 0 0 0 0.1 0" type="matrix" in="i34"></feColorMatrix></filter><clipPath id="i35"><path d="M14.2458182,0.387697719 C15.3527273,-0.129232573 16.6472727,-0.129232573 17.7541818,0.387697719 L30.5701818,6.36018803 C31.4458182,6.76734011 32,7.61638422 32,8.54602499 L32,22.30582 C32,23.7398847 31.1592727,25.0530544 29.824,25.7075549 L17.824,31.5799941 C16.6792727,32.140002 15.3207273,32.140002 14.176,31.5799941 L2.176,25.7075549 C0.840727273,25.0530544 0,23.7398847 0,22.30582 L0,8.54602499 C0,7.61638422 0.554181818,6.76734011 1.42981818,6.36018803 Z M2.18181818,9.5090161 L2.18181818,22.30582 C2.18181818,22.9575413 2.56436364,23.5550682 3.17090909,23.8524421 L14.9090909,29.5956488 L14.9090909,15.2841836 L2.18181818,9.5090161 Z M29.8181818,9.5090161 L17.0909091,15.2841836 L17.0909091,29.5956488 L28.8290909,23.8524421 C29.4356364,23.5550682 29.8181818,22.9575413 29.8181818,22.30582 L29.8181818,9.5090161 Z M16.7970909,2.26087523 C16.2938182,2.02603324 15.7061818,2.02603324 15.2029091,2.26087523 L3.408,7.75673358 L16,13.4721483 L28.592,7.75812317 Z"></path></clipPath><filter id="i36" x="-30.6451613%" y="-27.4193548%" filterUnits="userSpaceOnUse" width="138.709677%" height="138.709677%"><feGaussianBlur stdDeviation="2.5" in="SourceAlpha" result="i37"></feGaussianBlur><feOffset dx="0" dy="2" in="i37" result="i38"></feOffset><feColorMatrix values="0 0 0 0.0 0 0 0 0 0.0 0 0 0 0 0.0 0 0 0 0 0.1 0" type="matrix" in="i38"></feColorMatrix></filter><filter id="i39" x="-30.6451613%" y="-27.4193548%" filterUnits="userSpaceOnUse" width="138.709677%" height="138.709677%"><feGaussianBlur stdDeviation="2.5" in="SourceAlpha" result="i40"></feGaussianBlur><feOffset dx="0" dy="2" in="i40" result="i41"></feOffset><feColorMatrix values="0 0 0 0.0 0 0 0 0 0.0 0 0 0 0 0.0 0 0 0 0 0.1 0" type="matrix" in="i41"></feColorMatrix></filter><filter id="i42" x="-30.6451613%" y="-27.4193548%" filterUnits="userSpaceOnUse" width="138.709677%" height="138.709677%"><feGaussianBlur stdDeviation="2.5" in="SourceAlpha" result="i43"></feGaussianBlur><feOffset dx="0" dy="2" in="i43" result="i44"></feOffset><feColorMatrix values="0 0 0 0.0 0 0 0 0 0.0 0 0 0 0 0.0 0 0 0 0 0.1 0" type="matrix" in="i44"></feColorMatrix></filter><clipPath id="i45"><path d="M27.2,0 C29.8512,0 32,2.1488 32,4.8 C32,7.4512 29.8512,9.6 27.2,9.6 C26.3104,9.6 25.4768,9.3584 24.7616,8.936 L21.8976,11.8 L22.9856,12.888 C24.704,14.6064 24.704,17.3936 22.9856,19.112 L21.8976,20.2 L24.7616,23.064 C25.4768,22.6416 26.3104,22.4 27.2,22.4 C29.8512,22.4 32,24.5488 32,27.2 C32,29.8512 29.8512,32 27.2,32 C24.5488,32 22.4,29.8512 22.4,27.2 C22.4,26.3104 22.6416,25.4768 23.064,24.7616 L20.2,21.8976 L19.112,22.9856 C17.3936,24.704 14.6064,24.704 12.888,22.9856 L11.8,21.8976 L8.936,24.7616 C9.3584,25.4768 9.6,26.3104 9.6,27.2 C9.6,29.8512 7.4512,32 4.8,32 C2.1488,32 0,29.8512 0,27.2 C0,24.5488 2.1488,22.4 4.8,22.4 C5.6896,22.4 6.5232,22.6416 7.2384,23.064 L10.1024,20.2 L9.0144,19.112 C7.296,17.3936 7.296,14.6064 9.0144,12.888 L10.1024,11.8 L7.2384,8.936 C6.5232,9.3584 5.6896,9.6 4.8,9.6 C2.1488,9.6 0,7.4512 0,4.8 C0,2.1488 2.1488,0 4.8,0 C7.4512,0 9.6,2.1488 9.6,4.8 C9.6,5.6896 9.3584,6.5232 8.936,7.2384 L11.8,10.1024 L12.888,9.0144 C14.6064,7.296 17.3936,7.296 19.112,9.0144 L20.2,10.1024 L23.064,7.2384 C22.6416,6.5232 22.4,5.6896 22.4,4.8 C22.4,2.1488 24.5488,0 27.2,0 Z M4.8,24.8 C3.4752,24.8 2.4,25.8752 2.4,27.2 C2.4,28.5248 3.4752,29.6 4.8,29.6 C6.1248,29.6 7.2,28.5248 7.2,27.2 C7.2,25.8752 6.1248,24.8 4.8,24.8 Z M27.2,24.8 C25.8752,24.8 24.8,25.8752 24.8,27.2 C24.8,28.5248 25.8752,29.6 27.2,29.6 C28.5248,29.6 29.6,28.5248 29.6,27.2 C29.6,25.8752 28.5248,24.8 27.2,24.8 Z M17.4144,10.712 C16.6336,9.9296 15.3664,9.9296 14.5856,10.712 L10.712,14.5856 C9.9296,15.3664 9.9296,16.6336 10.712,17.4144 L14.5856,21.288 C15.3664,22.0704 16.6336,22.0704 17.4144,21.288 L21.288,17.4144 C22.0704,16.6336 22.0704,15.3664 21.288,14.5856 Z M4.8,2.4 C3.4752,2.4 2.4,3.4752 2.4,4.8 C2.4,6.1248 3.4752,7.2 4.8,7.2 C6.1248,7.2 7.2,6.1248 7.2,4.8 C7.2,3.4752 6.1248,2.4 4.8,2.4 Z M27.2,2.4 C25.8752,2.4 24.8,3.4752 24.8,4.8 C24.8,6.1248 25.8752,7.2 27.2,7.2 C28.5248,7.2 29.6,6.1248 29.6,4.8 C29.6,3.4752 28.5248,2.4 27.2,2.4 Z"></path></clipPath><filter id="i46" x="-30.6451613%" y="-27.4193548%" filterUnits="userSpaceOnUse" width="138.709677%" height="138.709677%"><feGaussianBlur stdDeviation="2.5" in="SourceAlpha" result="i47"></feGaussianBlur><feOffset dx="0" dy="2" in="i47" result="i48"></feOffset><feColorMatrix values="0 0 0 0.0 0 0 0 0 0.0 0 0 0 0 0.0 0 0 0 0 0.1 0" type="matrix" in="i48"></feColorMatrix></filter><clipPath id="i49"><path d="M16,0 C20.1776,0 24.008,0.544 26.8352,1.472 C28.2432,1.92 29.4688,2.496 30.3664,3.184 C31.2496,3.856 32,4.8 32,6 L32,25.856 C32,27.056 31.2736,28.016 30.3904,28.72 C29.4944,29.44 28.2704,30.016 26.864,30.496 C24.0384,31.44 20.2032,32 16,32 C11.7968,32 7.9616,31.44 5.136,30.496 C3.7296,30.016 2.5056,29.44 1.6096,28.72 C0.7264,28.016 0,27.056 0,25.856 L0,6 C0,4.8 0.7504,3.856 1.6336,3.184 C2.5312,2.496 3.7568,1.92 5.1648,1.472 C7.992,0.544 11.8224,0 16,0 Z M29.6,18.944 C28.8208,19.408 27.888,19.808 26.8544,20.144 C24.032,21.056 20.2,21.6 16,21.6 C11.8,21.6 7.968,21.056 5.1456,20.144 C4.112,19.808 3.1792,19.408 2.4,18.944 L2.4,25.856 C2.4,26.016 2.496,26.368 3.1024,26.848 C3.696,27.312 4.632,27.792 5.8976,28.224 C8.416,29.056 11.9808,29.6 16,29.6 C20.0192,29.6 23.584,29.056 26.1024,28.224 C27.368,27.792 28.304,27.312 28.8976,26.848 C29.504,26.368 29.6,26.016 29.6,25.856 L29.6,18.944 Z M29.6,9.328 C28.816,9.792 27.8752,10.192 26.8352,10.528 C24.008,11.456 20.1776,12 16,12 C11.8224,12 7.992,11.456 5.1648,10.528 C4.1248,10.192 3.184,9.792 2.4,9.328 L2.4,15.6 C2.4,15.728 2.4784,16.048 3.0896,16.528 C3.6832,16.976 4.6192,17.44 5.888,17.856 C8.4096,18.672 11.9776,19.2 16,19.2 C20.0224,19.2 23.5904,18.672 26.112,17.856 C27.3808,17.44 28.3168,16.976 28.9104,16.528 C29.5216,16.048 29.6,15.728 29.6,15.6 L29.6,9.328 Z M16,2.4 C12.0032,2.4 8.4336,2.928 5.9056,3.744 C4.6336,4.16 3.6912,4.624 3.0928,5.088 C2.4768,5.552 2.4,5.872 2.4,6 C2.4,6.128 2.4768,6.448 3.0928,6.912 C3.6912,7.376 4.6336,7.84 5.9056,8.256 C8.4336,9.072 12.0032,9.6 16,9.6 C19.9968,9.6 23.5664,9.072 26.0944,8.256 C27.3664,7.84 28.3088,7.376 28.9072,6.912 C29.5232,6.448 29.6,6.128 29.6,6 C29.6,5.872 29.5232,5.552 28.9072,5.088 C28.3088,4.624 27.3664,4.16 26.0944,3.744 C23.5664,2.928 19.9968,2.4 16,2.4 Z"></path></clipPath><filter id="i50" x="-30.6451613%" y="-27.4193548%" filterUnits="userSpaceOnUse" width="138.709677%" height="138.709677%"><feGaussianBlur stdDeviation="2.5" in="SourceAlpha" result="i51"></feGaussianBlur><feOffset dx="0" dy="2" in="i51" result="i52"></feOffset><feColorMatrix values="0 0 0 0.0 0 0 0 0 0.0 0 0 0 0 0.0 0 0 0 0 0.1 0" type="matrix" in="i52"></feColorMatrix></filter><clipPath id="i53"><path d="M145,0 C147.761424,-5.07265313e-16 150,2.23857625 150,5 L150,265 C150,267.761424 147.761424,270 145,270 L5,270 C2.23857625,270 -5.50001544e-16,267.761424 0,265 L0,5 C-3.38176876e-16,2.23857625 2.23857625,-7.48634046e-15 5,0 L145,0 Z"></path></clipPath><clipPath id="i54"><path d="M2.78043333,0 L2.78043333,1.46348001 L0,1.46348001 L0,0.0160821979 C0.18226491,0.200134018 0.400268037,0.355595265 0.645074827,0.452088452 C0.880947063,0.548581639 1.13468841,0.591467501 1.38664284,0.591467501 C1.64038419,0.591467501 1.88340407,0.548581639 2.1192763,0.452088452 C2.34442707,0.357382176 2.55349564,0.226937681 2.72861291,0.0607549698 C2.74469511,0.0428858611 2.76256422,0.0178691088 2.78043333,0 Z"></path></clipPath><clipPath id="i55"><path d="M1.88260907,0.000988288879 C2.13635042,-0.00794626551 2.38830485,0.0438741499 2.61524253,0.149301892 C2.84218021,0.236860525 3.04231423,0.367305019 3.2174315,0.53348773 C3.3818273,0.699670442 3.52120635,0.89980446 3.61769953,1.11780759 C3.72312728,1.33581071 3.77494769,1.56989604 3.77494769,1.81470283 C3.77494769,2.05772271 3.72312728,2.29359495 3.61769953,2.52053263 C3.5301409,2.713519 3.41756552,2.88684936 3.26925191,3.04409751 C3.25316971,3.06196662 3.23530061,3.08698337 3.2174315,3.10485248 C3.03516659,3.26924828 2.83503257,3.39969278 2.60809489,3.49618597 C2.37222265,3.59267915 2.12741586,3.63556501 1.87546143,3.63556501 C1.62172008,3.63556501 1.36976565,3.59267915 1.13389341,3.49618597 C0.889086624,3.39254513 0.672870407,3.24423153 0.497753141,3.06017971 C0.349439539,2.90293155 0.227929599,2.72781429 0.140370966,2.52768027 C0.0438777784,2.30967714 0.000991917333,2.06665726 0.000991917333,1.82185047 C-0.00794263706,1.58776515 0.0438777784,1.34295836 0.140370966,1.12495523 C0.235077242,0.906952104 0.365521736,0.706818086 0.540639002,0.540635374 C0.898021178,0.201122307 1.37691329,0.00992284327 1.88260907,0.000988288879 Z"></path></clipPath><clipPath id="i56"><path d="M0.8541434,0.105494294 C1.10788474,6.65523088e-05 1.38664284,-0.0267371109 1.65646638,0.0268702155 C1.92628993,0.0804775418 2.17109672,0.210922036 2.36229618,0.4021215 C2.55349564,0.593320964 2.68394014,0.838127754 2.726826,1.09722983 C2.77864642,1.36705337 2.75362966,1.64759838 2.64820192,1.89955282 C2.54277418,2.15150725 2.36944382,2.36951038 2.14250614,2.51782398 C1.91556846,2.67507214 1.64574492,2.75369622 1.37592138,2.75369622 C1.00960465,2.75369622 0.661157025,2.61431717 0.400268037,2.35342818 C0.148313603,2.09253919 0,1.74409157 0,1.37777484 C0,1.1079513 0.087558633,0.838127754 0.235872236,0.611190073 C0.384185839,0.384252391 0.600402055,0.210922036 0.8541434,0.105494294 Z"></path></clipPath><clipPath id="i57"><path d="M0.8541434,0.105494294 C1.10788474,6.65523088e-05 1.38664284,-0.0267371109 1.65646638,0.0268702155 C1.92628993,0.0804775418 2.17109672,0.210922036 2.36229618,0.4021215 C2.55528256,0.593320964 2.68572705,0.838127754 2.73754746,1.1079513 C2.78936788,1.37777484 2.76435113,1.65831985 2.65892339,1.91027428 C2.55349564,2.16222871 2.38016529,2.38023184 2.14250614,2.51782398 C1.91556846,2.67507214 1.64574492,2.75369622 1.37592138,2.75369622 C1.00960465,2.75369622 0.661157025,2.61431717 0.400268037,2.35342818 C0.148313603,2.09253919 0,1.74409157 0,1.37777484 C0,1.1079513 0.087558633,0.838127754 0.235872236,0.611190073 C0.384185839,0.384252391 0.602188966,0.210922036 0.8541434,0.105494294 Z"></path></clipPath><clipPath id="i58"><path d="M2.88407416,0 L2.88407416,2.74648202 L0,2.74648202 L0,0 L2.88407416,0 Z"></path></clipPath><clipPath id="i59"><path d="M11.2789815,0 C14.3721242,0 16.882734,2.51060978 16.882734,5.60375251 C16.882734,8.69868215 14.3631896,11.2092919 11.2700469,11.2003574 L11.2432432,11.2003574 C11.3468841,11.4004914 11.4862631,11.5827563 11.6613804,11.7400045 C12.0795175,12.1313379 12.6549028,12.3493411 13.2481572,12.3493411 L13.2481572,15.0922493 C11.9830243,15.0922493 10.7643511,14.6651776 9.81371454,13.9075274 L9.81371454,15.4335493 L7.05115032,15.4335493 L7.05115032,13.9164619 C6.10051374,14.6741121 4.88005361,15.1011838 3.61670762,15.1011838 L3.61670762,12.3564887 C4.20996203,12.3493411 4.78534733,12.1313379 5.20348448,11.7471521 C5.37681483,11.5916909 5.51619388,11.407639 5.62162162,11.207505 L5.59481796,11.207505 C2.51060978,11.207505 0,8.69689524 0,5.60375251 C0,2.51060978 2.51060978,0 5.60375251,0 Z M11.26826,2.76256422 L5.59481796,2.76256422 C4.02591021,2.76256422 2.75362966,4.03484476 2.75362966,5.60375251 C2.75362966,7.17266026 4.02591021,8.44494081 5.59481796,8.44494081 L11.26826,8.44494081 C12.8371677,8.44494081 14.1094483,7.17266026 14.1094483,5.60375251 C14.1094483,4.03484476 12.8371677,2.76256422 11.26826,2.76256422 Z"></path></clipPath><clipPath id="i60"><path d="M2.88407416,0 L2.88407416,2.74648202 L0,2.74648202 L0,0 L2.88407416,0 Z"></path></clipPath><clipPath id="i61"><path d="M2.77149877,0 L2.77149877,2.91087782 L0,2.91087782 L0,0 L2.77149877,0 Z"></path></clipPath><clipPath id="i62"><path d="M0.816618271,0 L0.816618271,0.859504132 L0,0.859504132 L0,0 L0.816618271,0 Z"></path></clipPath><clipPath id="i63"><path d="M0.821979004,0 L0.821979004,1.37592138 L0,1.37592138 L0,1.27942819 C0.148313603,1.21152558 0.282331919,1.11860621 0.400268037,1.002457 C0.668304668,0.736207282 0.821979004,0.377038195 0.821979004,0 Z"></path></clipPath><clipPath id="i64"><path d="M0.852356489,0 L0.852356489,0.811257539 L0,0.811257539 L0,0 L0.852356489,0 Z"></path></clipPath><clipPath id="i65"><path d="M0.813044449,0 L0.813044449,0.813044449 L0,0.813044449 L0,0 L0.813044449,0 Z"></path></clipPath><clipPath id="i66"><path d="M0.821979004,0 L0.821979004,0.0964931874 C0.675452312,0.164395801 0.537860174,0.259102077 0.421710967,0.373464373 C0.153674335,0.639714094 0,0.998883181 0,1.37592138 L0,0 L0.821979004,0 Z"></path></clipPath><clipPath id="i67"><path d="M1.63144963,0 C1.93522448,0 2.2175564,0.0857717221 2.46236319,0.228724592 L2.46236319,0.0393120393 L3.27898146,0.0393120393 L3.27898146,3.73464373 L2.46236319,3.73464373 L2.46236319,3.03417467 C2.2175564,3.18070136 1.93522448,3.26289926 1.63144963,3.26289926 C0.73263346,3.26289926 0,2.5302658 0,1.63144963 C0,0.73263346 0.73263346,0 1.63144963,0 Z M1.63144963,0.809470628 C1.17757427,0.809470628 0.805896806,1.17936118 0.805896806,1.63502345 C0.805896806,2.08889882 1.17578736,2.46057628 1.63144963,2.46057628 C2.08711191,2.46057628 2.45700246,2.08889882 2.45700246,1.63502345 C2.45700246,1.18114809 2.08532499,0.809470628 1.63144963,0.809470628 Z"></path></clipPath><clipPath id="i68"><path d="M0.405430224,1.24065193e-06 L0.486039759,0.00787688489 C0.564663837,0.0239590828 0.637927183,0.0632711221 0.695108331,0.12045227 C0.75228948,0.175846507 0.791601519,0.249109853 0.805896806,0.327733932 C0.821979004,0.406358011 0.81483136,0.488555911 0.782666964,0.563606168 C0.750502569,0.636869514 0.698682153,0.699411395 0.632566451,0.745871077 C0.566450748,0.790543849 0.48782667,0.813773691 0.40741568,0.813773691 C0.298414117,0.813773691 0.194773286,0.772674741 0.117936118,0.695837573 C0.0428858611,0.619000405 0,0.513572663 0,0.406358011 C0,0.327733932 0.0214429305,0.247322943 0.0679026134,0.18120724 C0.110788474,0.113304627 0.175117266,0.0632711221 0.250167523,0.0311067263 C0.323430869,0.00072924138 0.405628769,-0.00820531301 0.486039759,0.00787688489 Z"></path></clipPath><clipPath id="i69"><path d="M0.836274291,0 L0.836274291,1.15970516 L1.80835381,1.15970516 L1.80835381,1.97632343 L0.836274291,1.97632343 L0.836274291,3.00737101 C0.836274291,3.16640608 0.902389993,3.32186732 1.02032611,3.43622962 C1.13647532,3.55059191 1.2972973,3.61492071 1.46348001,3.61492071 L1.46348001,4.42796516 C1.07393344,4.42796516 0.702255975,4.27786464 0.428858611,4.01340183 C0.155461246,3.7453652 0,3.38798302 0,3.01094483 L0,0 L0.836274291,0 Z"></path></clipPath><clipPath id="i70"><path d="M0.816618271,0 L0.816618271,0.132231405 C1.00424391,0.0464596828 1.20973866,0 1.41880724,0 L1.41880724,0.796962252 C1.25798526,0.796962252 1.10252401,0.859504132 0.988161715,0.972079518 C0.893455439,1.06321197 0.836274291,1.182935 0.816618271,1.30801876 L0.816618271,3.18070136 L0,3.18070136 L0,0 L0.816618271,0 Z"></path></clipPath><clipPath id="i71"><path d="M2.87871342,0 L2.87871342,1.8065669 C2.87871342,2.18181818 2.726826,2.54277418 2.45700246,2.8090239 C2.34085325,2.92517311 2.20504802,3.01987938 2.05852133,3.087782 C1.86732187,3.17712754 1.65646638,3.22537413 1.44025017,3.22537413 C1.05785124,3.22537413 0.69153451,3.07706053 0.421710967,2.81081081 C0.153674335,2.54456109 0,2.185392 0,1.80835381 L0,0.00178691088 L0.821979004,0.00178691088 L0.821979004,1.80835381 C0.821979004,1.96917579 0.886307795,2.12463703 1.002457,2.23899933 C1.11860621,2.35336163 1.27585437,2.41769042 1.44025017,2.41769042 C1.60464597,2.41769042 1.76189413,2.35336163 1.87804333,2.23899933 C1.99240563,2.12642394 2.05852133,1.9709627 2.05852133,1.80835381 L2.05673442,0 L2.87871342,0 Z"></path></clipPath><clipPath id="i72"><path d="M0.816618271,0 L0.816618271,2.9233862 L0,2.9233862 L0,0.00893455439 L0.0160821979,0.00893455439 C0.139379048,0.058968059 0.271610453,0.0839848113 0.403841858,0.0839848113 C0.537860174,0.0857717221 0.670091579,0.058968059 0.79338843,0.00893455439 L0.816618271,0 Z"></path></clipPath><clipPath id="i73"><path d="M0.557516194,0 C0.632566451,0 0.705829797,0.0160821979 0.77373241,0.0464596828 C0.839848113,0.0714764351 0.902389993,0.110788474 0.952423498,0.160821979 C1.00603082,0.212642394 1.04712977,0.271610453 1.07393344,0.332365423 C1.10431092,0.396694215 1.12039312,0.466383739 1.12039312,0.537860174 C1.12039312,0.609336609 1.10431092,0.680813044 1.07393344,0.746928747 C1.04712977,0.811257539 1.00603082,0.868438687 0.95599732,0.918472191 C0.904176904,0.966718785 0.841635023,1.00603082 0.775519321,1.03283449 C0.707616708,1.05963815 0.636140273,1.07393344 0.559303105,1.07393344 C0.482465937,1.07393344 0.40741568,1.05963815 0.339513067,1.03283449 C0.205494751,0.97744025 0.100067009,0.87558633 0.0428858611,0.745141836 C0.014295287,0.679026134 0,0.609336609 0,0.536073263 C0,0.464596828 0.0160821979,0.396694215 0.0428858611,0.330578512 C0.0696895242,0.266249721 0.110788474,0.209068573 0.160821979,0.159035068 C0.268036632,0.058968059 0.409202591,0.00178691088 0.557516194,0 Z"></path></clipPath><clipPath id="i74"><path d="M2.70761671,0 L2.70761671,0.813044449 L1.03328122,0.813044449 C0.977886978,0.813044449 0.926066562,0.832700469 0.886754523,0.872012508 C0.849229395,0.909537637 0.825999553,0.963144963 0.825999553,1.01496538 C0.825999553,1.04355595 0.831360286,1.07035962 0.842081751,1.09537637 C0.854590127,1.12039312 0.868885414,1.14362296 0.888541434,1.16327898 C0.906410543,1.18114809 0.929640384,1.19723029 0.954657136,1.20616484 C0.979673889,1.21688631 1.00826446,1.22224704 1.03506813,1.22224704 L1.89457226,1.22224704 C2.03037748,1.22046013 2.1643958,1.24547688 2.29305338,1.29372348 C2.41456332,1.33839625 2.52356489,1.40451195 2.62005807,1.48849676 C2.71476435,1.57426848 2.79338843,1.68327005 2.84342193,1.79941925 C2.89345544,1.91735537 2.9202591,2.04422604 2.91847219,2.17288363 C2.91847219,2.30868885 2.89166853,2.44449408 2.83627429,2.56957784 C2.78445388,2.68751396 2.70761671,2.79830243 2.61469734,2.8912218 C2.51999107,2.98235426 2.40920259,3.0556176 2.28769265,3.10743802 C2.16082198,3.15747152 2.02322984,3.18248827 1.88385079,3.18070136 L0.845655573,3.18070136 L0.845655573,2.37123073 L1.88385079,2.37123073 C1.91244137,2.37123073 1.93924503,2.36587 1.96426178,2.35514854 C1.98927853,2.34264016 2.01250838,2.32834487 2.03037748,2.30868885 C2.0500335,2.29081975 2.0661157,2.2675899 2.07683717,2.24436006 C2.08755863,2.22113022 2.09470628,2.19432656 2.09470628,2.16930981 C2.10006701,2.14607996 2.09470628,2.12285012 2.08398481,2.1031941 C2.07147644,2.08175117 2.05539424,2.06566897 2.03573822,2.05494751 C1.98927853,2.03529149 1.93924503,2.02635694 1.88921153,2.02814385 L1.02970739,2.02814385 C0.892115256,2.02814385 0.756310029,2.00312709 0.627652446,1.94773286 C0.506142506,1.89769935 0.393567121,1.82443601 0.300647755,1.73151664 C0.20772839,1.63859727 0.130891222,1.52959571 0.0790708063,1.40808577 C-0.0263569354,1.15434443 -0.0263569354,0.870225597 0.0790708063,0.616484253 C0.130891222,0.494974313 0.20772839,0.38775966 0.300647755,0.294840295 C0.497207952,0.107214653 0.759883851,0 1.03328122,0 L2.70761671,0 Z"></path></clipPath><clipPath id="i75"><path d="M0.832700469,0 L0.832700469,1.15970516 L1.84766585,1.15970516 L1.84766585,1.97632343 L0.832700469,1.97632343 L0.832700469,3.00737101 C0.832700469,3.16640608 0.898816172,3.32186732 1.01675229,3.43622962 C1.1329015,3.55059191 1.29372348,3.61313379 1.46348001,3.61492071 L1.46348001,4.42796516 C1.07393344,4.42796516 0.702255975,4.27786464 0.428858611,4.01340183 C0.155461246,3.7453652 0,3.38798302 0,3.01094483 L0,0 L0.832700469,0 Z"></path></clipPath><clipPath id="i76"><path d="M1.43846326,0 C1.82086218,0.00178691088 2.18717891,0.150100514 2.45878937,0.416350235 C2.726826,0.682599955 2.88050034,1.04176904 2.88050034,1.41880724 L2.88050034,3.22537413 L2.05852133,3.22537413 L2.05852133,1.41880724 C2.05852133,1.25798526 1.99419254,1.10252401 1.87804333,0.988161715 C1.76189413,0.873799419 1.60464597,0.809470628 1.44025017,0.809470628 C1.27585437,0.809470628 1.11860621,0.873799419 1.002457,0.988161715 C0.888094706,1.1007371 0.821979004,1.25619835 0.821979004,1.41880724 L0.821979004,3.22537413 L0,3.22537413 L0,1.41880724 C0,1.04355595 0.151887425,0.682599955 0.421710967,0.416350235 C0.537860174,0.300201027 0.673665401,0.205494751 0.820192093,0.137592138 C1.01139156,0.0482465937 1.22224704,0 1.43846326,0 Z"></path></clipPath><clipPath id="i77"><path d="M105,0 C107.761424,-5.07265313e-16 110,2.23857625 110,5 L110,194 C110,196.761424 107.761424,199 105,199 L5,199 C2.23857625,199 2.11453371e-15,196.761424 0,194 L0,5 C-3.38176876e-16,2.23857625 2.23857625,5.07265313e-16 5,0 L105,0 Z"></path></clipPath><linearGradient id="i78" x1="55px" y1="0px" x2="55px" y2="199px" gradientUnits="userSpaceOnUse"><stop stop-color="#F2F2F3" offset="0%"></stop><stop stop-color="#DBDBDC" offset="100%"></stop></linearGradient><filter id="i79" x="-30.6451613%" y="-27.4193548%" filterUnits="userSpaceOnUse" width="138.709677%" height="138.709677%"><feGaussianBlur stdDeviation="2.5" in="SourceAlpha" result="i80"></feGaussianBlur><feOffset dx="0" dy="2" in="i80" result="i81"></feOffset><feColorMatrix values="0 0 0 0.0 0 0 0 0 0.0 0 0 0 0 0.0 0 0 0 0 0.1 0" type="matrix" in="i81"></feColorMatrix></filter><clipPath id="i82"><path d="M8.88888889,0 C13.7973333,0 17.7777778,3.98222222 17.7777778,8.88888889 C17.7777778,13.7955556 13.7973333,17.7777778 8.88888889,17.7777778 C3.98044444,17.7777778 0,13.7955556 0,8.88888889 C0,3.98222222 3.98044444,0 8.88888889,0 Z M8.88888889,2.66666667 C5.45244444,2.66666667 2.66666667,5.45777778 2.66666667,8.88888889 C2.66666667,12.32 5.45244444,15.1111111 8.88888889,15.1111111 C12.3253333,15.1111111 15.1111111,12.32 15.1111111,8.88888889 C15.1111111,5.45777778 12.3253333,2.66666667 8.88888889,2.66666667 Z"></path></clipPath><clipPath id="i83"><path d="M23.5555556,0 C28.2186667,0 32,3.78666667 32,8.44444444 L32,10.2222222 C32,10.9511111 31.4026667,11.5555556 30.6666667,11.5555556 C29.9306667,11.5555556 29.3333333,10.9511111 29.3333333,10.2222222 L29.3333333,8.44444444 C29.3333333,5.26222222 26.7466667,2.66666667 23.5555556,2.66666667 L8.44444444,2.66666667 C5.25333333,2.66666667 2.66666667,5.26222222 2.66666667,8.44444444 L2.66666667,10.2222222 C2.66666667,10.9511111 2.06933333,11.5555556 1.33333333,11.5555556 C0.597333333,11.5555556 0,10.9511111 0,10.2222222 L0,8.44444444 C0,3.78666667 3.78133333,0 8.44444444,0 Z"></path></clipPath><filter id="i84" x="-30.6451613%" y="-27.4193548%" filterUnits="userSpaceOnUse" width="138.709677%" height="138.709677%"><feGaussianBlur stdDeviation="2.5" in="SourceAlpha" result="i85"></feGaussianBlur><feOffset dx="0" dy="2" in="i85" result="i86"></feOffset><feColorMatrix values="0 0 0 0.0 0 0 0 0 0.0 0 0 0 0 0.0 0 0 0 0 0.1 0" type="matrix" in="i86"></feColorMatrix></filter><clipPath id="i87"><path d="M1.78934235,0.248238141 L8.3347969,5.7027836 C8.58352417,5.92096541 8.72723326,6.22641996 8.72723326,6.54641996 C8.72723326,6.86641996 8.58352417,7.17187451 8.3347969,7.39005632 L1.78934235,12.8446018 C1.32636053,13.2227836 0.638505988,13.1646018 0.252905988,12.6991472 C-0.132839466,12.2336927 -0.0702940117,11.5500563 0.392542352,11.1573291 L5.93232417,6.54641996 L0.392542352,1.93551087 C-0.0702940117,1.5427836 -0.132839466,0.859147232 0.252905988,0.393692687 C0.638505988,-0.0717618586 1.32636053,-0.129943677 1.78934235,0.248238141 Z"></path></clipPath><clipPath id="i88"><path d="M9.09090909,0 C9.69338182,0 10.1818182,0.494545455 10.1818182,1.09090909 C10.1818182,1.68727273 9.69338182,2.18181818 9.09090909,2.18181818 L1.09090909,2.18181818 C0.488436364,2.18181818 0,1.68727273 0,1.09090909 C0,0.494545455 0.488436364,0 1.09090909,0 Z"></path></clipPath><clipPath id="i89"><path d="M28,0 C30.2091636,0 32,1.78909091 32,4 L32,25.0909091 C32,27.3018182 30.2091636,29.0909091 28,29.0909091 L4,29.0909091 C1.79083636,29.0909091 0,27.3018182 0,25.0909091 L0,4 C0,1.78909091 1.79083636,0 4,0 L28,0 Z M28,2.18181818 L4,2.18181818 C2.99578182,2.18181818 2.18181818,2.99636364 2.18181818,4 L2.18181818,25.0909091 C2.18181818,26.0945455 2.99578182,26.9090909 4,26.9090909 L28,26.9090909 C29.0042182,26.9090909 29.8181818,26.0945455 29.8181818,25.0909091 L29.8181818,4 C29.8181818,2.99636364 29.0042182,2.18181818 28,2.18181818 Z"></path></clipPath><clipPath id="i90"><path d="M32,0 L15.9424,31.0312727 L0,0 L32,0 Z M17.2714182,13.5869091 L14.7314909,13.5869091 L14.7314909,16.1265455 L17.2714182,16.1265455 L17.2714182,13.5869091 Z M13.4631273,9.77890909 L10.9232,9.77890909 L10.9232,12.3185455 L13.4631273,12.3185455 L13.4631273,9.77890909 Z M17.2714182,9.77890909 L14.7314909,9.77890909 L14.7314909,12.3185455 L17.2714182,12.3185455 L17.2714182,9.77890909 Z M21.0594909,9.77890909 L18.5197091,9.77890909 L18.5197091,12.3185455 L21.0594909,12.3185455 L21.0594909,9.77890909 Z M13.4631273,5.97090909 L10.9232,5.97090909 L10.9232,8.50763636 L13.4631273,8.50763636 L13.4631273,5.97090909 Z M17.2714182,5.97090909 L14.7314909,5.97090909 L14.7314909,8.50763636 L17.2714182,8.50763636 L17.2714182,5.97090909 Z M21.0594909,5.97090909 L18.5197091,5.97090909 L18.5197091,8.50763636 L21.0594909,8.50763636 L21.0594909,5.97090909 Z"></path></clipPath></defs><g clip-path="url(#i0)"><g transform="translate(640.0 10.0)"><g clip-path="url(#i1)"><polygon points="0,0 200,0 200,340 0,340 0,0" stroke="none" fill="#FFFFFF"></polygon><path d="M5,0 L195,0 C197.761424,-5.07265313e-16 200,2.23857625 200,5 L200,335 C200,337.761424 197.761424,340 195,340 L5,340 C2.23857625,340 4.77906897e-15,337.761424 0,335 L0,5 C-3.38176876e-16,2.23857625 2.23857625,1.39544373e-15 5,0 Z" stroke="#CCCCCC" stroke-width="3" fill="none" stroke-miterlimit="5"></path></g><g transform="translate(20.0 10.0)"><g transform="translate(2.0 1.333333333333334)"><g clip-path="url(#i2)"><polygon points="0,0 8.46841905,0 8.46841905,18.3029841 0,18.3029841 0,0" stroke="none" fill="#000001"></polygon></g><g transform="translate(5.285688888888897 0.0)"><g clip-path="url(#i3)"><polygon points="0,0 9.74425397,0 9.74425397,21.3292698 0,21.3292698 0,0" stroke="none" fill="#000001"></polygon></g></g><g transform="translate(11.84883809523811 3.030349206349152)"><g clip-path="url(#i4)"><polygon points="0,0 8.46841905,0 8.46841905,18.3029841 0,18.3029841 0,0" stroke="none" fill="#000001"></polygon></g></g></g></g></g><g transform="translate(660.0 60.0)"><path d="M155,-2 C156.932997,-2 158.682997,-1.21649831 159.949747,0.0502525317 C161.216498,1.31700338 162,3.06700338 162,5 L162,263 C162,264.932997 161.216498,266.682997 159.949747,267.949747 C158.682997,269.216498 156.932997,270 155,270 L5,270 C3.06700338,270 1.31700338,269.216498 0.0502525317,267.949747 C-1.21649831,266.682997 -2,264.932997 -2,263 L-2,5 C-2,3.06700338 -1.21649831,1.31700338 0.0502525317,0.0502525317 C1.31700338,-1.21649831 3.06700338,-2 5,-2 Z" stroke="none" fill="#000000" filter="url(#i5)"></path><g clip-path="url(#i8)"><polygon points="0,0 160,0 160,268 0,268 0,0" stroke="none" fill="#FFFFFF"></polygon></g></g><g transform="translate(695.0 84.0)"><g transform="translate(1.0 126.0)"><g clip-path="url(#i9)"><polygon points="0,0 90,0 90,96.3380282 0,96.3380282 0,0" stroke="none" fill="url(#i10)"></polygon></g></g><g transform="translate(73.0 45.0)"><path d="M8,0 L35,0 C37.7614237,-5.07265313e-16 40,2.23857625 40,5 L40,131 C40,133.761424 37.7614237,136 35,136 L0,136 L0,136" stroke="#000000" stroke-width="2" fill="none" stroke-linecap="round" stroke-miterlimit="10"></path></g><g transform="translate(9.0 9.0)"><g clip-path="url(#i11)"><polygon points="0,0 72,0 72,72 0,72 0,0" stroke="none" fill="url(#i12)"></polygon></g></g><g transform="translate(18.0 18.0)"><g transform="translate(7.5 3.0)"><g clip-path="url(#i13)"><polygon points="0,0 39.27264,0 39.27264,48 0,48 0,0" stroke="none" fill="#FFFFFF"></polygon></g><g transform="translate(3.9717599999999953 38.236799999999974)"><g clip-path="url(#i14)"><polygon points="0,0 3.7344,0 3.7344,3.744 0,3.744 0,0" stroke="none" fill="#FFFFFF"></polygon></g></g><g transform="translate(0.0 44.25119999999998)"><g clip-path="url(#i15)"><polygon points="0,0 3.73416,0 3.73416,3.744 0,3.744 0,0" stroke="none" fill="#FFFFFF"></polygon></g></g></g></g></g><g transform="translate(180.0 80.0)"><g clip-path="url(#i16)"><polygon points="0,0 440,0 440,270 0,270 0,0" stroke="none" fill="#FFFFFF"></polygon><path d="M5,0 L435,0 C437.761424,-5.07265313e-16 440,2.23857625 440,5 L440,265 C440,267.761424 437.761424,270 435,270 L5,270 C2.23857625,270 -3.2145368e-15,267.761424 0,265 L0,5 C-3.38176876e-16,2.23857625 2.23857625,-7.48634046e-15 5,0 Z" stroke="#F5C163" stroke-width="3" fill="none" stroke-miterlimit="5"></path></g><g transform="translate(20.0 10.0)"><g transform="translate(2.0 8.0)"><g transform="translate(1.3239316752867385 0.0)"><g clip-path="url(#i17)"><polygon points="0,0 29.3522479,0 29.3522479,10.0088102 0,10.0088102 0,0" stroke="none" fill="#252F3E"></polygon></g></g><g transform="translate(0.0 11.93532798832955)"><g transform="translate(-1.5631940186722204e-13 0.6334679268627021)"><g clip-path="url(#i18)"><polygon points="-3.26405569e-14,2.99760217e-15 29.1850073,2.99760217e-15 29.1850073,6.57635274 -3.26405569e-14,6.57635274 -3.26405569e-14,2.99760217e-15" stroke="none" fill="#FF9900"></polygon></g></g><g transform="translate(26.00298634254657 0.0)"><g clip-path="url(#i19)"><polygon points="3.61932706e-14,1.04360964e-14 5.99701366,1.04360964e-14 5.99701366,5.9112731 3.61932706e-14,5.9112731 3.61932706e-14,1.04360964e-14" stroke="none" fill="#FF9900"></polygon></g></g></g></g></g></g><g transform="translate(300.0 130.0)"><g clip-path="url(#i20)"><polygon points="0,0 90,0 90,200 0,200 0,0" stroke="none" fill="url(#i21)"></polygon></g></g><g transform="translate(200.0 130.0)"><g clip-path="url(#i20)"><polygon points="0,0 90,0 90,200 0,200 0,0" stroke="none" fill="url(#i22)"></polygon></g></g><g transform="translate(400.0 130.0)"><g clip-path="url(#i23)"><polygon points="0,0 200,0 200,200 0,200 0,0" stroke="none" fill="url(#i24)"></polygon></g></g><g transform="translate(510.0 131.0)"><g clip-path="url(#i25)"><polygon points="0,0 90,0 90,90 0,90 0,0" stroke="none" fill="url(#i26)"></polygon><path d="M5,0 L85,0 C87.7614237,-5.07265313e-16 90,2.23857625 90,5 L90,85 C90,87.7614237 87.7614237,90 85,90 L5,90 C2.23857625,90 2.11453371e-15,87.7614237 0,85 L0,5 C-3.38176876e-16,2.23857625 2.23857625,2.28362215e-15 5,0 Z" stroke="#1C1D1F" stroke-width="4" fill="none" stroke-miterlimit="5"></path></g></g><g transform="translate(244.5 220.0)"><path d="M0.5,0 L0.5,20" stroke="#000000" stroke-width="2" fill="none" stroke-linecap="round" stroke-miterlimit="10"></path></g><g transform="translate(269.0390625 200.0)"><path d="M0,0 L20.9609375,0 C23.7223612,-5.07265313e-16 25.9609375,2.23857625 25.9609375,5 L25.9609375,25 C25.9609375,27.7614237 28.1995138,30 30.9609375,30 L51.8489583,30 L51.8489583,30" stroke="#000000" stroke-width="2" fill="none" stroke-linecap="round" stroke-miterlimit="10"></path></g><g transform="translate(270.0390625 254.5703045035825)"><path d="M0,10.4296955 L70.9609375,10.4296955 C73.7223612,10.4296955 75.9609375,8.19111925 75.9609375,5.4296955 L75.9609375,0 L75.9609375,0" stroke="#B6B8C2" stroke-width="2" fill="none" stroke-linecap="round" stroke-miterlimit="10" stroke-dasharray=" 5.0 5.0"></path></g><g transform="translate(369.0 230.0)"><path d="M0,0 L20.9609375,0 C23.7223612,-5.07265313e-16 25.9609375,2.23857625 25.9609375,5 L25.9609375,50 C25.9609375,52.7614237 28.1995138,55 30.9609375,55 L51.8489583,55 L51.8489583,55" stroke="#000000" stroke-width="2" fill="none" stroke-linecap="round" stroke-miterlimit="10"></path></g><g transform="translate(469.0390625000001 175.5)"><path d="M0,0.5 L60.9609375,0.5" stroke="#000000" stroke-width="2" fill="none" stroke-linecap="round" stroke-miterlimit="10"></path></g><g transform="translate(468.0390625000001 284.5)"><path d="M0,0.5 L61.9609375,0.5" stroke="#000000" stroke-width="2" fill="none" stroke-linecap="round" stroke-miterlimit="10"></path></g><g transform="translate(369.0 230.0) scale(1.0 -1.0)"><path d="M0,0 L20.9609375,0 C23.7223612,-5.07265313e-16 25.9609375,2.23857625 25.9609375,5 L25.9609375,48 C25.9609375,50.7614237 28.1995138,53 30.9609375,53 L51.8489583,53 L51.8489583,53" stroke="#000000" stroke-width="2" fill="none" stroke-linecap="round" stroke-miterlimit="10"></path></g><g transform="translate(215.0 148.0)"><g transform="translate(0.0 17.0)"><g transform="translate(6.0 6.0)"><path d="M46,-2 C47.1045695,-2 48.1045695,-1.55228475 48.8284271,-0.828427125 C49.5522847,-0.1045695 50,0.8954305 50,2 L50,46 C50,47.1045695 49.5522847,48.1045695 48.8284271,48.8284271 C48.1045695,49.5522847 47.1045695,50 46,50 L2,50 C0.8954305,50 -0.1045695,49.5522847 -0.828427125,48.8284271 C-1.55228475,48.1045695 -2,47.1045695 -2,46 L-2,2 C-2,0.8954305 -1.55228475,-0.1045695 -0.828427125,-0.828427125 C-0.1045695,-1.55228475 0.8954305,-2 2,-2 Z" stroke="none" fill="#000000" filter="url(#i27)"></path><g clip-path="url(#i30)"><polygon points="0,0 48,0 48,48 0,48 0,0" stroke="none" fill="#FFFFFF"></polygon></g></g></g><g transform="translate(12.0 30.0)"><g transform="translate(2.0 2.0)"><g clip-path="url(#i31)"><polygon points="0,0 32,0 32,32 0,32 0,0" stroke="none" fill="#212121"></polygon></g></g></g><g transform="translate(5.0 0.0)"><text transform="translate(12.9438671875 11.0)" font-family="Roboto-Medium, Roboto" font-size="12.0" font-weight="400" fill="#212121" text-anchor="center" letter-spacing="0.18">Web</text></g></g><g transform="translate(215.0 235.0)"><g transform="translate(6.0 6.0)"><path d="M46,-2 C47.1045695,-2 48.1045695,-1.55228475 48.8284271,-0.828427125 C49.5522847,-0.1045695 50,0.8954305 50,2 L50,46 C50,47.1045695 49.5522847,48.1045695 48.8284271,48.8284271 C48.1045695,49.5522847 47.1045695,50 46,50 L2,50 C0.8954305,50 -0.1045695,49.5522847 -0.828427125,48.8284271 C-1.55228475,48.1045695 -2,47.1045695 -2,46 L-2,2 C-2,0.8954305 -1.55228475,-0.1045695 -0.828427125,-0.828427125 C-0.1045695,-1.55228475 0.8954305,-2 2,-2 Z" stroke="none" fill="#000000" filter="url(#i32)"></path><g clip-path="url(#i30)"><polygon points="0,0 48,0 48,48 0,48 0,0" stroke="none" fill="#FFFFFF"></polygon></g></g><g transform="translate(12.0 12.0)"><g transform="translate(2.0 2.0)"><g clip-path="url(#i35)"><polygon points="0,5.55111512e-17 32,5.55111512e-17 32,32 0,32 0,5.55111512e-17" stroke="none" fill="#212121"></polygon></g></g></g><g transform="translate(5.0 63.0)"><text transform="translate(0.36496093750000114 11.0)" font-family="Roboto-Medium, Roboto" font-size="12.0" font-weight="400" fill="#212121" text-anchor="center" letter-spacing="0.18">Frontend</text></g></g><g transform="translate(410.0 145.0)"><g transform="translate(5.0 0.0)"><g transform="translate(6.0 6.0)"><path d="M46,-2 C47.1045695,-2 48.1045695,-1.55228475 48.8284271,-0.828427125 C49.5522847,-0.1045695 50,0.8954305 50,2 L50,46 C50,47.1045695 49.5522847,48.1045695 48.8284271,48.8284271 C48.1045695,49.5522847 47.1045695,50 46,50 L2,50 C0.8954305,50 -0.1045695,49.5522847 -0.828427125,48.8284271 C-1.55228475,48.1045695 -2,47.1045695 -2,46 L-2,2 C-2,0.8954305 -1.55228475,-0.1045695 -0.828427125,-0.828427125 C-0.1045695,-1.55228475 0.8954305,-2 2,-2 Z" stroke="none" fill="#000000" filter="url(#i36)"></path><g clip-path="url(#i30)"><polygon points="0,0 48,0 48,48 0,48 0,0" stroke="none" fill="#FFFFFF"></polygon></g></g></g><g transform="translate(17.0 13.0)"><g transform="translate(2.0 2.0)"><g clip-path="url(#i35)"><polygon points="0,5.55111512e-17 32,5.55111512e-17 32,32 0,32 0,5.55111512e-17" stroke="none" fill="#212121"></polygon></g></g></g><g transform="translate(0.0 59.0)"><text transform="translate(1.8830468749999625 11.0)" font-family="Roboto-Medium, Roboto" font-size="12.0" font-weight="400" fill="#212121" text-anchor="center" letter-spacing="0.18">Product API</text></g></g><g transform="translate(410.0 243.0)"><g transform="translate(5.0 12.0)"><g transform="translate(6.0 6.0)"><path d="M46,-2 C47.1045695,-2 48.1045695,-1.55228475 48.8284271,-0.828427125 C49.5522847,-0.1045695 50,0.8954305 50,2 L50,46 C50,47.1045695 49.5522847,48.1045695 48.8284271,48.8284271 C48.1045695,49.5522847 47.1045695,50 46,50 L2,50 C0.8954305,50 -0.1045695,49.5522847 -0.828427125,48.8284271 C-1.55228475,48.1045695 -2,47.1045695 -2,46 L-2,2 C-2,0.8954305 -1.55228475,-0.1045695 -0.828427125,-0.828427125 C-0.1045695,-1.55228475 0.8954305,-2 2,-2 Z" stroke="none" fill="#000000" filter="url(#i39)"></path><g clip-path="url(#i30)"><polygon points="0,0 48,0 48,48 0,48 0,0" stroke="none" fill="#FFFFFF"></polygon></g></g></g><g transform="translate(17.0 24.0)"><g transform="translate(2.0 2.0)"><g clip-path="url(#i35)"><polygon points="0,5.55111512e-17 32,5.55111512e-17 32,32 0,32 0,5.55111512e-17" stroke="none" fill="#212121"></polygon></g></g></g><text transform="translate(7.485078125000001 11.0)" font-family="Roboto-Medium, Roboto" font-size="12.0" font-weight="400" fill="#212121" text-anchor="center" letter-spacing="0.18">Payments</text></g><g transform="translate(310.0 186.0)"><g transform="translate(5.0 14.0)"><g transform="translate(6.0 6.0)"><path d="M46,-2 C47.1045695,-2 48.1045695,-1.55228475 48.8284271,-0.828427125 C49.5522847,-0.1045695 50,0.8954305 50,2 L50,46 C50,47.1045695 49.5522847,48.1045695 48.8284271,48.8284271 C48.1045695,49.5522847 47.1045695,50 46,50 L2,50 C0.8954305,50 -0.1045695,49.5522847 -0.828427125,48.8284271 C-1.55228475,48.1045695 -2,47.1045695 -2,46 L-2,2 C-2,0.8954305 -1.55228475,-0.1045695 -0.828427125,-0.828427125 C-0.1045695,-1.55228475 0.8954305,-2 2,-2 Z" stroke="none" fill="#000000" filter="url(#i42)"></path><g clip-path="url(#i30)"><polygon points="0,0 48,0 48,48 0,48 0,0" stroke="none" fill="#FFFFFF"></polygon></g></g></g><g transform="translate(17.0 26.0)"><g transform="translate(2.0 2.0)"><g clip-path="url(#i45)"><polygon points="0,0 32,0 32,32 0,32 0,0" stroke="none" fill="#212121"></polygon></g></g></g><text transform="translate(6.332421875000001 11.0)" font-family="Roboto-Medium, Roboto" font-size="12.0" font-weight="400" fill="#212121" text-anchor="center" letter-spacing="0.18">Public API</text></g><g transform="translate(520.0 146.0)"><g transform="translate(5.0 0.0)"><g transform="translate(6.0 6.0)"><path d="M46,-2 C47.1045695,-2 48.1045695,-1.55228475 48.8284271,-0.828427125 C49.5522847,-0.1045695 50,0.8954305 50,2 L50,46 C50,47.1045695 49.5522847,48.1045695 48.8284271,48.8284271 C48.1045695,49.5522847 47.1045695,50 46,50 L2,50 C0.8954305,50 -0.1045695,49.5522847 -0.828427125,48.8284271 C-1.55228475,48.1045695 -2,47.1045695 -2,46 L-2,2 C-2,0.8954305 -1.55228475,-0.1045695 -0.828427125,-0.828427125 C-0.1045695,-1.55228475 0.8954305,-2 2,-2 Z" stroke="none" fill="#000000" filter="url(#i46)"></path><g clip-path="url(#i30)"><polygon points="0,0 48,0 48,48 0,48 0,0" stroke="none" fill="#FFFFFF"></polygon></g></g></g><g transform="translate(17.0 12.0)"><g transform="translate(2.0 2.0)"><g clip-path="url(#i49)"><polygon points="0,0 32,0 32,32 0,32 0,0" stroke="none" fill="#212121"></polygon></g></g></g><g transform="translate(0.0 58.0)"><text transform="translate(10.203828125000001 11.0)" font-family="Roboto-Medium, Roboto" font-size="12.0" font-weight="400" fill="#212121" text-anchor="center" letter-spacing="0.18">Postgres</text></g></g><g transform="translate(520.0 243.0)"><g transform="translate(5.0 12.0)"><g transform="translate(6.0 6.0)"><path d="M46,-2 C47.1045695,-2 48.1045695,-1.55228475 48.8284271,-0.828427125 C49.5522847,-0.1045695 50,0.8954305 50,2 L50,46 C50,47.1045695 49.5522847,48.1045695 48.8284271,48.8284271 C48.1045695,49.5522847 47.1045695,50 46,50 L2,50 C0.8954305,50 -0.1045695,49.5522847 -0.828427125,48.8284271 C-1.55228475,48.1045695 -2,47.1045695 -2,46 L-2,2 C-2,0.8954305 -1.55228475,-0.1045695 -0.828427125,-0.828427125 C-0.1045695,-1.55228475 0.8954305,-2 2,-2 Z" stroke="none" fill="#000000" filter="url(#i50)"></path><g clip-path="url(#i30)"><polygon points="0,0 48,0 48,48 0,48 0,0" stroke="none" fill="#FFFFFF"></polygon></g></g></g><g transform="translate(17.0 24.0)"><g transform="translate(2.0 2.0)"><g clip-path="url(#i49)"><polygon points="0,0 32,0 32,32 0,32 0,0" stroke="none" fill="#212121"></polygon></g></g></g><text transform="translate(18.17890625 11.0)" font-family="Roboto-Medium, Roboto" font-size="12.0" font-weight="400" fill="#212121" text-anchor="center" letter-spacing="0.18">REDIS</text></g><g transform="translate(10.0 80.0)"><g clip-path="url(#i53)"><polygon points="0,0 150,0 150,270 0,270 0,0" stroke="none" fill="#FFFFFF"></polygon><path d="M5,0 L145,0 C147.761424,-5.07265313e-16 150,2.23857625 150,5 L150,265 C150,267.761424 147.761424,270 145,270 L5,270 C2.23857625,270 -5.50001544e-16,267.761424 0,265 L0,5 C-3.38176876e-16,2.23857625 2.23857625,-7.48634046e-15 5,0 Z" stroke="#CCCCCC" stroke-width="3" fill="none" stroke-miterlimit="5"></path></g><g transform="translate(10.0 10.0)"><g transform="translate(9.55863301317847 2.803121606139495)"><g transform="translate(7.051150323877594 3.044097513806874)"><g clip-path="url(#i54)"><polygon points="0,0 2.78043333,0 2.78043333,1.46348001 0,1.46348001 0,0" stroke="none" fill="#A07CB8"></polygon></g></g><g transform="translate(6.5533971825104365 0.0)"><g clip-path="url(#i55)"><polygon points="-1.2490009e-15,0 3.77494769,0 3.77494769,3.63556501 -1.2490009e-15,3.63556501 -1.2490009e-15,0" stroke="none" fill="#181849"></polygon></g></g><g transform="translate(4.218896582532944 8.733555196476857)"><g clip-path="url(#i56)"><polygon points="0,-5.75928194e-16 2.75290204,-5.75928194e-16 2.75290204,2.75369622 0,2.75369622 0,-5.75928194e-16" stroke="none" fill="#181849"></polygon></g></g><g transform="translate(9.892338619611351 8.733555196476857)"><g clip-path="url(#i57)"><polygon points="0,-5.75928194e-16 2.76362351,-5.75928194e-16 2.76362351,2.75369622 0,2.75369622 0,-5.75928194e-16" stroke="none" fill="#181849"></polygon></g></g><g transform="translate(0.7326334599061848 16.85691859935523)"><g clip-path="url(#i58)"><polygon points="0,0 2.88407416,0 2.88407416,2.74648202 0,2.74648202 0,0" stroke="none" fill="#EF539E"></polygon></g></g><g transform="translate(0.0 4.507577522741427)"><g clip-path="url(#i59)"><polygon points="0,0 16.882734,0 16.882734,15.4335493 0,15.4335493 0,0" stroke="none" fill="#181849"></polygon></g></g><g transform="translate(13.25709180254634 16.85691859935523)"><g clip-path="url(#i60)"><polygon points="0,0 2.88407416,0 2.88407416,2.74648202 0,2.74648202 0,0" stroke="none" fill="#58C9E9"></polygon></g></g><g transform="translate(7.0511503238775965 19.93397913096122)"><g clip-path="url(#i61)"><polygon points="0,0 2.77149877,0 2.77149877,2.91087782 0,2.91087782 0,0" stroke="none" fill="#F78F2E"></polygon></g></g></g><g transform="translate(7.103417467053847 27.42952870225596)"><g transform="translate(18.18896582532946 4.905070359615813)"><g clip-path="url(#i62)"><polygon points="0,0 0.816618271,0 0.816618271,0.859504132 0,0.859504132 0,0" stroke="none" fill="#F78F2E"></polygon></g></g><g transform="translate(14.48469957560867 3.014518650882288)"><g clip-path="url(#i63)"><polygon points="0,0 0.821979004,0 0.821979004,1.37592138 0,1.37592138 0,0" stroke="none" fill="#A07CB8"></polygon></g></g><g transform="translate(4.989055170873351 3.5773955773955795)"><g clip-path="url(#i64)"><polygon points="0,0 0.852356489,0 0.852356489,0.811257539 0,0.811257539 0,0" stroke="none" fill="#EF539E"></polygon></g></g><g transform="translate(20.98190752736207 3.664954210408755)"><g clip-path="url(#i65)"><polygon points="0,0 0.813044449,0 0.813044449,0.813044449 0,0.813044449 0,0" stroke="none" fill="#58C9E9"></polygon></g></g><g transform="translate(1.635023453205271 1.206164842528479)"><g clip-path="url(#i66)"><polygon points="0,0 0.821979004,0 0.821979004,1.37592138 0,1.37592138 0,0" stroke="none" fill="#A07CB8"></polygon></g></g><g transform="translate(15.726602635693538 1.165065892338622)"><g clip-path="url(#i67)"><polygon points="0,0 3.27898146,0 3.27898146,3.73464373 0,3.73464373 0,0" stroke="none" fill="#181849"></polygon></g></g><g transform="translate(16.95242349787804 2.3901575131431896)"><g clip-path="url(#i68)"><polygon points="0,1.13103971e-15 0.814174504,1.13103971e-15 0.814174504,0.813773691 0,0.813773691 0,1.13103971e-15" stroke="none" fill="#181849"></polygon></g></g><g transform="translate(8.344873799419254 0.04824659370113604)"><g clip-path="url(#i69)"><polygon points="0,0 1.80835381,0 1.80835381,4.42796516 0,4.42796516 0,0" stroke="none" fill="#181849"></polygon></g></g><g transform="translate(10.57851239669421 1.2061648425284792)"><g clip-path="url(#i70)"><polygon points="0,0 1.41880724,0 1.41880724,3.18070136 0,3.18070136 0,0" stroke="none" fill="#181849"></polygon></g></g><g transform="translate(12.42617824436006 1.206164842528479)"><g clip-path="url(#i71)"><polygon points="0,0 2.87871342,0 2.87871342,3.22537413 0,3.22537413 0,0" stroke="none" fill="#181849"></polygon></g></g><g transform="translate(0.13223140495867747 1.4652669198123722)"><g clip-path="url(#i72)"><polygon points="0,0 0.816618271,0 0.816618271,2.9233862 0,2.9233862 0,0" stroke="none" fill="#181849"></polygon></g></g><g transform=""><g clip-path="url(#i73)"><polygon points="0,0 1.12039312,0 1.12039312,1.07393344 0,1.07393344 0,0" stroke="none" fill="#181849"></polygon></g></g><g transform="translate(4.992182264909538 1.2061648425284692)"><g clip-path="url(#i74)"><polygon points="0,0 2.91855612,0 2.91855612,3.18079077 0,3.18079077 0,0" stroke="none" fill="#181849"></polygon></g></g><g transform="translate(19.52200134018316 0.04824659370113604)"><g clip-path="url(#i75)"><polygon points="0,0 1.84766585,0 1.84766585,4.42796516 0,4.42796516 0,0" stroke="none" fill="#181849"></polygon></g></g><g transform="translate(1.6368103640830922 1.1632789814607982)"><g clip-path="url(#i76)"><polygon points="0,0 2.88050034,0 2.88050034,3.22537413 0,3.22537413 0,0" stroke="none" fill="#181849"></polygon></g></g></g></g></g><g transform="translate(30.0 131.0)"><g clip-path="url(#i77)"><polygon points="0,0 110,0 110,199 0,199 0,0" stroke="none" fill="url(#i78)"></polygon></g></g><g transform="translate(84.5 220.0)"><path d="M0.5,0 L0.5,20" stroke="#000000" stroke-width="2" fill="none" stroke-linecap="round" stroke-miterlimit="10"></path></g><g transform="translate(55.0 235.0)"><g transform="translate(6.0 6.0)"><path d="M46,-2 C47.1045695,-2 48.1045695,-1.55228475 48.8284271,-0.828427125 C49.5522847,-0.1045695 50,0.8954305 50,2 L50,46 C50,47.1045695 49.5522847,48.1045695 48.8284271,48.8284271 C48.1045695,49.5522847 47.1045695,50 46,50 L2,50 C0.8954305,50 -0.1045695,49.5522847 -0.828427125,48.8284271 C-1.55228475,48.1045695 -2,47.1045695 -2,46 L-2,2 C-2,0.8954305 -1.55228475,-0.1045695 -0.828427125,-0.828427125 C-0.1045695,-1.55228475 0.8954305,-2 2,-2 Z" stroke="none" fill="#000000" filter="url(#i79)"></path><g clip-path="url(#i30)"><polygon points="0,0 48,0 48,48 0,48 0,0" stroke="none" fill="#FFFFFF"></polygon></g></g><g transform="translate(12.0 13.0)"><g transform="translate(2.0 2.0)"><g transform="translate(7.111111111111111 0.0)"><g clip-path="url(#i82)"><polygon points="0,0 17.7777778,0 17.7777778,17.7777778 0,17.7777778 0,0" stroke="none" fill="#212121"></polygon></g></g><g transform="translate(0.0 20.444444444444443)"><g clip-path="url(#i83)"><polygon points="0,0 32,0 32,11.5555556 0,11.5555556 0,0" stroke="none" fill="#212121"></polygon></g></g></g></g><g transform="translate(5.0 63.0)"><text transform="translate(12.3030859375 11.0)" font-family="Roboto-Medium, Roboto" font-size="12.0" font-weight="400" fill="#212121" text-anchor="center" letter-spacing="0.18">User</text></g></g><g transform="translate(55.0 148.0)"><g transform="translate(0.0 17.0)"><g transform="translate(6.0 6.0)"><path d="M46,-2 C47.1045695,-2 48.1045695,-1.55228475 48.8284271,-0.828427125 C49.5522847,-0.1045695 50,0.8954305 50,2 L50,46 C50,47.1045695 49.5522847,48.1045695 48.8284271,48.8284271 C48.1045695,49.5522847 47.1045695,50 46,50 L2,50 C0.8954305,50 -0.1045695,49.5522847 -0.828427125,48.8284271 C-1.55228475,48.1045695 -2,47.1045695 -2,46 L-2,2 C-2,0.8954305 -1.55228475,-0.1045695 -0.828427125,-0.828427125 C-0.1045695,-1.55228475 0.8954305,-2 2,-2 Z" stroke="none" fill="#000000" filter="url(#i84)"></path><g clip-path="url(#i30)"><polygon points="0,0 48,0 48,48 0,48 0,0" stroke="none" fill="#FFFFFF"></polygon></g></g></g><g transform="translate(12.0 28.0)"><g transform="translate(2.0 3.0000000000000018)"><g transform="translate(5.272766739003373 4.271761858621518)"><g clip-path="url(#i87)"><polygon points="8.71525074e-15,8.00470801e-14 8.72723326,8.00470801e-14 8.72723326,13.0928399 8.71525074e-15,13.0928399 8.71525074e-15,8.00470801e-14" stroke="none" fill="#212121"></polygon></g></g><g transform="translate(12.5454545454545 17.36363636363637)"><g clip-path="url(#i88)"><polygon points="0,0 10.1818182,0 10.1818182,2.18181818 0,2.18181818 0,0" stroke="none" fill="#212121"></polygon></g></g><g clip-path="url(#i89)"><polygon points="0,0 32,0 32,29.0909091 0,29.0909091 0,0" stroke="none" fill="#212121"></polygon></g></g></g><g transform="translate(5.0 0.0)"><text transform="translate(2.007695312500001 11.0)" font-family="Roboto-Medium, Roboto" font-size="12.0" font-weight="400" fill="#212121" text-anchor="center" letter-spacing="0.18">Connect</text></g></g><g transform="translate(88.0 16.0)"><g transform="translate(151.0 5.0)"><text transform="translate(89.61335937499996 11.0)" font-family="Roboto-Medium, Roboto" font-size="12.0" font-weight="400" fill="#212121" text-anchor="center" letter-spacing="0.18">Authenticate</text></g><g transform="translate(0.0 116.0) scale(1.0 -1.0)"><path d="M4.2862638e-16,-7 C3.86599325,-7 7,-3.86599325 7,4.2862638e-16 C7,3.5261219 4.39281176,6.44330235 1.00101007,6.92896659 L1,111 C1,113.209139 2.790861,115 5,115 L530,115 L530,109 L544,116 L530,123 L530,117 L5,117 C1.6862915,117 -1,114.313708 -1,111 L-1.00101007,6.92896659 C-4.39281176,6.44330235 -7,3.5261219 -7,-4.2862638e-16 C-7,-3.86599325 -3.86599325,-7 4.2862638e-16,-7 Z" stroke="none" fill="#000000"></path></g></g><g transform="translate(723.0 259.0)"><g transform="translate(2.0 2.0)"><g clip-path="url(#i90)"><polygon points="0,0 32,0 32,31.0312727 0,31.0312727 0,0" stroke="none" fill="#000001"></polygon></g></g></g><g transform="translate(490.0 56.0)"><text transform="translate(3.015390625000002 11.0)" font-family="Roboto-Medium, Roboto" font-size="12.0" font-weight="400" fill="#212121" text-anchor="right" letter-spacing="0.18">Connect</text></g><g transform="translate(552.0 56.0)"><path d="M72,-7 C75.8659932,-7 79,-3.86599325 79,-8.57252759e-16 C79,3.86599325 75.8659932,7 72,7 C68.4738781,7 65.5566976,4.39281176 65.0710334,1.00101007 L5,1 C2.790861,1 1,2.790861 1,5 L1,50 L7,50 L0,64 L-7,50 L-1,50 L-1,5 C-1,1.6862915 1.6862915,-1 5,-1 L65.0710334,-1.00101007 C65.5566976,-4.39281176 68.4738781,-7 72,-7 Z" stroke="none" fill="#000000"></path></g><g transform="translate(606.0 178.0)"><path d="M0,0 L114,77" stroke="#B6B8C2" stroke-width="2" fill="none" stroke-linecap="round" stroke-miterlimit="10" stroke-dasharray=" 5.0 5.0"></path></g><g transform="translate(633.9750150708519 203.70085690390025) rotate(33.0)"><text transform="translate(1.8156640625000016 11.0)" font-family="Roboto-Medium, Roboto" font-size="12.0" font-weight="400" fill="#212121" text-anchor="center" letter-spacing="0.18">Integration</text></g><g transform="translate(670.0 168.0)"><text transform="translate(0.0 11.0)"><tspan x="0px" y="0px" font-family="Roboto-Medium, Roboto" font-size="12.0" font-weight="400" fill="#212121" text-anchor="left" letter-spacing="0.18">Dynamic </tspan><tspan x="0px" y="14px" font-family="Roboto-Medium, Roboto" font-size="12.0" font-weight="400" fill="#212121" text-anchor="left" letter-spacing="0.18">Database </tspan><tspan x="0px" y="28px" font-family="Roboto-Medium, Roboto" font-size="12.0" font-weight="400" fill="#212121" text-anchor="left" letter-spacing="0.18">Credentials</tspan></text></g></g></svg>