<?xml version="1.0" encoding="UTF-8"?><svg version="1.1" width="672px" height="480px" viewBox="0 0 672.0 480.0" xmlns="http://www.w3.org/2000/svg" xmlns:xlink="http://www.w3.org/1999/xlink"><defs><clipPath id="i0"><path d="M672,0 L672,480 L0,480 L0,0 L672,0 Z"></path></clipPath><clipPath id="i1"><path d="M450,0 C455.522847,-1.01453063e-15 460,4.4771525 460,10 L460,450 C460,455.522847 455.522847,460 450,460 L10,460 C4.4771525,460 -8.20543045e-15,455.522847 0,450 L0,10 C-6.76353751e-16,4.4771525 4.4771525,-7.86725357e-15 10,0 L450,0 Z"></path></clipPath><linearGradient id="i2" x1="230px" y1="0px" x2="230px" y2="460px" gradientUnits="userSpaceOnUse"><stop stop-color="#F2F2F3" offset="0%"></stop><stop stop-color="#DBDBDC" offset="100%"></stop></linearGradient><clipPath id="i3"><path d="M24,0 C37.254834,0 48,10.745166 48,24 C48,37.254834 37.254834,48 24,48 C10.745166,48 0,37.254834 0,24 C0,10.745166 10.745166,0 24,0 Z"></path></clipPath><clipPath id="i4"><path d="M13.999654,0 C13.999654,0 23.8808619,2.09553474 24.293015,10.1610215 C24.7032672,18.2247518 21.6845808,17.8642833 20.4491561,19.554715 C20.4491561,19.554715 24.2919322,19.7358516 26.2133805,21.6563614 C27.8142144,23.2576685 27.986177,25.8109172 27.999096,26.6175194 L27.9994698,26.804402 C27.9988503,26.8474307 27.9979097,26.8702944 27.9979175,26.8702944 L0.00211239889,26.8702944 C0.00211239889,26.8702944 0.00116480178,26.8474234 0.000538946551,26.8043818 L0.000895945535,26.6174459 C0.013765621,25.8106231 0.185743386,23.2567863 1.78616824,21.6563614 C3.70749617,19.7358347 7.55039263,19.554715 7.55039263,19.554715 C6.31386111,17.8651014 3.29531899,18.2255459 3.7065337,10.1610215 C4.11847025,2.09553474 13.999654,0 13.999654,0 Z M14.0081,5.19768651 L13.9912082,5.19768648 C13.7115818,5.21155546 6.5838996,5.60179744 6.86872425,9.33325042 C7.16083347,13.1395731 9.19789824,20.1198765 13.999654,23.2969854 C18.8013858,20.120839 20.8383543,13.1393325 21.1305838,9.33325042 C21.3471581,6.49736408 17.2821082,5.59133451 15.1956579,5.31369882 L14.8835737,5.27489397 C14.6876963,5.25225248 14.5173933,5.23581483 14.3799662,5.22406304 L14.1993952,5.20976002 C14.0709881,5.20045326 13.999654,5.19728227 13.999654,5.19728227 Z"></path></clipPath><clipPath id="i5"><path d="M9.88611595,0 C9.88611595,0 10.0952122,2.66862078 7.41425599,2.68001204 C6.0771465,2.68526331 5.76660601,1.54777462 4.94408035,1.34043001 C4.1214825,1.5477698 3.8108217,2.68525729 2.47390471,2.68001204 C-0.20361554,2.66868479 0.00372906903,0 0.00372906903,0 C0.3134274,0.618554502 1.44478517,1.6475778 2.26815299,0.926568513 C3.02082435,0.269112495 4.63041661,0.0397959839 4.90465442,0.00488616359 L4.94477814,0 C4.94477814,0 6.79803547,0.207339796 7.62140329,0.926568513 C8.44561327,1.6475778 9.57612887,0.618650749 9.88582721,0 Z"></path></clipPath><clipPath id="i6"><path d="M0.94410063,0.000167418208 C1.05108992,0.00284610954 1.95763942,0.0483838622 1.86041876,0.822525658 C1.76753814,1.56269047 1.09132214,2.88765241 0.957007751,3.14524314 L0.933850252,3.18930811 C0.933850252,3.18930811 0.109637868,1.64505132 0.00728173902,0.822525658 C-0.0960152025,0 0.933850252,0 0.933850252,0 Z"></path></clipPath><clipPath id="i7"><path d="M2.57243793,0.0517155955 C3.70463785,-0.281683524 4.42470873,1.10600369 4.42470873,1.10600369 C4.42478092,1.10600369 4.09580915,1.61957693 2.58735619,1.48225672 C1.07705048,1.34483546 0,1.10600369 0,1.10600369 C0,1.10600369 1.44021394,0.385956876 2.57243793,0.0517155955 Z"></path></clipPath><clipPath id="i8"><path d="M1.85234299,0.0517155955 C2.98456698,0.385956876 4.42478092,1.10600369 4.42478092,1.10600369 C4.42478092,1.10600369 3.34773044,1.34483546 1.83742473,1.48225672 C0.328971764,1.61957693 0,1.10600369 0,1.10600369 C7.21851443e-05,1.10600369 0.720143062,-0.281683524 1.85234299,0.0517155955 Z"></path></clipPath><clipPath id="i9"><path d="M1.23458252,0.0722201924 C2.06187584,-0.37852877 3.59995267,1.41254364 3.92004357,1.80151929 L3.97249253,1.8660875 L3.97932639,1.87468325 C1.27057885,0.806294987 9.39850579e-05,1.03300223 0,1.03290822 C0,1.03290822 0.308014011,0.576192808 1.23458252,0.0722201924 Z"></path></clipPath><clipPath id="i10"><path d="M2.74474387,0.0722201924 C3.67131238,0.576192808 3.97932639,1.03290822 3.97932639,1.03290822 C3.97923241,1.03300223 2.70874754,0.806294987 0,1.87468325 C0,1.87468325 1.81817535,-0.432618645 2.74474387,0.0722201924 Z"></path></clipPath><clipPath id="i11"><path d="M74,0 C75.1045695,-2.02906125e-16 76,0.8954305 76,2 L76,74 C76,75.1045695 75.1045695,76 74,76 L2,76 C0.8954305,76 -2.0851753e-15,75.1045695 0,74 L0,2 C-1.3527075e-16,0.8954305 0.8954305,-2.01753992e-15 2,0 L74,0 Z"></path></clipPath><linearGradient id="i12" x1="76px" y1="76px" x2="-5.06261699e-14px" y2="-8.43769499e-15px" gradientUnits="userSpaceOnUse"><stop stop-color="#C9363B" offset="0%"></stop><stop stop-color="#F24C53" offset="100%"></stop></linearGradient><clipPath id="i13"><path d="M31.0317778,0 L36.2097778,8.99111111 L28.5922222,22.2222222 L36.3635556,35.72 L31.3391111,44.4444444 L5.74755556,44.4444444 L5.74755556,41 L12.8873333,41 L12.8873333,38.8711111 L9.42555556,38.8711111 L9.42555556,35.4044444 L25.7704444,35.4044444 L18.1775556,22.2222222 L25.7704444,9.03555556 L9.01822222,9.03555556 L9.01822222,27.3222222 L0,27.3222222 L0,0 L31.0317778,0 Z"></path></clipPath><clipPath id="i14"><path d="M3.45777778,0 L3.45777778,3.46666667 L0,3.46666667 L0,0 L3.45777778,0 Z"></path></clipPath><clipPath id="i15"><path d="M3.45755556,0 L3.45755556,3.46666667 L0,3.46666667 L0,0 L3.45755556,0 Z"></path></clipPath><linearGradient id="i16" x1="76px" y1="76px" x2="-5.06261699e-14px" y2="-8.43769499e-15px" gradientUnits="userSpaceOnUse"><stop stop-color="#FFE959" offset="0%"></stop><stop stop-color="#FFF2A3" offset="100%"></stop></linearGradient><clipPath id="i17"><path d="M51.1111111,0 L25.4635556,49.5638384 L0,0 L51.1111111,0 Z M27.5862929,21.7013131 L23.5294646,21.7013131 L23.5294646,25.7576768 L27.5862929,25.7576768 L27.5862929,21.7013131 Z M21.5036061,15.6190909 L17.4467778,15.6190909 L17.4467778,19.6754545 L21.5036061,19.6754545 L21.5036061,15.6190909 Z M27.5862929,15.6190909 L23.5294646,15.6190909 L23.5294646,19.6754545 L27.5862929,19.6754545 L27.5862929,15.6190909 Z M33.6366869,15.6190909 L29.5800909,15.6190909 L29.5800909,19.6754545 L33.6366869,19.6754545 L33.6366869,15.6190909 Z M21.5036061,9.53686869 L17.4467778,9.53686869 L17.4467778,13.5885859 L21.5036061,13.5885859 L21.5036061,9.53686869 Z M27.5862929,9.53686869 L23.5294646,9.53686869 L23.5294646,13.5885859 L27.5862929,13.5885859 L27.5862929,9.53686869 Z M33.6366869,9.53686869 L29.5800909,9.53686869 L29.5800909,13.5885859 L33.6366869,13.5885859 L33.6366869,9.53686869 Z"></path></clipPath><clipPath id="i18"><path d="M14,0 C15.1045695,-2.02906125e-16 16,0.8954305 16,2 L16,14 C16,15.1045695 15.1045695,16 14,16 L2,16 C0.8954305,16 1.3527075e-16,15.1045695 0,14 L0,2 C-1.3527075e-16,0.8954305 0.8954305,2.02906125e-16 2,0 L14,0 Z"></path></clipPath><linearGradient id="i19" x1="3.77475828e-15px" y1="-1.55431223e-15px" x2="16px" y2="16px" gradientUnits="userSpaceOnUse"><stop stop-color="#0D0F12" offset="0%"></stop><stop stop-color="#363941" offset="100%"></stop></linearGradient><clipPath id="i20"><path d="M0.363636364,0 C0.564363636,0 0.727272727,0.164848485 0.727272727,0.363636364 L0.727272727,1.33333333 C0.727272727,1.53212121 0.564363636,1.6969697 0.363636364,1.6969697 C0.162909091,1.6969697 0,1.53212121 0,1.33333333 L0,0.363636364 C0,0.164848485 0.162909091,0 0.363636364,0 Z"></path></clipPath><clipPath id="i21"><path d="M3.87878788,0 C4.64484848,0 5.38278788,0.290909091 5.92969697,0.80969697 C6.47709091,1.33333333 6.78787879,2.04121212 6.78787879,2.78787879 L6.78787879,4.41212121 C7.34739394,4.57212121 7.75757576,5.08606061 7.75757576,5.6969697 L7.75757576,9.33333333 C7.75757576,10.070303 7.16072727,10.6666667 6.42424242,10.6666667 L1.33333333,10.6666667 C0.596848485,10.6666667 0,10.070303 0,9.33333333 L0,5.6969697 C0,5.08606061 0.410181818,4.57212121 0.96969697,4.41212121 L0.96969697,2.78787879 C0.96969697,2.04121212 1.28048485,1.33333333 1.82787879,0.80969697 C2.37478788,0.290909091 3.11272727,0 3.87878788,0 Z M6.42424242,5.09090909 L1.33333333,5.09090909 C0.998787879,5.09090909 0.727272727,5.36242424 0.727272727,5.6969697 L0.727272727,9.33333333 C0.727272727,9.66787879 0.998787879,9.93939394 1.33333333,9.93939394 L6.42424242,9.93939394 C6.75878788,9.93939394 7.03030303,9.66787879 7.03030303,9.33333333 L7.03030303,5.6969697 C7.03030303,5.36242424 6.75878788,5.09090909 6.42424242,5.09090909 Z M3.87878788,0.727272727 C3.29454545,0.727272727 2.73745455,0.95030303 2.32969697,1.33818182 C1.92242424,1.72606061 1.6969697,2.24484848 1.6969697,2.78787879 L1.6969697,4.36363636 L6.06060606,4.36363636 L6.06060606,2.78787879 C6.06060606,2.24484848 5.83515152,1.72606061 5.42787879,1.33818182 C5.02012121,0.95030303 4.4630303,0.727272727 3.87878788,0.727272727 Z"></path></clipPath><clipPath id="i22"><path d="M24,0 L24,24 L0,24 L0,0 L24,0 Z"></path></clipPath><linearGradient id="i23" x1="24px" y1="24px" x2="-1.59872116e-14px" y2="-2.66453526e-15px" gradientUnits="userSpaceOnUse"><stop stop-color="#FFE959" offset="0%"></stop><stop stop-color="#FFF2A3" offset="100%"></stop></linearGradient><clipPath id="i24"><path d="M8.62761905,0.397939048 C9.46952381,-0.132646349 10.5304762,-0.132646349 11.372381,0.397939048 L18.7533333,4.9995615 C19.5285714,5.48191186 20,6.3308485 20,7.25696119 L20,14.7430388 C20,15.6691515 19.5285714,16.5180881 18.7533333,17.0004385 L11.372381,21.602061 C10.5304762,22.1326463 9.46952381,22.1326463 8.62761905,21.602061 L1.24666667,17.0004385 C0.471428571,16.5180881 0,15.6691515 0,14.7430388 L0,7.25696119 C0,6.3308485 0.471428571,5.48191186 1.24666667,4.9995615 Z M14.0761905,7.83578163 C13.7971429,7.55601842 13.3457143,7.55601842 13.0666667,7.83578163 L8.33333333,12.6303442 L6.45714286,10.7298838 C6.17809524,10.4501206 5.72666667,10.4501206 5.44761905,10.7298838 C5.16857143,11.009647 5.16857143,11.4727034 5.44761905,11.7524666 L7.82857143,14.1642184 C8.10761905,14.4439816 8.55904762,14.4439816 8.83809524,14.1642184 L14.0761905,8.85836439 C14.3552381,8.57860118 14.3552381,8.11554484 14.0761905,7.83578163 Z"></path></clipPath><filter id="i25" x="-20.9558824%" y="-18.75%" filterUnits="userSpaceOnUse" width="126.470588%" height="126.470588%"><feGaussianBlur stdDeviation="2.5" in="SourceAlpha" result="i26"></feGaussianBlur><feOffset dx="0" dy="2" in="i26" result="i27"></feOffset><feColorMatrix values="0 0 0 0.0 0 0 0 0 0.0 0 0 0 0 0.0 0 0 0 0 0.1 0" type="matrix" in="i27"></feColorMatrix></filter><clipPath id="i28"><path d="M74.6666667,0 C75.7712362,-2.02906125e-16 76.6666667,0.8954305 76.6666667,2 L76.6666667,74.6666667 C76.6666667,75.7712362 75.7712362,76.6666667 74.6666667,76.6666667 L2,76.6666667 C0.8954305,76.6666667 1.91162759e-15,75.7712362 0,74.6666667 L0,2 C-1.3527075e-16,0.8954305 0.8954305,1.53517375e-15 2,0 L74.6666667,0 Z"></path></clipPath><filter id="i29" x="-20.9558824%" y="-18.75%" filterUnits="userSpaceOnUse" width="126.470588%" height="126.470588%"><feGaussianBlur stdDeviation="2.5" in="SourceAlpha" result="i30"></feGaussianBlur><feOffset dx="0" dy="2" in="i30" result="i31"></feOffset><feColorMatrix values="0 0 0 0.0 0 0 0 0 0.0 0 0 0 0 0.0 0 0 0 0 0.1 0" type="matrix" in="i31"></feColorMatrix></filter><clipPath id="i32"><path d="M74.6666667,0 C75.7712362,-2.02906125e-16 76.6666667,0.8954305 76.6666667,2 L76.6666667,74.6666667 C76.6666667,75.7712362 75.7712362,76.6666667 74.6666667,76.6666667 L2,76.6666667 C0.8954305,76.6666667 1.91162759e-15,75.7712362 0,74.6666667 L0,2 C-1.3527075e-16,0.8954305 0.8954305,1.97926296e-15 2,0 L74.6666667,0 Z"></path></clipPath><clipPath id="i33"><path d="M2.52525253,0 C3.36161616,0 4.04040404,0.686868687 4.04040404,1.51515152 C4.04040404,2.34343434 3.36161616,3.03030303 2.52525253,3.03030303 L1.51515152,3.03030303 C0.678787879,3.03030303 0,2.34343434 0,1.51515152 C0,0.686868687 0.678787879,0 1.51515152,0 L2.52525253,0 Z"></path></clipPath><clipPath id="i34"><path d="M38.8888889,0 C41.9575758,0 44.4444444,2.48484848 44.4444444,5.55555556 L44.4444444,14.6464646 C44.4444444,17.7171717 41.9575758,20.2020202 38.8888889,20.2020202 L5.55555556,20.2020202 C2.48686869,20.2020202 0,17.7171717 0,14.6464646 L0,5.55555556 C0,2.48484848 2.48686869,0 5.55555556,0 Z M38.8888889,3.03030303 L5.55555556,3.03030303 C4.16161616,3.03030303 3.03030303,4.16161616 3.03030303,5.55555556 L3.03030303,14.6464646 C3.03030303,16.040404 4.16161616,17.1717172 5.55555556,17.1717172 L38.8888889,17.1717172 C40.2828283,17.1717172 41.4141414,16.040404 41.4141414,14.6464646 L41.4141414,5.55555556 C41.4141414,4.16161616 40.2828283,3.03030303 38.8888889,3.03030303 Z"></path></clipPath><clipPath id="i35"><path d="M2.52525253,0 C3.36161616,0 4.04040404,0.686868687 4.04040404,1.51515152 C4.04040404,2.34343434 3.36161616,3.03030303 2.52525253,3.03030303 L1.51515152,3.03030303 C0.678787879,3.03030303 0,2.34343434 0,1.51515152 C0,0.686868687 0.678787879,0 1.51515152,0 Z"></path></clipPath><clipPath id="i36"><path d="M38.8888889,0 C41.9575758,0 44.4444444,2.48484848 44.4444444,5.55555556 L44.4444444,14.6464646 C44.4444444,17.7171717 41.9575758,20.2020202 38.8888889,20.2020202 L5.55555556,20.2020202 C2.48686869,20.2020202 0,17.7171717 0,14.6464646 L0,5.55555556 C0,2.48484848 2.48686869,0 5.55555556,0 Z M38.8888889,3.03030303 L5.55555556,3.03030303 C4.16161616,3.03030303 3.03030303,4.16161616 3.03030303,5.55555556 L3.03030303,14.6464646 C3.03030303,16.040404 4.16161616,17.1717172 5.55555556,17.1717172 L38.8888889,17.1717172 C40.2828283,17.1717172 41.4141414,16.040404 41.4141414,14.6464646 L41.4141414,5.55555556 C41.4141414,4.16161616 40.2828283,3.03030303 38.8888889,3.03030303 Z"></path></clipPath><filter id="i37" x="-20.9558824%" y="-18.75%" filterUnits="userSpaceOnUse" width="126.470588%" height="126.470588%"><feGaussianBlur stdDeviation="2.5" in="SourceAlpha" result="i38"></feGaussianBlur><feOffset dx="0" dy="2" in="i38" result="i39"></feOffset><feColorMatrix values="0 0 0 0.0 0 0 0 0 0.0 0 0 0 0 0.0 0 0 0 0 0.1 0" type="matrix" in="i39"></feColorMatrix></filter><clipPath id="i40"><path d="M38.8888889,0 C41.9571717,0 44.4444444,2.73333333 44.4444444,6.11111111 L44.4444444,38.3333333 C44.4444444,41.7111111 41.9571717,44.4444444 38.8888889,44.4444444 L5.55555556,44.4444444 C2.48727273,44.4444444 0,41.7111111 0,38.3333333 L0,6.11111111 C0,2.73333333 2.48727273,0 5.55555556,0 Z M11.1111111,31.1111111 L3.03030303,31.1111111 L3.03030303,38.3333333 C3.03030303,39.8666667 4.16080808,41.1111111 5.55555556,41.1111111 L11.1111111,41.1111111 L11.1111111,31.1111111 Z M30.3030303,31.1111111 L14.1414141,31.1111111 L14.1414141,41.1111111 L30.3030303,41.1111111 L30.3030303,31.1111111 Z M41.4141414,31.1111111 L33.3333333,31.1111111 L33.3333333,41.1111111 L38.8888889,41.1111111 C40.2836364,41.1111111 41.4141414,39.8666667 41.4141414,38.3333333 L41.4141414,31.1111111 Z M20.2020202,16.6666667 L3.03030303,16.6666667 L3.03030303,27.7777778 L20.2020202,27.7777778 L20.2020202,16.6666667 Z M41.4141414,16.6666667 L23.2323232,16.6666667 L23.2323232,27.7777778 L41.4141414,27.7777778 L41.4141414,16.6666667 Z M11.1111111,3.33333333 L5.55555556,3.33333333 C4.16080808,3.33333333 3.03030303,4.57777778 3.03030303,6.11111111 L3.03030303,13.3333333 L11.1111111,13.3333333 L11.1111111,3.33333333 Z M38.8888889,3.33333333 L33.3333333,3.33333333 L33.3333333,13.3333333 L41.4141414,13.3333333 L41.4141414,6.11111111 C41.4141414,4.57777778 40.2836364,3.33333333 38.8888889,3.33333333 Z M30.3030303,3.33333333 L14.1414141,3.33333333 L14.1414141,13.3333333 L30.3030303,13.3333333 L30.3030303,3.33333333 Z"></path></clipPath><filter id="i41" x="-20.9558824%" y="-18.75%" filterUnits="userSpaceOnUse" width="126.470588%" height="126.470588%"><feGaussianBlur stdDeviation="2.5" in="SourceAlpha" result="i42"></feGaussianBlur><feOffset dx="0" dy="2" in="i42" result="i43"></feOffset><feColorMatrix values="0 0 0 0.0 0 0 0 0 0.0 0 0 0 0 0.0 0 0 0 0 0.1 0" type="matrix" in="i43"></feColorMatrix></filter><clipPath id="i44"><path d="M8.08080808,0 C12.5434343,0 16.1616162,3.61616162 16.1616162,8.08080808 C16.1616162,12.5454545 12.5434343,16.1616162 8.08080808,16.1616162 C3.61818182,16.1616162 0,12.5454545 0,8.08080808 C0,3.61616162 3.61818182,0 8.08080808,0 Z M8.08080808,3.03030303 C5.29090909,3.03030303 3.03030303,5.29292929 3.03030303,8.08080808 C3.03030303,10.8686869 5.29090909,13.1313131 8.08080808,13.1313131 C10.8707071,13.1313131 13.1313131,10.8686869 13.1313131,8.08080808 C13.1313131,5.29292929 10.8707071,3.03030303 8.08080808,3.03030303 Z"></path></clipPath><clipPath id="i45"><path d="M23.2323232,0 C25.7434343,0 27.7777778,2.04040404 27.7777778,4.54545455 L27.7777778,4.90909091 C28.7353535,5.21212121 29.6565657,5.5959596 30.5373737,6.04040404 L30.7939394,5.7979798 C32.5676768,4.02020202 35.4464646,4.02020202 37.2222222,5.7979798 L38.6505051,7.23232323 C40.4242424,8.98989899 40.4242424,11.8787879 38.6505051,13.6565657 L38.3939394,13.8989899 C38.8484848,14.7878788 39.2323232,15.7171717 39.5393939,16.6666667 L39.8989899,16.6666667 C42.410101,16.6666667 44.4444444,18.7070707 44.4444444,21.2121212 L44.4444444,23.2323232 C44.4444444,25.7373737 42.410101,27.7777778 39.8989899,27.7777778 L39.5393939,27.7777778 C39.2323232,28.7272727 38.8484848,29.6565657 38.3939394,30.5454545 L38.6505051,30.7878788 C40.4242424,32.5656566 40.4242424,35.4545455 38.6505051,37.2121212 L37.2222222,38.6464646 C35.4464646,40.4242424 32.5676768,40.4242424 30.7939394,38.6464646 L30.5373737,38.4040404 C29.6565657,38.8484848 28.7353535,39.2323232 27.7777778,39.5353535 L27.7777778,39.8989899 C27.7777778,42.4040404 25.7434343,44.4444444 23.2323232,44.4444444 L21.2121212,44.4444444 C18.7010101,44.4444444 16.6666667,42.4040404 16.6666667,39.8989899 L16.6666667,39.5353535 C15.7090909,39.2323232 14.7858586,38.8484848 13.9070707,38.4040404 L13.6505051,38.6464646 C11.8767677,40.4242424 8.9979798,40.4242424 7.22222222,38.6464646 L5.79393939,37.2121212 C4.02020202,35.4545455 4.02020202,32.5656566 5.79393939,30.7878788 L6.05050505,30.5454545 C5.5959596,29.6565657 5.21212121,28.7272727 4.90505051,27.7777778 L4.54545455,27.7777778 C2.03434343,27.7777778 0,25.7373737 0,23.2323232 L0,21.2121212 C0,18.7070707 2.03434343,16.6666667 4.54545455,16.6666667 L4.90505051,16.6666667 C5.21212121,15.7171717 5.5959596,14.7878788 6.05050505,13.8989899 L5.79393939,13.6565657 C4.02020202,11.8787879 4.02020202,8.98989899 5.79393939,7.23232323 L7.22222222,5.7979798 C8.9979798,4.02020202 11.8767677,4.02020202 13.6505051,5.7979798 L13.9070707,6.04040404 C14.7878788,5.5959596 15.7090909,5.21212121 16.6666667,4.90909091 L16.6666667,4.54545455 C16.6666667,2.04040404 18.7010101,0 21.2121212,0 Z M23.2323232,3.03030303 L21.2121212,3.03030303 C20.3757576,3.03030303 19.6969697,3.71717172 19.6969697,4.54545455 L19.6969697,6.04040404 C19.6969697,6.74747475 19.2222222,7.35353535 18.5474747,7.51515152 C17.0767677,7.87878788 15.6909091,8.46464646 14.4242424,9.23232323 C13.8282828,9.5959596 13.0646465,9.49494949 12.5717172,9.01010101 L11.5090909,7.93939394 C10.9171717,7.35353535 9.95757576,7.35353535 9.36565657,7.93939394 L7.93737374,9.37373737 C7.34545455,9.95959596 7.34545455,10.9090909 7.93737374,11.5151515 L9.0020202,12.5656566 C9.49292929,13.0707071 9.58787879,13.8383838 9.22828283,14.4242424 C8.46666667,15.6969697 7.88484848,17.0707071 7.51919192,18.5454545 C7.35151515,19.2323232 6.74343434,19.6969697 6.04848485,19.6969697 L4.54545455,19.6969697 C3.70909091,19.6969697 3.03030303,20.3838384 3.03030303,21.2121212 L3.03030303,23.2323232 C3.03030303,24.0606061 3.70909091,24.7474747 4.54545455,24.7474747 L6.04848485,24.7474747 C6.74343434,24.7474747 7.35151515,25.2121212 7.51919192,25.8989899 C7.88484848,27.3737374 8.46666667,28.7474747 9.22828283,30.020202 C9.58585859,30.6060606 9.49292929,31.3737374 9.0020202,31.8787879 L7.93737374,32.9292929 C7.34545455,33.5353535 7.34545455,34.4848485 7.93737374,35.0707071 L9.36565657,36.5050505 C9.95757576,37.0909091 10.9171717,37.0909091 11.5090909,36.5050505 L12.5717172,35.4343434 C13.0646465,34.9494949 13.8282828,34.8484848 14.4242424,35.2121212 C15.6909091,35.979798 17.0767677,36.5656566 18.5474747,36.9292929 C19.2222222,37.0909091 19.6969697,37.6969697 19.6969697,38.4040404 L19.6969697,39.8989899 C19.6969697,40.7272727 20.3757576,41.4141414 21.2121212,41.4141414 L23.2323232,41.4141414 C24.0686869,41.4141414 24.7474747,40.7272727 24.7474747,39.8989899 L24.7474747,38.4040404 C24.7474747,37.6969697 25.2222222,37.0909091 25.8969697,36.9292929 C27.3676768,36.5656566 28.7535354,35.979798 30.020202,35.2121212 C30.6161616,34.8484848 31.379798,34.9494949 31.8727273,35.4343434 L32.9353535,36.5050505 C33.5272727,37.0909091 34.4868687,37.0909091 35.0787879,36.5050505 L36.5070707,35.0707071 C37.0989899,34.4848485 37.0989899,33.5353535 36.5070707,32.9292929 L35.4424242,31.8787879 C34.9515152,31.3737374 34.8585859,30.6060606 35.2161616,30.020202 C35.9777778,28.7474747 36.559596,27.3737374 36.9252525,25.8989899 C37.0929293,25.2121212 37.7010101,24.7474747 38.3959596,24.7474747 L39.8989899,24.7474747 C40.7353535,24.7474747 41.4141414,24.0606061 41.4141414,23.2323232 L41.4141414,21.2121212 C41.4141414,20.3838384 40.7353535,19.6969697 39.8989899,19.6969697 L38.3959596,19.6969697 C37.7010101,19.6969697 37.0929293,19.2323232 36.9252525,18.5454545 C36.559596,17.0707071 35.9777778,15.6969697 35.2161616,14.4242424 C34.8565657,13.8383838 34.9515152,13.0707071 35.4424242,12.5656566 L36.5070707,11.5151515 C37.0989899,10.9090909 37.0989899,9.95959596 36.5070707,9.37373737 L35.0787879,7.93939394 C34.4868687,7.35353535 33.5272727,7.35353535 32.9353535,7.93939394 L31.8727273,9.01010101 C31.379798,9.49494949 30.6161616,9.5959596 30.020202,9.23232323 C28.7535354,8.46464646 27.3676768,7.87878788 25.8969697,7.51515152 C25.2222222,7.35353535 24.7474747,6.74747475 24.7474747,6.04040404 L24.7474747,4.54545455 C24.7474747,3.71717172 24.0686869,3.03030303 23.2323232,3.03030303 Z"></path></clipPath><clipPath id="i46"><path d="M22.2222222,0 C28.0244444,0 33.3444444,0.755555556 37.2711111,2.04444444 C39.2266667,2.66666667 40.9288889,3.46666667 42.1755556,4.42222222 C43.4022222,5.35555556 44.4444444,6.66666667 44.4444444,8.33333333 L44.4444444,35.9111111 C44.4444444,37.5777778 43.4355556,38.9111111 42.2088889,39.8888889 C40.9644444,40.8888889 39.2644444,41.6888889 37.3111111,42.3555556 C33.3866667,43.6666667 28.06,44.4444444 22.2222222,44.4444444 C16.3844444,44.4444444 11.0577778,43.6666667 7.13333333,42.3555556 C5.18,41.6888889 3.48,40.8888889 2.23555556,39.8888889 C1.00888889,38.9111111 0,37.5777778 0,35.9111111 L0,8.33333333 C0,6.66666667 1.04222222,5.35555556 2.26888889,4.42222222 C3.51555556,3.46666667 5.21777778,2.66666667 7.17333333,2.04444444 C11.1,0.755555556 16.42,0 22.2222222,0 Z M41.1111111,26.3111111 C40.0288889,26.9555556 38.7333333,27.5111111 37.2977778,27.9777778 C33.3777778,29.2444444 28.0555556,30 22.2222222,30 C16.3888889,30 11.0666667,29.2444444 7.14666667,27.9777778 C5.71111111,27.5111111 4.41555556,26.9555556 3.33333333,26.3111111 L3.33333333,35.9111111 C3.33333333,36.1333333 3.46666667,36.6222222 4.30888889,37.2888889 C5.13333333,37.9333333 6.43333333,38.6 8.19111111,39.2 C11.6888889,40.3555556 16.64,41.1111111 22.2222222,41.1111111 C27.8044444,41.1111111 32.7555556,40.3555556 36.2533333,39.2 C38.0111111,38.6 39.3111111,37.9333333 40.1355556,37.2888889 C40.9777778,36.6222222 41.1111111,36.1333333 41.1111111,35.9111111 L41.1111111,26.3111111 Z M41.1111111,12.9555556 C40.0222222,13.6 38.7155556,14.1555556 37.2711111,14.6222222 C33.3444444,15.9111111 28.0244444,16.6666667 22.2222222,16.6666667 C16.42,16.6666667 11.1,15.9111111 7.17333333,14.6222222 C5.72888889,14.1555556 4.42222222,13.6 3.33333333,12.9555556 L3.33333333,21.6666667 C3.33333333,21.8444444 3.44222222,22.2888889 4.29111111,22.9555556 C5.11555556,23.5777778 6.41555556,24.2222222 8.17777778,24.8 C11.68,25.9333333 16.6355556,26.6666667 22.2222222,26.6666667 C27.8088889,26.6666667 32.7644444,25.9333333 36.2666667,24.8 C38.0288889,24.2222222 39.3288889,23.5777778 40.1533333,22.9555556 C41.0022222,22.2888889 41.1111111,21.8444444 41.1111111,21.6666667 L41.1111111,12.9555556 Z M22.2222222,3.33333333 C16.6711111,3.33333333 11.7133333,4.06666667 8.20222222,5.2 C6.43555556,5.77777778 5.12666667,6.42222222 4.29555556,7.06666667 C3.44,7.71111111 3.33333333,8.15555556 3.33333333,8.33333333 C3.33333333,8.51111111 3.44,8.95555556 4.29555556,9.6 C5.12666667,10.2444444 6.43555556,10.8888889 8.20222222,11.4666667 C11.7133333,12.6 16.6711111,13.3333333 22.2222222,13.3333333 C27.7733333,13.3333333 32.7311111,12.6 36.2422222,11.4666667 C38.0088889,10.8888889 39.3177778,10.2444444 40.1488889,9.6 C41.0044444,8.95555556 41.1111111,8.51111111 41.1111111,8.33333333 C41.1111111,8.15555556 41.0044444,7.71111111 40.1488889,7.06666667 C39.3177778,6.42222222 38.0088889,5.77777778 36.2422222,5.2 C32.7311111,4.06666667 27.7733333,3.33333333 22.2222222,3.33333333 Z"></path></clipPath><clipPath id="i47"><path d="M8.78472222,0 C13.636663,0 17.5694444,3.93000731 17.5694444,8.78472222 C17.5694444,13.6394371 13.636663,17.5694444 8.78472222,17.5694444 C3.93278143,17.5694444 0,13.6394371 0,8.78472222 C0,3.93000731 3.93278143,0 8.78472222,0 Z"></path></clipPath><clipPath id="i48"><path d="M7.62883772,0 C8.01166667,0 8.32236842,0.314400585 8.32236842,0.693530702 C8.32236842,1.07266082 8.01166667,1.3870614 7.62883772,1.3870614 L0.693530702,1.3870614 C0.310701754,1.3870614 0,1.07266082 0,0.693530702 C0,0.314400585 0.310701754,0 0.693530702,0 Z"></path></clipPath></defs><g clip-path="url(#i0)"><g transform="translate(79.66666666666697 16.0)"><g transform="translate(46.99999999999997 0.0)"><g clip-path="url(#i1)"><polygon points="0,0 460,0 460,460 0,460 0,0" stroke="none" fill="url(#i2)"></polygon></g></g><g transform="translate(89.0 8.0)"><path d="M5,0 L107,0 C109.761424,-5.07265313e-16 112,2.23857625 112,5 L112,355 C112,357.761424 109.761424,360 107,360 L5,360 C2.23857625,360 1.2263553e-15,357.761424 0,355 L0,5 C-3.38176876e-16,2.23857625 2.23857625,2.28362215e-15 5,0 Z" stroke="#000000" stroke-width="2" fill="none" stroke-linecap="round" stroke-miterlimit="10" stroke-dasharray=" 5.0 5.0"></path></g><g transform="translate(0.0 206.0)"><g transform="translate(28.230809874010113 22.247878317309276) rotate(0.6544124758706179)"><path d="M0,1.43055556 L31.6149885,1.06944444" stroke="#F25053" stroke-width="1" fill="none" stroke-miterlimit="10" stroke-dasharray=" 5.0 4.0"></path></g><g clip-path="url(#i3)"><polygon points="0,0 48,0 48,48 0,48 0,0" stroke="none" fill="#FFFFFF"></polygon><path d="M24,48 C37.254834,48 48,37.254834 48,24 C48,10.745166 37.254834,0 24,0 C10.745166,0 0,10.745166 0,24 C0,37.254834 10.745166,48 24,48 Z" stroke="#F25053" stroke-width="4" fill="none" stroke-miterlimit="5"></path></g><g transform="translate(6.0 5.0)"><g transform="translate(4.0 5.0)"><g clip-path="url(#i4)"><polygon points="4.4408921e-16,0 28,0 28,26.8702944 4.4408921e-16,26.8702944 4.4408921e-16,0" stroke="none" fill="#212121"></polygon></g><g transform="translate(9.053937502073296 15.007387754981462)"><g clip-path="url(#i5)"><polygon points="-4.35415592e-16,0 9.88992322,0 9.88992322,2.68003017 -4.35415592e-16,2.68003017 -4.35415592e-16,0" stroke="none" fill="#212121"></polygon></g></g><g transform="translate(13.06580379452572 19.35341467849764)"><g clip-path="url(#i6)"><polygon points="7.77156117e-16,0 1.8677005,0 1.8677005,3.18930811 7.77156117e-16,3.18930811 7.77156117e-16,0" stroke="none" fill="#212121"></polygon></g></g><g transform="translate(8.324698615482532 9.396309206449324)"><g clip-path="url(#i7)"><polygon points="0,-4.4408921e-16 4.42478092,-4.4408921e-16 4.42478092,1.50559222 0,1.50559222 0,-4.4408921e-16" stroke="none" fill="#212121"></polygon></g></g><g transform="translate(15.249828561094521 9.396309206449324)"><g clip-path="url(#i8)"><polygon points="0,-4.4408921e-16 4.42478092,-4.4408921e-16 4.42478092,1.50559222 0,1.50559222 0,-4.4408921e-16" stroke="none" fill="#212121"></polygon></g></g><g transform="translate(8.546812304614292 6.957265410234292)"><g clip-path="url(#i9)"><polygon points="0,6.66133815e-16 3.97932639,6.66133815e-16 3.97932639,1.87468325 0,1.87468325 0,6.66133815e-16" stroke="none" fill="#212121"></polygon></g></g><g transform="translate(15.47316939768007 6.957265410234292)"><g clip-path="url(#i10)"><polygon points="0,6.66133815e-16 3.97932639,6.66133815e-16 3.97932639,1.87468325 0,1.87468325 0,6.66133815e-16" stroke="none" fill="#212121"></polygon></g></g></g></g></g><g transform="translate(184.3333333333328 88.0)"><path d="M91.042811,-1 C94.3363888,-1 97.0142682,1.65495085 97.0425892,4.94840686 L98.0580313,123.034395 C98.076912,125.230033 99.8621649,127 102.057883,127 L180.201,127 L180.201389,121 L194.201389,128 L180.201389,135 L180.201,129 L102.057883,129 C98.7643057,129 96.0864263,126.345049 96.0581053,123.051593 L95.0426631,4.96560457 C95.0237825,2.76996724 93.2385295,1 91.042811,1 L0,1 C-0.55228475,1 -1,0.55228475 -1,0 C-1,-0.55228475 -0.55228475,-1 0,-1 L91.042811,-1 Z" stroke="none" fill="#000000"></path></g><g transform="translate(182.0 64.0)"><path d="M181,-6.5 L195,0.5 L181,7.5 L181,1.5 L0,1.5 C-0.55228475,1.5 -1,1.05228475 -1,0.5 C-1,-0.0522847498 -0.55228475,-0.5 0,-0.5 L181,-0.5 L181,-6.5 Z" stroke="none" fill="#000000"></path></g><g transform="translate(189.0 388.0) scale(1.0 -1.0)"><path d="M178.333333,-6 L192.333333,1 L178.333333,8 L178.333,2 L0.333333333,2 C-0.218951416,2 -0.666666667,1.55228475 -0.666666667,1 C-0.666666667,0.44771525 -0.218951416,0 0.333333333,0 L178.333,0 L178.333333,-6 Z" stroke="none" fill="#000000"></path></g><g transform="translate(148.0 340.0) scale(1.0 -1.0)"><path d="M1.33333333,0 L8.33333333,14 L2.333,14 L2.33333333,48 C2.33333333,48.5522847 1.88561808,49 1.33333333,49 C0.781048584,49 0.333333333,48.5522847 0.333333333,48 L0.333,14 L-5.66666667,14 L1.33333333,0 Z" stroke="none" fill="#000000"></path></g><g transform="translate(101.0 336.0)"><g transform="translate(9.5 9.5)"><g clip-path="url(#i11)"><polygon points="0,0 76,0 76,76 0,76 0,0" stroke="none" fill="url(#i12)"></polygon></g></g></g><g transform="translate(124.0 358.0)"><g transform="translate(6.944444444444443 2.7777777777777786)"><g clip-path="url(#i13)"><polygon points="0,0 36.3635556,0 36.3635556,44.4444444 0,44.4444444 0,0" stroke="none" fill="#FFFFFF"></polygon></g><g transform="translate(3.6775555555555517 35.404444444444415)"><g clip-path="url(#i14)"><polygon points="0,0 3.45777778,0 3.45777778,3.46666667 0,3.46666667 0,0" stroke="none" fill="#FFFFFF"></polygon></g></g><g transform="translate(0.0 40.97333333333332)"><g clip-path="url(#i15)"><polygon points="0,0 3.45755556,0 3.45755556,3.46666667 0,3.46666667 0,0" stroke="none" fill="#FFFFFF"></polygon></g></g></g></g><g transform="translate(383.0 336.0)"><g transform="translate(9.5 9.5)"><g clip-path="url(#i11)"><polygon points="0,0 76,0 76,76 0,76 0,0" stroke="none" fill="url(#i16)"></polygon></g></g></g><g transform="translate(401.69444444444434 357.7777777777778)"><g transform="translate(3.19444444444445 3.194444444444443)"><g clip-path="url(#i17)"><polygon points="0,0 51.1111111,0 51.1111111,49.5638384 0,49.5638384 0,0" stroke="none" fill="#000001"></polygon></g></g></g><g transform="translate(216.94444444444434 33.94444444444446)"><text transform="translate(22.442343749999935 11.0)" font-family="Roboto-Medium, Roboto" font-size="12.0" font-weight="400" fill="#212121" text-anchor="center" letter-spacing="0.18">Dynamic Credentials</text></g><g transform="translate(289.0 186.0)"><text transform="translate(15.562382812500001 11.0)" font-family="Roboto-Medium, Roboto" font-size="12.0" font-weight="400" fill="#212121" text-anchor="center" letter-spacing="0.18">SSH Key</text></g><g transform="translate(190.00000000000003 413.0)"><text transform="translate(45.57841145833328 11.0)" font-family="Roboto-Medium, Roboto" font-size="12.0" font-weight="400" fill="#212121" text-anchor="center" letter-spacing="0.18">Identity Validation</text></g><g transform="translate(224.0 254.0)"><text transform="translate(0.0 11.0)"><tspan x="0px" y="0px" font-family="Roboto-Medium, Roboto" font-size="12.0" font-weight="400" fill="#212121" text-anchor="left" letter-spacing="0.18">Release </tspan><tspan x="0px" y="14px" font-family="Roboto-Medium, Roboto" font-size="12.0" font-weight="400" fill="#212121" text-anchor="left" letter-spacing="0.18">Secrets to </tspan><tspan x="0px" y="28px" font-family="Roboto-Medium, Roboto" font-size="12.0" font-weight="400" fill="#212121" text-anchor="left" letter-spacing="0.18">Boundary</tspan></text></g><g transform="translate(481.55555555555566 328.1388888888889)"><text transform="translate(0.0 11.0)"><tspan x="0px" y="0px" font-family="Roboto-Medium, Roboto" font-size="12.0" font-weight="400" fill="#212121" text-anchor="left" letter-spacing="0.18">Identity </tspan><tspan x="0px" y="14px" font-family="Roboto-Medium, Roboto" font-size="12.0" font-weight="400" fill="#212121" text-anchor="left" letter-spacing="0.18">Validation</tspan><tspan x="0px" y="28px" font-family="Roboto-Medium, Roboto" font-size="12.0" font-weight="400" fill="#212121" text-anchor="left" letter-spacing="0.18"></tspan><tspan x="0px" y="42px" font-family="Roboto-Medium, Roboto" font-size="12.0" font-weight="400" fill="#212121" text-anchor="left" letter-spacing="0.18">Centralized </tspan><tspan x="0px" y="56px" font-family="Roboto-Medium, Roboto" font-size="12.0" font-weight="400" fill="#212121" text-anchor="left" letter-spacing="0.18">Secrets</tspan><tspan x="0px" y="70px" font-family="Roboto-Medium, Roboto" font-size="12.0" font-weight="400" fill="#212121" text-anchor="left" letter-spacing="0.18"></tspan><tspan x="0px" y="84px" font-family="Roboto-Medium, Roboto" font-size="12.0" font-weight="400" fill="#212121" text-anchor="left" letter-spacing="0.18">Dynamic </tspan><tspan x="0px" y="98px" font-family="Roboto-Medium, Roboto" font-size="12.0" font-weight="400" fill="#212121" text-anchor="left" letter-spacing="0.18">Credentials</tspan></text></g><g transform="translate(104.55555555555566 272.1388888888889)"><text transform="translate(6.048749999999956 11.0)" font-family="Roboto-Medium, Roboto" font-size="12.0" font-weight="400" fill="#212121" text-anchor="center" letter-spacing="0.18">Control Plane</text></g><g transform="translate(104.55555555555566 120.13888888888891)"><text transform="translate(23.8437890625 11.0)" font-family="Roboto-Medium, Roboto" font-size="12.0" font-weight="400" fill="#212121" text-anchor="center" letter-spacing="0.18">Worker</text></g><g transform="translate(386.55555555555566 272.1388888888889)"><text transform="translate(19.6991015625 11.0)" font-family="Roboto-Medium, Roboto" font-size="12.0" font-weight="400" fill="#212121" text-anchor="center" letter-spacing="0.18">Systems</text></g><g transform="translate(276.0 54.0)"><g transform="translate(2.0 2.0)"><g clip-path="url(#i18)"><polygon points="0,0 16,0 16,16 0,16 0,0" stroke="none" fill="url(#i19)"></polygon></g></g><g transform="translate(4.0 4.0)"><g transform="translate(2.0 0.666666666666667)"><g transform="translate(3.515151515151514 7.393939393939394)"><g clip-path="url(#i20)"><polygon points="0,0 0.727272727,0 0.727272727,1.6969697 0,1.6969697 0,0" stroke="none" fill="#FFFFFF"></polygon></g></g><g clip-path="url(#i21)"><polygon points="0,0 7.75757576,0 7.75757576,10.6666667 0,10.6666667 0,0" stroke="none" fill="#FFFFFF"></polygon></g></g></g></g><g transform="translate(318.0 205.0)"><g transform="translate(2.0 2.0)"><g clip-path="url(#i18)"><polygon points="0,0 16,0 16,16 0,16 0,0" stroke="none" fill="url(#i19)"></polygon></g></g><g transform="translate(4.0 4.0)"><g transform="translate(2.0 0.666666666666667)"><g transform="translate(3.515151515151514 7.393939393939394)"><g clip-path="url(#i20)"><polygon points="0,0 0.727272727,0 0.727272727,1.6969697 0,1.6969697 0,0" stroke="none" fill="#FFFFFF"></polygon></g></g><g clip-path="url(#i21)"><polygon points="0,0 7.75757576,0 7.75757576,10.6666667 0,10.6666667 0,0" stroke="none" fill="#FFFFFF"></polygon></g></g></g></g><g transform="translate(274.0 375.0)"><g clip-path="url(#i22)"><polygon points="0,0 24,0 24,24 0,24 0,0" stroke="none" fill="url(#i23)"></polygon></g><g transform="translate(2.0 1.0)"><g clip-path="url(#i24)"><polygon points="0,-5.55111512e-17 20,-5.55111512e-17 20,22 0,22 0,-5.55111512e-17" stroke="none" fill="#000001"></polygon></g></g></g><g transform="translate(383.0 28.999999999999993)"><g transform="translate(9.583333333333336 9.583333333333336)"><path d="M74.6666667,-2 C75.7712362,-2 76.7712362,-1.55228475 77.4950938,-0.828427125 C78.2189514,-0.1045695 78.6666667,0.8954305 78.6666667,2 L78.6666667,74.6666667 C78.6666667,75.7712362 78.2189514,76.7712362 77.4950938,77.4950938 C76.7712362,78.2189514 75.7712362,78.6666667 74.6666667,78.6666667 L2,78.6666667 C0.8954305,78.6666667 -0.1045695,78.2189514 -0.828427125,77.4950938 C-1.55228475,76.7712362 -2,75.7712362 -2,74.6666667 L-2,2 C-2,0.8954305 -1.55228475,-0.1045695 -0.828427125,-0.828427125 C-0.1045695,-1.55228475 0.8954305,-2 2,-2 Z" stroke="none" fill="#000000" filter="url(#i25)"></path><g clip-path="url(#i28)"><polygon points="0,0 76.6666667,0 76.6666667,76.6666667 0,76.6666667 0,0" stroke="none" fill="#FFFFFF"></polygon></g></g></g><g transform="translate(383.0 182.0)"><g transform="translate(9.583333333333336 9.583333333333336)"><path d="M74.6666667,-2 C75.7712362,-2 76.7712362,-1.55228475 77.4950938,-0.828427125 C78.2189514,-0.1045695 78.6666667,0.8954305 78.6666667,2 L78.6666667,74.6666667 C78.6666667,75.7712362 78.2189514,76.7712362 77.4950938,77.4950938 C76.7712362,78.2189514 75.7712362,78.6666667 74.6666667,78.6666667 L2,78.6666667 C0.8954305,78.6666667 -0.1045695,78.2189514 -0.828427125,77.4950938 C-1.55228475,76.7712362 -2,75.7712362 -2,74.6666667 L-2,2 C-2,0.8954305 -1.55228475,-0.1045695 -0.828427125,-0.828427125 C-0.1045695,-1.55228475 0.8954305,-2 2,-2 Z" stroke="none" fill="#000000" filter="url(#i29)"></path><g clip-path="url(#i32)"><polygon points="0,0 76.6666667,0 76.6666667,76.6666667 0,76.6666667 0,0" stroke="none" fill="#FFFFFF"></polygon></g></g></g><g transform="translate(406.0 205.0)"><g transform="translate(2.7777777777777786 2.7777777777777786)"><g transform="translate(8.080808080808081 8.08080808080808)"><g clip-path="url(#i33)"><polygon points="0,0 4.04040404,0 4.04040404,3.03030303 0,3.03030303 0,0" stroke="none" fill="#212121"></polygon></g></g><g clip-path="url(#i34)"><polygon points="0,0 44.4444444,0 44.4444444,20.2020202 0,20.2020202 0,0" stroke="none" fill="#212121"></polygon></g><g transform="translate(8.080808080808081 32.32323232323232)"><g clip-path="url(#i35)"><polygon points="0,0 4.04040404,0 4.04040404,3.03030303 0,3.03030303 0,0" stroke="none" fill="#212121"></polygon></g></g><g transform="translate(0.0 24.242424242424235)"><g clip-path="url(#i36)"><polygon points="0,0 44.4444444,0 44.4444444,20.2020202 0,20.2020202 0,0" stroke="none" fill="#212121"></polygon></g></g></g></g><g transform="translate(97.0 182.0)"><g transform="translate(9.583333333333336 9.583333333333336)"><path d="M74.6666667,-2 C75.7712362,-2 76.7712362,-1.55228475 77.4950938,-0.828427125 C78.2189514,-0.1045695 78.6666667,0.8954305 78.6666667,2 L78.6666667,74.6666667 C78.6666667,75.7712362 78.2189514,76.7712362 77.4950938,77.4950938 C76.7712362,78.2189514 75.7712362,78.6666667 74.6666667,78.6666667 L2,78.6666667 C0.8954305,78.6666667 -0.1045695,78.2189514 -0.828427125,77.4950938 C-1.55228475,76.7712362 -2,75.7712362 -2,74.6666667 L-2,2 C-2,0.8954305 -1.55228475,-0.1045695 -0.828427125,-0.828427125 C-0.1045695,-1.55228475 0.8954305,-2 2,-2 Z" stroke="none" fill="#000000" filter="url(#i37)"></path><g clip-path="url(#i32)"><polygon points="0,0 76.6666667,0 76.6666667,76.6666667 0,76.6666667 0,0" stroke="none" fill="#FFFFFF"></polygon></g></g><g transform="translate(23.0 23.0)"><g transform="translate(2.7777777777777786 2.7777777777777786)"><g clip-path="url(#i40)"><polygon points="0,0 44.4444444,0 44.4444444,44.4444444 0,44.4444444 0,0" stroke="none" fill="#000001"></polygon></g></g></g></g><g transform="translate(100.0 29.0)"><g transform="translate(9.583333333333336 9.583333333333336)"><path d="M74.6666667,-2 C75.7712362,-2 76.7712362,-1.55228475 77.4950938,-0.828427125 C78.2189514,-0.1045695 78.6666667,0.8954305 78.6666667,2 L78.6666667,74.6666667 C78.6666667,75.7712362 78.2189514,76.7712362 77.4950938,77.4950938 C76.7712362,78.2189514 75.7712362,78.6666667 74.6666667,78.6666667 L2,78.6666667 C0.8954305,78.6666667 -0.1045695,78.2189514 -0.828427125,77.4950938 C-1.55228475,76.7712362 -2,75.7712362 -2,74.6666667 L-2,2 C-2,0.8954305 -1.55228475,-0.1045695 -0.828427125,-0.828427125 C-0.1045695,-1.55228475 0.8954305,-2 2,-2 Z" stroke="none" fill="#000000" filter="url(#i41)"></path><g clip-path="url(#i32)"><polygon points="0,0 76.6666667,0 76.6666667,76.6666667 0,76.6666667 0,0" stroke="none" fill="#FFFFFF"></polygon></g></g><g transform="translate(23.0 23.0)"><g transform="translate(2.7777777777777786 2.7777777777777786)"><g transform="translate(14.141414141414138 14.141414141414138)"><g clip-path="url(#i44)"><polygon points="0,0 16.1616162,0 16.1616162,16.1616162 0,16.1616162 0,0" stroke="none" fill="#000001"></polygon></g></g><g clip-path="url(#i45)"><polygon points="0,0 44.4444444,0 44.4444444,44.4444444 0,44.4444444 0,0" stroke="none" fill="#000001"></polygon></g></g></g></g></g><g transform="translate(464.2222222222226 136.1388888888889)"><text transform="translate(14.245664062500001 11.0)" font-family="Roboto-Medium, Roboto" font-size="12.0" font-weight="400" fill="#212121" text-anchor="center" letter-spacing="0.18">Databases</text></g><g transform="translate(485.0 68.0)"><g transform="translate(2.7777777777777786 2.7777777777777786)"><g clip-path="url(#i46)"><polygon points="0,0 44.4444444,0 44.4444444,44.4444444 0,44.4444444 0,0" stroke="none" fill="#212121"></polygon></g></g></g><g transform="translate(561.2222222222226 375.5)"><path d="M0,0.5 L63.2777778,1" stroke="#969696" stroke-width="1" fill="none" stroke-miterlimit="10"></path></g><g transform="translate(561.2222222222226 423.5)"><path d="M0,0.5 L63.2777778,1" stroke="#969696" stroke-width="1" fill="none" stroke-miterlimit="10"></path></g><g transform="translate(139.49305555555515 236.8819444444443)"><g clip-path="url(#i47)"><polygon points="0,0 17.5694444,0 17.5694444,17.5694444 0,17.5694444 0,0" stroke="none" fill="#B6B8C2"></polygon></g><g transform="translate(4.62353801169591 7.8600146198830405)"><g clip-path="url(#i48)"><polygon points="0,0 8.32236842,0 8.32236842,1.3870614 0,1.3870614 0,0" stroke="none" fill="#FFFFFF"></polygon></g></g></g><g transform="translate(229.0 160.0)"><path d="M0,0 L15.2608145,3.47958915 L11.451,8.115 L234.301524,191.22737 C234.728235,191.577992 234.789918,192.208145 234.439296,192.634857 C234.088675,193.061569 233.458521,193.123252 233.03181,192.77263 L10.181,9.66 L6.37281738,14.2964051 L0,0 Z" stroke="none" fill="#000000"></path></g><g transform="translate(354.0 260.0)"><g clip-path="url(#i22)"><polygon points="0,0 24,0 24,24 0,24 0,0" stroke="none" fill="url(#i23)"></polygon></g><g transform="translate(2.0 1.0)"><g clip-path="url(#i24)"><polygon points="0,-5.55111512e-17 20,-5.55111512e-17 20,22 0,22 0,-5.55111512e-17" stroke="none" fill="#000001"></polygon></g></g></g></g></svg>