<?xml version="1.0" encoding="UTF-8"?><svg version="1.1" width="56px" height="72px" viewBox="0 0 56.0 72.0" xmlns="http://www.w3.org/2000/svg" xmlns:xlink="http://www.w3.org/1999/xlink"><defs><clipPath id="i0"><path d="M96,0 L96,96 L0,96 L0,0 L96,0 Z"></path></clipPath><clipPath id="i1"><path d="M51,0 C53.7614237,-5.07265313e-16 56,2.23857625 56,5 L56,51 C56,53.7614237 53.7614237,56 51,56 L5,56 C2.23857625,56 1.2263553e-15,53.7614237 0,51 L0,5 C-3.38176876e-16,2.23857625 2.23857625,1.39544373e-15 5,0 L51,0 Z"></path></clipPath><linearGradient id="i2" x1="1.3211654e-14px" y1="-5.44009282e-15px" x2="56px" y2="56px" gradientUnits="userSpaceOnUse"><stop stop-color="#0D0F12" offset="0%"></stop><stop stop-color="#363941" offset="100%"></stop></linearGradient><clipPath id="i3"><path d="M37,0 C38.6568542,-3.04359188e-16 40,1.34314575 40,3 L40,21 C40,22.6568542 38.6568542,24 37,24 L3,24 C1.34314575,24 6.46995335e-16,22.6568542 0,21 L0,3 C-2.02906125e-16,1.34314575 1.34314575,3.04359188e-16 3,0 L37,0 Z"></path></clipPath><clipPath id="i4"><path d="M6.25,0 C9.70125,0 12.5,2.98666667 12.5,6.66666667 C12.5,10.3466667 9.70125,13.3333333 6.25,13.3333333 C2.79875,13.3333333 0,10.3466667 0,6.66666667 C0,2.98666667 2.79875,0 6.25,0 Z M6.25,2 C3.83375,2 1.875,4.09333333 1.875,6.66666667 C1.875,9.24 3.83375,11.3333333 6.25,11.3333333 C8.66625,11.3333333 10.625,9.24 10.625,6.66666667 C10.625,4.09333333 8.66625,2 6.25,2 Z"></path></clipPath><clipPath id="i5"><path d="M16.5625,0 C19.84125,0 22.5,2.84 22.5,6.33333333 L22.5,7.66666667 C22.5,8.21333333 22.08,8.66666667 21.5625,8.66666667 C21.045,8.66666667 20.625,8.21333333 20.625,7.66666667 L20.625,6.33333333 C20.625,3.94666667 18.80625,2 16.5625,2 L5.9375,2 C3.69375,2 1.875,3.94666667 1.875,6.33333333 L1.875,7.66666667 C1.875,8.21333333 1.455,8.66666667 0.9375,8.66666667 C0.42,8.66666667 0,8.21333333 0,7.66666667 L0,6.33333333 C0,2.84 2.65875,0 5.9375,0 Z"></path></clipPath><clipPath id="i6"><path d="M1.25,0 C4.52875,0 7.1875,2.84 7.1875,6.33333333 L7.1875,7.66666667 C7.1875,8.21333333 6.7675,8.66666667 6.25,8.66666667 C5.7325,8.66666667 5.3125,8.21333333 5.3125,7.66666667 L5.3125,6.33333333 C5.3125,3.94666667 3.49375,2 1.25,2 L0.9375,2 C0.42,2 0,1.54666667 0,1 C0,0.453333333 0.42,0 0.9375,0 L1.25,0 Z"></path></clipPath><clipPath id="i7"><path d="M0.9375,0 C4.38875,0 7.1875,2.98666667 7.1875,6.66666667 C7.1875,10.3466667 4.38875,13.3333333 0.9375,13.3333333 C0.42,13.3333333 0,12.88 0,12.3333333 C0,11.7866667 0.42,11.3333333 0.9375,11.3333333 C3.35375,11.3333333 5.3125,9.24 5.3125,6.66666667 C5.3125,4.09333333 3.35375,2 0.9375,2 C0.42,2 0,1.54666667 0,1 C0,0.453333333 0.42,0 0.9375,0 Z"></path></clipPath><clipPath id="i8"><path d="M10.1253931,6.77059106 L10.2127069,6.78179304 C10.4756177,6.84645059 10.6402624,7.10508077 10.5803916,7.36371095 C10.1111869,9.41335514 9.52874834,11.0621225 8.65020975,12.6333009 C8.38469586,13.1117667 8.09835735,13.5643695 7.79249577,14.0105066 C7.64086651,14.2303423 7.33695723,14.2885341 7.11439412,14.1398217 C6.89183101,13.9911093 6.83391254,13.6872189 6.98554179,13.4673832 C7.27708645,13.0406434 7.54715573,12.6139036 7.79640038,12.1613008 C8.61897282,10.6935745 9.17407906,9.13532769 9.62831605,7.15034105 C9.68818683,6.89171087 9.9497961,6.72360125 10.2127069,6.78179304 Z M6.24171245,11.3078212 C6.37251708,11.0750541 6.66991867,10.9845335 6.90549717,11.1203143 C7.14107566,11.2496294 7.22567568,11.5405884 7.09487104,11.7798213 C6.7180756,12.4522598 6.29117092,13.0923695 5.80569699,13.7324792 C5.6443062,13.9523148 5.33844461,13.9911093 5.12303996,13.8359312 C4.90698455,13.6742874 4.86273223,13.3703969 5.02412303,13.157027 C5.48812156,12.5363146 5.89029701,11.9349994 6.24171245,11.3078212 Z M10.9812655,10.6353827 C11.2324625,10.7323691 11.3567594,11.0168623 11.2584932,11.2625609 C10.9565363,12.0319857 10.610327,12.7690817 10.2048977,13.4932462 C10.074093,13.7260134 9.77669146,13.8100682 9.54111296,13.6807531 C9.30553446,13.551438 9.22093445,13.2540133 9.35173909,13.0212462 C9.73504222,12.3358762 10.0623792,11.6375747 10.3493685,10.9134102 C10.4469839,10.6612458 10.7300685,10.5383964 10.9812655,10.6353827 Z M6.40695251,7.06996702 L6.49356018,7.08568351 C6.75321714,7.15680681 6.90614794,7.42190274 6.83391254,7.68053292 C6.47989402,8.96075232 6.06925857,9.96941003 5.54018311,10.9198759 C5.14386458,11.6311089 4.67791374,12.3035474 4.11304596,13.0277119 C3.94775055,13.2346161 3.64058743,13.2734106 3.42778585,13.1117667 C3.21498428,12.9436571 3.17658889,12.6397666 3.34253507,12.4328625 C3.88592746,11.734561 4.32064138,11.1009171 4.68702451,10.4478759 C5.17249843,9.58146475 5.55645234,8.63746459 5.89290008,7.42190274 C5.96513548,7.16327256 6.23390321,7.01456021 6.49356018,7.08568351 Z M3.13168581,9.58793051 C3.26249044,9.35516335 3.55989203,9.27110854 3.79547053,9.40042363 C4.03104903,9.52973872 4.11564904,9.82716343 3.9848444,10.0599306 C3.63668281,10.6871088 3.2188889,11.2948897 2.68135343,11.9737939 C2.51540725,12.1871638 2.20889489,12.2259584 1.99674409,12.0578487 C1.78394252,11.8962049 1.7461979,11.5923144 1.91214408,11.3789445 C2.42755339,10.7259033 2.81411037,10.1569169 3.13168581,9.58793051 Z M12.740295,3.29675135 C12.977175,3.16743626 13.2732751,3.25795683 13.4021274,3.49072399 C14.1583214,4.87439546 14.4309937,6.52316286 14.0535475,8.17193027 C13.7958429,9.29697156 13.496489,10.3508895 13.1242489,11.366013 C13.0318397,11.6181774 12.7520088,11.7474925 12.4982088,11.656972 C12.2450595,11.5664514 12.1149057,11.288424 12.2073149,11.0362595 C12.562635,10.0663963 12.8509258,9.05127288 13.101472,7.95856037 C13.4249043,6.54256013 13.1919289,5.13302564 12.5450642,3.95625832 C12.4162119,3.72349115 12.503415,3.42606644 12.740295,3.29675135 Z M6.58466789,5.650286 C6.9048464,5.3657928 7.35582954,5.23001196 7.80811423,5.33346403 C8.54999127,5.50157365 9.01464057,6.23866966 8.84609131,6.97576568 C8.54608665,8.28184809 8.20573429,9.38749212 7.77427422,10.3961498 C7.66884959,10.6418485 7.38251109,10.7582321 7.13456797,10.6483143 C6.88662486,10.5448622 6.77078791,10.260369 6.87621255,10.0146703 C7.27838799,9.07067015 7.60377266,8.02321791 7.89401578,6.75593003 C7.94282348,6.54256013 7.80746346,6.32919023 7.59140804,6.28392995 C7.46060341,6.25160117 7.329148,6.2903957 7.23478645,6.37445051 C7.03369872,6.54902588 6.72523406,6.53609437 6.54562173,6.33565598 C6.36600939,6.13521759 6.38358016,5.82486137 6.58466789,5.650286 Z M7.39357417,2.2234361 C7.42936648,2.48853204 7.24194491,2.73423071 6.97447872,2.77302524 C5.3833477,2.97992938 4.01868441,4.15023095 3.64253973,5.79899836 C3.27941045,7.38310822 2.89871039,8.3659029 2.43015647,9.19998524 C2.21995797,9.58146475 1.97591947,9.95647852 1.6720102,10.3702868 C1.51322248,10.5901225 1.20801166,10.6353827 0.990003936,10.4802046 C0.771996209,10.3185608 0.723839279,10.0211361 0.881976226,9.80130041 C1.16636242,9.41335514 1.38827477,9.07067015 1.5763471,8.73445091 C1.98958563,7.99088914 2.34230261,7.10508077 2.6904642,5.58562846 C3.16031966,3.52951852 4.86273223,2.07472375 6.84432485,1.80962781 C7.11179104,1.77083328 7.35713108,1.95834017 7.39357417,2.2234361 Z M8.59684666,1.88721687 C11.2545886,2.48853204 12.9192566,5.11362838 12.3146919,7.75812198 C12.1793318,8.34650564 12.0342103,8.90902628 11.874121,9.45861542 C11.7986318,9.71077985 11.5279117,9.8594922 11.2689055,9.7883689 C11.0105501,9.71077985 10.8615239,9.43921816 10.9370132,9.18705373 C11.0912455,8.66332761 11.2318117,8.11373848 11.3626163,7.54475208 C11.8474395,5.42398459 10.5120608,3.31614862 8.38014047,2.83121703 C8.11722966,2.77302524 7.95258502,2.51439506 8.0124558,2.25576487 C8.07232658,1.99066894 8.33393585,1.82902508 8.59684666,1.88721687 Z M4.42476447,5.97357373 C4.81132145,4.2860118 6.50267095,3.22562805 8.20248045,3.61357333 C9.298376,3.859272 10.1294084,4.64809405 10.4782208,5.62442298 C10.5686777,5.87658741 10.4359208,6.15461485 10.18147,6.24513542 C9.92766994,6.33565598 9.6484899,6.19987514 9.55868373,5.94771071 C9.31659754,5.26880648 8.74196822,4.7256831 7.98577426,4.55757349 C6.81178638,4.29247755 5.64365543,5.02310781 5.37684,6.18694363 C5.22260767,6.8593821 5.04299534,7.53182057 4.81392453,8.19132753 C4.72607067,8.44349196 4.44819217,8.5792728 4.19309059,8.49521799 C3.93863978,8.40469743 3.80327976,8.12666999 3.89178439,7.87450556 C4.10523673,7.26025888 4.27573829,6.62661494 4.42476447,5.97357373 Z M1.5743948,3.49072399 C1.70259635,3.25795683 1.99934717,3.16743626 2.23622721,3.29675135 C2.47310724,3.42606644 2.56031033,3.72349115 2.43210878,3.95625832 C2.18611797,4.40239538 1.99739486,4.89379272 1.87700254,5.42398459 C1.5594271,6.80765606 1.25096244,7.56414934 0.915165462,8.16546451 C0.784360827,8.39823168 0.486959242,8.48228648 0.251380743,8.35297139 C0.0158022452,8.2236563 -0.0694485373,7.9262316 0.0613560985,7.69346443 C0.341186911,7.19560133 0.621668494,6.52962862 0.924927002,5.20414894 C1.06549318,4.59636801 1.28610398,4.02091586 1.5743948,3.49072399 Z M2.47766263,2.2234361 C4.05577826,0.477682379 6.5143848,-0.388728728 8.98210211,0.167326162 C10.3942716,0.484148134 11.6020994,1.2277099 12.5008119,2.2234361 C12.6804242,2.42387449 12.6635042,2.72776495 12.4624165,2.90880608 C12.2619795,3.08338145 11.9535149,3.07044994 11.7732518,2.87001155 C11.005344,2.01653196 9.97387457,1.38288801 8.76539592,1.11132632 C6.65690328,0.639326242 4.55491834,1.37642226 3.2039212,2.87001155 C3.0236581,3.07044994 2.71519344,3.08338145 2.51410571,2.90880608 C2.31366876,2.72776495 2.29739952,2.42387449 2.47766263,2.2234361 Z"></path></clipPath><clipPath id="i9"><path d="M7.5527864,0.223606798 C7.8343139,0.0828430524 8.1656861,0.0828430524 8.4472136,0.223606798 L15.4472136,3.7236068 C15.7859976,3.89299881 16,4.23926193 16,4.61803399 L16,11 C16,11.5522847 15.5522847,12 15,12 L1,12 C0.44771525,12 6.76353751e-17,11.5522847 0,11 L0,4.61803399 C-4.63861989e-17,4.23926193 0.214002376,3.89299881 0.552786405,3.7236068 Z"></path></clipPath></defs><g transform="translate(-20.0 -12.0)"><g clip-path="url(#i0)"><g transform="translate(20.0 12.0)"><g clip-path="url(#i1)"><polygon points="0,0 56,0 56,56 0,56 0,0" stroke="none" fill="url(#i2)"></polygon></g><g transform="translate(8.0 48.0)"><g clip-path="url(#i3)"><polygon points="0,0 40,0 40,24 0,24 0,0" stroke="none" fill="#F2F2F3"></polygon><path d="M3,0 L37,0 C38.6568542,-3.04359188e-16 40,1.34314575 40,3 L40,21 C40,22.6568542 38.6568542,24 37,24 L3,24 C1.34314575,24 6.46995335e-16,22.6568542 0,21 L0,3 C-2.02906125e-16,1.34314575 1.34314575,3.04359188e-16 3,0 Z" stroke="#1C1D1F" stroke-width="2" fill="none" stroke-miterlimit="5"></path></g></g><g transform="translate(10.0 4.0)"><g transform="translate(3.0 6.0)"><g transform="translate(4.999999999999979 0.0)"><g clip-path="url(#i4)"><polygon points="0,0 12.5,0 12.5,13.3333333 0,13.3333333 0,0" stroke="none" fill="#FFFFFF"></polygon></g></g><g transform="translate(0.0 15.33333333333334)"><g clip-path="url(#i5)"><polygon points="0,0 22.5,0 22.5,8.66666667 0,8.66666667 0,0" stroke="none" fill="#FFFFFF"></polygon></g></g><g transform="translate(22.81250000000002 15.33333333333334)"><g clip-path="url(#i6)"><polygon points="0,0 7.1875,0 7.1875,8.66666667 0,8.66666667 0,0" stroke="none" fill="#FFFFFF"></polygon></g></g><g transform="translate(17.81249999999999 0.0)"><g clip-path="url(#i7)"><polygon points="0,0 7.1875,0 7.1875,13.3333333 0,13.3333333 0,0" stroke="none" fill="#FFFFFF"></polygon></g></g></g></g><g transform="translate(20.0 54.0)"><g transform="translate(0.8888888888888893 0.8888888888888893)"><g clip-path="url(#i8)"><polygon points="2.08166817e-17,5.55111512e-17 14.2222222,5.55111512e-17 14.2222222,14.2222222 2.08166817e-17,14.2222222 2.08166817e-17,5.55111512e-17" stroke="none" fill="#212121"></polygon></g></g></g><g transform="translate(20.0 41.0)"><g clip-path="url(#i9)"><polygon points="0,0.118033989 16,0.118033989 16,12 0,12 0,0.118033989" stroke="none" fill="#F2F2F3"></polygon><path d="M1,12 L15,12 C15.5522847,12 16,11.5522847 16,11 L16,4.61803399 C16,4.23926193 15.7859976,3.89299881 15.4472136,3.7236068 L8.4472136,0.223606798 C8.1656861,0.0828430524 7.8343139,0.0828430524 7.5527864,0.223606798 L0.552786405,3.7236068 C0.214002376,3.89299881 -4.63861989e-17,4.23926193 0,4.61803399 L0,11 C6.76353751e-17,11.5522847 0.44771525,12 1,12 Z" stroke="#1C1D1F" stroke-width="2" fill="none" stroke-miterlimit="5"></path></g></g></g></g></g></svg>